<svg width="1467" height="782" viewBox="0 0 1467 782" fill="none" xmlns="http://www.w3.org/2000/svg">
<g clip-path="url(#clip0_699_23013)">
<path d="M205.186 256.051L175.401 295.379C165.884 289.593 149.74 282.963 130.316 282.963C84.8095 282.963 58.337 319.82 58.337 353.752C58.337 384.402 80.2621 406.731 112.906 406.731C131.551 406.731 148.506 399.255 155.522 396.785L175.791 439.038C172.477 441.508 143.504 456.817 104.234 456.817C33.0988 456.817 0 406.341 0 354.598C0 286.278 57.1027 233.3 135.676 233.3C149.318 233.3 177.869 234.957 205.154 256.051" fill="white"/>
<path d="M371.818 334.284C371.818 302.854 356.097 282.963 327.156 282.963C289.899 282.963 261.77 315.27 261.77 354.598C261.77 379.007 272.522 407.153 307.31 407.153C342.097 407.153 371.818 376.504 371.818 334.284ZM361.489 452.689L360.644 425.355C347.392 443.133 313.871 456.817 293.213 456.817C229.094 456.817 199.73 407.966 199.73 355.833C199.73 292.486 243.158 233.3 315.95 233.3C345.313 233.3 364.802 242.823 384.648 265.184L394.977 237.46H443.83L411.965 410.079L407.808 452.721H361.489V452.689Z" fill="white"/>
<path d="M529.354 239.508L530.588 273.863C544.23 248.186 578.563 237.428 605.88 237.428L593.473 299.539C571.515 299.539 534.713 297.069 526.041 344.23L506.617 452.689H447.857L480.956 271.782L482.19 239.475H529.354V239.508Z" fill="white"/>
<path d="M770.301 328.076C770.301 301.164 751.689 282.931 722.326 282.931C686.336 282.931 657.817 311.077 657.817 345.042C657.817 369.451 672.694 390.967 705.792 390.967C746.33 390.967 770.301 358.693 770.301 328.076M616.013 457.629C638.75 470.858 669.381 473.75 683.867 473.75C725.639 473.75 745.485 449.341 752.534 421.194L754.612 412.094C738.891 429.06 717.356 439.396 691.728 439.396C649.112 439.396 601.137 411.281 601.137 345.855C601.137 280.428 647.878 233.267 721.091 233.267C741.36 233.267 769.489 241.978 782.741 263.072L791.447 237.395H840.266L808.402 414.141C793.493 494.877 749.643 523.023 681.399 523.023C651.613 523.023 618.092 516.003 592.432 499.849L616.013 457.629V457.629Z" fill="white"/>
<path d="M1024.28 334.284C1024.28 302.854 1008.55 282.963 979.613 282.963C942.357 282.963 914.227 315.27 914.227 354.598C914.227 379.007 924.979 407.153 959.767 407.153C994.555 407.153 1024.28 376.504 1024.28 334.284ZM1013.95 452.689L1013.1 425.355C999.849 443.133 966.328 456.817 945.67 456.817C881.551 456.817 852.188 407.966 852.188 355.833C852.188 292.486 895.616 233.3 968.407 233.3C997.77 233.3 1017.23 242.823 1037.11 265.184L1047.43 237.46H1096.29L1064.42 410.079L1060.26 452.721H1013.95V452.689Z" fill="white"/>
<path d="M692.347 581.202L662.561 620.53C653.044 614.744 636.9 608.114 617.476 608.114C571.97 608.114 545.497 644.971 545.497 678.903C545.497 709.553 567.422 731.882 600.066 731.882C618.711 731.882 635.666 724.406 642.682 721.936L662.951 764.189C659.638 766.659 630.664 781.967 591.394 781.967C520.226 781.967 487.16 731.459 487.16 679.716C487.16 611.397 544.263 558.418 622.836 558.418C636.478 558.418 665.03 560.076 692.314 581.17" fill="white"/>
<path d="M793.168 661.937C807.623 661.937 839.487 658.622 839.487 633.791C839.487 617.67 826.235 612.274 808.045 612.274C773.29 612.274 753.021 631.743 743.536 655.339C756.334 659.045 779.526 661.937 793.168 661.937M809.279 558.451C857.254 558.451 895.323 582.86 895.323 634.213C895.323 685.566 851.863 705.425 803.043 705.425C786.51 705.425 764.162 703.345 743.082 696.292C742.659 712.023 760.037 735.62 803.043 735.62C813.794 735.62 835.329 733.962 859.301 721.124L877.491 760.874C856.41 772.444 832.406 781.967 798.463 781.967C725.671 781.967 685.557 740.137 685.557 680.561C685.557 611.819 738.502 558.418 809.247 558.418" fill="white"/>
<path d="M985.785 564.659L987.02 599.013C1000.66 573.337 1035 562.578 1062.31 562.578L1049.9 624.69C1027.95 624.69 991.145 622.22 982.472 669.38L963.048 777.84H904.289L937.388 596.933L938.622 564.626H985.785V564.659Z" fill="white"/>
<path d="M1172.85 500.5L1161.67 562.611H1211.31L1204.26 604.864H1154.2L1136.44 706.693C1134.78 717.028 1133.54 731.524 1145.95 731.524C1164.14 731.524 1177.78 729.444 1184.83 729.054L1187.72 767.537C1193.12 764.644 1161.25 777.905 1130.62 777.905C1078.1 777.905 1073.52 738.967 1079.33 706.725L1097.52 604.896H1067.31L1073.94 570.119L1105.38 563.066L1125.65 500.564H1172.85V500.5Z" fill="white"/>
<path d="M1380.21 659.435C1380.21 628.005 1364.49 608.114 1335.55 608.114C1298.29 608.114 1270.16 640.421 1270.16 679.748C1270.16 704.157 1280.91 732.304 1315.7 732.304C1350.49 732.304 1380.21 701.655 1380.21 659.435ZM1369.88 777.84L1369.07 750.505C1355.82 768.284 1322.29 781.967 1301.64 781.967C1237.52 781.967 1208.15 733.117 1208.15 680.984C1208.15 617.637 1251.58 558.451 1324.37 558.451C1353.74 558.451 1373.23 567.974 1393.07 590.335L1403.4 562.611H1452.25L1420.39 735.229L1416.23 777.84H1369.91H1369.88Z" fill="white"/>
<path d="M1263.92 493.739C1278.93 493.739 1295.04 492.894 1312.32 491.204C1317.39 490.716 1321.12 486.199 1320.64 481.096C1320.15 476.025 1315.7 472.255 1310.54 472.775C1176.19 485.873 1143.35 442.483 1130.33 408.681C1122.66 388.757 1124.97 364.316 1127.21 340.654C1128.12 331.001 1129 321.835 1129.16 313.222C1129.26 307.405 1129.32 301.879 1129.39 296.614C1129.68 269.637 1129.87 250.136 1136.76 230.83C1147.02 202.033 1169.14 187.407 1188.66 174.471C1196.88 169.011 1204.68 163.875 1210.69 158.123C1240.47 129.586 1248.07 75.5023 1248.37 73.2271C1252.62 26.2291 1267.82 19.1762 1283.64 18.4936C1291.96 18.3311 1298.55 20.8013 1303.81 26.2616C1313.59 36.3698 1318.36 56.001 1316.9 80.1501C1316.54 97.3437 1313.13 144.764 1301.41 162.12C1290.56 178.144 1274.61 191.925 1274.45 192.055C1271.43 194.655 1270.42 198.88 1271.91 202.553C1273.21 205.803 1303.23 282.605 1239.89 331.586C1235.86 334.706 1235.11 340.524 1238.2 344.554C1241.35 348.585 1247.13 349.332 1251.19 346.212C1314.47 297.296 1297.87 223.614 1291.18 201.838C1297.28 196.085 1308.2 185.067 1316.71 172.488C1333.63 147.494 1335.25 87.6255 1335.38 80.8651C1336.42 64.029 1335.45 32.307 1317.13 13.3583C1308.29 4.1927 1296.37 -0.357588 1282.99 -0.0325674C1241.06 1.78755 1232.68 41.4726 1229.98 71.1145C1229.98 71.1795 1222.93 120.68 1197.86 144.699C1193.05 149.282 1186.29 153.767 1178.43 158.968C1157.61 172.748 1131.66 189.942 1119.35 224.524C1111.42 246.756 1111.2 268.63 1110.9 296.354C1110.84 301.587 1110.81 307.047 1110.68 312.832C1110.51 320.763 1109.7 329.571 1108.82 338.867C1106.49 363.438 1103.85 391.292 1113.08 415.279C1133.51 468.257 1181.94 493.674 1263.92 493.674" fill="white"/>
<path d="M1412.59 424.445C1427.66 424.445 1439.29 434.585 1439.62 448.041L1439.71 452.266C1440.04 465.592 1427.44 476.773 1411.59 477.228L1342.24 476.871H1341.1C1325.64 476.871 1312.84 466.307 1312.52 453.307L1312.42 449.114C1312.09 435.723 1324.76 424.51 1340.68 424.12L1411.49 424.445C1411.49 424.445 1412.59 424.445 1412.63 424.445M1411.75 495.722C1411.75 495.722 1411.91 495.722 1411.98 495.722C1438.06 495.072 1458.81 475.343 1458.26 451.779L1458.16 447.554C1457.58 423.827 1438.03 405.918 1412.66 405.918H1411.36L1340.55 405.626C1314.17 406.276 1293.42 425.972 1294 449.569L1294.1 453.762C1294.68 477.098 1315.38 495.364 1341.2 495.364H1342.5L1411.72 495.722H1411.78H1411.75Z" fill="white"/>
<path d="M1324.34 339.257H1419.64C1435.56 339.289 1448.48 351.835 1448.48 367.208V371.856C1448.48 387.23 1435.52 399.743 1419.64 399.743H1324.34C1308.42 399.743 1295.5 387.197 1295.5 371.824V367.208C1295.5 351.802 1308.46 339.289 1324.34 339.289M1419.61 418.269C1445.72 418.269 1466.93 397.468 1466.93 371.889V367.241C1466.93 341.662 1445.72 320.828 1419.61 320.795H1324.34C1298.22 320.795 1276.98 341.564 1276.95 367.143V371.759C1276.95 397.37 1298.19 418.204 1324.27 418.204H1419.58L1419.61 418.269Z" fill="white"/>
<path d="M1324.37 260.472H1419.67C1435.59 260.504 1448.52 273.018 1448.52 288.423V293.071C1448.52 308.477 1435.56 320.958 1419.67 320.958H1324.37C1316.64 320.958 1309.37 318 1303.91 312.67C1298.52 307.405 1295.56 300.417 1295.56 293.006V288.359C1295.56 272.985 1308.52 260.472 1324.41 260.472M1419.67 339.452H1419.71C1445.82 339.452 1467.03 318.65 1467.03 293.039V288.423C1467.03 262.812 1445.82 241.978 1419.71 241.978H1324.44C1298.32 241.978 1277.05 262.747 1277.05 288.326V292.974C1277.05 305.39 1281.98 317.09 1290.98 325.866C1299.91 334.576 1311.77 339.387 1324.37 339.387H1419.64L1419.67 339.452Z" fill="white"/>
<path d="M1324.34 181.654H1419.64C1435.56 181.687 1448.49 194.2 1448.49 209.606V214.221C1448.49 229.627 1435.53 242.14 1419.64 242.14H1324.34C1316.61 242.14 1309.33 239.215 1303.88 233.885C1298.49 228.62 1295.53 221.632 1295.53 214.221V209.573C1295.53 194.2 1308.49 181.719 1324.37 181.719M1419.64 260.699H1419.67C1445.79 260.699 1467 239.898 1467 214.286V209.671C1467 184.059 1445.79 163.225 1419.67 163.225H1324.37C1298.26 163.225 1277.02 183.994 1277.02 209.573V214.221C1277.02 226.637 1281.95 238.338 1290.95 247.113C1299.88 255.824 1311.74 260.634 1324.34 260.634H1419.61L1419.64 260.699Z" fill="white"/>
</g>
<defs>
<clipPath id="clip0_699_23013">
<rect width="1467" height="782" fill="white"/>
</clipPath>
</defs>
</svg>
