<svg width="390" height="245" viewBox="0 0 390 245" fill="none" xmlns="http://www.w3.org/2000/svg">
<g clip-path="url(#clip0_658_23258)">
<path d="M305.057 193.133H308.487C309.481 193.133 310.293 193.945 310.293 194.938V200.55C310.293 201.233 309.739 201.786 309.056 201.786H305.049V193.133H305.057Z" fill="#D3DEF1"/>
<path d="M298.015 200.406H156.888V214.019H298.015V200.406Z" fill="#342745"/>
<path d="M251.188 206.064H312.691C313.146 206.064 313.518 206.435 313.518 206.89V212.161C313.518 212.616 313.146 212.988 312.691 212.988H251.188V206.064Z" fill="#B5C8E8"/>
<path d="M250.064 206.064H311.568C312.023 206.064 312.395 206.435 312.395 206.89V212.161C312.395 212.616 312.023 212.988 311.568 212.988H250.064V206.064Z" fill="#7E94C6"/>
<path d="M248.979 218.934H310.482C310.937 218.934 311.309 219.305 311.309 219.76V228.36C311.309 228.815 310.937 229.187 310.482 229.187H248.979V218.934Z" fill="#B5C8E8"/>
<path d="M247.856 218.934H309.359C309.814 218.934 310.186 219.305 310.186 219.76V228.36C310.186 228.815 309.814 229.187 309.359 229.187H247.856V218.934Z" fill="#B5C8E8"/>
<path d="M296.467 221.323C296.467 214.11 293.97 207.679 290.062 203.462L291.383 198.328H279.158C269.597 198.328 261.849 208.619 261.849 221.323C261.849 234.026 269.597 244.317 279.158 244.317H291.383L290.062 239.183C293.97 234.966 296.467 228.535 296.467 221.33V221.323Z" fill="#342745"/>
<path d="M308.684 221.323C308.684 234.018 300.937 244.317 291.375 244.317C281.814 244.317 274.066 234.026 274.066 221.323C274.066 208.619 281.814 198.328 291.375 198.328C300.937 198.328 308.684 208.619 308.684 221.323Z" fill="#493A5B"/>
<path d="M302.007 221.323C302.007 229.991 297.142 237.31 291.375 237.31C291.254 237.31 291.133 237.31 291.011 237.302C285.411 237.006 280.744 229.809 280.744 221.323C280.744 212.836 285.411 205.639 291.011 205.343C291.133 205.343 291.254 205.336 291.375 205.336C297.135 205.336 302.007 212.662 302.007 221.323Z" fill="#7E94C6"/>
<path d="M301.285 221.323C301.285 229.809 296.619 236.999 291.018 237.302C285.418 237.006 280.751 229.809 280.751 221.323C280.751 212.836 285.418 205.639 291.018 205.343C296.619 205.639 301.285 212.836 301.285 221.323Z" fill="#D0DCF2"/>
<path d="M290.897 228.042C288.477 228.042 286.428 224.963 286.428 221.315C286.428 217.667 288.477 214.588 290.897 214.588C293.318 214.588 295.367 217.667 295.367 221.315C295.367 224.963 293.318 228.042 290.897 228.042Z" fill="#E3EAF7"/>
<path d="M291.375 228.042C288.955 228.042 286.906 224.963 286.906 221.315C286.906 217.667 288.955 214.588 291.375 214.588C293.796 214.588 295.845 217.667 295.845 221.315C295.845 224.963 293.796 228.042 291.375 228.042Z" fill="#E3EAF7"/>
<path d="M291.998 222.968C291.406 222.968 290.905 222.21 290.905 221.322C290.905 220.435 291.406 219.677 291.998 219.677C292.589 219.677 293.09 220.435 293.09 221.322C293.09 222.21 292.589 222.968 291.998 222.968Z" fill="#F4F7FC"/>
<path d="M290.047 210.606C290.047 211.372 290.419 212.04 290.897 212.214C290.973 212.245 291.056 212.26 291.14 212.26C291.731 212.26 292.232 211.501 292.232 210.614C292.232 209.727 291.731 208.968 291.14 208.968C291.056 208.968 290.973 208.983 290.897 209.014C290.419 209.188 290.047 209.848 290.047 210.622V210.606Z" fill="#7E94C6"/>
<path d="M282.353 221.383C282.353 222.149 282.724 222.817 283.202 222.991C283.278 223.021 283.362 223.037 283.445 223.037C284.037 223.037 284.538 222.278 284.538 221.391C284.538 220.503 284.037 219.745 283.445 219.745C283.362 219.745 283.278 219.76 283.202 219.791C282.724 219.965 282.353 220.625 282.353 221.398V221.383Z" fill="#7E94C6"/>
<path d="M284.963 214.027C284.963 214.793 285.335 215.46 285.813 215.635C285.889 215.665 285.972 215.68 286.056 215.68C286.648 215.68 287.156 214.922 287.156 214.034C287.156 213.147 286.655 212.389 286.056 212.389C285.972 212.389 285.889 212.404 285.813 212.434C285.335 212.609 284.963 213.268 284.963 214.042V214.027Z" fill="#7E94C6"/>
<path d="M295.609 229.43C295.609 230.196 295.981 230.863 296.459 231.037C296.535 231.068 296.619 231.083 296.702 231.083C297.294 231.083 297.795 230.325 297.795 229.437C297.795 228.55 297.294 227.792 296.702 227.792C296.619 227.792 296.535 227.807 296.459 227.837C295.981 228.011 295.609 228.671 295.609 229.445V229.43Z" fill="#7E94C6"/>
<path d="M284.477 229.43C284.477 230.196 284.849 230.863 285.327 231.037C285.403 231.068 285.486 231.083 285.57 231.083C286.162 231.083 286.662 230.325 286.662 229.437C286.662 228.55 286.162 227.792 285.57 227.792C285.486 227.792 285.403 227.807 285.327 227.837C284.849 228.011 284.477 228.671 284.477 229.445V229.43Z" fill="#7E94C6"/>
<path d="M295.609 214.595C295.609 215.361 295.981 216.029 296.459 216.203C296.535 216.234 296.619 216.249 296.702 216.249C297.294 216.249 297.795 215.49 297.795 214.595C297.795 213.701 297.294 212.95 296.702 212.95C296.619 212.95 296.535 212.965 296.459 212.995C295.981 213.17 295.609 213.829 295.609 214.603V214.595Z" fill="#7E94C6"/>
<path d="M297.172 221.383C297.172 222.149 297.544 222.817 298.022 222.991C298.098 223.021 298.182 223.037 298.265 223.037C298.857 223.037 299.358 222.278 299.358 221.391C299.358 220.503 298.857 219.745 298.265 219.745C298.182 219.745 298.098 219.76 298.022 219.791C297.544 219.965 297.172 220.625 297.172 221.398V221.383Z" fill="#7E94C6"/>
<path d="M290.047 232.387C290.047 233.153 290.419 233.821 290.897 233.995C290.973 234.026 291.056 234.041 291.14 234.041C291.731 234.041 292.232 233.282 292.232 232.395C292.232 231.508 291.731 230.749 291.14 230.749C291.056 230.749 290.973 230.764 290.897 230.795C290.419 230.969 290.047 231.629 290.047 232.403V232.387Z" fill="#7E94C6"/>
<path d="M290.047 210.606C290.047 211.372 290.419 212.04 290.897 212.214C291.375 212.04 291.747 211.38 291.747 210.606C291.747 209.833 291.375 209.173 290.897 208.999C290.419 209.173 290.047 209.833 290.047 210.606Z" fill="#B5C8E8"/>
<path d="M282.353 221.383C282.353 222.149 282.724 222.816 283.202 222.991C283.68 222.816 284.052 222.156 284.052 221.383C284.052 220.609 283.68 219.95 283.202 219.775C282.724 219.95 282.353 220.609 282.353 221.383Z" fill="#B5C8E8"/>
<path d="M284.963 214.027C284.963 214.793 285.335 215.46 285.813 215.635C286.291 215.46 286.663 214.8 286.663 214.027C286.663 213.253 286.291 212.593 285.813 212.419C285.335 212.593 284.963 213.253 284.963 214.027Z" fill="#B5C8E8"/>
<path d="M295.609 229.43C295.609 230.196 295.981 230.863 296.459 231.037C296.937 230.863 297.309 230.203 297.309 229.43C297.309 228.656 296.937 227.996 296.459 227.822C295.981 227.996 295.609 228.656 295.609 229.43Z" fill="#B5C8E8"/>
<path d="M284.477 229.43C284.477 230.196 284.849 230.863 285.327 231.037C285.805 230.863 286.177 230.203 286.177 229.43C286.177 228.656 285.805 227.996 285.327 227.822C284.849 227.996 284.477 228.656 284.477 229.43Z" fill="#B5C8E8"/>
<path d="M295.609 214.595C295.609 215.361 295.981 216.029 296.459 216.203C296.937 216.029 297.309 215.369 297.309 214.595C297.309 213.822 296.937 213.162 296.459 212.988C295.981 213.162 295.609 213.822 295.609 214.595Z" fill="#B5C8E8"/>
<path d="M297.172 221.383C297.172 222.149 297.544 222.816 298.022 222.991C298.5 222.816 298.872 222.156 298.872 221.383C298.872 220.609 298.5 219.95 298.022 219.775C297.544 219.95 297.172 220.609 297.172 221.383Z" fill="#B5C8E8"/>
<path d="M290.047 232.387C290.047 233.153 290.419 233.821 290.897 233.995C291.375 233.821 291.747 233.161 291.747 232.387C291.747 231.614 291.375 230.954 290.897 230.78C290.419 230.954 290.047 231.614 290.047 232.387Z" fill="#B5C8E8"/>
<path d="M154.922 206.064H225.858C226.753 206.064 227.482 206.792 227.482 207.687V227.807C227.482 228.702 226.753 229.43 225.858 229.43H154.922C154.027 229.43 153.298 228.702 153.298 227.807V207.687C153.298 206.792 154.027 206.064 154.922 206.064Z" fill="white"/>
<path d="M156.926 206.064H227.861C228.757 206.064 229.485 206.792 229.485 207.687V227.807C229.485 228.702 228.757 229.43 227.861 229.43H156.926C156.03 229.43 155.302 228.702 155.302 227.807V207.687C155.302 206.792 156.03 206.064 156.926 206.064Z" fill="#7E94C6"/>
<path d="M229.265 210.174H154.004C153.23 210.174 152.6 209.514 152.6 208.703V208.574C152.6 207.763 153.23 207.103 154.004 207.103H229.591C230.312 207.103 230.896 207.717 230.896 208.468C230.896 209.416 230.168 210.182 229.265 210.182V210.174Z" fill="#D0DCF2"/>
<path d="M229.265 227.784H154.004C153.23 227.784 152.6 227.124 152.6 226.305V226.176C152.6 225.365 153.23 224.705 154.004 224.705H229.591C230.312 224.705 230.896 225.319 230.896 226.07C230.896 227.018 230.168 227.784 229.265 227.784Z" fill="#D0DCF2"/>
<path d="M258.267 221.323C258.267 214.11 255.77 207.679 251.862 203.462L253.183 198.328H240.966C231.404 198.328 223.657 208.619 223.657 221.323C223.657 234.026 231.404 244.317 240.966 244.317H253.183L251.862 239.183C255.77 234.966 258.267 228.535 258.267 221.33V221.323Z" fill="#342745"/>
<path d="M270.484 221.323C270.484 234.018 262.736 244.317 253.175 244.317C243.614 244.317 235.866 234.026 235.866 221.323C235.866 208.619 243.614 198.328 253.175 198.328C262.736 198.328 270.484 208.619 270.484 221.323Z" fill="#493A5B"/>
<path d="M263.807 221.323C263.807 229.991 258.942 237.31 253.183 237.31C253.062 237.31 252.94 237.31 252.819 237.302C247.219 237.006 242.552 229.809 242.552 221.323C242.552 212.836 247.219 205.639 252.819 205.343C252.94 205.343 253.062 205.336 253.183 205.336C258.942 205.336 263.807 212.662 263.807 221.323Z" fill="#7E94C6"/>
<path d="M263.086 221.323C263.086 229.809 258.419 236.999 252.819 237.302C247.219 237.006 242.552 229.809 242.552 221.323C242.552 212.836 247.219 205.639 252.819 205.343C258.419 205.639 263.086 212.836 263.086 221.323Z" fill="#D0DCF2"/>
<path d="M253.554 228.042C251.134 228.042 249.085 224.963 249.085 221.315C249.085 217.667 251.134 214.588 253.554 214.588C255.975 214.588 258.024 217.667 258.024 221.315C258.024 224.963 255.975 228.042 253.554 228.042Z" fill="#E3EAF7"/>
<path d="M253.175 228.042C250.754 228.042 248.706 224.963 248.706 221.315C248.706 217.667 250.754 214.588 253.175 214.588C255.596 214.588 257.645 217.667 257.645 221.315C257.645 224.963 255.596 228.042 253.175 228.042Z" fill="#E3EAF7"/>
<path d="M252.819 222.968C252.227 222.968 251.726 222.21 251.726 221.322C251.726 220.435 252.227 219.677 252.819 219.677C253.411 219.677 253.911 220.435 253.911 221.322C253.911 222.21 253.411 222.968 252.819 222.968Z" fill="#E3EAF7"/>
<path d="M253.175 222.968C252.583 222.968 252.083 222.21 252.083 221.322C252.083 220.435 252.583 219.677 253.175 219.677C253.767 219.677 254.268 220.435 254.268 221.322C254.268 222.21 253.767 222.968 253.175 222.968Z" fill="#F4F7FC"/>
<path d="M251.847 210.606C251.847 211.372 252.219 212.04 252.697 212.214C252.773 212.245 252.856 212.26 252.94 212.26C253.532 212.26 254.033 211.501 254.033 210.614C254.033 209.727 253.532 208.968 252.94 208.968C252.856 208.968 252.773 208.983 252.697 209.014C252.219 209.188 251.847 209.848 251.847 210.622V210.606Z" fill="#7E94C6"/>
<path d="M244.153 221.383C244.153 222.149 244.525 222.817 245.003 222.991C245.079 223.021 245.162 223.037 245.246 223.037C245.837 223.037 246.338 222.278 246.338 221.391C246.338 220.503 245.837 219.745 245.246 219.745C245.162 219.745 245.079 219.76 245.003 219.791C244.525 219.965 244.153 220.625 244.153 221.398V221.383Z" fill="#7E94C6"/>
<path d="M246.763 214.027C246.763 214.793 247.135 215.46 247.613 215.635C247.689 215.665 247.772 215.68 247.856 215.68C248.448 215.68 248.956 214.922 248.956 214.034C248.956 213.147 248.455 212.389 247.856 212.389C247.772 212.389 247.689 212.404 247.613 212.434C247.135 212.609 246.763 213.268 246.763 214.042V214.027Z" fill="#7E94C6"/>
<path d="M257.417 229.43C257.417 230.196 257.789 230.863 258.267 231.037C258.343 231.068 258.426 231.083 258.51 231.083C259.102 231.083 259.602 230.325 259.602 229.437C259.602 228.55 259.102 227.792 258.51 227.792C258.426 227.792 258.343 227.807 258.267 227.837C257.789 228.011 257.417 228.671 257.417 229.445V229.43Z" fill="#7E94C6"/>
<path d="M246.285 229.43C246.285 230.196 246.657 230.863 247.135 231.037C247.211 231.068 247.294 231.083 247.378 231.083C247.97 231.083 248.471 230.325 248.471 229.437C248.471 228.55 247.97 227.792 247.378 227.792C247.294 227.792 247.211 227.807 247.135 227.837C246.657 228.011 246.285 228.671 246.285 229.445V229.43Z" fill="#7E94C6"/>
<path d="M257.417 214.595C257.417 215.361 257.789 216.029 258.267 216.203C258.343 216.234 258.426 216.249 258.51 216.249C259.102 216.249 259.602 215.49 259.602 214.595C259.602 213.701 259.102 212.95 258.51 212.95C258.426 212.95 258.343 212.965 258.267 212.995C257.789 213.17 257.417 213.829 257.417 214.603V214.595Z" fill="#7E94C6"/>
<path d="M258.973 221.383C258.973 222.149 259.344 222.817 259.823 222.991C259.898 223.021 259.982 223.037 260.065 223.037C260.657 223.037 261.158 222.278 261.158 221.391C261.158 220.503 260.657 219.745 260.065 219.745C259.982 219.745 259.898 219.76 259.823 219.791C259.344 219.965 258.973 220.625 258.973 221.398V221.383Z" fill="#7E94C6"/>
<path d="M251.847 232.387C251.847 233.153 252.219 233.821 252.697 233.995C252.773 234.026 252.856 234.041 252.94 234.041C253.532 234.041 254.033 233.282 254.033 232.395C254.033 231.508 253.532 230.749 252.94 230.749C252.856 230.749 252.773 230.764 252.697 230.795C252.219 230.969 251.847 231.629 251.847 232.403V232.387Z" fill="#7E94C6"/>
<path d="M251.847 210.606C251.847 211.372 252.219 212.04 252.697 212.214C253.175 212.04 253.547 211.38 253.547 210.606C253.547 209.833 253.175 209.173 252.697 208.999C252.219 209.173 251.847 209.833 251.847 210.606Z" fill="#B5C8E8"/>
<path d="M244.153 221.383C244.153 222.149 244.525 222.816 245.003 222.991C245.481 222.816 245.853 222.156 245.853 221.383C245.853 220.609 245.481 219.95 245.003 219.775C244.525 219.95 244.153 220.609 244.153 221.383Z" fill="#B5C8E8"/>
<path d="M246.763 214.027C246.763 214.793 247.135 215.46 247.613 215.635C248.091 215.46 248.463 214.8 248.463 214.027C248.463 213.253 248.091 212.593 247.613 212.419C247.135 212.593 246.763 213.253 246.763 214.027Z" fill="#B5C8E8"/>
<path d="M257.417 229.43C257.417 230.196 257.789 230.863 258.267 231.037C258.745 230.863 259.117 230.203 259.117 229.43C259.117 228.656 258.745 227.996 258.267 227.822C257.789 227.996 257.417 228.656 257.417 229.43Z" fill="#B5C8E8"/>
<path d="M246.285 229.43C246.285 230.196 246.657 230.863 247.135 231.037C247.613 230.863 247.985 230.203 247.985 229.43C247.985 228.656 247.613 227.996 247.135 227.822C246.657 227.996 246.285 228.656 246.285 229.43Z" fill="#B5C8E8"/>
<path d="M257.417 214.595C257.417 215.361 257.789 216.029 258.267 216.203C258.745 216.029 259.117 215.369 259.117 214.595C259.117 213.822 258.745 213.162 258.267 212.988C257.789 213.162 257.417 213.822 257.417 214.595Z" fill="#B5C8E8"/>
<path d="M258.973 221.383C258.973 222.149 259.344 222.816 259.823 222.991C260.301 222.816 260.672 222.156 260.672 221.383C260.672 220.609 260.301 219.95 259.823 219.775C259.344 219.95 258.973 220.609 258.973 221.383Z" fill="#B5C8E8"/>
<path d="M251.847 232.387C251.847 233.153 252.219 233.821 252.697 233.995C253.175 233.821 253.547 233.161 253.547 232.387C253.547 231.614 253.175 230.954 252.697 230.78C252.219 230.954 251.847 231.614 251.847 232.387Z" fill="#B5C8E8"/>
<path d="M174.235 201.786H170.972V206.064H174.235V201.786Z" fill="#7E94C6"/>
<path d="M170.972 201.786H170.175V206.064H170.972V201.786Z" fill="#B5C8E8"/>
<path d="M195.019 201.786H191.756V206.064H195.019V201.786Z" fill="#7E94C6"/>
<path d="M191.756 201.786H190.959V206.064H191.756V201.786Z" fill="#B5C8E8"/>
<path d="M210.696 201.786H207.433V206.064H210.696V201.786Z" fill="#7E94C6"/>
<path d="M207.433 201.786H206.636V206.064H207.433V201.786Z" fill="#B5C8E8"/>
<path d="M308.684 194.923V200.209C308.684 201.081 308.009 201.794 307.182 201.794H163.793V193.141H306.984C307.925 193.141 308.684 193.937 308.684 194.923Z" fill="#B5C8E8"/>
<path d="M308.684 199.663V200.201C308.684 201.073 308.009 201.786 307.182 201.786H163.793V193.133H168.376C168.376 196.743 171.169 199.663 174.606 199.663H308.692H308.684Z" fill="#7E94C6"/>
<path d="M295.199 196.189L284.515 211.137L283.544 212.495L282.565 213.86C279.408 218.266 277.67 223.734 277.67 229.248C277.67 233.222 278.528 237.067 280.144 240.525H247.97L244.889 228.239L251.809 208.293H277.033L289.106 191.411L295.192 196.197L295.199 196.189Z" fill="#7E94C6"/>
<path d="M267.047 196.197L258.396 208.293L254.42 213.86C251.263 218.266 249.525 223.734 249.525 229.248C249.525 233.229 250.383 237.067 252.007 240.532H243.766C242.552 236.96 241.922 233.153 241.922 229.248C241.922 222.02 244.198 214.853 248.334 209.074L260.961 191.411L267.047 196.197Z" fill="#415279"/>
<path d="M382.169 211.137H155.673C152.805 211.137 149.618 208.703 148.556 205.692L98.5942 64.7749C97.5319 61.7716 98.9888 59.3296 101.857 59.3296H328.353C331.221 59.3296 334.408 61.764 335.471 64.7749L385.432 205.692" fill="#415279"/>
<path d="M386.737 210.948H160.241C157.373 210.948 154.186 208.513 153.124 205.502L103.162 64.5778C102.1 61.5746 103.557 59.1326 106.425 59.1326H332.921C335.789 59.1326 338.976 61.567 340.039 64.5778L390 205.495" fill="#7E94C6"/>
<path d="M386.418 207.254H159.923C159.103 207.254 158.185 206.556 157.881 205.692L107.92 64.7749C107.616 63.9179 108.034 63.2126 108.853 63.2126H335.356C336.176 63.2126 337.094 63.9104 337.398 64.7749L387.359 205.692" fill="#E9F2F7"/>
<path d="M251.354 124.377L276.259 194.635C276.881 196.379 276.031 197.797 274.362 197.797H167.094C165.424 197.797 163.573 196.379 162.951 194.635L138.046 124.377C137.423 122.625 138.273 121.207 139.943 121.207H247.219C248.888 121.207 250.74 122.625 251.362 124.377H251.354Z" fill="#C9E7F4"/>
<path d="M251.354 124.377L253.1 129.291H139.791L138.046 124.377C137.423 122.625 138.273 121.207 139.943 121.207H247.219C248.888 121.207 250.74 122.625 251.362 124.377H251.354Z" fill="#ACD9EA"/>
<path d="M229.796 125.249C230.281 126.614 229.614 127.722 228.316 127.722C227.018 127.722 225.562 126.614 225.083 125.249C224.598 123.884 225.266 122.777 226.563 122.777C227.861 122.777 229.318 123.884 229.796 125.249Z" fill="white"/>
<path d="M238.113 125.249C238.598 126.614 237.931 127.722 236.633 127.722C235.335 127.722 233.878 126.614 233.4 125.249C232.915 123.884 233.582 122.777 234.88 122.777C236.178 122.777 237.635 123.884 238.113 125.249Z" fill="white"/>
<path d="M246.422 125.249C246.907 126.614 246.24 127.722 244.942 127.722C243.644 127.722 242.187 126.614 241.709 125.249C241.224 123.884 241.892 122.777 243.189 122.777C244.487 122.777 245.944 123.884 246.422 125.249Z" fill="white"/>
<path d="M154.315 138.203C154.937 139.947 154.087 141.365 152.426 141.365C150.764 141.365 148.912 139.947 148.29 138.203C147.668 136.458 148.518 135.04 150.179 135.04C151.841 135.04 153.693 136.458 154.315 138.203Z" fill="#ACD9EA"/>
<path d="M159.809 153.697C160.431 155.441 159.581 156.859 157.912 156.859C156.242 156.859 154.398 155.441 153.776 153.697C153.154 151.952 154.004 150.534 155.666 150.534C157.328 150.534 159.179 151.952 159.801 153.697H159.809Z" fill="#ACD9EA"/>
<path d="M165.303 169.198C165.925 170.942 165.075 172.361 163.413 172.361C161.751 172.361 159.9 170.942 159.278 169.198C158.655 167.454 159.505 166.036 161.175 166.036C162.844 166.036 164.688 167.454 165.31 169.198H165.303Z" fill="#ACD9EA"/>
<path d="M170.797 184.7C171.411 186.444 170.569 187.862 168.9 187.862C167.23 187.862 165.386 186.444 164.764 184.7C164.142 182.955 164.992 181.537 166.661 181.537C168.33 181.537 170.174 182.955 170.797 184.7Z" fill="#ACD9EA"/>
<path d="M192.12 139.704H158.868C158.079 139.704 157.191 139.029 156.903 138.203C156.614 137.376 157.009 136.701 157.806 136.701H191.058C191.847 136.701 192.735 137.376 193.023 138.203C193.319 139.037 192.917 139.704 192.12 139.704Z" fill="#ACD9EA"/>
<path d="M197.614 155.206H164.362C163.573 155.206 162.685 154.531 162.396 153.704C162.108 152.878 162.503 152.203 163.299 152.203H196.551C197.341 152.203 198.228 152.878 198.517 153.704C198.813 154.538 198.41 155.206 197.614 155.206Z" fill="#ACD9EA"/>
<path d="M203.108 170.7H169.856C169.067 170.7 168.179 170.025 167.891 169.198C167.595 168.364 167.997 167.697 168.794 167.697H202.046C202.835 167.697 203.723 168.371 204.011 169.198C204.307 170.032 203.905 170.7 203.108 170.7Z" fill="#ACD9EA"/>
<path d="M208.609 186.201H175.357C174.568 186.201 173.68 185.526 173.392 184.7C173.096 183.865 173.498 183.198 174.295 183.198H207.547C208.336 183.198 209.224 183.873 209.512 184.7C209.801 185.526 209.406 186.201 208.609 186.201Z" fill="#ACD9EA"/>
<path d="M238.173 155.206H220.523L213.959 136.693H231.609L238.173 155.206Z" fill="#ACD9EA"/>
<path d="M249.7 187.703H232.05L225.486 169.198H243.136L249.7 187.703Z" fill="#ACD9EA"/>
<path d="M367.569 189.933H301.862C300.177 189.933 298.296 188.499 297.673 186.725L268.762 105.167C268.132 103.4 268.99 101.967 270.682 101.967H336.381C338.066 101.967 339.948 103.4 340.578 105.167L369.489 186.725" fill="#C9E7F4"/>
<path d="M340.578 105.167L342.103 109.467H270.287L268.762 105.167C268.132 103.4 268.99 101.967 270.682 101.967H336.381C338.066 101.967 339.948 103.4 340.578 105.167Z" fill="#ACD9EA"/>
<path d="M321.144 105.713C321.629 107.078 320.962 108.185 319.664 108.185C318.366 108.185 316.909 107.078 316.424 105.713C315.938 104.348 316.606 103.241 317.904 103.241C319.201 103.241 320.658 104.348 321.144 105.713Z" fill="white"/>
<path d="M329.453 105.713C329.939 107.078 329.271 108.185 327.973 108.185C326.676 108.185 325.219 107.078 324.741 105.713C324.255 104.348 324.923 103.241 326.22 103.241C327.518 103.241 328.975 104.348 329.453 105.713Z" fill="white"/>
<path d="M337.769 105.713C338.255 107.078 337.587 108.185 336.29 108.185C334.992 108.185 333.535 107.078 333.057 105.713C332.571 104.348 333.239 103.241 334.537 103.241C335.834 103.241 337.291 104.348 337.769 105.713Z" fill="white"/>
<path d="M344.25 129.352H282.261C281.214 129.352 280.045 128.457 279.651 127.358C279.264 126.258 279.795 125.363 280.842 125.363H342.831C343.878 125.363 345.047 126.258 345.441 127.358C345.828 128.457 345.297 129.352 344.25 129.352Z" fill="#ACD9EA"/>
<path d="M353.227 154.675H291.238C290.191 154.675 289.022 153.78 288.628 152.68C288.241 151.581 288.772 150.686 289.819 150.686H351.808" fill="#ACD9EA"/>
<path d="M362.204 179.998H300.215C299.168 179.998 297.999 179.103 297.605 178.003C297.218 176.903 297.749 176.009 298.796 176.009H360.785" fill="#ACD9EA"/>
<path d="M221.729 72.1162L232.831 103.43C233.461 105.205 232.596 106.646 230.903 106.646H159.854C158.162 106.646 156.28 105.205 155.65 103.43L144.549 72.1162C143.919 70.3416 144.784 68.9006 146.476 68.9006H217.525C219.217 68.9006 221.099 70.3416 221.729 72.1162Z" fill="#F4F9FB"/>
<path d="M221.729 72.1162L222.693 74.8388H145.512L144.549 72.1162C143.919 70.3416 144.784 68.9006 146.476 68.9006H217.525C219.217 68.9006 221.099 70.3416 221.729 72.1162Z" fill="#ACD9EA"/>
<path d="M207.448 72.0177C207.79 72.9809 207.319 73.7544 206.408 73.7544C205.498 73.7544 204.473 72.9733 204.132 72.0177C203.79 71.0546 204.261 70.281 205.172 70.281C206.082 70.281 207.107 71.0621 207.448 72.0177Z" fill="white"/>
<path d="M213.291 72.0177C213.632 72.9809 213.162 73.7544 212.251 73.7544C211.341 73.7544 210.316 72.9733 209.975 72.0177C209.633 71.0546 210.104 70.281 211.014 70.281C211.925 70.281 212.949 71.0621 213.291 72.0177Z" fill="white"/>
<path d="M219.141 72.0177C219.483 72.9809 219.012 73.7544 218.102 73.7544C217.191 73.7544 216.167 72.9733 215.825 72.0177C215.484 71.0546 215.954 70.281 216.865 70.281C217.776 70.281 218.8 71.0621 219.141 72.0177Z" fill="white"/>
<path d="M355.724 244.112H175.206C174.432 244.112 173.802 243.452 173.802 242.641V238.454C173.802 237.643 174.432 236.983 175.206 236.983H355.724" fill="#7E94C6"/>
<path d="M209.004 238.09V243.005C209.004 243.612 208.533 244.104 207.956 244.104H175.213C174.439 244.104 173.809 243.445 173.809 242.633V238.454C173.809 237.643 174.439 236.983 175.205 236.983H207.956C208.533 236.983 209.004 237.476 209.004 238.083V238.09Z" fill="#415279"/>
<path d="M181.891 235.8H188.462C188.584 235.8 188.69 235.899 188.69 236.028V236.991H181.671V236.028C181.671 235.906 181.77 235.8 181.899 235.8H181.891Z" fill="#E5EAF4"/>
<path d="M192.477 235.8H199.048C199.17 235.8 199.276 235.899 199.276 236.028V236.991H192.257V236.028C192.257 235.906 192.355 235.8 192.484 235.8H192.477Z" fill="#E5EAF4"/>
<path d="M203.055 235.8H209.626C209.747 235.8 209.854 235.899 209.854 236.028V236.991H202.834V236.028C202.834 235.906 202.933 235.8 203.062 235.8H203.055Z" fill="#E5EAF4"/>
<path d="M213.64 235.8H220.212C220.333 235.8 220.44 235.899 220.44 236.028V236.991H213.42V236.028C213.42 235.906 213.519 235.8 213.648 235.8H213.64Z" fill="#E5EAF4"/>
<path d="M224.219 235.8H230.79C230.911 235.8 231.018 235.899 231.018 236.028V236.991H223.999V236.028C223.999 235.906 224.097 235.8 224.226 235.8H224.219Z" fill="#E5EAF4"/>
<path d="M234.804 235.8H241.376C241.497 235.8 241.603 235.899 241.603 236.028V236.991H234.584V236.028C234.584 235.906 234.683 235.8 234.812 235.8H234.804Z" fill="#E5EAF4"/>
<path d="M245.382 235.8H251.954C252.075 235.8 252.181 235.899 252.181 236.028V236.991H245.162V236.028C245.162 235.906 245.261 235.8 245.39 235.8H245.382Z" fill="#E5EAF4"/>
<path d="M255.968 235.8H262.54C262.661 235.8 262.767 235.899 262.767 236.028V236.991H255.748V236.028C255.748 235.906 255.847 235.8 255.976 235.8H255.968Z" fill="#E5EAF4"/>
<path d="M266.546 235.8H273.118C273.239 235.8 273.345 235.899 273.345 236.028V236.991H266.326V236.028C266.326 235.906 266.425 235.8 266.554 235.8H266.546Z" fill="#E5EAF4"/>
<path d="M277.132 235.8H283.703C283.825 235.8 283.931 235.899 283.931 236.028V236.991H276.912V236.028C276.912 235.906 277.01 235.8 277.139 235.8H277.132Z" fill="#E5EAF4"/>
<path d="M287.71 235.8H294.281C294.403 235.8 294.509 235.899 294.509 236.028V236.991H287.49V236.028C287.49 235.906 287.588 235.8 287.717 235.8H287.71Z" fill="#E5EAF4"/>
<path d="M298.296 235.8H304.867C304.989 235.8 305.095 235.899 305.095 236.028V236.991H298.076V236.028C298.076 235.906 298.174 235.8 298.303 235.8H298.296Z" fill="#E5EAF4"/>
<path d="M308.874 235.8H315.445C315.567 235.8 315.673 235.899 315.673 236.028V236.991H308.654V236.028C308.654 235.906 308.752 235.8 308.881 235.8H308.874Z" fill="#E5EAF4"/>
<path d="M319.459 235.8H326.031C326.152 235.8 326.258 235.899 326.258 236.028V236.991H319.239V236.028C319.239 235.906 319.338 235.8 319.467 235.8H319.459Z" fill="#E5EAF4"/>
<path d="M330.037 235.8H336.609C336.73 235.8 336.837 235.899 336.837 236.028V236.991H329.817V236.028C329.817 235.906 329.916 235.8 330.045 235.8H330.037Z" fill="#E5EAF4"/>
<path d="M340.623 235.8H347.194C347.316 235.8 347.422 235.899 347.422 236.028V236.991H340.403V236.028C340.403 235.906 340.501 235.8 340.63 235.8H340.623Z" fill="#E5EAF4"/>
<path d="M339.477 48.1282H165.773C160.105 48.1282 153.799 43.3124 151.697 37.3666C149.587 31.4208 152.478 26.605 158.147 26.605H331.851C337.519 26.605 343.825 31.4208 345.927 37.3666C348.036 43.3124 345.145 48.1282 339.477 48.1282Z" fill="#ACD9EA"/>
<path d="M341.253 45.3828H167.541C161.873 45.3828 155.567 40.567 153.465 34.6212C151.355 28.6754 154.246 23.8596 159.915 23.8596H333.619C339.287 23.8596 345.593 28.6754 347.695 34.6212C349.805 40.567 346.913 45.3828 341.245 45.3828H341.253Z" fill="white"/>
<path d="M166.494 25.4598C162.404 25.4826 159.854 28.7285 160.795 32.7101C161.736 36.6916 170.811 43.7674 170.811 43.7674C170.811 43.7674 176.533 36.6082 175.592 32.6266C174.651 28.6451 170.576 25.4371 166.494 25.4598ZM168.816 35.3114C166.919 35.3189 165.029 33.8325 164.589 31.9896C164.149 30.1391 165.34 28.6299 167.237 28.6223C169.134 28.6148 171.024 30.1012 171.456 31.9517C171.889 33.8022 170.713 35.3038 168.816 35.3114Z" fill="#ACD9EA"/>
<path d="M284.515 211.137L283.544 212.495H254.572V211.137H284.515Z" fill="#415279"/>
<path d="M313.92 195.226L256.613 182.47L265.339 139.386L322.639 152.134L313.92 195.226Z" fill="#FED0A7"/>
<path d="M348.583 202.939L335.82 200.103L328.535 198.48L313.92 195.226L322.639 152.134L357.302 159.847" fill="#F58220"/>
<path d="M277.875 154.447L266.645 151.945L267.654 146.969L278.884 149.472L277.875 154.447Z" fill="#F58220"/>
<path d="M289.387 170.245L281.548 166.536L286.108 144.004L294.327 145.832L289.387 170.245Z" fill="#FFECDC"/>
<path d="M337.481 191.897L335.819 200.103L328.535 198.48L330.409 189.189L337.481 191.897Z" fill="#FED0A7"/>
<path d="M357.302 159.847L322.639 152.134L265.339 139.386L297.066 143.322L357.302 159.847Z" fill="#FFECDC"/>
<path d="M331.631 109.232L258.738 132.279L242.984 77.4628L315.878 54.4153L331.631 109.232Z" fill="#FED0A7"/>
<path d="M375.726 95.2927L331.631 109.232L315.877 54.4153L359.965 40.4761" fill="#F58220"/>
<path d="M266.25 86.4043L251.969 90.9244L250.147 84.5918L264.429 80.0793L266.25 86.4043Z" fill="#F58220"/>
<path d="M284.424 81.6796L273.277 82.5896L269.407 69.1054L279.863 65.8064L284.424 81.6796Z" fill="#FFECDC"/>
<path d="M375.726 95.2927L331.631 109.232L258.737 132.28L333.012 113.016L375.726 95.2927Z" fill="#F18D4F"/>
<path d="M163.792 82.5516V218.061C163.792 224.765 158.61 230.203 152.213 230.203H121.101V81.7932H163.064C163.064 81.7932 163.117 81.7932 163.14 81.7932C163.163 81.7932 163.185 81.7932 163.208 81.8084C163.231 81.8084 163.254 81.816 163.276 81.8235C163.322 81.8387 163.367 81.8615 163.405 81.8842C163.61 81.998 163.754 82.2179 163.777 82.4758C163.777 82.4985 163.777 82.5289 163.777 82.5516H163.792Z" fill="#C96237"/>
<path d="M161 81.7932V218.061C161 224.765 155.817 230.203 149.428 230.203H118.316V81.7932H161Z" fill="#F18D4F"/>
<path d="M78.3105 105.804H138.691C144.033 105.804 148.373 110.142 148.373 115.481V125.052H78.3105V105.804Z" fill="#FED0A7"/>
<path d="M29.5481 105.804H91.2789C84.9503 106.031 79.8813 111.484 79.8813 118.173V123.543H17.7559" fill="#FFECDC"/>
<path d="M29.1001 244.317H41.3249L40.0045 239.182C43.9125 234.966 46.409 228.535 46.409 221.322C46.409 214.11 43.9125 207.679 40.0045 203.462L41.3249 198.328H29.1001" fill="#342745"/>
<path d="M24.0161 221.322C24.0161 208.627 31.7638 198.328 41.325 198.328C50.8863 198.328 58.634 208.619 58.634 221.322C58.634 234.025 50.8863 244.317 41.325 244.317C31.7638 244.317 24.0161 234.025 24.0161 221.322Z" fill="#493A5B"/>
<path d="M148.373 194.316V230.203H111.054C111.054 229.505 111.069 228.815 111.107 228.125C111.995 211.729 123.385 198.282 138.334 195.052C140.573 194.566 142.902 194.316 145.277 194.316H148.373Z" fill="white"/>
<path d="M148.373 230.332H111.054C110.986 230.332 110.933 230.271 110.933 230.203C110.933 229.498 110.955 228.8 110.993 228.118C111.874 211.858 123.112 198.214 138.311 194.93C140.588 194.437 142.932 194.187 145.277 194.187H148.373C148.442 194.187 148.495 194.248 148.495 194.316V230.203C148.495 230.271 148.442 230.332 148.373 230.332ZM111.175 230.082H148.259V194.445H145.285C142.948 194.445 140.626 194.695 138.364 195.181C123.271 198.442 112.109 211.994 111.236 228.133C111.198 228.762 111.183 229.414 111.183 230.074L111.175 230.082Z" fill="black"/>
<path d="M161.744 211.759V218.35C161.744 224.47 157.009 229.437 151.173 229.437H125.54V199.17L139.578 194.817L150.604 195.226L155.855 198.411L159.323 202.833L161 206.799L161.638 209.696L161.751 211.767L161.744 211.759Z" fill="#342745"/>
<path d="M144.67 221.322C144.67 214.118 142.174 207.679 138.266 203.462L139.586 198.328H127.361C117.8 198.328 110.052 208.619 110.052 221.322C110.052 234.025 117.8 244.317 127.361 244.317H139.586L138.266 239.182C142.174 234.966 144.67 228.535 144.67 221.322Z" fill="#342745"/>
<path d="M156.887 221.322C156.887 234.018 149.14 244.317 139.578 244.317C130.017 244.317 122.27 234.025 122.27 221.322C122.27 208.619 130.017 198.328 139.578 198.328C149.14 198.328 156.887 208.619 156.887 221.322Z" fill="#493A5B"/>
<path d="M150.21 221.322C150.21 229.991 145.346 237.309 139.578 237.309C139.457 237.309 139.336 237.309 139.214 237.302C133.614 237.006 128.947 229.809 128.947 221.322C128.947 212.836 133.614 205.639 139.214 205.343C139.336 205.343 139.457 205.335 139.578 205.335C145.338 205.335 150.21 212.662 150.21 221.322Z" fill="#7E94C6"/>
<path d="M149.489 221.322C149.489 229.809 144.822 236.998 139.222 237.302C133.621 237.006 128.955 229.809 128.955 221.322C128.955 212.836 133.621 205.639 139.222 205.343C144.822 205.639 149.489 212.836 149.489 221.322Z" fill="#D0DCF2"/>
<path d="M139.1 228.042C136.68 228.042 134.631 224.963 134.631 221.315C134.631 217.667 136.68 214.588 139.1 214.588C141.521 214.588 143.57 217.667 143.57 221.315C143.57 224.963 141.521 228.042 139.1 228.042Z" fill="#E3EAF7"/>
<path d="M139.578 228.042C137.158 228.042 135.109 224.963 135.109 221.315C135.109 217.667 137.158 214.588 139.578 214.588C141.999 214.588 144.048 217.667 144.048 221.315C144.048 224.963 141.999 228.042 139.578 228.042Z" fill="#E3EAF7"/>
<path d="M139.95 222.968C139.358 222.968 138.857 222.21 138.857 221.322C138.857 220.435 139.358 219.677 139.95 219.677C140.542 219.677 141.043 220.435 141.043 221.322C141.043 222.21 140.542 222.968 139.95 222.968Z" fill="#E3EAF7"/>
<path d="M140.314 222.968C139.723 222.968 139.222 222.21 139.222 221.322C139.222 220.435 139.723 219.677 140.314 219.677C140.906 219.677 141.407 220.435 141.407 221.322C141.407 222.21 140.906 222.968 140.314 222.968Z" fill="#F4F7FC"/>
<path d="M138.25 210.606C138.25 211.372 138.622 212.04 139.1 212.214C139.176 212.244 139.259 212.259 139.343 212.259C139.935 212.259 140.435 211.501 140.435 210.614C140.435 209.726 139.935 208.968 139.343 208.968C139.259 208.968 139.176 208.983 139.1 209.014C138.622 209.188 138.25 209.848 138.25 210.621V210.606Z" fill="#7E94C6"/>
<path d="M130.556 221.383C130.556 222.149 130.927 222.816 131.406 222.991C131.481 223.021 131.565 223.036 131.648 223.036C132.24 223.036 132.741 222.278 132.741 221.391C132.741 220.503 132.24 219.745 131.648 219.745C131.565 219.745 131.481 219.76 131.406 219.79C130.927 219.965 130.556 220.625 130.556 221.398V221.383Z" fill="#7E94C6"/>
<path d="M133.166 214.027C133.166 214.793 133.538 215.46 134.016 215.634C134.092 215.665 134.175 215.68 134.259 215.68C134.851 215.68 135.359 214.921 135.359 214.034C135.359 213.147 134.858 212.388 134.259 212.388C134.175 212.388 134.092 212.404 134.016 212.434C133.538 212.608 133.166 213.268 133.166 214.042V214.027Z" fill="#7E94C6"/>
<path d="M143.82 229.429C143.82 230.195 144.192 230.863 144.67 231.037C144.746 231.068 144.829 231.083 144.913 231.083C145.504 231.083 146.005 230.324 146.005 229.429C146.005 228.534 145.504 227.784 144.913 227.784C144.829 227.784 144.746 227.799 144.67 227.829C144.192 228.004 143.82 228.663 143.82 229.437V229.429Z" fill="#7E94C6"/>
<path d="M132.688 229.429C132.688 230.195 133.06 230.863 133.538 231.037C133.614 231.068 133.697 231.083 133.781 231.083C134.373 231.083 134.873 230.324 134.873 229.429C134.873 228.534 134.373 227.784 133.781 227.784C133.697 227.784 133.614 227.799 133.538 227.829C133.06 228.004 132.688 228.663 132.688 229.437V229.429Z" fill="#7E94C6"/>
<path d="M143.82 214.595C143.82 215.361 144.192 216.029 144.67 216.203C144.746 216.234 144.829 216.249 144.913 216.249C145.504 216.249 146.005 215.49 146.005 214.595C146.005 213.701 145.504 212.95 144.913 212.95C144.829 212.95 144.746 212.965 144.67 212.995C144.192 213.17 143.82 213.829 143.82 214.603V214.595Z" fill="#7E94C6"/>
<path d="M145.375 221.383C145.375 222.149 145.747 222.816 146.225 222.991C146.301 223.021 146.385 223.036 146.468 223.036C147.06 223.036 147.561 222.278 147.561 221.391C147.561 220.503 147.06 219.745 146.468 219.745C146.385 219.745 146.301 219.76 146.225 219.79C145.747 219.965 145.375 220.625 145.375 221.398V221.383Z" fill="#7E94C6"/>
<path d="M138.25 232.387C138.25 233.153 138.622 233.821 139.1 233.995C139.176 234.025 139.259 234.04 139.343 234.04C139.935 234.04 140.435 233.282 140.435 232.395C140.435 231.507 139.935 230.749 139.343 230.749C139.259 230.749 139.176 230.764 139.1 230.795C138.622 230.969 138.25 231.629 138.25 232.402V232.387Z" fill="#7E94C6"/>
<path d="M138.25 210.606C138.25 211.372 138.622 212.04 139.1 212.214C139.578 212.04 139.95 211.38 139.95 210.606C139.95 209.833 139.578 209.173 139.1 208.999C138.622 209.173 138.25 209.833 138.25 210.606Z" fill="#B5C8E8"/>
<path d="M130.556 221.383C130.556 222.149 130.927 222.816 131.406 222.991C131.884 222.816 132.255 222.156 132.255 221.383C132.255 220.609 131.884 219.95 131.406 219.775C130.927 219.95 130.556 220.609 130.556 221.383Z" fill="#B5C8E8"/>
<path d="M133.166 214.027C133.166 214.793 133.538 215.46 134.016 215.635C134.494 215.46 134.866 214.8 134.866 214.027C134.866 213.253 134.494 212.593 134.016 212.419C133.538 212.593 133.166 213.253 133.166 214.027Z" fill="#B5C8E8"/>
<path d="M143.82 229.43C143.82 230.196 144.192 230.863 144.67 231.037C145.148 230.863 145.52 230.203 145.52 229.43C145.52 228.656 145.148 227.996 144.67 227.822C144.192 227.996 143.82 228.656 143.82 229.43Z" fill="#B5C8E8"/>
<path d="M132.688 229.43C132.688 230.196 133.06 230.863 133.538 231.037C134.016 230.863 134.388 230.203 134.388 229.43C134.388 228.656 134.016 227.996 133.538 227.822C133.06 227.996 132.688 228.656 132.688 229.43Z" fill="#B5C8E8"/>
<path d="M143.82 214.595C143.82 215.361 144.192 216.029 144.67 216.203C145.148 216.029 145.52 215.369 145.52 214.595C145.52 213.822 145.148 213.162 144.67 212.988C144.192 213.162 143.82 213.822 143.82 214.595Z" fill="#B5C8E8"/>
<path d="M145.375 221.383C145.375 222.149 145.747 222.816 146.225 222.991C146.703 222.816 147.075 222.156 147.075 221.383C147.075 220.609 146.703 219.95 146.225 219.775C145.747 219.95 145.375 220.609 145.375 221.383Z" fill="#B5C8E8"/>
<path d="M138.25 232.387C138.25 233.153 138.622 233.821 139.1 233.995C139.578 233.821 139.95 233.161 139.95 232.387C139.95 231.614 139.578 230.954 139.1 230.78C138.622 230.954 138.25 231.614 138.25 232.387Z" fill="#B5C8E8"/>
<path d="M144.033 120.502H88.6912L84.5859 170.298V230.203H88.843V232.395H111.107V228.14C111.995 211.736 123.385 198.282 138.334 195.052L147.561 194.316L148.373 194.248V125.052C148.373 122.542 146.431 120.502 144.033 120.502Z" fill="#F58220"/>
<path d="M4.24854 170.298H84.5859V194.316H4.24854" fill="#FED0A7"/>
<path d="M5.41699 194.316H85.9592C86.4677 194.316 86.8774 194.725 86.8774 195.234V213.109C86.8774 213.617 86.4677 214.027 85.9592 214.027H5.41699" fill="#C96237"/>
<path d="M4.14258 194.316H84.6924C85.2008 194.316 85.6106 194.725 85.6106 195.234V213.109C85.6106 213.617 85.2008 214.027 84.6924 214.027H4.14258" fill="#F58220"/>
<path d="M4.24854 214.027H84.5859V230.203H4.24854" fill="#FED0A7"/>
<path d="M16.2912 120.502H88.6912C90.6945 120.502 92.2122 122.39 91.8858 124.453L84.5859 170.29H4.24854" fill="#FED0A7"/>
<path d="M5.17432 224.819H87.4391C88.2131 224.819 88.8429 225.448 88.8429 226.222V234.185C88.8429 234.958 88.2131 235.588 87.4391 235.588H5.17432" fill="#C96237"/>
<path d="M3.23193 224.819H85.4891C86.2631 224.819 86.893 225.448 86.893 226.222V234.185C86.893 234.958 86.2631 235.588 85.4891 235.588H3.23193" fill="#FFECDC"/>
<path d="M10.4634 166.529C10.4634 166.529 64.9626 166.771 82.7571 166.794C82.7571 167.423 82.4536 168 81.9604 168.356C76.8231 172.027 73.0897 178.504 70.4565 184.95C66.8445 193.808 65.0612 203.371 65.0612 213.01V227.026C65.0612 228.087 64.2417 228.952 63.2249 228.952H20.6469" fill="#F58220"/>
<path d="M70.0012 219.388H80.9967C81.968 219.388 82.7496 220.177 82.7496 221.14V224.811H68.605V220.776C68.605 220.003 69.2272 219.381 70.0012 219.381V219.388Z" fill="#C96237"/>
<path d="M68.4988 219.389H79.4942C80.4655 219.389 81.2471 220.177 81.2471 221.141V224.811H67.1025V220.784C67.1025 220.011 67.7248 219.389 68.4988 219.389Z" fill="#F58220"/>
<path d="M69.4776 220.048H69.819V220.192C70.1681 220.496 70.4109 221.239 70.4109 222.111C70.4109 222.983 70.1681 223.727 69.819 224.03V224.174H69.4776C68.9616 224.174 68.5366 223.249 68.5366 222.111C68.5366 220.974 68.954 220.048 69.4776 220.048Z" fill="#C96237"/>
<path d="M68.8779 222.111C68.8779 223.249 69.2953 224.174 69.8189 224.174C70.3425 224.174 70.7598 223.249 70.7598 222.111C70.7598 220.974 70.3425 220.048 69.8189 220.048C69.2953 220.048 68.8779 220.974 68.8779 222.111Z" fill="#FED0A7"/>
<path d="M73.856 220.048H74.1975V220.192C74.5465 220.496 74.7894 221.239 74.7894 222.111C74.7894 222.983 74.5465 223.727 74.1975 224.03V224.174H73.856C73.34 224.174 72.915 223.249 72.915 222.111C72.915 220.974 73.3324 220.048 73.856 220.048Z" fill="#C96237"/>
<path d="M73.2642 222.111C73.2642 223.249 73.6815 224.174 74.2051 224.174C74.7287 224.174 75.1461 223.249 75.1461 222.111C75.1461 220.974 74.7287 220.048 74.2051 220.048C73.6815 220.048 73.2642 220.974 73.2642 222.111Z" fill="#FED0A7"/>
<path d="M77.8169 220.048H78.1584V220.192C78.5075 220.496 78.7503 221.239 78.7503 222.111C78.7503 222.983 78.5075 223.727 78.1584 224.03V224.174H77.8169C77.3009 224.174 76.876 223.249 76.876 222.111C76.876 220.974 77.2933 220.048 77.8169 220.048Z" fill="#C96237"/>
<path d="M77.2173 222.111C77.2173 223.249 77.6346 224.174 78.1582 224.174C78.6818 224.174 79.0992 223.249 79.0992 222.111C79.0992 220.974 78.6818 220.048 78.1582 220.048C77.6346 220.048 77.2173 220.974 77.2173 222.111Z" fill="#FED0A7"/>
<path d="M8.62695 166.529C8.62695 166.529 67.2618 166.794 82.7495 166.794C77.3694 169.357 73.3248 174.939 70.3578 181.029C69.728 182.318 69.1437 183.638 68.6125 184.95C65.0005 193.808 63.2172 203.371 63.2172 213.01V228.944H20.6468" fill="#FFECDC"/>
<path d="M15.5854 124.005H86.9231C88.3117 124.005 89.3589 125.31 89.1313 126.743L83.0682 164.83C82.8861 165.96 81.9527 166.794 80.86 166.794H9.8335" fill="#F18D4F"/>
<path d="M15.5857 125.757H84.4116C84.5026 125.757 84.5861 125.757 84.6772 125.772C86.21 125.932 87.3331 127.426 87.0751 129.056L85.5119 138.893L82.2413 159.445L81.7253 162.683C81.5052 164.049 80.3822 165.05 79.0694 165.05H9.84131" fill="#493A5B"/>
<path d="M8.62695 166.529C8.62695 166.529 67.2618 166.794 82.7495 166.794C77.3694 169.357 73.3248 174.939 70.3578 181.029H14.5382" fill="#FFECDC"/>
<path d="M18.2944 183.987H64.6741C65.4937 183.987 66.1539 184.685 66.1539 185.542C66.1539 185.974 65.9869 186.361 65.7213 186.641C65.4557 186.922 65.0839 187.096 64.6741 187.096H18.2944" fill="#C96237"/>
<path d="M20.8062 194.248H62.1624C62.9819 194.248 63.6421 194.946 63.6421 195.803C63.6421 196.235 63.4752 196.622 63.2096 196.902C62.944 197.183 62.5722 197.357 62.1624 197.357H20.8062" fill="#C96237"/>
<path d="M22.688 204.509H60.2804C61.1 204.509 61.7602 205.207 61.7602 206.063C61.7602 206.496 61.5932 206.883 61.3276 207.163C61.062 207.444 60.6902 207.618 60.2804 207.618H22.688" fill="#C96237"/>
<path d="M23.8037 214.77H59.1652C59.9847 214.77 60.6449 215.468 60.6449 216.325C60.6449 216.757 60.478 217.144 60.2124 217.424C59.9468 217.705 59.575 217.879 59.1652 217.879H23.8037" fill="#C96237"/>
<path d="M23.8037 225.031H59.1728C59.9923 225.031 60.6525 225.729 60.6525 226.586C60.6525 227.018 60.4856 227.405 60.22 227.685C59.9544 227.966 59.5826 228.14 59.1728 228.14H23.8037" fill="#C96237"/>
<path d="M19.2354 183.987H64.6741C65.4936 183.987 66.1538 184.685 66.1538 185.542C66.1538 185.974 65.9869 186.361 65.7213 186.641C65.4557 186.922 65.0839 187.096 64.6741 187.096H19.2354" fill="#F18D4F"/>
<path d="M21.7471 194.248H62.1624C62.9819 194.248 63.6421 194.946 63.6421 195.803C63.6421 196.235 63.4751 196.622 63.2096 196.902C62.944 197.183 62.5721 197.357 62.1624 197.357H21.7471" fill="#F18D4F"/>
<path d="M23.6367 204.509H60.2806C61.1002 204.509 61.7604 205.207 61.7604 206.063C61.7604 206.496 61.5934 206.883 61.3278 207.163C61.0622 207.444 60.6904 207.618 60.2806 207.618H23.6367" fill="#F18D4F"/>
<path d="M24.7445 214.77H59.165C59.9846 214.77 60.6447 215.468 60.6447 216.325C60.6447 216.757 60.4778 217.144 60.2122 217.424C59.9466 217.705 59.5748 217.879 59.165 217.879H24.7065" fill="#F18D4F"/>
<path d="M24.7446 225.031H59.1652C59.9847 225.031 60.6449 225.729 60.6449 226.586C60.6449 227.018 60.478 227.405 60.2124 227.685C59.9468 227.966 59.5749 228.14 59.1652 228.14H24.7446" fill="#F18D4F"/>
<path d="M23.8035 170.98H61.6539C63.809 170.98 65.5619 172.732 65.5619 174.886V177.245C65.5619 178.276 64.7272 179.11 63.6952 179.11H21.7622" fill="#C96237"/>
<path d="M23.0295 170.98H60.88C63.0351 170.98 64.788 172.732 64.788 174.886V177.245C64.788 178.276 63.9533 179.11 62.9212 179.11H20.9883" fill="#F18D4F"/>
<path d="M94.5037 125.757H122.505C123.688 125.757 124.652 126.766 124.652 128.01V159.589C124.652 160.757 123.802 161.735 122.694 161.834L89.465 164.913C88.2433 165.027 87.2417 163.904 87.4314 162.638L92.6294 127.433C92.7735 126.47 93.5627 125.757 94.4961 125.757H94.5037Z" fill="#C96237"/>
<path d="M122.983 128.01V159.589C122.983 159.741 122.922 159.885 122.816 159.968C122.74 160.037 122.649 160.082 122.55 160.09L109.301 161.318L103.261 161.88L102.965 161.902L99.2922 162.244L95.3842 162.608L89.3212 163.169C89.2225 163.169 89.1618 163.131 89.139 163.085C89.0707 163.01 89.0859 162.926 89.0859 162.903L94.2839 127.699C94.2991 127.585 94.3901 127.509 94.504 127.509H122.505C122.77 127.509 122.983 127.737 122.983 128.01Z" fill="#493A5B"/>
<path d="M144.23 127.737V158.027C144.23 159.051 143.486 159.908 142.507 159.999L129.789 161.174C128.568 161.288 127.521 160.279 127.521 158.998V127.934C127.521 126.728 128.454 125.75 129.607 125.75H142.34C143.38 125.75 144.23 126.637 144.23 127.729V127.737Z" fill="#C96237"/>
<path d="M142.561 127.737V158.027C142.561 158.148 142.477 158.247 142.363 158.255L129.645 159.43C129.645 159.43 129.623 159.43 129.608 159.43C129.516 159.43 129.433 159.4 129.365 159.339C129.258 159.263 129.198 159.134 129.198 158.99V127.926C129.198 127.684 129.387 127.494 129.615 127.494H142.348C142.47 127.494 142.568 127.6 142.568 127.722L142.561 127.737Z" fill="#493A5B"/>
<path d="M100.461 140.372L99.755 154.485L99.588 157.89C99.5046 159.536 98.2146 160.825 96.6438 160.825H93.1911C91.5596 160.825 90.2393 159.438 90.2393 157.731V138.809C90.2393 137.103 91.5596 135.715 93.1911 135.715H96.2492C98.6623 135.715 100.582 137.839 100.461 140.364V140.372Z" fill="#342745"/>
<path d="M99.3831 140.372L98.5711 156.7L98.5104 157.89C98.4421 159.225 97.577 160.325 96.416 160.697C96.1429 160.78 95.8621 160.825 95.5661 160.825H92.1135C90.482 160.825 89.1616 159.438 89.1616 157.731V138.809C89.1616 137.103 90.482 135.715 92.1135 135.715H95.1716C97.5846 135.715 99.5045 137.839 99.3831 140.364V140.372Z" fill="#342745"/>
<path d="M89.1619 140.963H87.8112C87.4242 140.963 87.1055 141.297 87.1055 141.706C87.1055 142.252 87.5228 142.692 88.0464 142.692H89.1619V140.971V140.963Z" fill="#493A5B"/>
<path d="M89.1617 156.048H85.6938C85.2916 156.048 84.9653 156.389 84.9653 156.806C84.9653 157.337 85.3751 157.769 85.8835 157.769H89.1617V156.048Z" fill="#493A5B"/>
<path d="M108.937 179.406C108.155 179.406 107.525 178.739 107.525 177.927V173.293C107.525 172.474 108.155 171.814 108.937 171.814H116.138C116.555 171.814 116.95 172.004 117.216 172.345C117.481 172.679 117.595 173.119 117.527 173.551L116.419 178.185C116.297 178.89 115.713 179.406 115.03 179.406H108.937Z" fill="#FED0A7"/>
<path d="M109.301 179.406C108.527 179.406 107.89 178.739 107.89 177.927V173.293C107.89 172.474 108.519 171.814 109.301 171.814H116.502C116.92 171.814 117.314 172.004 117.58 172.345C117.845 172.679 117.959 173.119 117.891 173.551L116.783 178.185C116.662 178.89 116.077 179.406 115.394 179.406H109.301Z" fill="#FED0A7"/>
<path d="M117.367 173.445L116.26 178.079C116.184 178.511 115.827 178.83 115.402 178.83H109.309C108.831 178.83 108.436 178.42 108.436 177.912V173.278C108.436 172.77 108.823 172.368 109.309 172.368H116.51C117.049 172.368 117.459 172.884 117.367 173.437V173.445Z" fill="#F18D4F"/>
<path d="M116.631 173.445L115.523 178.079C115.447 178.511 115.091 178.83 114.666 178.83H109.301C108.823 178.83 108.428 178.42 108.428 177.912V173.278C108.428 172.77 108.815 172.368 109.301 172.368H115.766C116.312 172.368 116.722 172.884 116.624 173.437L116.631 173.445Z" fill="#F58220"/>
<path d="M114.886 176.312H109.931C109.604 176.312 109.339 176.039 109.339 175.698C109.339 175.356 109.604 175.083 109.931 175.083H114.886C115.212 175.083 115.478 175.356 115.478 175.698C115.478 176.039 115.212 176.312 114.886 176.312Z" fill="#F18D4F"/>
<path d="M115.288 176.312H110.333C110.007 176.312 109.741 176.039 109.741 175.698C109.741 175.356 110.007 175.083 110.333 175.083H115.288C115.615 175.083 115.88 175.356 115.88 175.698C115.88 176.039 115.615 176.312 115.288 176.312Z" fill="#FED0A7"/>
<path d="M143.069 176.562V180.855C143.069 184.798 140.019 187.999 136.255 187.999H127.035C126.367 187.999 125.791 187.521 125.631 186.846L123.302 176.926C123.082 175.971 123.765 175.045 124.706 175.045H141.627C142.424 175.045 143.069 175.728 143.069 176.562Z" fill="#FED0A7"/>
<path d="M144.048 176.562V180.855C144.048 184.798 140.998 187.999 137.234 187.999H136.255C140.019 187.999 143.069 184.798 143.069 180.855V176.562C143.069 175.728 142.424 175.045 141.627 175.045H142.606C143.403 175.045 144.048 175.728 144.048 176.562Z" fill="#C96237"/>
<path d="M143.069 176.562V180.855C143.069 184.798 140.019 187.999 136.255 187.999H128.014C127.346 187.999 126.769 187.521 126.61 186.846L124.273 176.926C124.053 175.971 124.736 175.045 125.677 175.045H141.62C142.417 175.045 143.062 175.728 143.062 176.562H143.069Z" fill="#F18D4F"/>
<path d="M42.2436 122.451H35.6342C35.2396 122.451 34.9209 122.117 34.9209 121.707C34.9209 119.963 36.264 118.552 37.9259 118.552H42.2436C42.6382 118.552 42.9569 118.886 42.9569 119.296V121.7C42.9569 122.109 42.6382 122.443 42.2436 122.443V122.451Z" fill="#C96237"/>
<path d="M35.543 118.552H40.4374C40.8396 118.552 41.1659 118.879 41.1659 119.281V121.723C41.1659 122.125 40.8396 122.451 40.4374 122.451H33.8584C33.4562 122.451 33.1299 122.125 33.1299 121.723V120.964C33.1299 119.637 34.2074 118.552 35.543 118.552Z" fill="#F58220"/>
<path d="M78.0901 122.451H84.6615C85.0637 122.451 85.39 122.125 85.39 121.723V120.964C85.39 119.637 84.3125 118.552 82.9769 118.552H78.0825C77.6803 118.552 77.354 118.879 77.354 119.281V121.723C77.354 122.125 77.6803 122.451 78.0825 122.451H78.0901Z" fill="#C96237"/>
<path d="M69.9632 122.451H63.3917C62.9895 122.451 62.6632 122.125 62.6632 121.723V119.281C62.6632 118.879 62.9895 118.553 63.3917 118.553H68.2861C69.6141 118.553 70.6992 119.629 70.6992 120.964V121.723C70.6992 122.125 70.3729 122.451 69.9707 122.451H69.9632Z" fill="#C96237"/>
<path d="M76.0871 122.451H82.6586C83.0608 122.451 83.3871 122.125 83.3871 121.723V120.964C83.3871 119.637 82.3096 118.552 80.974 118.552H76.0796C75.6774 118.552 75.3511 118.879 75.3511 119.281V121.723C75.3511 122.125 75.6774 122.451 76.0796 122.451H76.0871Z" fill="#F58220"/>
<path d="M61.3884 122.451H67.9599C68.3621 122.451 68.6884 122.125 68.6884 121.723V120.964C68.6884 119.637 67.6108 118.552 66.2753 118.552H61.3808C60.9786 118.552 60.6523 118.879 60.6523 119.281V121.723C60.6523 122.125 60.9786 122.451 61.3808 122.451H61.3884Z" fill="#F58220"/>
<path d="M163.793 82.5516C162.859 82.7109 161.926 82.9005 161 83.1128C150.475 85.5093 140.823 91.1214 133.295 99.2666C132.855 99.7368 132.43 100.222 132.005 100.708C130.617 102.315 129.304 104.022 128.082 105.812H34.9053C36.127 104.022 37.4398 102.323 38.8284 100.708C39.2458 100.222 39.6783 99.7368 40.1109 99.2666C50.3551 88.1865 64.53 81.7932 79.4714 81.7932H163.057C163.178 81.7932 163.299 81.8235 163.406 81.8842C163.55 81.9676 163.664 82.0966 163.724 82.2558C163.755 82.3241 163.77 82.3923 163.777 82.4758C163.777 82.4985 163.777 82.5289 163.777 82.5516H163.793Z" fill="#FED0A7"/>
<path d="M76.0493 105.804H46.4321C46.4321 104.939 47.0999 104.242 47.9194 104.242H74.5544C74.9641 104.242 75.336 104.416 75.6092 104.697C75.8823 104.985 76.0493 105.372 76.0493 105.804Z" fill="#C96237"/>
<path d="M76.0493 105.804H48.4507C48.4507 104.939 49.1185 104.242 49.938 104.242H74.5544C74.9642 104.242 75.336 104.416 75.6092 104.697C75.8824 104.985 76.0493 105.372 76.0493 105.804Z" fill="#F18D4F"/>
<path d="M161 99.259V100.7H132.005C132.43 100.215 132.855 99.7292 133.295 99.259H161Z" fill="#C96237"/>
<path d="M133.288 99.259C132.847 99.7292 132.422 100.215 131.998 100.7H38.8359C39.2533 100.215 39.6858 99.7292 40.1184 99.259H133.288Z" fill="#F18D4F"/>
<path d="M161.744 211.759C161.668 210.857 161.554 209.962 161.372 209.09C161.19 208.217 160.947 207.361 160.644 206.526C160.029 204.873 159.217 203.318 158.178 201.953C157.161 200.573 155.931 199.382 154.588 198.381C153.905 197.896 153.2 197.456 152.471 197.077C151.743 196.69 150.976 196.387 150.202 196.121C149.428 195.856 148.631 195.666 147.835 195.537C147.433 195.461 147.03 195.431 146.628 195.385C146.226 195.363 145.824 195.332 145.414 195.34C145.019 195.332 144.572 195.348 144.147 195.355L143.502 195.37L142.88 195.393L142.257 195.416C142.052 195.423 141.84 195.431 141.635 195.454L140.391 195.568C138.736 195.772 137.097 196.083 135.496 196.538C133.887 196.986 132.324 197.585 130.814 198.29L130.245 198.556L129.964 198.692L129.684 198.836L128.576 199.428L127.498 200.072C127.316 200.179 127.141 200.292 126.967 200.414L126.443 200.762C125.047 201.703 123.719 202.765 122.467 203.91C121.223 205.07 120.069 206.337 118.999 207.671L118.605 208.18C118.476 208.346 118.339 208.513 118.218 208.695L117.474 209.749L116.768 210.834L116.594 211.107L116.434 211.388L116.108 211.949C115.251 213.458 114.484 215.028 113.847 216.658C113.217 218.297 112.693 219.98 112.291 221.702C111.874 223.423 111.631 225.19 111.464 226.973C111.434 227.42 111.388 227.867 111.365 228.315L111.289 229.672C111.229 230.575 111.183 231.477 111.115 232.38C111.047 231.477 111.001 230.575 110.94 229.672L110.865 228.315C110.842 227.86 110.834 227.405 110.819 226.95C110.819 226.722 110.796 226.495 110.804 226.267L110.819 225.585C110.834 225.13 110.834 224.667 110.88 224.212C110.918 223.757 110.948 223.294 110.986 222.839L111.16 221.474C111.434 219.662 111.851 217.857 112.397 216.105L112.845 214.8C113.004 214.368 113.179 213.943 113.346 213.519C113.505 213.086 113.71 212.669 113.9 212.252L114.188 211.623C114.287 211.418 114.401 211.213 114.499 211.008L114.818 210.394L114.977 210.091L115.152 209.795L115.842 208.604L116.594 207.452C116.715 207.254 116.852 207.072 116.988 206.89L117.39 206.337C118.476 204.858 119.682 203.485 120.98 202.203C123.605 199.686 126.603 197.562 129.873 196.06C130.078 195.969 130.275 195.863 130.488 195.772L131.11 195.514C131.527 195.348 131.937 195.166 132.362 195.021C132.787 194.877 133.204 194.718 133.629 194.582L134.919 194.202C136.65 193.747 138.41 193.429 140.186 193.262L141.521 193.171C141.741 193.148 141.969 193.156 142.189 193.148H142.857L143.525 193.133L144.17 193.148C144.602 193.156 145.019 193.156 145.482 193.186C145.938 193.194 146.393 193.247 146.848 193.292C147.304 193.361 147.751 193.414 148.199 193.52C149.094 193.709 149.975 193.967 150.825 194.301C152.532 194.961 154.118 195.924 155.529 197.092C156.933 198.283 158.155 199.678 159.126 201.248C159.612 202.029 160.044 202.848 160.393 203.697C160.75 204.547 161.061 205.419 161.274 206.314C161.486 207.209 161.645 208.111 161.736 209.021C161.805 209.931 161.82 210.842 161.759 211.744L161.744 211.759Z" fill="#FFECDC"/>
<path d="M9.12793 159.438H82.2336L81.7176 162.676C81.4976 164.041 80.3745 165.042 79.0617 165.042H9.84123" fill="#342745"/>
<path d="M33.2888 160.621H36.013C36.1648 160.621 36.2862 160.742 36.2862 160.894V162.456C36.2862 162.608 36.1648 162.729 36.013 162.729H33.2888C33.137 162.729 33.0156 162.608 33.0156 162.456V160.894C33.0156 160.742 33.137 160.621 33.2888 160.621Z" fill="#493A5B"/>
<path d="M32.9094 160.621H35.6336C35.7854 160.621 35.9068 160.742 35.9068 160.894V162.456C35.9068 162.608 35.7854 162.729 35.6336 162.729H32.9094C32.7576 162.729 32.6362 162.608 32.6362 162.456V160.894C32.6362 160.742 32.7576 160.613 32.917 160.613L32.9094 160.621Z" fill="#6D617C"/>
<path d="M13.8706 161.478L34.1086 161.152C34.397 161.152 34.6322 161.387 34.6322 161.69C34.6322 161.986 34.397 162.229 34.1086 162.229L13.8706 161.902" fill="#493A5B"/>
<path d="M70.0698 160.621H72.794C72.9457 160.621 73.0748 160.742 73.0748 160.901V162.464C73.0748 162.615 72.9533 162.737 72.8016 162.737H70.0774C69.9256 162.737 69.8042 162.615 69.8042 162.464V160.901C69.8042 160.75 69.9256 160.628 70.0774 160.628L70.0698 160.621Z" fill="#493A5B"/>
<path d="M72.4146 160.621H69.6828C69.532 160.621 69.4097 160.743 69.4097 160.894V162.464C69.4097 162.614 69.532 162.737 69.6828 162.737H72.4146C72.5655 162.737 72.6878 162.614 72.6878 162.464V160.894C72.6878 160.743 72.5655 160.621 72.4146 160.621Z" fill="#6D617C"/>
<path d="M71.4052 161.698C71.4052 161.993 71.1699 162.236 70.8816 162.236L50.6436 161.91C50.5298 161.91 50.4463 161.811 50.4463 161.698C50.4463 161.584 50.5374 161.485 50.6436 161.485L70.8816 161.159C71.1699 161.159 71.4052 161.394 71.4052 161.698Z" fill="#493A5B"/>
<path d="M35.3228 103.438H38.6617C39.4205 103.438 40.0351 104.052 40.0351 104.81V105.812H33.5396V105.22C33.5396 104.234 34.3363 103.438 35.3228 103.438Z" fill="#C96237"/>
<path d="M34.1163 103.438H37.4551C38.2139 103.438 38.8286 104.052 38.8286 104.81V105.812H32.333V105.22C32.333 104.234 33.1298 103.438 34.1163 103.438Z" fill="#F58220"/>
<path d="M83.7208 103.438H87.0596C87.8184 103.438 88.4331 104.052 88.4331 104.81V105.812H81.9375V105.22C81.9375 104.234 82.7343 103.438 83.7208 103.438Z" fill="#C96237"/>
<path d="M82.522 103.438H85.8609C86.6197 103.438 87.2344 104.052 87.2344 104.81V105.812H80.7388V105.22C80.7388 104.234 81.5355 103.438 82.522 103.438Z" fill="#F58220"/>
<path d="M72.0123 230.916C72.0123 231.606 71.6405 232.19 71.1473 232.349C71.0638 232.38 70.9651 232.395 70.8741 232.395C70.2443 232.395 69.7358 231.735 69.7358 230.916C69.7358 230.097 70.2443 229.437 70.8741 229.437C70.9651 229.437 71.0562 229.452 71.1473 229.475C71.6405 229.634 72.0123 230.218 72.0123 230.916Z" fill="#F18D4F"/>
<path d="M72.0124 230.916C72.0124 231.606 71.6405 232.19 71.1473 232.349C70.6465 232.19 70.2822 231.614 70.2822 230.916C70.2822 230.218 70.6541 229.634 71.1473 229.475C71.6405 229.634 72.0124 230.218 72.0124 230.916Z" fill="white"/>
<path d="M78.6671 230.916C78.6671 231.606 78.2953 232.19 77.802 232.349C77.7186 232.38 77.6199 232.395 77.5289 232.395C76.899 232.395 76.3906 231.735 76.3906 230.916C76.3906 230.097 76.899 229.437 77.5289 229.437C77.6199 229.437 77.711 229.452 77.802 229.475C78.2953 229.634 78.6671 230.218 78.6671 230.916Z" fill="#F18D4F"/>
<path d="M78.6671 230.916C78.6671 231.606 78.2953 232.19 77.8021 232.349C77.3012 232.19 76.937 231.614 76.937 230.916C76.937 230.218 77.3088 229.634 77.8021 229.475C78.2953 229.634 78.6671 230.218 78.6671 230.916Z" fill="white"/>
<path d="M79.3047 200.497V209.711C79.3047 210.682 78.5155 211.479 77.5366 211.479H76.7626C73.5679 211.479 70.9727 208.885 70.9727 205.692V198.927C70.9727 197.782 71.9061 196.849 73.0519 196.849H75.6547C77.6656 196.849 79.2971 198.48 79.2971 200.489L79.3047 200.497Z" fill="#FFECDC"/>
<path d="M78.4699 200.588V209.673C78.4699 210.136 78.1512 210.515 77.7338 210.591C77.6807 210.599 77.6352 210.606 77.5821 210.606H76.6335C76.5273 210.606 76.421 210.606 76.3148 210.591C73.8031 210.424 71.8149 208.232 71.8149 205.555V198.98C71.8149 198.29 72.3461 197.729 73.0063 197.729H75.7457C77.2482 197.729 78.4699 199.01 78.4699 200.588Z" fill="#C96237"/>
<path d="M78.4697 200.588V209.673C78.4697 210.136 78.151 210.515 77.7337 210.591C75.2371 210.409 73.2642 208.225 73.2642 205.563V198.988C73.2642 198.298 73.7953 197.736 74.4555 197.736H75.7455C77.248 197.736 78.4697 199.018 78.4697 200.595V200.588Z" fill="white"/>
<path d="M24.8507 135.723H33.7062C39.2457 135.723 43.4724 140.902 42.6225 146.636L40.7178 159.438H15.3501" fill="#342745"/>
<path d="M23.8494 141.911C24.3806 138.347 27.3096 135.715 30.7471 135.715H39.6027C45.1422 135.715 49.3688 140.895 48.5189 146.628L46.6143 159.43H21.2466" fill="#342745"/>
<path d="M85.5044 138.885L82.2339 159.438H60.4175L63.0203 141.911C63.5514 138.347 66.4805 135.723 69.918 135.723H78.766C81.4674 135.723 83.8577 136.959 85.5044 138.885Z" fill="#342745"/>
<path d="M79.8814 159.438H54.5137L57.1165 141.911C57.6476 138.347 60.5767 135.715 64.0142 135.715H72.8698C78.4092 135.715 82.6359 140.895 81.786 146.628L79.8814 159.43V159.438Z" fill="#342745"/>
<path d="M16.4126 165.042L34.8522 125.757H45.8856L27.4536 165.042" fill="#766A89"/>
<path d="M84.6695 125.765L66.2451 165.035H39.0259L57.4579 125.75H84.4039C84.495 125.75 84.5785 125.75 84.6695 125.765Z" fill="#766A89"/>
<g opacity="0.25">
<path d="M118.02 127.509L99.2844 162.251L95.3765 162.615L96.3402 160.833H96.6437C98.2145 160.833 99.5045 159.544 99.588 157.898L99.7549 154.493L114.309 127.509H118.02Z" fill="#766A89"/>
<path d="M109.293 161.318L122.983 135.935V159.589C122.983 159.741 122.922 159.885 122.816 159.969C122.74 160.037 122.649 160.082 122.55 160.09L109.301 161.318H109.293Z" fill="#766A89"/>
<path d="M142.561 127.737V134.881L129.365 159.354C129.258 159.278 129.198 159.149 129.198 159.005V127.942C129.198 127.699 129.387 127.509 129.615 127.509H142.348C142.47 127.509 142.568 127.615 142.568 127.737H142.561Z" fill="#766A89"/>
</g>
</g>
<defs>
<clipPath id="clip0_658_23258">
<rect width="389.5" height="244.036" fill="white" transform="translate(0.5 0.28125)"/>
</clipPath>
</defs>
</svg>
