<svg width="330" height="393" viewBox="0 0 330 393" fill="none" xmlns="http://www.w3.org/2000/svg">
<g clip-path="url(#clip0_648_22707)">
<path d="M181.605 72.8363C181.605 72.8363 186.491 71.2998 197.344 71.2998C208.196 71.2998 214.855 73.6669 214.855 73.6669L217.838 84.7549H180.827L181.605 72.7948V72.8363Z" fill="#FC8D70"/>
<path d="M160.376 356.681L159.813 354.687H145.372L142.562 356.514" fill="#342745"/>
<path d="M198.943 178.318V195.801C198.943 212.454 190.382 238.284 184.675 253.566C181.691 261.623 180.178 270.136 180.178 278.691C180.178 298.209 168.936 320.634 162.018 354.729C162.018 354.729 157.997 356.224 151.944 356.224C145.891 356.224 143.858 354.729 143.858 354.729C145.804 339.862 149.306 301.407 150.949 283.093C151.511 276.988 151.814 273.126 151.814 273.126C153.111 267.811 153.976 262.412 154.322 256.972C155.143 245.136 156.83 222.379 159.078 204.107C159.554 200.078 160.073 196.299 160.635 192.852C161.672 186.125 162.84 180.851 164.05 178.318H198.943Z" fill="#493A5B"/>
<path d="M232.626 356.681L233.188 354.687H247.63L250.44 356.514" fill="#342745"/>
<path d="M250.008 354.729C250.008 354.729 247.5 356.224 242.398 356.224C237.296 356.224 231.805 354.729 231.805 354.729C226.27 320.053 213.645 298.209 213.645 278.899C213.645 270.178 212.175 261.664 209.148 253.608C203.484 238.326 194.879 212.495 194.879 195.842V178.359H229.772C231.415 181.764 232.929 190.278 234.269 200.701C234.399 201.573 234.485 202.445 234.615 203.359C236.907 221.756 238.636 244.97 239.458 256.972C239.847 262.412 240.668 267.811 241.965 273.126C241.965 273.126 247.37 334.92 249.921 354.729H250.008Z" fill="#493A5B"/>
<path d="M152.507 90.2781C138.887 99.2481 120.467 118.849 120.467 118.849L125.699 131.931C125.699 131.931 148.875 127.404 159.857 115.236L152.507 90.3196V90.2781Z" fill="white"/>
<path d="M125.439 132.305L120.035 118.766L120.164 118.6C120.164 118.6 138.8 98.8745 152.29 89.9875L152.722 89.6968L160.246 115.278C149.177 127.529 126.001 132.18 125.785 132.263H125.483L125.439 132.305ZM120.856 118.974L125.915 131.599C128.639 131.017 149.307 126.283 159.424 115.195L152.29 90.9011C139.535 99.4144 122.629 117.105 120.856 118.974Z" fill="black"/>
<path d="M130.671 124.497C130.195 128.733 125.699 131.931 125.699 131.931C125.699 131.931 118.608 132.512 116.532 128.982C112.338 121.756 111.517 112.662 111.69 96.258C111.819 96.8809 114.327 97.047 117.311 96.5902C120.337 96.1749 122.715 95.3029 122.586 94.6799C125.093 111.582 131.233 119.181 130.628 124.497H130.671Z" fill="white"/>
<path d="M124.488 132.304C122.326 132.304 117.829 131.931 116.229 129.148C111.906 121.715 111.171 112.246 111.344 96.2581V92.8113L112.035 96.1751C112.208 96.4242 114.154 96.6734 117.267 96.2581C120.38 95.8013 122.153 95.0123 122.24 94.7216L122.931 94.6385C124.315 103.899 126.823 110.461 128.639 115.195C130.152 119.182 131.276 122.047 130.974 124.497C130.455 128.858 126.044 132.014 125.828 132.138C125.569 132.221 125.093 132.263 124.445 132.263L124.488 132.304ZM112.035 96.9226C111.906 112.371 112.641 121.59 116.835 128.775C118.651 131.848 124.661 131.599 125.526 131.557C126.131 131.1 129.849 128.193 130.282 124.456C130.541 122.172 129.46 119.348 127.99 115.444C126.217 110.793 123.796 104.439 122.369 95.5106C121.029 96.3827 117.829 96.8395 117.354 96.9226C116.878 97.0056 113.505 97.4209 112.035 96.9226Z" fill="black"/>
<path d="M121.894 88.0771C121.894 88.0771 122.758 84.3811 121.332 79.8545C120.683 79.2731 118.997 79.4808 118.089 79.5638L113.289 80.0206C112.252 80.1037 111.344 80.8096 110.955 81.7648C110.306 83.5505 110.349 85.4608 111.084 87.205L111.776 88.8246L121.85 88.0771H121.894Z" fill="#F1A19A"/>
<path d="M208.802 78.0688H185.151C185.713 77.0306 186.232 75.7847 186.621 74.4558C186.794 73.8329 187.01 73.21 187.14 72.5455C188.696 66.1918 188.999 58.4675 188.999 58.4675H204.954C204.954 58.4675 205.256 66.0256 206.77 72.3379C206.943 73.0439 207.116 73.7499 207.332 74.4143C207.764 75.7847 208.24 77.0721 208.845 78.1103L208.802 78.0688Z" fill="#F6C1AF"/>
<path d="M230.68 176.2C230.81 177.57 229.989 178.899 228.691 179.439C225.967 180.602 220.995 182.512 215.028 184.09C209.926 185.419 204.089 186.457 198.338 186.457C192.069 186.457 185.064 185.211 178.925 183.675C173.606 182.346 168.893 180.851 165.824 179.771C163.489 178.982 162.062 176.74 162.365 174.372C164.397 158.799 169.801 154.148 169.801 143.393C169.801 131.765 156.311 120.801 152.506 90.2781C162.365 83.0937 177.671 79.5639 183.162 78.4426C184.459 78.1934 185.237 78.0688 185.237 78.0688H208.672C208.672 78.0688 209.537 78.1934 211.007 78.4426C217.06 79.5223 233.361 82.9276 241.447 90.2781C237.642 120.843 226.313 132.18 226.313 143.766C226.313 155.353 229.124 159.298 230.724 176.2H230.68Z" fill="#A9B881"/>
<path d="M125.007 101.698C125.007 101.698 125.785 102.321 128.423 111.665C131.06 121.009 136.119 127.155 125.699 131.931C120.597 133.343 111.603 135.294 110.609 107.595C108.663 105.851 109.83 104.024 110.479 103.069L125.05 101.698H125.007Z" fill="white"/>
<path d="M121.591 132.927C120.164 132.927 118.651 132.595 117.224 131.598C112.987 128.65 110.695 120.843 110.22 107.72C108.144 105.768 109.614 103.65 110.133 102.861C110.22 102.736 125.094 101.324 125.094 101.324C125.612 101.74 126.78 104.564 128.726 111.54C129.244 113.326 129.806 114.946 130.369 116.565C132.703 123.085 134.519 128.235 125.785 132.221C124.661 132.554 123.191 132.927 121.548 132.927H121.591ZM110.652 103.359C109.874 104.564 109.312 105.934 110.825 107.304C111.387 120.344 113.636 128.276 117.657 131.059C120.208 132.844 123.105 132.263 125.569 131.557C133.655 127.861 132.098 123.459 129.72 116.773C129.158 115.195 128.553 113.534 128.077 111.706C126.002 104.356 125.094 102.487 124.834 102.03L110.652 103.359Z" fill="black"/>
<path d="M125.05 100.992C125.05 100.992 125.05 100.868 125.007 100.785L123.321 94.4723C123.148 93.6833 122.11 93.3511 120.078 93.3511C119.127 93.3511 118.003 93.4341 116.878 93.6002C115.365 93.8079 113.981 94.1401 112.9 94.5139C111.992 94.8461 110.825 95.3859 110.955 96.2996C110.955 96.2996 110.436 102.861 110.479 103.027C110.695 104.439 112.511 104.605 114.284 104.605C115.408 104.605 116.749 104.522 118.132 104.314C119.818 104.065 121.418 103.733 122.629 103.318C123.45 103.027 125.31 102.404 125.094 100.951L125.05 100.992Z" fill="white"/>
<path d="M114.241 104.979C112.987 104.979 110.393 104.979 110.09 103.11C110.09 103.069 110.09 102.902 110.565 96.341C110.393 95.0536 112.122 94.4307 112.771 94.2231C113.852 93.8493 115.278 93.5171 116.835 93.3095C118.002 93.1434 119.127 93.0603 120.078 93.0603C121.591 93.0603 123.407 93.2264 123.667 94.4722C123.753 94.846 124.012 95.6766 124.488 97.6284C125.093 99.954 125.266 100.577 125.31 100.785C125.31 100.868 125.353 100.951 125.396 101.034C125.655 102.778 123.494 103.484 122.672 103.775C121.461 104.19 119.862 104.522 118.132 104.771C116.748 104.979 115.365 105.062 114.197 105.062L114.241 104.979ZM120.078 93.7248C119.127 93.7248 118.046 93.8078 116.921 93.9739C115.451 94.1816 114.068 94.5138 113.03 94.8875C111.776 95.3443 111.214 95.8012 111.301 96.2995C111.084 98.9158 110.825 102.819 110.825 103.069C110.955 103.941 111.992 104.314 114.241 104.314C115.365 104.314 116.662 104.231 118.046 104.024C119.732 103.775 121.288 103.442 122.456 103.069C123.58 102.695 124.834 102.113 124.704 101.075C124.661 100.826 122.975 94.5968 122.975 94.5968C122.845 94.0154 121.894 93.7248 120.078 93.7248Z" fill="black"/>
<path d="M230.248 179.979L234.615 180.186C235.393 180.186 236.128 179.688 236.258 178.94C236.387 178.11 235.825 177.279 234.917 177.155L233.361 176.864L231.372 177.404L230.291 180.02L230.248 179.979Z" fill="#F1A19A"/>
<path d="M226.875 169.389L224.411 171.964C223.849 172.545 223.849 173.5 224.411 174.082L224.584 174.248C224.584 175.494 225.103 176.615 226.097 177.362L226.357 177.57C226.357 178.359 226.789 179.106 227.481 179.48C228.345 179.979 229.34 180.145 230.291 179.937L233.404 179.314L232.194 174.165L226.919 169.389H226.875Z" fill="#F1A19A"/>
<path d="M122.629 94.6801C122.326 92.6037 122.067 90.4027 121.894 88.0771L111.819 88.8247C111.776 91.3994 111.733 93.8496 111.689 96.1336C111.819 96.8396 114.327 97.0057 117.31 96.5904C120.337 96.1751 122.715 95.303 122.585 94.6801H122.629Z" fill="white"/>
<path d="M114.154 97.1718C112.771 97.1718 111.473 97.0057 111.344 96.2997C111.344 93.8495 111.387 91.3994 111.43 88.8247V88.4924L122.196 87.6619V87.9941C122.413 90.2366 122.629 92.4376 122.975 94.5971C123.191 96.009 117.959 96.798 117.354 96.8811C117.051 96.9226 115.581 97.1303 114.154 97.1303V97.1718ZM112.036 96.1751C112.338 96.4243 114.241 96.6735 117.267 96.2582C120.337 95.8429 122.11 95.0539 122.24 94.7216C121.937 92.6868 121.678 90.5688 121.548 88.4509L112.165 89.1569C112.122 91.6486 112.079 93.9741 112.036 96.1751Z" fill="black"/>
<path d="M231.632 167.188L229.556 167.728C227.913 168.143 226.573 169.347 225.967 170.884C225.146 173.043 225.708 175.452 227.437 177.03C228.864 178.318 230.594 179.522 232.194 179.522C235.566 179.522 238.679 174.829 238.679 174.829L231.632 167.188Z" fill="#F6C1AF"/>
<path d="M251.694 164.364C247.759 167.853 244.17 170.676 241.792 172.504C241.144 173.002 240.582 173.417 240.149 173.75C239.198 174.456 238.679 174.829 238.679 174.829L231.631 167.188C232.15 166.69 232.626 166.191 233.101 165.693C233.361 165.444 233.577 165.153 233.836 164.904C237.425 161.042 239.976 157.927 241.879 155.27C241.36 156.266 242.873 158.841 245.381 161.167C247.975 163.617 250.742 164.946 251.737 164.323L251.694 164.364Z" fill="#F6C1AF"/>
<path d="M251.824 164.24C250.7 165.029 247.933 163.658 245.338 161.208C242.83 158.841 241.317 156.308 241.836 155.311C241.836 155.228 241.922 155.186 241.966 155.103C242.83 154.273 245.684 155.643 248.408 158.176C251.089 160.668 252.602 163.367 251.824 164.24Z" fill="white"/>
<path d="M251.045 164.862C249.532 164.862 247.068 163.284 245.079 161.457C242.873 159.381 240.798 156.557 241.49 155.145C241.533 155.02 241.62 154.937 241.706 154.854C242.874 153.691 246.16 155.56 248.667 157.927C251.175 160.253 253.121 163.243 252.126 164.447C251.997 164.572 251.953 164.613 251.91 164.655C251.694 164.821 251.391 164.862 251.089 164.862H251.045ZM251.478 164.073L251.78 164.281L251.521 164.032C252.04 163.451 250.959 161.083 248.149 158.426C245.252 155.726 242.744 154.813 242.225 155.353C241.749 156.225 243.046 158.592 245.597 160.959C248.192 163.367 250.786 164.53 251.478 164.073Z" fill="black"/>
<path d="M252.732 165.153C252.732 165.153 252.515 165.361 252.386 165.444C251.261 166.316 247.759 169.057 245.338 170.801C244.646 171.299 244.084 171.715 243.652 172.005C243.392 172.255 242.96 172.545 242.225 172.545C240.798 172.545 238.722 171.465 236.863 169.721C234.528 167.562 232.885 164.613 234.269 163.284C234.269 163.284 234.399 163.035 234.615 162.662C235.566 161 238.29 156.432 241.014 154.231C241.317 153.941 241.836 153.608 242.7 153.608C244.689 153.608 247.457 155.519 249.359 157.263C250.786 158.592 251.91 160.004 252.645 161.25C253.856 163.409 253.38 164.572 252.775 165.153H252.732Z" fill="#F58220"/>
<path d="M268.081 145.884C268.081 145.884 268.081 146.175 268.038 146.341C267.908 147.213 267.649 148.002 267.216 148.5C266.481 149.456 265.66 150.369 264.882 151.324C264.579 151.698 264.233 152.03 263.93 152.404C263.541 152.819 263.152 153.276 262.763 153.691C262.59 153.858 262.46 154.024 262.287 154.19C260.558 156.017 258.785 157.803 257.012 159.505C256.839 159.671 256.71 159.796 256.537 159.962C255.542 160.917 254.548 161.831 253.597 162.703C253.38 162.911 253.164 163.118 252.948 163.284C252.559 163.617 252.213 163.949 251.824 164.281C251.435 164.572 251.002 164.613 250.527 164.489C250.267 164.447 249.965 164.323 249.662 164.198C249.316 164.032 249.1 163.949 248.884 163.824C247.803 163.243 246.549 162.329 245.338 161.208C244.387 160.336 243.565 159.422 242.96 158.55C242.874 158.426 242.787 158.301 242.701 158.176C242.528 157.886 242.355 157.595 242.182 157.346C242.009 156.972 241.879 156.64 241.793 156.349C241.663 155.934 241.663 155.56 241.793 155.311C241.966 155.062 242.139 154.771 242.311 154.48C242.83 153.733 243.436 152.902 243.436 152.902C243.868 152.196 244.3 151.573 244.646 150.951C244.733 150.784 244.863 150.618 244.949 150.452C246.765 147.421 247.716 145.303 249.273 143.434C249.013 143.226 248.754 143.019 248.494 142.811C248.365 142.686 248.235 142.603 248.105 142.479C247.457 141.939 246.808 141.358 246.073 140.735C245.122 139.863 244.084 138.949 243.09 137.952L242.657 137.537C242.657 137.537 242.441 137.329 242.311 137.205C242.182 137.08 242.095 136.956 241.966 136.873C241.101 136.042 240.236 135.128 239.415 134.215C239.285 134.049 239.112 133.924 238.982 133.758C238.247 132.969 237.555 132.138 236.864 131.308C236.777 131.183 236.647 131.059 236.561 130.934C235.004 129.024 233.534 127.03 232.28 124.996C232.194 124.871 232.107 124.746 232.021 124.58C230.767 122.504 229.729 120.386 229.037 118.268C228.994 118.143 228.951 117.977 228.908 117.853C228.778 117.479 228.692 117.105 228.605 116.731C228.519 116.316 228.389 115.901 228.346 115.486C228.346 115.278 228.302 115.112 228.259 114.904C227.87 112.288 228.043 109.838 228.605 107.512C228.951 106.183 229.383 104.937 229.902 103.733C229.989 103.567 230.032 103.442 230.118 103.276C231.545 100.286 233.491 97.6701 235.35 95.6352C235.523 95.4691 235.696 95.2614 235.869 95.0953C238.204 92.6036 240.366 90.984 241.101 90.4857C241.274 90.3611 241.36 90.3196 241.36 90.3196L241.533 90.5272C242.095 91.1501 242.701 91.8146 243.263 92.5206C243.479 92.7697 243.652 93.0189 243.868 93.2681C243.955 93.3927 244.041 93.5172 244.171 93.6418C244.387 93.891 244.56 94.1817 244.776 94.4309C244.906 94.597 245.079 94.8046 245.208 95.0123C246.203 96.3412 247.197 97.8362 248.149 99.3727C248.235 99.4973 248.322 99.6219 248.365 99.7465C249.532 101.615 250.7 103.567 251.867 105.643L252.083 106.017C252.083 106.017 252.299 106.391 252.386 106.557C252.645 107.055 252.948 107.554 253.207 108.052C253.899 109.339 254.591 110.668 255.283 111.997C255.369 112.122 255.413 112.246 255.499 112.371C256.537 114.406 257.531 116.399 258.526 118.393C258.655 118.683 258.785 118.974 258.915 119.223C259.866 121.258 260.817 123.21 261.639 125.079C261.725 125.203 261.769 125.369 261.812 125.494C262.893 127.819 263.801 129.979 264.622 131.848C264.968 132.678 265.314 133.426 265.617 134.132C266.568 136.333 267.216 137.952 267.562 138.741C267.649 138.949 267.692 139.074 267.735 139.157C267.735 139.24 268.384 143.019 268.038 145.884H268.081Z" fill="#F58220"/>
<path d="M209.666 80.8097C207.418 83.0107 202.619 84.5472 197.041 84.5472C195.528 84.5472 194.101 84.4227 192.717 84.215C192.155 84.132 191.593 84.0074 191.074 83.9243C188.004 83.2599 185.583 82.0556 184.243 80.6021C183.378 79.6885 183.94 78.235 185.194 78.0273H208.629C210.012 78.235 210.618 79.8546 209.623 80.8097H209.666Z" fill="#F6C1AF"/>
<path d="M177.541 52.7367C177.541 52.7367 173.693 47.6287 175.249 41.5241C176.806 35.4195 177.325 35.2949 177.325 35.2949C177.325 35.2949 177.065 36.3331 177.152 36.956C178.751 33.7999 180.481 30.27 183.854 28.2351C182.989 29.6886 185.41 31.3913 185.41 31.3913C185.41 31.3913 189.129 27.986 187.529 23.9993C189.129 24.1239 190.382 26.9062 190.382 26.9062C190.382 26.9062 190.858 25.7019 190.382 24.9129C192.242 25.0375 203.354 25.4527 208.067 33.6753C208.456 32.5125 207.98 30.8514 207.98 30.8514C207.98 30.8514 215.028 36.3746 213.99 49.3314C204.781 55.3114 177.454 52.7782 177.454 52.7782L177.541 52.7367Z" fill="#7F3E2F"/>
<path d="M185.108 62.6204L182.686 63.1603C182.038 63.2848 181.389 63.1187 180.957 62.6619L179.876 61.5822C178.795 60.4609 177.973 59.0905 177.498 57.637L176.547 54.6055C176.287 53.8164 176.763 53.0274 177.584 52.8198C177.671 52.8198 177.757 52.8198 177.844 52.7782H178.492L181.043 52.4875L182.384 53.6919L185.108 62.7035V62.6204Z" fill="#F1A19A"/>
<path d="M214.812 49.9957L214.639 53.1519C214.553 54.6884 214.12 56.1834 213.342 57.5538L212.564 58.8828C212.261 59.4226 211.656 59.7548 211.007 59.7964H208.542L208.888 50.4525L209.883 48.9575L212.347 48.5838L213.039 48.5007C213.039 48.5007 213.255 48.5007 213.342 48.5007C214.163 48.5007 214.812 49.2067 214.769 49.9957H214.812Z" fill="#F1A19A"/>
<path d="M212.304 47.3381L212.434 54.0657V55.1454L212.607 62.662C212.434 66.1088 204.262 73.9992 204.262 73.9992C203.657 74.4975 202.835 74.8297 201.884 74.9543L195.225 75.7433C194.317 75.8679 193.366 75.7433 192.674 75.3696C192.674 75.3696 182.773 69.6387 181.692 66.3165L180.092 59.672L179.833 58.5092L178.103 51.3248C175.768 43.9328 179.53 36.001 186.924 33.0109C189.431 31.9727 196.436 31.1422 199.16 31.5575C207.072 32.7618 212.78 39.5724 212.347 47.2551L212.304 47.3381Z" fill="#F6C1AF"/>
<path d="M191.637 53.6089C191.637 53.9826 191.334 54.2733 190.945 54.3564C188.221 54.9793 186.016 55.6438 184.675 56.1006C184.07 56.1836 183.638 56.0175 183.422 55.6438C182.816 54.6471 182.903 53.3182 183.767 52.4876C183.94 52.3215 184.113 52.1554 184.33 51.9893C184.805 51.6155 185.367 51.3249 186.059 51.1172C186.967 50.868 187.875 50.9096 188.74 51.1172C189.345 51.2418 189.907 51.4494 190.383 51.6155C191.204 51.9478 191.723 52.7783 191.637 53.6504V53.6089Z" fill="white"/>
<path d="M191.593 52.8614C191.42 52.4461 191.118 52.0723 190.728 51.8232C190.556 51.6986 190.339 51.6155 190.08 51.574C189.864 51.4909 189.648 51.4494 189.388 51.3663C188.48 51.1172 187.529 50.9926 186.621 51.1587C186.189 51.2418 185.713 51.3663 185.324 51.574C184.891 51.7816 184.502 52.0308 184.156 52.3215C183.983 52.4876 183.81 52.6122 183.681 52.7783C183.551 52.9444 183.421 53.1521 183.335 53.3597C183.162 53.775 183.075 54.2318 183.075 54.6886C182.946 54.2318 182.989 53.7334 183.119 53.2766C183.205 53.069 183.292 52.8198 183.421 52.6122C183.551 52.4045 183.724 52.2384 183.897 52.0723C184.589 51.4079 185.54 50.9095 186.534 50.7849C187.053 50.7019 187.529 50.7019 188.048 50.7849C188.523 50.868 189.042 50.9511 189.475 51.1172C189.691 51.2002 189.95 51.2833 190.166 51.3663C190.383 51.4494 190.642 51.574 190.815 51.7401C191.204 52.0308 191.507 52.4876 191.55 52.9444L191.593 52.8614Z" fill="#F1A19A"/>
<path d="M198.727 52.7368C198.857 53.069 199.203 53.3182 199.592 53.3182C202.402 53.3182 204.694 53.4428 206.121 53.5258C206.726 53.4843 207.115 53.1936 207.245 52.7783C207.591 51.6571 207.159 50.4112 206.121 49.7883C205.905 49.6637 205.688 49.5391 205.429 49.4145C204.91 49.1654 204.262 48.9993 203.527 48.9993C202.619 48.9993 201.711 49.2484 200.932 49.6222C200.37 49.8714 199.851 50.2036 199.462 50.4943C198.727 51.0341 198.468 51.9478 198.77 52.7783L198.727 52.7368Z" fill="white"/>
<path d="M198.641 52.0308C198.641 51.574 198.77 51.0757 199.073 50.7019C199.246 50.4943 199.419 50.3282 199.592 50.2036C199.765 50.0375 199.981 49.9129 200.197 49.7883C200.586 49.5391 201.062 49.29 201.494 49.1238C201.97 48.9577 202.446 48.8331 202.964 48.7916C203.959 48.7086 204.997 48.9577 205.861 49.4561C206.078 49.5807 206.294 49.7052 206.467 49.8713C206.64 50.0375 206.813 50.2036 206.942 50.4112C207.202 50.8265 207.331 51.2833 207.331 51.7401C207.245 51.2833 207.029 50.868 206.769 50.4943C206.64 50.3282 206.467 50.162 206.294 50.0375C206.121 49.9129 205.905 49.7883 205.688 49.7052C205.256 49.4976 204.824 49.3315 204.391 49.2484C203.959 49.1654 203.483 49.1238 203.008 49.1654C202.1 49.2484 201.192 49.5807 200.37 50.0375C200.154 50.162 199.981 50.2866 199.765 50.4112C199.549 50.5358 199.376 50.6604 199.203 50.8265C198.9 51.1587 198.684 51.574 198.641 52.0308Z" fill="#F1A19A"/>
<path d="M196.695 60.7517C194.62 60.378 194.577 59.5889 194.49 58.3431C194.404 56.2251 194.49 51.6155 194.533 51.5325C194.75 51.574 194.62 56.2251 194.706 58.3015C194.793 59.5889 194.836 60.1703 196.695 60.5025C196.782 60.6686 196.695 60.7102 196.695 60.7102V60.7517Z" fill="#F1A19A"/>
<path d="M188.912 53.0689C189.042 54.024 188.35 54.8961 187.356 55.0207C186.88 55.0622 186.404 54.9376 186.059 54.6885C186.232 54.5223 186.318 54.3147 186.318 54.0655C186.275 53.6502 185.886 53.4011 185.496 53.4426C185.237 52.529 185.972 51.6984 186.923 51.5738C187.918 51.4493 188.826 52.1137 188.956 53.0689H188.912Z" fill="#5F2F23"/>
<path d="M204.089 50.1204C203.354 49.4974 202.186 49.539 201.538 50.245C201.235 50.5772 201.062 51.034 201.062 51.4493C201.278 51.4077 201.538 51.4493 201.754 51.6154C202.056 51.8645 202.1 52.3214 201.797 52.612C202.446 53.318 203.57 53.2765 204.218 52.5705C204.867 51.8645 204.824 50.7433 204.089 50.1204Z" fill="#5F2F23"/>
<path d="M212.304 47.3381L212.434 54.0656C211.569 54.0656 210.921 53.4842 210.921 52.7367C210.921 50.1205 210.272 46.0923 210.272 46.0923L208.326 43.3099C206.813 35.0043 194.447 36.084 191.723 37.4129C192.761 37.8282 194.404 39.8215 194.144 41.0258C189.907 37.8697 182.384 39.7385 180.784 42.6039C179.184 45.5109 179.876 46.6736 179.876 46.6736V51.0756C180.092 52.3215 180.697 54.8131 181.087 56.2251C181.259 56.848 181.043 57.5125 180.524 57.9693L179.833 58.5507L178.103 51.3663C175.768 43.9743 179.53 36.0425 186.924 33.0524C189.431 32.0142 196.436 31.1837 199.16 31.599C207.072 32.8033 212.78 39.6139 212.347 47.2966L212.304 47.3381Z" fill="#7F3E2F"/>
<path d="M213.342 62.5373C213.212 64.7383 210.013 68.6419 207.548 71.3827C205.905 73.1685 204.608 74.4558 204.608 74.4558C204.003 74.9957 203.095 75.3279 202.1 75.4525L195.096 76.2831C194.144 76.4076 193.15 76.2831 192.415 75.9093C192.415 75.9093 189.475 74.2067 186.578 72.0887C183.983 70.22 181.389 68.019 180.87 66.3578L179.53 60.9177C179.357 60.2947 180.049 59.7549 180.654 60.0041C182.167 60.627 183.465 61.7482 184.286 63.1187C185.194 64.6552 186.664 66.7731 188.696 68.6004C190.426 70.1784 192.588 71.5073 195.139 72.0472C195.744 72.1718 196.349 71.7565 196.393 71.1336L196.479 70.1784C196.522 69.5555 197.041 69.0572 197.69 68.9741H198.122L200.111 68.6834C200.543 68.6419 200.976 68.7665 201.235 69.0572C201.365 69.1818 201.495 69.3894 201.538 69.5555L201.754 70.1369C201.97 70.7598 202.749 71.009 203.311 70.6768C203.959 70.2615 204.565 69.7631 205.04 69.2233C207.678 66.4824 208.456 62.4542 208.715 59.921C208.845 58.3429 209.71 56.8894 211.05 55.9758C211.915 55.3529 213.126 55.9758 213.169 57.014L213.255 62.4957L213.342 62.5373Z" fill="#7F3E2F"/>
<path d="M195.304 66.902C195.008 66.8356 194.84 66.7977 194.798 66.7882C194.671 66.7598 194.605 66.6598 194.632 66.5382C194.659 66.4167 194.762 66.3546 194.889 66.383C194.889 66.383 198.59 67.0963 200.868 66.0331C200.97 65.9711 201.088 66.04 201.163 66.0995C201.229 66.1995 201.16 66.3116 201.099 66.3831C198.68 67.9058 196.658 67.4003 195.364 66.8304L195.304 66.902Z" fill="#F1A19A"/>
<path d="M196.652 43.8084L191.161 44.4728L191.074 43.9745L196.565 43.3101L196.652 43.8084Z" fill="#342745"/>
<path d="M196.479 42.2302L190.901 42.8946L190.771 41.7318L196.349 41.0674L196.479 42.2302Z" fill="#342745"/>
<path d="M189.258 49.9544L182.989 51.1587C181.389 51.4909 179.832 50.4527 179.486 48.9162L179.4 48.5009L179.054 46.9228C179.054 46.9228 179.011 46.5491 179.011 46.3414C179.011 44.8879 180.048 43.559 181.605 43.2683L190.512 41.5242C191.377 41.3581 192.242 41.8979 192.414 42.7285L192.847 44.7218C193.366 47.1305 191.723 49.4145 189.258 49.9128V49.9544Z" fill="#342745"/>
<path d="M189.172 49.5392L188.221 49.7053L184.416 50.4528L182.902 50.7435C182.21 50.8265 181.821 50.7435 181.432 50.6189C180.654 50.3282 180.092 49.6637 179.919 48.8332L179.486 46.8398C179.357 46.1339 179.486 45.4279 179.919 44.805C180.351 44.182 180.957 43.8083 181.692 43.6422L183.378 43.31L184.675 43.0608L186.448 42.7286L190.253 41.981L190.599 41.898C191.29 41.8149 191.896 42.1887 191.982 42.7701L192.415 44.7634C192.847 46.9229 191.42 49.0408 189.172 49.4561V49.5392Z" fill="#493A5B"/>
<path d="M208.974 43.3515V44.2236L209.061 45.3863C209.147 46.9644 207.893 48.2933 206.25 48.3764L199.851 48.6671C197.343 48.7916 195.182 46.9229 195.052 44.4727L194.965 42.4379C194.965 41.5658 195.614 40.8598 196.522 40.8183L205.602 40.403C207.115 40.3199 208.456 41.2751 208.845 42.604C208.931 42.8531 208.974 43.1023 208.974 43.3515Z" fill="#342745"/>
<path d="M208.672 45.4278C208.758 46.6736 207.764 47.7949 206.467 47.961C206.294 47.961 205.732 48.0025 205.732 48.0025L202.013 48.1686L200.327 48.2517H199.895C199.895 48.2517 199.592 48.2517 199.419 48.2517C198.468 48.2101 197.603 47.8364 196.911 47.2135C196.09 46.5075 195.614 45.5108 195.571 44.4311L195.484 42.3962C195.484 41.8148 195.917 41.2749 196.522 41.1919C196.609 41.1919 201.321 40.9843 201.321 40.9843H202.229L203.916 40.8597L205.732 40.7766C206.38 40.7766 206.986 40.9427 207.504 41.2749C207.591 41.3165 207.677 41.3995 207.764 41.4826C208.326 41.9809 208.629 42.6454 208.672 43.3514L208.758 45.3862L208.672 45.4278Z" fill="#493A5B"/>
<path d="M179.4 48.5008L178.492 52.612H177.843C177.843 52.612 177.67 52.6951 177.584 52.7366L179.011 46.3413C179.011 46.3413 179.011 46.7151 179.054 46.9227L179.4 48.5008Z" fill="#342745"/>
<path d="M213.385 48.5007C213.385 48.5007 213.212 48.5007 213.083 48.5007L212.391 48.5838L209.018 44.2234V43.3513C208.975 43.1021 208.932 42.8529 208.845 42.6038L213.385 48.4592V48.5007Z" fill="#342745"/>
<path d="M196.263 63.1186C196.392 63.7 195.96 64.2814 195.355 64.3644C193.495 64.6967 192.198 66.0671 192.112 67.7697C192.112 68.2265 191.723 68.5588 191.247 68.5588C190.728 68.5588 190.382 68.1435 190.382 67.6867C190.512 65.2365 192.328 63.2016 194.879 62.7864L195.528 62.6618C195.83 62.6203 196.133 62.8279 196.219 63.1186H196.263Z" fill="#7F3E2F"/>
<path opacity="0.5" d="M205.17 110.087L201.192 109.755C197.43 109.464 194.706 106.225 195.139 102.612C195.528 99.6219 195.874 96.6734 196.263 93.808C195.657 90.7349 193.582 86.0422 192.76 84.215C192.198 84.132 191.636 84.0074 191.117 83.9243C193.755 89.2399 194.576 94.0572 194.576 94.0572C194.576 94.0572 194.533 94.4724 194.403 95.2199C194.403 95.3445 194.403 95.5106 194.317 95.6768C194.101 97.1302 193.755 99.4973 193.323 102.612C193.323 102.778 193.323 102.903 193.236 103.069C192.977 104.979 192.674 107.18 192.328 109.589C192.198 110.378 192.112 111.208 191.982 112.039C191.766 113.7 191.507 115.486 191.247 117.313C191.247 117.479 191.247 117.604 191.204 117.77C190.901 119.971 190.599 122.255 190.296 124.622C190.296 124.788 190.296 124.913 190.253 125.079C189.95 127.28 189.691 129.564 189.388 131.931C189.388 132.097 189.388 132.221 189.345 132.388C189.085 134.63 188.783 136.873 188.523 139.198C188.523 139.364 188.523 139.489 188.48 139.655C188.22 141.898 187.961 144.14 187.658 146.424V146.881C187.356 148.916 187.14 150.992 186.923 153.069L188.566 161.623C188.566 161.623 190.728 140.444 193.366 117.687C193.841 113.825 197.041 110.835 201.062 110.502L205.213 110.17L205.17 110.087Z" fill="#7F8A61"/>
<path opacity="0.5" d="M210.185 187.786C206.164 188.16 202.316 188.201 198.944 188.035C192.285 187.744 186.751 192.354 186.188 198.542L185.497 206.058C173.044 207.055 163.186 205.103 159.122 204.107C159.597 200.078 160.116 196.299 160.678 192.852C166.04 189.613 172.136 185.917 172.396 185.668C172.914 185.253 182.038 182.969 182.038 182.969H209.84L210.185 187.744V187.786Z" fill="#342745"/>
<path d="M194.576 94.0987C194.576 94.0987 194.533 94.5139 194.403 95.2615C194.403 95.386 194.403 95.5522 194.317 95.7183C194.101 97.1717 193.755 99.5388 193.323 102.653C193.323 102.82 193.323 102.944 193.236 103.11C192.977 105.021 192.674 107.222 192.328 109.63C192.198 110.419 192.112 111.25 191.982 112.08C191.766 113.741 191.507 115.527 191.247 117.354C191.247 117.52 191.247 117.645 191.204 117.811C190.901 120.012 190.599 122.296 190.296 124.663C190.296 124.829 190.296 124.954 190.253 125.12C189.95 127.321 189.691 129.605 189.388 131.972C189.388 132.138 189.388 132.263 189.345 132.429C189.085 134.672 188.783 136.914 188.523 139.24C188.523 139.406 188.523 139.53 188.48 139.696C188.22 141.939 187.961 144.182 187.658 146.466V146.922C187.356 148.957 187.14 151.034 186.923 153.11C186.923 153.318 186.923 153.525 186.837 153.691C186.837 153.858 186.837 153.982 186.794 154.148C186.534 156.391 186.318 158.633 186.059 160.917C186.059 161.083 186.059 161.208 186.059 161.374C185.842 163.617 185.583 165.901 185.367 168.102C185.367 168.268 185.367 168.392 185.367 168.558C185.151 170.843 184.934 173.085 184.761 175.286C184.761 175.452 184.761 175.577 184.761 175.743C184.675 176.864 184.589 178.027 184.459 179.148C184.329 180.269 184.286 181.391 184.199 182.47C184.199 182.637 184.199 182.761 184.199 182.927C184.156 183.592 184.113 184.256 184.07 184.921C184.07 185.377 184.026 185.793 183.983 186.249C183.767 189.115 183.594 191.856 183.464 194.555C183.464 195.303 183.378 196.092 183.335 196.839C183.335 196.964 183.335 197.13 183.335 197.254C183.248 199.621 183.162 201.864 183.118 203.982C181.302 203.982 179.616 203.982 178.016 203.982C175.898 203.899 173.952 203.816 172.179 203.691C172.006 203.691 171.877 203.691 171.747 203.691C170.536 203.608 169.369 203.484 168.288 203.359C168.115 203.359 167.985 203.359 167.855 203.317C164.569 202.944 162.018 202.445 160.029 201.947C159.727 201.864 159.424 201.781 159.121 201.698C155.23 200.618 154.019 199.58 154.019 199.58C154.019 199.58 154.106 199.289 154.279 198.708C154.279 198.583 154.365 198.459 154.408 198.293C154.754 197.005 155.403 194.804 156.138 191.98C156.138 191.856 156.224 191.69 156.268 191.565C156.787 189.696 157.349 187.537 157.911 185.211C157.911 185.087 157.997 184.921 158.04 184.796C158.127 184.464 158.213 184.173 158.3 183.841C158.559 182.886 158.819 181.847 159.035 180.851C159.208 180.062 159.424 179.273 159.64 178.442C159.64 178.318 159.684 178.151 159.727 178.027C160.246 175.951 160.721 173.833 161.197 171.673C161.197 171.549 161.24 171.382 161.283 171.258C161.759 169.14 162.235 166.98 162.667 164.863C162.667 164.738 162.71 164.572 162.753 164.447C163.186 162.246 163.618 160.087 163.964 158.01C163.964 157.886 164.007 157.72 164.051 157.595C164.44 155.311 164.786 153.152 165.045 151.075V150.66C165.175 150.12 165.218 149.622 165.261 149.082C165.391 147.836 165.477 146.632 165.521 145.51C165.521 145.012 165.521 144.514 165.564 144.015C165.564 143.849 165.564 143.725 165.564 143.559C165.564 143.102 165.564 142.645 165.564 142.23C165.521 141.067 165.391 139.904 165.218 138.783C165.045 137.786 164.872 136.79 164.613 135.834C164.051 133.509 163.315 131.225 162.407 128.858L162.235 128.359C161.327 125.909 160.289 123.417 159.208 120.843C159.121 120.677 159.078 120.511 159.035 120.344C158.04 117.936 157.089 115.486 156.224 112.869C156.181 112.703 156.095 112.537 156.052 112.413C155.922 112.039 155.792 111.624 155.662 111.25C155.273 110.045 154.927 108.841 154.581 107.595C154.365 106.806 154.192 106.017 153.976 105.187C153.976 105.021 153.89 104.896 153.89 104.73C153.414 102.487 153.025 100.162 152.809 97.7116C152.809 97.5455 152.809 97.4209 152.809 97.2548C152.636 95.0953 152.593 92.8113 152.679 90.4857C152.809 90.3196 152.895 90.2366 152.982 90.112C153.198 89.9043 153.457 89.6552 153.717 89.4475C153.976 89.1984 154.279 88.9907 154.581 88.7831C156.268 87.5372 158.386 86.3329 160.635 85.2532C160.851 85.1701 161.024 85.0455 161.24 84.9625C161.543 84.8379 161.845 84.6718 162.105 84.5472C162.235 84.4642 162.407 84.4226 162.537 84.3396C163.618 83.8412 164.786 83.3844 165.91 82.9691C166.039 82.9276 166.212 82.8446 166.342 82.803C168.374 82.0555 170.363 81.3495 172.222 80.8097C172.525 80.7266 172.828 80.6436 173.087 80.5605C174.86 80.0207 176.503 79.6054 177.8 79.3562C178.103 79.2731 178.405 79.2316 178.708 79.1901C179.357 79.0655 179.919 78.9824 180.351 78.9409C185.367 80.1037 187.961 79.9376 187.961 79.9376L188.826 81.8064L188.999 82.2216L189.172 82.5539L190.815 86.0422L191.334 87.122L192.025 88.617L192.198 89.0322L194.62 94.2232L194.576 94.0987Z" fill="#F58220"/>
<path d="M194.404 95.2199C193.496 95.4275 192.588 95.5937 191.68 95.7182C191.55 93.4757 191.464 91.2332 191.334 88.9907C191.593 88.9907 191.853 88.9076 192.155 88.8661L191.982 88.4508C191.982 88.4508 191.55 88.4924 191.334 88.5339C191.334 87.994 191.291 87.4541 191.247 86.9143L190.729 85.8346C190.729 86.7482 190.815 87.6618 190.858 88.5754C186.924 89.0322 182.989 88.9492 179.098 88.4924C178.968 86.2083 178.881 83.9658 178.752 81.7233C182.168 82.1386 185.54 82.3047 188.913 82.0555L188.74 81.6402C185.41 81.8894 182.081 81.7233 178.752 81.308C178.752 80.519 178.665 79.7715 178.622 78.9824C178.319 79.0239 178.06 79.107 177.714 79.1485L177.8 81.1834C176.201 80.9758 174.601 80.6851 172.958 80.3944C172.655 80.4774 172.396 80.5605 172.093 80.6435C173.996 81.0173 175.898 81.3495 177.8 81.6402C177.93 83.8827 178.017 86.1668 178.146 88.4508C174.212 87.9525 170.32 87.0804 166.386 86.1668C166.342 85.004 166.256 83.8412 166.213 82.7199C166.083 82.7615 165.91 82.8445 165.78 82.8861C165.824 83.9658 165.867 85.004 165.953 86.0837C164.786 85.793 163.662 85.5023 162.494 85.2116C162.494 84.8794 162.494 84.5887 162.451 84.2565C162.321 84.3395 162.148 84.3811 162.019 84.4641C162.019 84.6718 162.019 84.8794 162.019 85.0871C161.716 85.004 161.413 84.9209 161.111 84.8379C160.894 84.9209 160.722 85.004 160.505 85.1286C161.024 85.2532 161.543 85.3777 162.062 85.5023C162.148 87.7864 162.278 90.0704 162.408 92.3545C159.77 91.69 157.176 91.0256 154.539 90.4026C154.539 89.8212 154.495 89.2399 154.452 88.6585C154.149 88.8661 153.847 89.1153 153.587 89.3229C153.587 89.6136 153.587 89.9043 153.587 90.1535L152.809 89.9874C152.809 89.9874 152.593 90.195 152.506 90.2781C152.895 90.4026 153.241 90.4857 153.631 90.6103C153.76 92.8943 153.847 95.1784 153.976 97.4209C153.544 97.2963 153.068 97.2132 152.636 97.1302C152.636 97.2963 152.636 97.4209 152.636 97.587C153.068 97.6701 153.501 97.7946 153.933 97.8777C154.02 100.162 154.149 102.446 154.279 104.688C154.106 104.647 153.89 104.605 153.717 104.564C153.717 104.73 153.76 104.854 153.803 105.021C153.976 105.021 154.106 105.104 154.279 105.145C154.279 105.893 154.366 106.682 154.409 107.429C154.755 108.675 155.101 109.921 155.49 111.084C155.403 109.173 155.317 107.263 155.23 105.353C157.868 105.976 160.462 106.682 163.1 107.346C163.229 109.63 163.316 111.914 163.446 114.198C160.938 113.575 158.43 112.911 155.922 112.288C155.965 112.454 156.009 112.62 156.095 112.745C158.56 113.368 161.024 113.991 163.489 114.614C163.618 116.898 163.705 119.182 163.835 121.466C162.192 121.05 160.592 120.635 158.949 120.22C158.992 120.386 159.078 120.552 159.122 120.718C160.678 121.133 162.278 121.507 163.835 121.922C163.964 124.206 164.051 126.491 164.181 128.733C163.489 128.567 162.84 128.401 162.148 128.235L162.321 128.733C162.927 128.899 163.575 129.065 164.181 129.19C164.267 131.349 164.397 133.509 164.483 135.668C164.699 136.665 164.916 137.62 165.089 138.617L165.002 136.54C166.17 136.831 167.337 137.122 168.461 137.371C168.591 139.655 168.677 141.939 168.807 144.181C167.683 143.932 166.602 143.683 165.478 143.392C165.478 143.517 165.478 143.683 165.478 143.849C166.602 144.14 167.726 144.389 168.807 144.638C168.937 146.922 169.023 149.206 169.153 151.449C167.985 151.2 166.861 150.909 165.694 150.618C165.607 148.833 165.521 147.088 165.434 145.303C165.391 146.424 165.305 147.587 165.175 148.874C165.175 149.414 165.218 149.954 165.262 150.494L165.002 150.411V150.826C165.002 150.826 165.175 150.868 165.262 150.909C165.391 153.193 165.478 155.477 165.607 157.761C165.045 157.637 164.526 157.512 163.964 157.346C163.964 157.47 163.921 157.637 163.878 157.761C164.44 157.927 165.045 158.052 165.607 158.176C165.737 160.46 165.824 162.745 165.953 165.029C164.872 164.779 163.791 164.489 162.667 164.198C162.667 164.323 162.624 164.489 162.581 164.613C163.705 164.904 164.829 165.195 165.953 165.444L166.299 172.254C164.613 171.839 162.927 171.424 161.197 170.967C161.197 171.092 161.154 171.258 161.111 171.382C162.84 171.839 164.57 172.254 166.299 172.67C166.429 174.954 166.515 177.238 166.645 179.48C164.31 178.899 161.975 178.318 159.641 177.736C159.641 177.861 159.554 178.027 159.554 178.151C161.932 178.774 164.31 179.356 166.688 179.937C166.818 182.221 166.905 184.505 167.034 186.748C164.397 186.125 161.802 185.46 159.165 184.796C159.122 183.384 159.035 181.972 158.949 180.519C158.689 181.557 158.43 182.553 158.214 183.509V184.547C158.214 184.547 158.084 184.505 157.954 184.464C157.954 184.588 157.868 184.754 157.825 184.879C157.954 184.879 158.127 184.962 158.257 185.004C158.343 187.288 158.473 189.572 158.603 191.856C157.781 191.648 157.003 191.44 156.182 191.233C156.182 191.357 156.095 191.524 156.052 191.648C156.917 191.856 157.738 192.063 158.603 192.271C158.733 194.555 158.819 196.839 158.949 199.123C157.392 198.749 155.879 198.334 154.322 198.002C154.322 198.168 154.236 198.293 154.193 198.417C155.792 198.791 157.392 199.206 158.949 199.58C158.949 200.203 158.992 200.784 159.035 201.407C159.338 201.49 159.641 201.573 159.943 201.656C159.943 201.033 159.9 200.452 159.857 199.829C162.494 200.494 165.089 201.158 167.726 201.781C167.726 202.196 167.726 202.611 167.769 203.027C167.899 203.027 168.072 203.027 168.202 203.068C168.202 202.653 168.202 202.279 168.158 201.864C169.326 202.113 170.493 202.404 171.617 202.611C171.617 202.861 171.617 203.11 171.617 203.359C171.79 203.359 171.92 203.359 172.05 203.359C172.05 203.11 172.05 202.902 172.05 202.653C173.996 203.068 175.984 203.401 177.93 203.65C179.53 203.691 181.216 203.733 183.032 203.733C179.357 203.525 175.725 202.944 172.05 202.196L171.704 195.386C175.552 196.175 179.4 196.756 183.205 196.922C183.205 196.798 183.205 196.631 183.205 196.507C179.357 196.341 175.509 195.718 171.661 194.929C171.531 192.645 171.445 190.402 171.315 188.118C175.249 188.949 179.184 189.572 183.075 189.738C183.162 191.233 183.205 192.728 183.292 194.223C183.421 191.565 183.594 188.783 183.811 185.917L183.638 182.553C183.638 182.553 183.897 182.553 184.027 182.553C184.027 182.387 184.027 182.263 184.027 182.097C183.854 182.097 183.724 182.097 183.551 182.097C183.421 179.854 183.335 177.57 183.205 175.328C183.638 175.328 184.113 175.328 184.546 175.328C184.546 175.161 184.546 175.037 184.546 174.871C184.07 174.871 183.638 174.871 183.162 174.871C183.032 172.628 182.946 170.344 182.816 168.102C183.594 168.102 184.373 168.143 185.151 168.185C185.151 168.019 185.151 167.894 185.151 167.728C184.329 167.728 183.551 167.728 182.73 167.645C182.6 165.402 182.513 163.118 182.384 160.876C183.508 160.959 184.675 160.959 185.799 160.959C185.799 160.793 185.799 160.668 185.799 160.502C184.632 160.502 183.465 160.502 182.34 160.419C182.211 158.176 182.124 155.892 181.995 153.65C183.508 153.733 185.021 153.774 186.535 153.733C186.535 153.567 186.535 153.442 186.578 153.276C185.064 153.318 183.508 153.276 181.995 153.193C181.865 150.951 181.778 148.667 181.649 146.424C183.551 146.549 185.454 146.59 187.356 146.507V146.05C185.497 146.133 183.551 146.092 181.649 145.967C181.519 143.725 181.432 141.441 181.303 139.198C183.594 139.364 185.886 139.406 188.178 139.281C188.178 139.115 188.178 138.99 188.221 138.824C185.886 138.99 183.594 138.949 181.259 138.741C181.13 136.499 181.043 134.215 180.914 131.972C183.638 132.18 186.318 132.221 189.042 131.972C189.042 131.806 189.042 131.682 189.086 131.515C186.362 131.765 183.594 131.723 180.87 131.515L180.524 124.746C183.681 125.037 186.794 125.037 189.95 124.746C189.95 124.58 189.95 124.456 189.994 124.29C186.837 124.622 183.681 124.622 180.481 124.29C180.395 122.047 180.265 119.763 180.135 117.52C183.724 117.853 187.27 117.894 190.858 117.396C190.858 117.23 190.858 117.105 190.902 116.939C187.313 117.396 183.681 117.396 180.092 117.064C179.962 114.821 179.876 112.537 179.746 110.295C183.681 110.668 187.615 110.71 191.507 110.128C191.507 110.627 191.55 111.167 191.593 111.665C191.723 110.834 191.81 110.004 191.939 109.215C191.853 107.138 191.723 105.021 191.637 102.903C192.026 102.861 192.458 102.778 192.847 102.695C192.847 102.529 192.89 102.404 192.934 102.238C192.501 102.321 192.069 102.404 191.637 102.446C191.507 100.203 191.42 97.9608 191.291 95.7598C192.155 95.6352 193.063 95.4691 193.928 95.303C193.928 95.1368 193.971 94.9707 194.015 94.8461L194.404 95.2199ZM191.55 102.903C187.615 103.442 183.681 103.401 179.789 102.986C179.66 100.702 179.573 98.4591 179.444 96.2166C183.378 96.6319 187.313 96.7149 191.204 96.2166C191.291 98.4591 191.42 100.702 191.55 102.903ZM179.573 117.77C179.703 120.012 179.789 122.296 179.919 124.539C175.984 124.123 172.05 123.376 168.158 122.462C168.072 120.178 167.942 117.894 167.813 115.652C171.747 116.565 175.682 117.354 179.573 117.77ZM167.769 115.195C167.64 112.911 167.553 110.627 167.423 108.384C171.358 109.298 175.293 110.128 179.184 110.544C179.314 112.786 179.4 115.07 179.53 117.313C175.595 116.898 171.661 116.109 167.769 115.195ZM190.858 89.0322C190.988 91.2747 191.074 93.5173 191.204 95.7598C187.27 96.2581 183.335 96.175 179.444 95.7598C179.314 93.5173 179.227 91.2332 179.098 88.9907C183.032 89.4475 186.967 89.5306 190.858 89.0737V89.0322ZM179.227 110.087C175.293 109.63 171.358 108.841 167.467 107.927C167.337 105.643 167.25 103.359 167.121 101.117C171.055 102.072 174.99 102.861 178.881 103.318C179.011 105.602 179.098 107.844 179.227 110.087ZM178.881 102.861C174.947 102.404 171.055 101.574 167.121 100.66C166.991 98.376 166.905 96.092 166.775 93.8495C170.709 94.8046 174.644 95.6352 178.536 96.092C178.665 98.376 178.752 100.619 178.881 102.861ZM178.19 88.8246C178.319 91.1086 178.406 93.3511 178.536 95.5937C174.601 95.0953 170.666 94.2648 166.775 93.3511C166.645 91.0671 166.559 88.783 166.429 86.5405C170.364 87.4957 174.298 88.3262 178.19 88.8246ZM165.953 86.416C166.083 88.7 166.169 90.984 166.299 93.2266C165.132 92.9359 164.008 92.6452 162.84 92.3545C162.71 90.0704 162.624 87.7864 162.494 85.5023C163.662 85.793 164.829 86.0837 165.953 86.3744V86.416ZM154.539 90.7349C157.176 91.3578 159.77 92.0222 162.408 92.6867C162.538 94.9707 162.624 97.2548 162.754 99.5388C160.116 98.8744 157.522 98.2099 154.884 97.587L154.539 90.7764V90.7349ZM155.23 104.854C155.101 102.57 155.014 100.286 154.884 98.0438C157.522 98.6667 160.116 99.3312 162.754 99.9956C162.883 102.28 162.97 104.564 163.1 106.848C160.462 106.183 157.868 105.519 155.23 104.854ZM162.84 92.8528C164.008 93.1435 165.132 93.4342 166.299 93.7249C166.429 96.0089 166.515 98.293 166.645 100.535C165.478 100.245 164.354 99.9541 163.186 99.6634C163.056 97.3794 162.97 95.0953 162.84 92.8113V92.8528ZM163.186 100.12C164.354 100.411 165.521 100.702 166.645 100.992C166.775 103.276 166.861 105.56 166.991 107.803C165.824 107.512 164.656 107.222 163.532 106.931C163.402 104.647 163.316 102.363 163.186 100.12ZM163.532 107.388C164.699 107.678 165.824 107.969 166.991 108.26L167.337 115.07C166.169 114.78 165.045 114.53 163.878 114.24C163.748 111.956 163.662 109.672 163.532 107.388ZM163.878 114.655C165.045 114.946 166.169 115.236 167.337 115.486C167.467 117.77 167.553 120.054 167.683 122.296C166.515 122.006 165.348 121.756 164.224 121.466C164.094 119.182 164.008 116.898 163.878 114.655ZM164.224 121.922C165.391 122.213 166.515 122.504 167.683 122.753C167.769 125.037 167.899 127.321 168.029 129.564C166.861 129.314 165.737 129.024 164.57 128.733L164.224 121.881V121.922ZM164.916 136.042C164.786 133.758 164.699 131.474 164.57 129.231C165.737 129.522 166.861 129.813 168.029 130.062C168.158 132.346 168.245 134.63 168.375 136.873C167.207 136.623 166.04 136.333 164.916 136.042ZM165.651 151.034C166.818 151.324 167.942 151.573 169.11 151.864C169.239 154.148 169.326 156.432 169.456 158.675C168.288 158.426 167.164 158.135 165.997 157.844C165.867 155.56 165.78 153.276 165.651 151.034ZM165.997 158.301C167.164 158.592 168.288 158.841 169.456 159.132C169.585 161.416 169.672 163.7 169.801 165.942C168.634 165.693 167.51 165.402 166.342 165.153C166.213 162.869 166.126 160.585 165.997 158.343V158.301ZM166.342 165.568C167.51 165.859 168.677 166.108 169.801 166.357C169.931 168.642 170.018 170.884 170.147 173.168C168.98 172.919 167.813 172.628 166.688 172.379C166.559 170.095 166.472 167.811 166.342 165.568ZM166.688 172.836C167.856 173.127 168.98 173.376 170.147 173.625C170.277 175.909 170.364 178.151 170.493 180.436C169.326 180.186 168.202 179.937 167.034 179.646C166.905 177.362 166.818 175.078 166.688 172.836ZM170.493 180.892C170.623 183.176 170.709 185.419 170.839 187.703C169.672 187.454 168.548 187.205 167.38 186.914C167.294 184.63 167.164 182.346 167.034 180.103C168.202 180.394 169.326 180.643 170.493 180.892ZM159.078 185.294C161.716 185.959 164.31 186.623 166.948 187.246C167.034 189.53 167.164 191.814 167.294 194.057C164.656 193.434 162.062 192.769 159.424 192.105C159.295 189.821 159.208 187.537 159.078 185.253V185.294ZM159.77 199.414C159.641 197.13 159.554 194.846 159.424 192.562C162.062 193.226 164.656 193.891 167.294 194.514C167.423 196.798 167.51 199.082 167.64 201.324C165.002 200.701 162.408 200.037 159.77 199.372V199.414ZM167.38 187.371C168.548 187.661 169.715 187.911 170.839 188.16C170.969 190.444 171.055 192.686 171.185 194.97C170.018 194.721 168.893 194.472 167.726 194.181C167.596 191.897 167.51 189.613 167.38 187.371ZM171.531 202.238C170.364 201.989 169.196 201.739 168.072 201.49C167.942 199.206 167.856 196.922 167.726 194.68C168.893 194.97 170.018 195.219 171.185 195.469C171.315 197.753 171.401 199.995 171.531 202.279V202.238ZM183.075 189.447C179.141 189.239 175.206 188.617 171.315 187.827C171.228 185.543 171.099 183.301 170.969 181.017C174.904 181.847 178.838 182.47 182.73 182.72C182.859 184.962 182.946 187.246 183.075 189.489V189.447ZM182.73 182.221C178.795 182.014 174.86 181.349 170.969 180.519C170.839 178.235 170.753 175.992 170.623 173.708C174.558 174.539 178.492 175.203 182.384 175.452C182.47 177.695 182.6 179.979 182.73 182.221ZM182.384 174.995C178.449 174.746 174.514 174.082 170.623 173.251C170.493 170.967 170.407 168.725 170.277 166.441C174.212 167.313 178.103 167.977 182.038 168.226C182.167 170.469 182.254 172.753 182.384 174.995ZM182.038 167.769C178.103 167.52 174.168 166.814 170.277 165.984L169.931 159.173C173.866 160.045 177.8 160.71 181.692 161C181.778 163.243 181.908 165.527 182.038 167.769ZM181.692 160.544C177.757 160.253 173.823 159.547 169.931 158.716C169.801 156.432 169.715 154.148 169.585 151.906C173.52 152.778 177.455 153.484 181.346 153.816C181.476 156.059 181.562 158.343 181.692 160.585V160.544ZM181.346 153.318C177.411 152.985 173.52 152.279 169.585 151.407C169.456 149.123 169.369 146.839 169.239 144.597C173.174 145.469 177.065 146.216 181 146.549L181.346 153.318ZM181 146.092C177.065 145.76 173.131 145.012 169.239 144.14C169.11 141.856 169.023 139.613 168.893 137.329C172.828 138.201 176.763 138.949 180.654 139.323C180.784 141.565 180.87 143.849 181 146.092ZM180.654 138.866C176.72 138.492 172.828 137.786 168.893 136.873L168.548 130.062C172.482 130.976 176.374 131.723 180.308 132.097C180.438 134.339 180.524 136.623 180.654 138.866ZM180.308 131.64C176.374 131.266 172.439 130.519 168.548 129.605C168.418 127.321 168.331 125.037 168.202 122.795C172.136 123.708 176.071 124.456 179.962 124.871C180.092 127.113 180.179 129.398 180.308 131.64ZM191.939 109.879C188.005 110.461 184.07 110.419 180.179 110.045C180.049 107.803 179.962 105.519 179.833 103.276C183.767 103.692 187.702 103.733 191.593 103.193C191.723 105.436 191.81 107.678 191.939 109.879Z" fill="#FC8D70"/>
<path d="M265.098 146.133C265.227 143.891 265.314 141.607 265.443 139.364C266.222 139.281 267 139.198 267.778 139.157C267.778 139.074 267.692 138.949 267.605 138.741C266.87 138.783 266.179 138.866 265.443 138.949C265.53 137.329 265.616 135.751 265.66 134.132C265.357 133.426 265.054 132.678 264.665 131.848C262.503 132.097 260.385 132.471 258.266 132.886L258.612 126.075C259.693 125.868 260.774 125.66 261.855 125.494C261.811 125.369 261.725 125.245 261.682 125.079C260.687 125.245 259.65 125.411 258.612 125.618C258.698 123.501 258.828 121.341 258.915 119.223C258.785 118.932 258.655 118.642 258.525 118.393C256.58 118.849 254.634 119.306 252.688 119.763C252.818 117.479 252.904 115.195 253.034 112.952C253.856 112.745 254.72 112.537 255.542 112.371C255.499 112.246 255.412 112.122 255.326 111.997C254.548 112.163 253.812 112.329 253.034 112.537C253.121 111.042 253.164 109.547 253.25 108.052C252.991 107.554 252.688 107.055 252.429 106.557C252.342 108.633 252.213 110.668 252.126 112.745C249.489 113.368 246.894 114.074 244.257 114.738C244.387 112.454 244.473 110.17 244.603 107.886C247.111 107.263 249.618 106.599 252.126 105.976L251.91 105.602C249.489 106.183 247.067 106.848 244.646 107.429C244.776 105.145 244.862 102.861 244.992 100.577C246.159 100.286 247.327 99.9956 248.451 99.7049C248.365 99.5804 248.278 99.4558 248.235 99.3312C247.154 99.6219 246.073 99.8711 245.035 100.162C245.122 98.4176 245.208 96.7149 245.295 94.9707C245.165 94.7631 245.035 94.597 244.862 94.3894C244.776 96.3412 244.689 98.293 244.56 100.245C243.392 100.536 242.225 100.826 241.101 101.117C241.23 98.8329 241.317 96.5488 241.446 94.3063C242.398 94.0987 243.306 93.8495 244.257 93.6003C244.17 93.4757 244.084 93.3512 243.954 93.2266C243.133 93.4342 242.268 93.6418 241.446 93.8495C241.49 92.7282 241.576 91.607 241.619 90.4857L241.446 90.2781C241.446 90.2781 241.36 90.3611 241.187 90.4442C241.144 91.607 241.057 92.7698 241.014 93.9325C239.328 94.3478 237.642 94.7216 235.955 95.0538C235.782 95.2199 235.609 95.386 235.436 95.5937C237.296 95.2199 239.155 94.8046 240.971 94.3478C240.841 96.6319 240.755 98.9159 240.625 101.158C237.123 101.989 233.664 102.736 230.161 103.193C230.075 103.359 230.032 103.484 229.945 103.65C233.491 103.152 237.036 102.404 240.582 101.574C240.452 103.858 240.366 106.142 240.236 108.384C236.301 109.298 232.367 110.128 228.475 110.544C228.518 109.506 228.562 108.426 228.648 107.388C228.086 109.672 227.913 112.163 228.302 114.78C228.389 113.534 228.432 112.246 228.475 111.001C232.41 110.544 236.344 109.755 240.236 108.841C240.106 111.125 240.02 113.409 239.89 115.652C236.258 116.524 232.583 117.23 228.907 117.687C228.951 117.811 228.994 117.977 229.037 118.102C232.626 117.645 236.258 116.939 239.847 116.067C239.717 118.351 239.63 120.635 239.501 122.878C236.993 123.459 234.485 123.999 232.021 124.373C232.107 124.497 232.194 124.622 232.28 124.788C234.701 124.373 237.079 123.874 239.501 123.334C239.371 125.618 239.285 127.903 239.155 130.145C238.29 130.353 237.425 130.519 236.561 130.726C236.647 130.851 236.777 130.976 236.863 131.1C237.642 130.934 238.377 130.768 239.155 130.602C239.112 131.599 239.068 132.554 239.025 133.55C239.155 133.716 239.328 133.883 239.458 134.007C239.501 132.844 239.587 131.682 239.63 130.519C240.798 130.27 241.922 129.979 243.09 129.688C242.96 131.972 242.873 134.256 242.744 136.499C242.484 136.54 242.268 136.623 242.009 136.665C242.138 136.79 242.225 136.914 242.354 136.997L242.7 136.914V137.329L243.09 137.745C243.09 137.412 243.09 137.122 243.09 136.79C245.727 136.125 248.321 135.461 250.959 134.796C250.829 137.08 250.743 139.364 250.613 141.648C249.748 141.856 248.927 142.064 248.062 142.271C248.192 142.396 248.321 142.479 248.451 142.603C249.143 142.437 249.878 142.23 250.57 142.064C250.44 144.348 250.353 146.632 250.224 148.874C248.451 149.331 246.635 149.788 244.862 150.245C244.776 150.411 244.646 150.577 244.56 150.743C246.419 150.286 248.321 149.788 250.181 149.331C250.051 151.615 249.964 153.899 249.835 156.142C247.413 156.765 244.949 157.387 242.527 157.969C242.614 158.093 242.7 158.218 242.787 158.343C245.122 157.761 247.457 157.138 249.791 156.557C249.662 158.841 249.575 161.125 249.445 163.409L248.667 163.617C248.667 163.617 249.056 163.824 249.273 163.907C249.748 164.115 250.051 164.198 250.31 164.281C250.31 164.073 250.31 163.866 250.31 163.658C251.088 163.451 251.91 163.284 252.688 163.077C252.904 162.869 253.121 162.662 253.337 162.495C252.342 162.745 251.348 162.994 250.353 163.201C250.483 160.917 250.57 158.633 250.699 156.391C252.645 155.892 254.591 155.436 256.536 155.02C256.45 156.598 256.364 158.176 256.32 159.755C256.493 159.588 256.623 159.464 256.796 159.298C256.882 157.844 256.926 156.391 257.012 154.896C258.698 154.522 260.385 154.231 262.071 153.982C262.244 153.816 262.374 153.65 262.547 153.484C260.731 153.774 258.871 154.107 257.055 154.48C257.185 152.196 257.272 149.954 257.401 147.67C259.606 147.213 261.811 146.839 264.017 146.549C263.93 148.459 263.844 150.328 263.757 152.238C264.06 151.864 264.406 151.532 264.708 151.158C264.795 149.58 264.838 148.044 264.925 146.466C265.919 146.341 266.87 146.258 267.865 146.175C267.865 146.05 267.908 145.884 267.908 145.718C266.914 145.801 265.919 145.884 264.925 146.009L265.098 146.133ZM252.645 120.178C254.591 119.721 256.536 119.265 258.482 118.891L258.136 125.702C256.191 126.117 254.245 126.532 252.299 127.03C252.429 124.746 252.515 122.462 252.645 120.22V120.178ZM252.299 127.446C254.245 126.989 256.191 126.532 258.136 126.117C258.007 128.401 257.92 130.643 257.79 132.927C255.845 133.343 253.899 133.8 251.953 134.256C252.083 131.972 252.169 129.688 252.299 127.446ZM252.083 113.119C251.953 115.403 251.867 117.687 251.737 119.971C249.1 120.594 246.505 121.3 243.868 121.964C243.997 119.68 244.084 117.396 244.214 115.112C246.851 114.447 249.445 113.783 252.083 113.119ZM251.737 120.386C251.651 122.67 251.521 124.954 251.391 127.238C248.754 127.903 246.159 128.567 243.522 129.231C243.652 126.947 243.738 124.663 243.868 122.379C246.505 121.715 249.1 121.05 251.737 120.386ZM241.014 101.532C242.181 101.241 243.306 100.951 244.473 100.66C244.343 102.944 244.257 105.228 244.127 107.512C242.96 107.803 241.836 108.094 240.668 108.384C240.798 106.1 240.884 103.816 241.014 101.574V101.532ZM240.668 108.8C241.836 108.509 243.003 108.26 244.127 107.928C243.997 110.212 243.911 112.496 243.781 114.78C242.614 115.07 241.446 115.361 240.322 115.652C240.452 113.368 240.538 111.084 240.668 108.841V108.8ZM240.322 116.067C241.49 115.776 242.614 115.527 243.781 115.236L243.435 122.089C242.268 122.379 241.144 122.67 239.976 122.919C240.106 120.635 240.193 118.351 240.322 116.109V116.067ZM243.09 129.314C241.922 129.605 240.798 129.896 239.63 130.145C239.76 127.861 239.847 125.577 239.976 123.334C241.144 123.044 242.268 122.795 243.435 122.504C243.349 124.788 243.219 127.072 243.09 129.356V129.314ZM243.176 136.457C243.306 134.173 243.392 131.889 243.522 129.605C246.159 128.941 248.754 128.276 251.391 127.612C251.261 129.896 251.175 132.18 251.045 134.422C248.408 135.087 245.813 135.751 243.176 136.416V136.457ZM256.753 154.688C254.807 155.103 252.861 155.56 250.916 156.059C251.045 153.775 251.132 151.49 251.261 149.248C253.207 148.75 255.153 148.293 257.099 147.878C256.969 150.162 256.882 152.446 256.753 154.688ZM257.099 147.421C255.153 147.836 253.207 148.293 251.261 148.791C251.348 146.507 251.478 144.223 251.607 141.981C253.553 141.482 255.499 141.025 257.444 140.652C257.315 142.936 257.228 145.178 257.099 147.462V147.421ZM257.444 140.153C255.499 140.569 253.553 141.025 251.607 141.482C251.737 139.198 251.824 136.914 251.953 134.672C253.899 134.215 255.845 133.758 257.79 133.343C257.661 135.627 257.574 137.869 257.444 140.153ZM264.146 146.175C261.941 146.466 259.736 146.839 257.531 147.296C257.661 145.012 257.747 142.77 257.877 140.486C260.082 140.029 262.287 139.655 264.492 139.364C264.363 141.607 264.276 143.891 264.146 146.175ZM264.492 138.949C262.287 139.24 260.082 139.613 257.877 140.07C257.963 137.786 258.093 135.544 258.223 133.26C260.428 132.803 262.633 132.429 264.838 132.18L264.492 138.949ZM241.749 156.266C241.836 156.557 241.965 156.889 242.138 157.263C242.138 156.308 242.225 155.353 242.268 154.397C242.095 154.688 241.922 154.937 241.792 155.145C241.792 155.519 241.792 155.892 241.749 156.266Z" fill="#FC8D70"/>
<path d="M204.521 66.6486C204.089 66.8563 203.57 66.7317 203.354 66.3164L202.878 65.4859C202.1 64.157 200.543 63.451 198.944 63.7001C198.209 63.8247 197.474 63.3679 197.344 62.6204C197.301 62.3712 197.344 62.2882 197.474 62.2467L198.641 62.039C200.933 61.6653 203.224 62.7035 204.348 64.6553L204.824 65.4859C205.04 65.9011 204.91 66.3995 204.478 66.6071L204.521 66.6486Z" fill="#7F3E2F"/>
<path d="M194.577 94.0985C192.674 90.8593 188.567 86.7065 185.237 83.5919L186.967 80.6019L184.329 82.7614C181.994 80.6019 180.222 79.1069 180.222 79.1069C180.222 79.1069 180.957 76.366 181.649 72.8777C185.756 75.3694 188.61 79.19 190.599 82.9275C193.669 88.6584 194.62 94.1401 194.62 94.1401L194.577 94.0985Z" fill="#FEC18A"/>
<path d="M43.5469 82.3877H186.145C187.486 82.3877 188.567 83.4259 188.567 84.6717V166.399C188.567 167.686 187.486 168.725 186.145 168.725H43.5469" fill="#758EC7"/>
<path d="M42.4658 82.3877H185.064C186.405 82.3877 187.486 83.4259 187.486 84.6717V166.399C187.486 167.686 186.405 168.725 185.064 168.725H42.4658" fill="#DEE4F2"/>
<path d="M102.35 104.73H175.811C176.2 104.73 176.546 105.02 176.546 105.436V107.471C176.546 107.844 176.244 108.177 175.811 108.177H102.35" fill="#758EC7"/>
<path d="M102.35 114.572H119.213C119.602 114.572 119.905 114.863 119.905 115.236V117.271C119.905 117.645 119.602 117.977 119.213 117.977H102.35" fill="#758EC7"/>
<path d="M102.35 126.615H119.213C119.602 126.615 119.905 126.906 119.905 127.321V129.356C119.905 129.73 119.602 130.062 119.213 130.062H102.35" fill="#758EC7"/>
<path d="M126.953 126.615H176.157C176.546 126.615 176.892 126.906 176.892 127.321V129.356C176.892 129.73 176.59 130.062 176.157 130.062H126.953C126.563 130.062 126.261 129.771 126.261 129.397V127.362C126.261 126.989 126.563 126.698 126.953 126.698V126.615Z" fill="#758EC7"/>
<path d="M102.35 142.063H142.259C142.648 142.063 142.95 142.354 142.95 142.769V144.804C142.95 145.178 142.648 145.51 142.259 145.51H102.35" fill="#758EC7"/>
<path d="M145.847 142.063H175.811C176.2 142.063 176.546 142.354 176.546 142.769V144.804C176.546 145.178 176.244 145.51 175.811 145.51H145.847C145.458 145.51 145.112 145.22 145.112 144.804V142.769C145.112 142.396 145.415 142.063 145.847 142.063Z" fill="#758EC7"/>
<path d="M102.35 154.771H127.774C128.163 154.771 128.509 155.062 128.509 155.477V157.512C128.509 157.886 128.206 158.177 127.774 158.177H102.35" fill="#758EC7"/>
<path d="M131.925 114.572H175.811C176.2 114.572 176.546 114.863 176.546 115.278V117.313C176.546 117.687 176.243 117.977 175.854 117.977H131.968C131.579 117.977 131.233 117.687 131.233 117.271V115.236C131.233 114.863 131.536 114.531 131.968 114.531L131.925 114.572Z" fill="#758EC7"/>
<path d="M149.523 160.959C149.22 160.876 149.177 160.668 149.263 160.544C149.653 159.754 153.198 152.902 155.403 152.902C155.749 152.902 156.052 153.027 156.268 153.235C156.83 153.816 156.7 155.02 156.614 156.183C156.571 156.723 156.441 157.761 156.614 157.886C156.96 157.886 157.349 157.055 157.695 156.349C158.3 155.103 158.992 153.65 160.332 153.691C160.721 153.691 160.938 153.857 161.024 154.024C161.457 154.605 161.154 155.768 160.808 157.097C160.549 158.093 160.203 159.298 160.462 159.63C160.462 159.63 160.549 159.713 160.678 159.713C161.543 159.713 162.494 157.512 163.186 155.892C164.008 153.982 164.483 152.902 165.175 152.902C165.348 152.902 165.521 152.985 165.651 153.11C166.083 153.525 166.04 154.522 165.953 155.934C165.953 156.598 165.867 157.637 165.997 157.844C166.429 157.761 167.64 156.142 168.677 154.314C168.764 154.19 168.937 154.107 169.066 154.19C169.196 154.273 169.283 154.439 169.196 154.605C168.548 155.768 166.904 158.426 165.953 158.426C165.824 158.426 165.694 158.384 165.564 158.259C165.261 157.927 165.261 157.18 165.348 155.892C165.348 155.02 165.434 153.733 165.175 153.484C164.786 153.484 164.094 155.145 163.705 156.1C162.797 158.176 161.889 160.377 160.592 160.253C160.332 160.253 160.073 160.128 159.943 159.921C159.511 159.339 159.813 158.218 160.203 156.889C160.462 155.892 160.808 154.688 160.549 154.314C160.549 154.314 160.462 154.231 160.332 154.231C159.424 154.231 158.819 155.477 158.257 156.557C157.781 157.595 157.349 158.467 156.614 158.426C156.441 158.426 156.268 158.343 156.182 158.218C155.836 157.844 155.922 157.055 156.009 156.1C156.095 155.186 156.225 154.024 155.836 153.608C155.792 153.525 155.663 153.442 155.446 153.442C154.063 153.442 151.296 157.927 149.826 160.751C149.782 160.834 149.653 160.917 149.566 160.917L149.523 160.959Z" fill="#758EC7"/>
<path d="M112.684 85.5852C112.165 85.8759 111.473 85.7098 111.127 85.2114L109.311 82.5121C109.052 82.0968 109.182 81.557 109.614 81.3078L110.608 80.8095C111.041 80.5603 111.603 80.7679 111.819 81.2248L113.16 84.1732C113.419 84.7131 113.159 85.336 112.641 85.6267L112.684 85.5852Z" fill="#F6C1AF"/>
<path d="M114.889 85.1284C114.24 85.3361 113.549 85.0454 113.289 84.464L111.862 81.2663C111.646 80.768 111.862 80.1866 112.424 80.0205L113.592 79.6467C114.111 79.4806 114.673 79.7713 114.846 80.3112L115.754 83.7165C115.927 84.3394 115.537 84.9623 114.932 85.17L114.889 85.1284Z" fill="#F6C1AF"/>
<path d="M117.397 84.8377C116.705 84.9623 116.013 84.547 115.84 83.8826L114.846 80.3112C114.716 79.7713 115.062 79.2314 115.624 79.1069L116.878 78.8992C117.44 78.8162 118.002 79.1899 118.045 79.7713L118.434 83.4258C118.521 84.0902 118.045 84.7131 117.353 84.8377H117.397Z" fill="#F6C1AF"/>
<path d="M120.164 84.3394C119.515 84.4225 118.91 83.9657 118.78 83.3427L118.132 79.8959C118.045 79.356 118.434 78.8577 118.996 78.8162L120.207 78.6916C120.769 78.6501 121.245 79.0653 121.245 79.6052V83.0936C121.331 83.7165 120.812 84.2979 120.164 84.3394Z" fill="#F6C1AF"/>
<path d="M241.447 92.8111V93.2679C241.447 95.552 241.23 97.836 240.928 100.162C240.928 100.328 240.928 100.452 240.841 100.618C240.495 102.986 240.02 105.353 239.458 107.72C239.458 107.886 239.371 108.052 239.328 108.177C238.723 110.627 238.031 113.077 237.252 115.444C237.209 115.61 237.166 115.776 237.08 115.901C236.517 117.686 235.912 119.431 235.307 121.133C235.134 121.632 234.961 122.088 234.788 122.587C234.701 122.836 234.615 123.044 234.528 123.293C234.485 123.459 234.399 123.625 234.356 123.791C234.01 124.746 233.664 125.66 233.318 126.573C232.713 128.152 232.15 129.688 231.588 131.225C231.545 131.391 231.459 131.557 231.415 131.723C231.199 132.263 231.026 132.803 230.853 133.301C230.68 133.799 230.507 134.256 230.334 134.754C229.816 136.25 229.297 137.703 228.864 139.032C228.821 139.198 228.778 139.364 228.735 139.489C227.913 142.105 227.351 144.514 227.178 146.548V146.839C227.048 148.749 227.178 151.034 227.394 153.691C227.394 153.816 227.394 153.982 227.394 154.107C227.61 156.141 227.913 158.342 228.259 160.668C228.259 160.793 228.259 160.959 228.302 161.083C228.475 162.163 228.648 163.284 228.821 164.406C228.951 165.07 229.037 165.776 229.167 166.482C229.253 166.856 229.297 167.229 229.383 167.603C229.383 167.728 229.426 167.894 229.47 168.018C229.859 170.178 230.248 172.337 230.68 174.497C230.68 174.621 230.724 174.788 230.767 174.912C231.156 176.864 231.545 178.816 231.934 180.685C232.064 181.266 232.194 181.847 232.28 182.429C232.713 184.464 233.145 186.415 233.534 188.201C233.534 188.326 233.621 188.492 233.621 188.616C234.183 191.067 234.658 193.268 235.091 195.012C235.091 195.136 235.134 195.302 235.177 195.427C235.782 198.043 236.172 199.621 236.172 199.621C236.172 199.621 235.826 199.829 235.177 200.161C234.356 200.576 233.102 201.199 231.329 201.864C231.156 201.905 231.026 201.988 230.853 202.03C229.816 202.404 228.648 202.777 227.351 203.151C227.221 203.193 227.048 203.234 226.875 203.276C223.676 204.148 219.741 204.937 215.071 205.186C214.769 205.186 214.466 205.186 214.163 205.228H213.861C213.385 205.228 212.866 205.269 212.391 205.269C211.742 203.359 211.137 201.116 210.575 198.666C210.575 198.5 210.532 198.375 210.488 198.209C210.056 196.091 209.624 193.807 209.234 191.357C209.234 191.191 209.234 191.067 209.148 190.9C208.888 189.156 208.629 187.288 208.413 185.419C208.37 184.962 208.283 184.505 208.24 184.048V183.591C208.024 182.304 207.894 180.975 207.764 179.605C207.678 178.65 207.591 177.695 207.505 176.739C207.505 176.573 207.505 176.449 207.505 176.283C207.332 174.04 207.159 171.756 206.986 169.472C206.986 169.306 206.986 169.181 206.986 169.015C206.856 166.773 206.727 164.489 206.597 162.205C206.597 162.038 206.597 161.914 206.597 161.748C206.467 159.505 206.381 157.221 206.294 154.937C206.294 154.771 206.294 154.646 206.294 154.48C206.208 152.238 206.121 149.954 206.078 147.711C206.078 147.545 206.078 147.421 206.078 147.254C206.035 144.97 205.992 142.728 205.948 140.485C205.948 140.319 205.948 140.195 205.948 140.029C205.948 137.911 205.905 135.793 205.862 133.716C205.862 130.685 205.862 127.736 205.862 124.871C205.862 122.794 205.862 120.801 205.862 118.891C205.862 118.725 205.862 118.6 205.862 118.475C205.862 116.108 205.905 113.866 205.948 111.748C205.948 111.582 205.948 111.457 205.948 111.333C205.948 108.883 206.035 106.64 206.078 104.605C206.078 104.439 206.078 104.314 206.078 104.148C206.121 101.491 206.208 99.248 206.251 97.4207V97.0055C206.337 94.1816 206.424 92.6035 206.424 92.6035L207.375 90.4025L207.548 89.9872L208.067 88.7414L209.061 86.4573L211.18 83.5504L211.483 83.1351C211.483 83.1351 213.342 81.8062 220.26 80.6019C220.476 80.6019 220.692 80.5188 220.952 80.4773C221.038 80.4773 221.125 80.4773 221.168 80.5188C222.898 80.8095 224.67 81.2248 226.443 81.7647C226.746 81.8477 227.005 81.9308 227.308 82.0138C229.167 82.5952 230.983 83.3012 232.669 84.0902C232.799 84.1733 232.972 84.2148 233.102 84.2979C234.312 84.8377 235.436 85.4191 236.431 86.0421C236.561 86.1251 236.734 86.2082 236.863 86.2912L237.166 86.4573C237.166 86.4573 237.512 86.665 237.642 86.7896C239.414 87.9524 240.668 89.0736 241.23 90.0703C241.23 90.9008 241.274 91.7729 241.274 92.645L241.447 92.8111Z" fill="#F58220"/>
<path d="M208.629 185.46C207.418 185.668 206.164 185.876 204.91 186C203.873 186.125 202.792 186.208 201.754 186.291C200.63 186.374 199.462 186.415 198.338 186.415C193.712 186.415 188.696 185.751 183.94 184.754C184.07 182.844 184.243 180.934 184.372 178.982C188.307 179.48 194.793 180.145 201.192 180.062C202.446 180.062 203.7 180.02 204.91 179.937C205.991 179.854 207.029 179.771 208.023 179.646C208.24 181.64 208.413 183.55 208.629 185.419V185.46Z" fill="#342745"/>
<path d="M202.575 187.412L192.371 187.039C191.636 187.039 191.074 186.416 191.074 185.71L191.29 179.937C191.29 179.231 191.939 178.691 192.674 178.691L202.878 179.065C203.613 179.065 204.175 179.688 204.175 180.394L203.959 186.166C203.959 186.872 203.311 187.412 202.575 187.412ZM192.674 179.522C192.415 179.522 192.242 179.688 192.198 179.937L191.982 185.71C191.982 185.959 192.155 186.125 192.415 186.166L202.619 186.54C202.878 186.54 203.051 186.374 203.094 186.125L203.311 180.353C203.311 180.103 203.138 179.937 202.878 179.896L192.674 179.522Z" fill="#9CAED1"/>
<path d="M193.842 183.135L190.945 183.01C190.945 183.01 190.599 182.844 190.642 182.678C190.642 182.512 190.815 182.346 190.988 182.387L193.885 182.512C193.885 182.512 194.231 182.678 194.187 182.844C194.187 183.01 194.014 183.176 193.842 183.135Z" fill="#9CAED1"/>
<path d="M184.675 43.1023L182.643 50.785C182.21 50.785 181.821 50.785 181.432 50.6189L183.378 43.3515L184.675 43.1023Z" fill="#6D617C"/>
<path d="M190.253 42.0225L188.22 49.7052L184.416 50.4527L186.448 42.7284L190.253 42.0225Z" fill="#6D617C"/>
<path d="M202.143 40.9841L200.284 48.2515H199.852C199.852 48.2515 199.549 48.2515 199.376 48.2515L201.235 41.0257H202.143V40.9841Z" fill="#6D617C"/>
<path d="M207.375 41.3165L205.689 48.0025L201.97 48.1686L203.829 40.9012L205.645 40.8181C206.294 40.8181 206.899 40.9842 207.418 41.3165H207.375Z" fill="#6D617C"/>
<path d="M241.447 93.2681V92.8113C239.847 93.2265 238.247 93.6418 236.647 94.0156C236.777 91.7315 236.863 89.4475 236.993 87.205L237.815 86.9973C237.815 86.9973 237.512 86.7897 237.339 86.6651C237.252 86.6651 237.123 86.7066 237.036 86.7482C237.036 86.6651 237.036 86.5821 237.036 86.499C236.907 86.4159 236.734 86.3329 236.604 86.2498C236.604 86.4575 236.604 86.6651 236.604 86.8727C235.436 87.1634 234.269 87.4541 233.145 87.7448L233.318 84.5472C233.318 84.5472 233.015 84.4226 232.885 84.3395C232.842 85.5023 232.756 86.7066 232.712 87.8694C228.778 88.8246 224.843 89.6551 220.952 90.1119C221.081 87.8279 221.168 85.5854 221.298 83.3013C223.373 83.0522 225.449 82.6784 227.567 82.2631C227.264 82.1801 227.005 82.097 226.702 82.014C224.93 82.3462 223.114 82.6784 221.341 82.886C221.341 82.1801 221.427 81.4741 221.427 80.7266C221.341 80.7266 221.254 80.7266 221.211 80.6851C220.995 80.6851 220.779 80.7681 220.519 80.8096C220.519 81.5572 220.433 82.2631 220.39 82.9691C217.493 83.3013 214.596 83.4674 211.699 83.3013L211.396 83.7166C214.38 83.8827 217.363 83.7166 220.346 83.3844L220.001 90.1535C216.066 90.5687 212.131 90.6518 208.24 90.1535C208.24 89.7382 208.283 89.2814 208.283 88.8661L207.764 90.0704L207.591 90.5272C207.635 92.7697 207.548 95.0122 207.418 97.2548C207.116 97.2132 206.813 97.1717 206.467 97.0886V97.5039C206.77 97.5455 207.072 97.587 207.375 97.67C207.289 99.9126 207.159 102.155 207.029 104.356C206.77 104.315 206.51 104.273 206.251 104.231C206.251 104.398 206.251 104.522 206.251 104.688C206.51 104.73 206.77 104.771 206.986 104.813L206.64 111.499C206.64 111.499 206.294 111.416 206.078 111.416C206.078 111.54 206.078 111.707 206.078 111.831C206.251 111.831 206.424 111.914 206.597 111.914C206.51 114.157 206.381 116.399 206.251 118.6C206.164 118.6 206.078 118.6 205.991 118.559C205.991 118.683 205.991 118.849 205.991 118.974C206.078 118.974 206.164 118.974 206.251 119.015C206.164 121.009 206.078 123.002 205.948 124.954C205.948 127.819 205.948 130.768 205.948 133.799C205.948 133.633 205.948 133.509 205.948 133.343C209.883 134.049 213.818 134.173 217.709 133.883L217.363 140.652C213.558 140.901 209.753 140.818 205.948 140.112C205.948 140.278 205.948 140.402 205.948 140.569C209.753 141.275 213.515 141.399 217.32 141.108C217.233 143.351 217.104 145.635 216.974 147.877C213.342 148.127 209.71 148.002 206.078 147.338C206.078 147.504 206.078 147.628 206.078 147.794C209.71 148.459 213.342 148.583 216.931 148.334L216.585 155.103C213.126 155.311 209.71 155.186 206.251 154.563C206.251 154.73 206.251 154.854 206.251 155.02C209.667 155.602 213.126 155.726 216.541 155.56C216.412 157.803 216.325 160.087 216.196 162.329C212.953 162.495 209.753 162.329 206.51 161.831C206.51 161.997 206.51 162.122 206.51 162.288C209.71 162.828 212.953 162.952 216.152 162.786C216.023 165.029 215.936 167.313 215.806 169.555C212.823 169.68 209.84 169.555 206.899 169.098C206.899 169.264 206.899 169.389 206.899 169.555C209.84 170.012 212.823 170.137 215.763 170.012L215.417 176.781C212.737 176.864 210.056 176.781 207.375 176.407C207.375 176.573 207.375 176.698 207.375 176.864C210.013 177.238 212.693 177.321 215.331 177.238C215.201 179.48 215.115 181.764 214.985 184.007C212.65 184.09 210.315 184.007 208.024 183.716V184.173C210.359 184.464 212.693 184.547 214.985 184.464C214.855 186.706 214.769 188.949 214.639 191.233C212.737 191.274 210.834 191.233 208.975 191.025C208.975 191.191 209.018 191.316 209.061 191.482C210.921 191.648 212.78 191.731 214.639 191.69C214.509 193.932 214.423 196.216 214.293 198.459C212.953 198.459 211.612 198.459 210.272 198.376C210.272 198.542 210.359 198.666 210.359 198.832C211.656 198.915 212.953 198.957 214.25 198.915C214.12 201.075 214.034 203.234 213.947 205.394C214.25 205.394 214.553 205.394 214.855 205.352C214.942 203.193 215.071 201.075 215.158 198.915C219.093 198.791 223.027 198.209 226.919 197.42C226.832 199.414 226.746 201.449 226.616 203.442C226.789 203.401 226.919 203.359 227.092 203.317C227.178 201.324 227.264 199.331 227.394 197.337C228.562 197.088 229.686 196.839 230.853 196.59C230.767 198.459 230.68 200.327 230.594 202.196C230.767 202.155 230.896 202.072 231.069 202.03C231.156 200.161 231.242 198.334 231.329 196.465C232.496 196.175 233.707 195.884 234.874 195.593C234.874 195.469 234.831 195.303 234.788 195.178C233.62 195.469 232.496 195.759 231.372 196.009C231.502 193.724 231.588 191.44 231.718 189.198C232.28 189.073 232.842 188.949 233.361 188.783C233.361 188.658 233.318 188.492 233.275 188.367C232.756 188.492 232.237 188.617 231.718 188.741C231.804 186.706 231.891 184.63 232.021 182.595C231.891 182.014 231.761 181.432 231.675 180.851C231.675 181.1 231.675 181.349 231.675 181.557C230.507 181.806 229.34 182.097 228.216 182.346C228.345 180.062 228.432 177.819 228.562 175.535C229.21 175.411 229.902 175.244 230.551 175.078C230.551 174.954 230.507 174.788 230.464 174.663C229.816 174.829 229.21 174.954 228.562 175.078C228.691 172.794 228.778 170.51 228.908 168.268L229.253 168.185C229.253 168.185 229.21 167.894 229.167 167.769C229.08 167.769 228.994 167.769 228.908 167.811C228.908 167.437 228.908 167.022 228.951 166.607C228.821 165.901 228.735 165.236 228.605 164.53C228.562 165.651 228.475 166.773 228.432 167.894C224.497 168.725 220.563 169.389 216.671 169.638C216.801 167.396 216.887 165.112 217.017 162.869C220.692 162.62 224.411 161.997 228.086 161.208C228.086 161.083 228.086 160.917 228.043 160.793C224.368 161.582 220.736 162.163 217.06 162.412C217.19 160.17 217.277 157.886 217.406 155.643C220.692 155.394 223.935 154.896 227.221 154.231C227.221 154.107 227.221 153.941 227.221 153.816C223.978 154.48 220.736 154.979 217.45 155.228C217.579 152.985 217.666 150.701 217.795 148.459C220.865 148.21 223.892 147.753 226.962 147.13C226.962 146.881 226.962 146.756 226.962 146.673C223.892 147.296 220.865 147.794 217.795 148.002C217.925 145.76 218.012 143.476 218.141 141.233C221.6 140.942 225.059 140.361 228.518 139.613C228.562 139.447 228.605 139.281 228.648 139.157C225.146 139.904 221.644 140.527 218.141 140.818C218.228 138.575 218.357 136.291 218.487 134.049C222.422 133.675 226.356 132.969 230.248 132.055C230.205 133.01 230.161 133.924 230.118 134.879C230.291 134.422 230.464 133.924 230.637 133.426L230.724 131.972C230.724 131.972 231.069 131.889 231.242 131.848C231.286 131.682 231.372 131.515 231.415 131.349C231.199 131.391 230.983 131.474 230.767 131.515C230.896 129.231 230.983 126.947 231.113 124.705C232.15 124.456 233.188 124.206 234.183 123.957C234.226 123.791 234.312 123.625 234.356 123.459C233.275 123.708 232.194 123.999 231.113 124.248L231.459 117.437C232.626 117.188 233.75 116.898 234.918 116.607C234.831 118.683 234.701 120.718 234.615 122.795C234.788 122.296 234.961 121.839 235.134 121.341C235.22 119.721 235.307 118.102 235.35 116.482C235.869 116.358 236.388 116.233 236.907 116.109C236.95 115.942 236.993 115.776 237.079 115.652C236.517 115.776 235.955 115.942 235.393 116.067C235.48 113.783 235.609 111.499 235.739 109.256C236.863 108.966 237.987 108.675 239.155 108.384C239.155 108.218 239.241 108.094 239.285 107.927C238.117 108.218 236.95 108.509 235.782 108.8C235.912 106.516 235.999 104.231 236.128 101.947C237.642 101.574 239.155 101.158 240.668 100.785C240.668 100.619 240.711 100.494 240.755 100.328C239.241 100.702 237.685 101.117 236.171 101.491C236.301 99.2066 236.388 96.9225 236.517 94.6385C238.117 94.2232 239.717 93.8079 241.317 93.4342L241.447 93.2681ZM216.628 177.196C220.563 176.989 224.497 176.366 228.389 175.494C228.259 177.778 228.172 180.02 228.043 182.304C224.108 183.135 220.217 183.758 216.282 183.924C216.412 181.681 216.498 179.397 216.628 177.155V177.196ZM227.394 196.839C223.46 197.628 219.525 198.209 215.634 198.376C215.763 196.133 215.85 193.849 215.979 191.607C219.914 191.44 223.849 190.859 227.74 190.028C227.61 192.313 227.524 194.597 227.394 196.839ZM227.74 189.572C223.805 190.361 219.871 190.984 215.979 191.15C216.109 188.907 216.196 186.623 216.325 184.381C220.26 184.173 224.151 183.592 228.086 182.761C227.956 185.045 227.87 187.329 227.74 189.572ZM231.329 195.967C230.161 196.216 229.037 196.507 227.87 196.714C228 194.43 228.086 192.188 228.216 189.904C229.383 189.655 230.551 189.406 231.675 189.115C231.545 191.399 231.459 193.683 231.329 195.925V195.967ZM232.021 181.889C231.891 184.173 231.804 186.457 231.675 188.7C230.507 188.99 229.383 189.239 228.216 189.489C228.345 187.205 228.432 184.921 228.562 182.678C229.729 182.429 230.853 182.18 232.021 181.889ZM228.821 168.226C228.691 170.51 228.605 172.794 228.475 175.037C224.541 175.867 220.606 176.49 216.714 176.739C216.844 174.497 216.931 172.213 217.06 169.97C220.995 169.721 224.93 169.057 228.821 168.226ZM220.909 90.5272C224.843 90.0289 228.778 89.1983 232.669 88.2847C232.54 90.5687 232.453 92.8528 232.323 95.0953C228.389 96.0504 224.497 96.8395 220.563 97.2963C220.692 95.0122 220.779 92.7697 220.909 90.4857V90.5272ZM220.563 97.7531C224.497 97.2963 228.432 96.4657 232.323 95.5521C232.194 97.8362 232.107 100.12 231.977 102.363C228.043 103.276 224.108 104.107 220.217 104.522C220.346 102.28 220.433 99.9956 220.563 97.7531ZM208.24 90.6103C212.174 91.1086 216.109 91.0256 220.001 90.6103C219.871 92.8528 219.784 95.1368 219.655 97.3793C215.72 97.7946 211.829 97.8362 207.894 97.2963C208.024 95.0538 208.11 92.8113 208.24 90.5687V90.6103ZM207.894 97.7531C211.829 98.293 215.763 98.2514 219.655 97.8362C219.525 100.12 219.438 102.363 219.309 104.605C215.374 104.979 211.439 105.021 207.548 104.439C207.678 102.197 207.764 99.9541 207.894 97.7531ZM207.548 104.896C211.483 105.477 215.417 105.436 219.309 105.062C219.179 107.305 219.093 109.589 218.963 111.831C215.028 112.205 211.094 112.205 207.202 111.582C207.332 109.339 207.418 107.097 207.548 104.896ZM217.925 133.509C213.99 133.799 210.056 133.716 206.164 132.969C206.294 130.726 206.381 128.525 206.51 126.283C210.445 126.989 214.38 127.03 218.271 126.74L217.925 133.509ZM218.271 126.283C214.336 126.615 210.402 126.532 206.51 125.868C206.597 123.625 206.727 121.424 206.856 119.182C210.791 119.846 214.682 119.888 218.617 119.514C218.487 121.756 218.401 124.04 218.271 126.283ZM218.617 119.057C214.682 119.389 210.748 119.348 206.856 118.725C206.986 116.482 207.072 114.24 207.202 112.039C211.137 112.662 215.071 112.662 218.963 112.288C218.833 114.53 218.747 116.814 218.617 119.057ZM230.594 131.432C226.659 132.346 222.725 133.052 218.833 133.426C218.963 131.183 219.049 128.899 219.179 126.657C223.114 126.283 227.048 125.535 230.94 124.622C230.81 126.906 230.724 129.19 230.594 131.432ZM230.94 124.165C227.005 125.079 223.07 125.826 219.179 126.2C219.265 123.957 219.395 121.673 219.525 119.431C223.46 119.015 227.351 118.268 231.286 117.354L230.94 124.165ZM231.286 116.898C227.351 117.811 223.416 118.6 219.525 118.974C219.655 116.731 219.741 114.447 219.871 112.205C223.805 111.79 227.74 111.001 231.632 110.087C231.502 112.371 231.415 114.655 231.286 116.898ZM231.632 109.63C227.697 110.544 223.762 111.333 219.871 111.748L220.217 104.979C224.151 104.522 228.043 103.733 231.977 102.82C231.848 105.104 231.761 107.388 231.632 109.63ZM235.22 115.942C234.053 116.233 232.885 116.524 231.761 116.773C231.891 114.489 231.977 112.205 232.107 109.962C233.275 109.672 234.442 109.422 235.566 109.132C235.436 111.416 235.35 113.7 235.22 115.984V115.942ZM235.566 108.675C234.399 108.966 233.275 109.256 232.107 109.506C232.237 107.221 232.323 104.937 232.453 102.695C233.62 102.404 234.745 102.155 235.912 101.823C235.782 104.107 235.696 106.391 235.566 108.675ZM235.912 101.408C234.745 101.698 233.577 101.989 232.453 102.28L232.799 95.4691C233.966 95.1784 235.091 94.8877 236.258 94.597C236.128 96.881 236.042 99.165 235.912 101.449V101.408ZM236.258 94.1402C235.091 94.4308 233.966 94.7215 232.799 95.0122C232.929 92.7282 233.015 90.4442 233.145 88.2016C234.312 87.9109 235.48 87.6202 236.604 87.3296C236.474 89.6136 236.388 91.8976 236.258 94.1817V94.1402Z" fill="#FC8D70"/>
<path d="M214.898 85.8345L212.218 83.7165L213.861 86.7066L206.597 92.7697L214.812 73.6667L221.081 80.685L214.898 85.8345Z" fill="#FEC18A"/>
<path d="M210.09 109.941L229.502 111.73C229.846 111.762 230.118 112.079 230.085 112.409L229.784 115.427C229.751 115.758 229.421 116.019 229.076 115.988L209.665 114.199C209.321 114.167 209.048 113.85 209.081 113.52L209.383 110.502C209.416 110.171 209.746 109.91 210.09 109.941Z" fill="#FEC18A"/>
<path opacity="0.5" d="M246.116 140.61C245.208 139.78 244.214 138.866 243.176 137.869L242.744 137.454C242.744 137.454 242.527 137.246 242.398 137.122C242.268 136.997 242.182 136.873 242.052 136.79C241.187 135.959 240.322 135.045 239.501 134.132C239.371 133.966 239.198 133.841 239.068 133.675C238.333 132.886 237.642 132.055 236.95 131.225C236.863 131.1 236.734 130.976 236.647 130.851C235.523 129.481 234.399 128.027 233.404 126.574C233.75 125.66 234.096 124.746 234.442 123.791C234.485 123.625 234.572 123.459 234.615 123.293C234.701 123.044 234.788 122.836 234.874 122.587C235.047 122.089 235.22 121.632 235.393 121.133C235.999 119.431 236.604 117.645 237.166 115.901C237.209 115.735 237.252 115.569 237.339 115.444C238.074 113.077 238.809 110.627 239.414 108.177C239.414 108.011 239.501 107.886 239.544 107.72C240.106 105.353 240.582 102.986 240.928 100.619C240.928 100.452 240.971 100.328 241.014 100.162C241.317 97.8777 241.533 95.5522 241.533 93.2681V92.8113C241.533 91.9392 241.533 91.1087 241.49 90.2366L241.663 90.4442C242.225 91.0671 242.83 91.7316 243.392 92.4376C243.392 98.5837 242.787 113.202 236.604 127.653C240.366 134.755 245.597 139.987 246.159 140.569L246.116 140.61Z" fill="#FC8D70"/>
<path d="M207.288 74.3728C204.824 75.5771 199.333 77.9027 194.403 77.4044C189.863 76.9476 187.615 75.3695 186.621 74.4143C186.794 73.7914 187.01 73.1685 187.139 72.504C189.863 74.4143 192.414 75.9094 192.414 75.9094C193.15 76.2831 194.101 76.4077 195.095 76.2831L202.1 75.4525C203.051 75.328 203.959 74.9957 204.608 74.4559C204.608 74.4559 205.516 73.5838 206.726 72.2549C206.899 72.9609 207.072 73.6668 207.288 74.3313V74.3728Z" fill="#F1A19A"/>
<path d="M241.792 172.504C241.144 173.002 240.582 173.417 240.149 173.75C234.485 171.59 233.318 167.313 233.102 165.693C233.361 165.444 233.577 165.153 233.837 164.904C234.01 166.358 235.307 168.185 236.906 169.68C238.593 171.258 240.409 172.296 241.792 172.462V172.504Z" fill="#F1A19A"/>
<path opacity="0.5" d="M234.658 203.276C226.356 206.764 214.596 206.93 214.596 206.93L214.034 205.228H214.336C214.639 205.228 214.942 205.186 215.244 205.186C219.914 204.896 223.849 204.148 227.048 203.276C227.221 203.234 227.351 203.193 227.524 203.151C228.821 202.778 229.988 202.404 231.026 202.03C231.199 201.989 231.329 201.906 231.502 201.864C232.669 201.407 233.62 200.992 234.399 200.66C234.528 201.532 234.615 202.404 234.745 203.317L234.658 203.276Z" fill="#342745"/>
</g>
<rect y="349.496" width="329.618" height="8.08878" rx="4.04439" fill="#312E4E"/>
<defs>
<clipPath id="clip0_648_22707">
<rect width="249.785" height="392.233" fill="white" transform="translate(42.4658 0.162109)"/>
</clipPath>
</defs>
</svg>
