<svg width="1736" height="1176" viewBox="0 0 1736 1176" fill="none" xmlns="http://www.w3.org/2000/svg">
<g clip-path="url(#clip0_607_22715)">
<path d="M1424.98 503.28L1431.59 515.517L1452.44 507.03L1464.32 523.713L1480.96 519.921L1482.88 528.353L1460.62 533.423L1449.37 517.615L1427.69 526.422L1417.73 508.03L1424.98 503.28Z" fill="#3F1963"/>
<path d="M40.7007 1160.04H235.148L235.148 544.66H40.7007L40.7007 1160.04Z" fill="#FFBA80"/>
<path d="M73.1517 661.066H121.826L121.826 583.971H73.1517V661.066Z" fill="#A597CE"/>
<path d="M72.5111 767.65H121.186L121.186 690.556H72.5111V767.65Z" fill="#A597CE"/>
<path d="M71.8861 874.235H120.561L120.561 797.141H71.8861V874.235Z" fill="#A597CE"/>
<path d="M71.2474 980.819H119.922L119.922 903.725H71.2474V980.819Z" fill="#A597CE"/>
<path d="M70.6087 1087.4H119.283L119.283 1010.31H70.6087V1087.4Z" fill="#A597CE"/>
<path d="M498.496 1160.04H692.943V824.867H498.496V1160.04Z" fill="#FFBA80"/>
<path d="M198.393 1160.04H519.25L519.25 257.328H198.393L198.393 1160.04Z" fill="#FDD4DA"/>
<path d="M401.854 342.715H475.811V310.072H401.854V342.715Z" fill="white"/>
<path d="M286.171 342.715H360.127V310.072H286.171V342.715Z" fill="white"/>
<path d="M1303.85 1160.48H1509.17V942.328H1303.85V1160.48Z" fill="#FDD4DA"/>
<path d="M1452.5 985.417H1482.82V955.094H1452.5V985.417Z" fill="white"/>
<path d="M1408.89 985.417H1439.22V955.094H1408.89V985.417Z" fill="white"/>
<path d="M1452.5 1027.96H1482.82V997.641H1452.5V1027.96Z" fill="white"/>
<path d="M1408.89 1027.96H1439.22V997.641H1408.89V1027.96Z" fill="white"/>
<path d="M1450.13 1076.24H1480.46V1045.91H1450.13V1076.24Z" fill="white"/>
<path d="M1406.5 1076.24H1436.83V1045.91H1406.5V1076.24Z" fill="white"/>
<path d="M1450.13 1118.78H1480.46V1088.46H1450.13V1118.78Z" fill="white"/>
<path d="M1406.5 1118.78H1436.83V1088.46H1406.5V1118.78Z" fill="white"/>
<path d="M1489.21 1160.04H1683.66V878H1489.21V1160.04Z" fill="#FFBA80"/>
<path d="M1637.96 923.325H1668.28V893.002H1637.96V923.325Z" fill="white"/>
<path d="M1594.34 923.325H1624.66V893.002H1594.34V923.325Z" fill="white"/>
<path d="M1637.96 965.873H1668.28V935.549H1637.96V965.873Z" fill="white"/>
<path d="M1594.34 965.873H1624.66V935.549H1594.34V965.873Z" fill="white"/>
<path d="M1640.46 1012.91H1670.78V982.584H1640.46V1012.91Z" fill="white"/>
<path d="M1596.84 1012.91H1627.16V982.584H1596.84V1012.91Z" fill="white"/>
<path d="M1640.46 1055.46H1670.78V1025.13H1640.46V1055.46Z" fill="white"/>
<path d="M1596.84 1055.46H1627.16V1025.13H1596.84V1055.46Z" fill="white"/>
<path d="M1080.76 201.612L1142.06 243.09C1148.28 247.299 1156.74 245.674 1160.95 239.45L1202.43 178.15C1206.64 171.927 1205.01 163.467 1198.79 159.258L1137.49 117.78C1131.26 113.571 1122.8 115.197 1118.6 121.42L1077.12 182.72C1072.91 188.943 1074.53 197.403 1080.76 201.612Z" fill="#F58220"/>
<path d="M1112.63 156.675C1100.24 173.135 1104.77 196.611 1122.4 207.279C1137.5 216.419 1157.38 212.571 1167.99 198.486C1180.4 182.025 1175.85 158.55 1158.23 147.882C1143.13 138.742 1123.25 142.589 1112.63 156.675Z" fill="white"/>
<path d="M1151.74 163.329L1137.51 178.845C1136.47 179.984 1136.54 181.748 1137.68 182.79C1138.82 183.832 1140.58 183.762 1141.63 182.623C1141.79 182.442 1141.93 182.234 1142.04 182.026L1151.74 163.342V163.329Z" fill="#F58220"/>
<path d="M1140.91 178.956L1119.44 166.94L1138.17 182.901C1139.18 183.762 1140.7 183.637 1141.57 182.623C1142.43 181.609 1142.31 180.095 1141.29 179.22C1141.17 179.122 1141.04 179.025 1140.91 178.956Z" fill="#F58220"/>
<path d="M694.458 162.842L698.444 173.247L689.679 178.414L695.041 190.013L682.886 192.458L688.332 205.668L677.844 209.238L680.844 222.142L686.373 222.462L684.136 212.808L695.208 209.043L689.957 196.347L702.32 193.861L696.402 181.053L704.959 176.011L701.278 166.357L708.043 164.301L705.015 159.62L694.458 162.842Z" fill="#A597CE"/>
<path d="M1560.15 546.466C1552.42 566.733 1562.58 589.431 1582.85 597.168C1603.12 604.891 1625.82 594.737 1633.55 574.456C1641.29 554.189 1631.12 531.492 1610.86 523.755C1590.59 516.031 1567.89 526.185 1560.15 546.466Z" fill="#8C3D7C"/>
<path d="M1614.24 573.762C1610.1 584.597 1597.98 590.028 1587.13 585.902C1576.29 581.763 1570.86 569.636 1574.99 558.801L1614.23 573.762H1614.24Z" fill="#EFEFEF"/>
<path d="M1376.22 274.845L1387.47 267.538L1377.72 248.119L1392.86 235.395L1387.93 219.67L1395.88 217.184L1402.47 238.2L1388.13 250.258L1398.29 270.455L1381.35 281.457L1376.22 274.845Z" fill="#3F1963"/>
<path d="M148.842 94.5549L164.47 103.348C164.47 103.348 192.641 99.9724 196.322 95.0828C199.989 90.1932 203.309 77.2469 207.143 77.622C210.977 78.0109 218.02 80.6641 217.992 89.971C217.978 96.7219 204.74 113.655 205.838 115.961C206.518 117.392 215.353 122.712 221.868 126.49C226.16 128.976 228.675 133.672 228.424 138.686C228.258 142.089 225.757 144.937 222.437 145.521L217.27 146.437L217.826 151.702C218.242 155.619 215.436 159.189 211.547 159.703L207.588 160.217L208.185 163.467C208.949 167.663 205.921 171.649 201.698 172.038L198.267 172.344L198.225 173.233C198.072 176.956 195.127 179.984 191.446 180.22L188.057 180.428L146.453 156.994C142.55 154.8 139.16 151.813 136.465 148.229L123.227 137.533C121.81 136.38 121.449 134.338 122.38 132.727L143.828 95.9718C144.869 94.1938 147.106 93.5687 148.87 94.5549H148.842Z" fill="#F58220"/>
<path d="M975.919 172.052L987.588 171.107L989.185 181.901L1000.71 181.484L1003.51 191.61L1012.2 192.708L1011.65 197.111L1000.02 195.639L997.381 186.04L985.379 186.485L983.809 175.858L973.238 176.719L975.919 172.052Z" fill="#FFBA80"/>
<path d="M1241.25 274.678L1255.47 279.039L1259.92 293.222C1260.29 294.361 1261.8 294.597 1262.49 293.625L1271.04 281.456L1285.9 281.595C1287.1 281.595 1287.79 280.234 1287.07 279.276L1278.14 267.385L1282.87 253.286C1283.26 252.147 1282.16 251.063 1281.02 251.452L1266.95 256.272L1255.01 247.424C1254.05 246.715 1252.67 247.424 1252.7 248.604L1252.94 263.468L1240.82 272.094C1239.85 272.788 1240.09 274.303 1241.24 274.664L1241.25 274.678Z" fill="#FFBA80"/>
<path d="M1535.01 712.67L1549.22 717.032L1553.68 731.215C1554.04 732.354 1555.56 732.59 1556.25 731.617L1564.79 719.449L1579.66 719.588C1580.85 719.588 1581.55 718.227 1580.82 717.268L1571.89 705.378L1576.63 691.278C1577.02 690.139 1575.92 689.056 1574.78 689.445L1560.71 694.265L1548.76 685.416C1547.8 684.708 1546.43 685.416 1546.46 686.611L1546.69 701.474L1534.58 710.1C1533.61 710.795 1533.84 712.309 1535 712.67H1535.01Z" fill="#F58220"/>
<path d="M8.14019 1160.48H1727.85C1732.35 1160.48 1735.99 1161.96 1735.99 1163.76C1735.99 1165.57 1732.33 1167.04 1727.85 1167.04H8.14019C3.63947 1167.04 0 1165.57 0 1163.76C0 1161.96 3.63947 1160.48 8.14019 1160.48Z" fill="#A597CE"/>
<path d="M811.158 183.748C811.158 186.054 821.757 187.915 834.843 187.915C847.928 187.915 858.527 186.054 858.527 183.748C858.527 181.442 847.928 179.581 834.843 179.581C821.757 179.581 811.158 181.442 811.158 183.748Z" fill="#E0DFED"/>
<path d="M815.326 127.087C815.326 136.7 834.829 183.748 834.829 183.748C834.829 183.748 854.332 136.7 854.332 127.087C854.332 117.475 845.595 109.682 834.829 109.682C824.064 109.682 815.326 117.475 815.326 127.087ZM826.564 128.921C826.564 124.351 830.273 120.642 834.843 120.642C839.413 120.642 843.122 124.351 843.122 128.921C843.122 133.491 839.413 137.2 834.843 137.2C830.273 137.2 826.564 133.491 826.564 128.921Z" fill="#F58220"/>
<path d="M1408.5 329.172L1494.52 380.068L1428.59 394.987L1408.5 329.172Z" fill="#A597CE"/>
<path d="M1422.45 405.557L1499.53 388.124L1467.97 441.465L1369 382.888L1399.7 331.019L1422.45 405.557Z" fill="#A597CE"/>
<path d="M459.463 79.4695C467.825 97.6527 481.897 108.363 501.789 110.488C521.556 112.599 537.656 104.82 550.852 90.235C553.464 92.013 556.103 93.8049 558.965 95.7635C560.062 81.9282 561.132 68.343 562.229 54.5632C549.741 60.5085 537.475 66.3566 524.904 72.3435C527.738 74.3021 530.46 76.2052 533.183 78.0805C528.654 88.2347 515.152 99.9447 496.969 99.5974C481.091 99.2918 468.867 91.9713 459.463 79.4834V79.4695Z" fill="#A597CE"/>
<path d="M561.368 31.7961C557.311 16.4883 538.156 2.1252 519.027 0.291606C499.302 -1.59755 483.244 5.98686 470.006 20.6C467.408 18.822 464.783 17.0162 461.907 15.0576C460.81 28.879 459.726 42.4365 458.629 56.2301C471.131 50.2848 483.411 44.4229 495.927 38.4637C493.523 36.8107 491.315 35.1577 488.967 33.713C487.606 32.8657 487.634 32.1989 488.411 30.9071C504.303 4.65333 542.656 4.36163 561.354 31.7961H561.368Z" fill="#A597CE"/>
<path d="M971.67 70.7876L992.715 88.554L971.67 109.682V70.7876Z" fill="#3F1963"/>
<path d="M314.801 80.942L372.213 99.8336L350.459 55.4106L314.801 80.942Z" fill="#3F1963"/>
<path d="M1101.62 549.897H1217.81C1264.49 549.897 1302.39 587.805 1302.39 634.479V766.678H1101.62V549.897Z" fill="#562391"/>
<path d="M1069.1 1072.32H1400.13L1404.81 834.715C1404.89 830.59 1404.22 826.492 1402.85 822.575L1334.55 628.589C1329.25 613.545 1314.21 603.377 1297.25 603.377H1069.1V1072.32Z" fill="#A597CE"/>
<path d="M1384.17 991.765H1404.82V1072.32H1384.17C1376.89 1072.32 1370.97 1066.4 1370.97 1059.12V1004.96C1370.97 997.683 1376.89 991.765 1384.17 991.765Z" fill="#A597CE"/>
<path d="M1429.65 738.604H1440.13V701.905C1440.13 671.762 1415.6 647.23 1385.46 647.23H1296.32V657.718H1385.46C1409.82 657.718 1429.65 677.54 1429.65 701.905V738.604Z" fill="#A597CE"/>
<path d="M1442.38 715.393H1425.16C1413.99 715.393 1404.93 724.448 1404.93 735.618V794.043C1404.93 805.213 1413.99 814.268 1425.16 814.268H1442.38C1453.55 814.268 1462.61 805.213 1462.61 794.043V735.618C1462.61 724.448 1453.55 715.393 1442.38 715.393Z" fill="#A597CE"/>
<path d="M1453.19 735.618V794.043C1453.19 800.002 1448.34 804.85 1442.38 804.85H1425.16C1419.2 804.85 1414.35 800.002 1414.35 794.043V735.618C1414.35 729.659 1419.2 724.811 1425.16 724.811H1442.38C1448.34 724.811 1453.19 729.659 1453.19 735.618Z" fill="#F1F0F8"/>
<path d="M1331.56 823.242H1159.13C1148.43 823.242 1139.77 814.574 1139.77 803.878V662.08C1139.77 651.384 1148.43 642.716 1159.13 642.716H1288.08C1296.58 642.716 1304.1 648.272 1306.58 656.399L1350.06 798.196C1353.88 810.643 1344.58 823.228 1331.56 823.228V823.242Z" fill="#A597CE"/>
<path d="M1326.28 720.63L1350.06 798.21C1353.88 810.656 1344.58 823.242 1331.56 823.242H1159.13C1148.43 823.242 1139.77 814.574 1139.77 803.878V720.616H1326.27L1326.28 720.63Z" fill="#F1F0F8"/>
<path d="M1353.86 1068.17C1353.9 1121.26 1310.85 1164.3 1257.76 1164.26C1205.56 1164.22 1161.84 1120.51 1161.81 1068.3C1161.77 1015.21 1204.82 972.18 1257.9 972.221C1310.1 972.263 1353.82 1015.98 1353.86 1068.17Z" fill="#A597CE"/>
<path d="M390.703 1161.29C441.483 1161.29 482.648 1118.96 482.648 1066.75C482.648 1014.53 441.483 972.207 390.703 972.207C339.923 972.207 298.758 1014.53 298.758 1066.75C298.758 1118.96 339.923 1161.29 390.703 1161.29Z" fill="#A597CE"/>
<path d="M1074.56 328.991H123.909C108.965 328.991 96.8496 341.106 96.8496 356.05V913.643C96.8496 928.588 108.965 940.703 123.909 940.703H1074.56C1089.51 940.703 1101.62 928.588 1101.62 913.643V356.05C1101.62 341.106 1089.51 328.991 1074.56 328.991Z" fill="#F58220"/>
<path d="M123.924 915.741C122.771 915.741 121.826 914.796 121.826 913.643V356.064C121.826 354.911 122.771 353.967 123.924 353.967H598.708V915.741H123.924Z" fill="#8C3D7C"/>
<path d="M123.924 502.918C122.771 502.918 121.826 502.668 121.826 502.363V354.342C121.826 354.036 122.771 353.786 123.924 353.786H598.708V502.932H123.924V502.918Z" fill="#FFBA80"/>
<path d="M1074.56 328.991H623.684V940.703H1074.56C1089.51 940.703 1101.62 928.59 1101.62 913.643V356.064C1101.62 341.118 1089.51 329.005 1074.56 329.005V328.991Z" fill="#FFBA80"/>
<path d="M373.477 747.203H171.209V915.741H373.477V747.203Z" fill="#FDEDED"/>
<path d="M598.708 714.24H343.5V915.741H598.708V714.24Z" fill="#FDD4DA"/>
<path d="M598.722 522.463H380.965V714.24H598.722V522.463Z" fill="#FDEDED"/>
<path d="M162.221 940.703H1065.99C1079.87 940.703 1091.13 951.968 1091.13 965.845V1047.16C1091.13 1061.04 1079.87 1072.3 1065.99 1072.3H162.221V940.689V940.703Z" fill="#562391"/>
<path d="M610.196 958.455H171.209V1056.57H610.196V958.455Z" fill="#A597CE"/>
<path d="M595.721 995.641H468.881V1034.59H595.721V995.641Z" fill="#F58220"/>
<path d="M595.735 995.641H519.195V1034.59H595.735V995.641Z" fill="#8C3D7C"/>
<path d="M326.373 995.641H199.533V1034.59H326.373V995.641Z" fill="#F58220"/>
<path d="M256.973 995.641H199.533V1034.59H256.973V995.641Z" fill="#8C3D7C"/>
<path d="M783.127 1066.76C783.127 1118.98 770.291 1161.3 694.96 1161.3C644.188 1161.3 599.25 1118.98 599.25 1066.76C599.25 1014.55 640.409 972.221 691.195 972.221C741.981 972.221 783.141 1014.55 783.141 1066.76H783.127Z" fill="#A597CE"/>
<path d="M811.506 1064.16C811.506 1119.45 767.679 1161.3 716.893 1161.3C666.108 1161.3 627.615 1119.45 627.615 1064.16C627.615 1008.88 668.775 964.067 719.561 964.067C770.346 964.067 811.506 1008.88 811.506 1064.16Z" fill="#3F1963"/>
<path d="M1273.66 1164.26C1324.44 1164.26 1365.61 1120.46 1365.61 1066.43C1365.61 1012.4 1324.44 968.595 1273.66 968.595C1222.88 968.595 1181.72 1012.4 1181.72 1066.43C1181.72 1120.46 1222.88 1164.26 1273.66 1164.26Z" fill="#3F1963"/>
<path d="M1318.86 1064.16C1318.86 1091.35 1298.63 1113.38 1273.65 1113.38C1248.67 1113.38 1228.43 1091.35 1228.43 1064.16C1228.43 1036.98 1248.67 1014.95 1273.65 1014.95C1298.63 1014.95 1318.86 1036.98 1318.86 1064.16Z" fill="#A597CE"/>
<path d="M764.777 1064.16C764.777 1091.35 744.537 1113.38 719.561 1113.38C694.585 1113.38 674.346 1091.35 674.346 1064.16C674.346 1036.98 694.585 1014.95 719.561 1014.95C744.537 1014.95 764.777 1036.98 764.777 1064.16Z" fill="#A597CE"/>
<path d="M323.164 464.219H408.567C408.567 476.359 398.732 486.194 386.591 486.194H345.126C332.985 486.194 323.15 476.359 323.15 464.219H323.164Z" fill="#F58220"/>
<path d="M1315.97 890.223H1361.02V870.29H1296.04C1296.04 881.292 1304.96 890.223 1315.97 890.223Z" fill="#A597CE"/>
<path d="M859.388 1120.99C861.93 1135.41 863.764 1140.11 863.764 1140.11C848.011 1150.9 836.565 1141.66 841.427 1137.02C843.858 1132.59 841.371 1121.59 838.996 1114.69C847.414 1112.96 859.402 1121.01 859.402 1121.01L859.388 1120.99Z" fill="#FF7446"/>
<path d="M968.684 1119.53C971.92 1124.4 975.157 1127.63 975.157 1127.63C963.183 1144.47 957.835 1137.19 957.835 1137.19C954.279 1130.55 953.459 1129.15 953.459 1129.15C961.71 1120.67 968.684 1119.53 968.684 1119.53Z" fill="#FF7446"/>
<path d="M862.791 1136.76C862.791 1136.76 865.639 1140.74 866.375 1147.48C867.112 1154.22 865.222 1160.54 865.222 1160.54C865.222 1160.54 832.606 1162.37 819.84 1160C807.074 1157.62 805.935 1155.39 806.255 1151.77C806.574 1148.16 823.91 1149.25 829.092 1144.9C834.273 1140.55 841.496 1131.23 844.566 1132.74C847.636 1134.26 847.025 1140.08 851.178 1140.44C855.332 1140.8 860.944 1134.55 862.791 1136.76Z" fill="#562391"/>
<path d="M971.448 1122.34C971.448 1122.34 976.31 1122.94 981.769 1126.94C987.229 1130.94 990.618 1136.61 990.618 1136.61C990.618 1136.61 969.934 1161.89 959.544 1169.69C949.167 1177.5 946.75 1176.83 944.305 1174.15C941.86 1171.47 954.362 1159.43 954.668 1152.68C954.973 1145.93 952.987 1134.3 956.168 1133.06C959.363 1131.83 963.239 1136.2 966.309 1133.4C969.378 1130.59 968.559 1122.21 971.448 1122.34Z" fill="#562391"/>
<path d="M916.66 927.854C916.66 927.854 902.185 1026.56 902.185 1038.8C902.185 1051.04 971.183 1115.89 971.183 1115.89C971.183 1115.89 963.904 1134.94 947.345 1137.19C943.303 1137.73 871.111 1071.78 866.666 1061.47C861.582 1049.65 847.635 965.942 847.635 965.942C847.635 965.942 816.338 1013 817.714 1022.7C819.867 1037.92 866.666 1119.6 866.666 1119.6C866.666 1119.6 860.276 1133.74 837.564 1123.98C837.564 1123.98 773.832 1045.41 765.803 1035.04C746.799 1010.48 833.008 900.322 833.008 900.322L916.646 927.868L916.66 927.854Z" fill="#F58220"/>
<path opacity="0.32" d="M802.99 1020.26C802.99 1003.84 844.608 946.412 844.608 946.412L847.637 965.942C847.637 965.942 816.34 1013 817.715 1022.7C819.868 1037.92 866.667 1119.6 866.667 1119.6C866.667 1119.6 865.209 1122.83 861.222 1125.13C838.302 1101.96 802.977 1035.09 802.977 1020.27L802.99 1020.26Z" fill="#8C3D7C"/>
<g opacity="0.5">
<path opacity="0.32" d="M876.584 933.035C877.098 927.743 878.126 921.908 879.585 915.644L916.66 927.854C916.66 927.854 914.729 941.022 912.285 958.33C904.714 962.359 897.393 964.998 893.24 964.178C886.044 962.747 876.557 951.829 876.557 933.021C876.557 933.021 876.57 933.021 876.584 933.021V933.035Z" fill="#8C3D7C"/>
</g>
<path d="M880.364 919.311C885.17 871.915 936.428 776.318 954.195 744.341C962.585 744.925 969.975 747.717 974.156 754.426C988.436 777.374 971.1 874.776 955.292 903.336C949.25 914.24 942.179 922.519 935.747 928.562C926.44 937.313 904.77 949.773 896.422 948.176C889.49 946.856 880.35 936.716 880.35 919.283C880.35 919.283 880.364 919.283 880.377 919.283L880.364 919.311Z" fill="#3F1963"/>
<path d="M820.145 908.434C820.339 908.087 892.239 761.094 907.867 754.412C908.173 754.273 909.006 753.926 909.478 753.732C920.411 749.273 934.732 745.105 946.429 744.355C951.11 744.036 953.972 744.328 954.208 744.328C936.441 776.304 885.183 871.901 880.376 919.297C862.151 910.379 839.953 903.1 820.158 908.42L820.145 908.434Z" fill="#FDEDED"/>
<g opacity="0.5">
<path d="M910.939 829.256C899.701 853.801 889.491 879.138 884.073 899.947C849.012 905.573 839.941 902.295 824.98 898.641C832.273 883.972 837.496 873.79 839.497 869.832L910.939 829.256Z" fill="#F1F0F8"/>
</g>
<path d="M908.729 897.766C903.437 899.072 894.491 899.711 884.059 899.947C889.476 879.138 899.7 853.815 910.924 829.256L979.379 790.376C979.379 790.542 979.352 790.723 979.352 790.89C977.518 820.352 965.127 848.176 944.513 869.304C930.552 883.597 916.772 895.807 908.729 897.766Z" fill="#A597CE"/>
<path d="M736.437 894.641H892.781V738.299H736.437V894.641Z" fill="#A597CE"/>
<path d="M736.437 894.641H791.293V738.299H736.437V894.641Z" fill="#562391"/>
<path d="M812.741 867.123C811.63 867.206 792.89 874.388 778.319 869.609C771.373 867.331 764.997 865.998 767.803 872.374C770.609 878.749 783.417 876.041 785.195 877.833C786.973 879.625 763.066 892.696 756.537 893.807C750.009 894.918 760.719 900.53 763.261 900.53C765.803 900.53 763.775 901.544 766.317 904.1C768.873 906.656 775.04 906.045 778.041 906.656C787.848 908.629 813.894 890.626 817.825 886.709C821.742 882.792 812.727 867.137 812.727 867.137L812.741 867.123Z" fill="#FF7446"/>
<path d="M953.223 744.286C953.223 744.286 942.86 755.94 936.929 768.192C930.942 780.555 897.7 841.3 894.019 841.3C890.338 841.3 808.283 868.026 808.283 868.026C808.283 868.026 814.02 879.888 814.02 893.14C814.02 893.14 902.243 878.861 908.883 878.861C915.523 878.861 923.163 867.137 929.789 860.497C936.415 853.871 969.378 823.867 978.908 800.363C988.437 776.86 983.311 739.188 953.223 744.286Z" fill="#3F1963"/>
<path d="M922.287 711.948L911.66 759.038L953.222 744.286L945.096 712.101L922.287 711.948Z" fill="#FF7446"/>
<g style="mix-blend-mode:multiply" opacity="0.68">
<path d="M922.287 711.948L945.096 712.101L946.985 719.574C940.456 726.186 932.622 731.52 926.246 733.007C923.718 733.604 920.675 733.632 917.48 733.257L922.287 711.948Z" fill="#FF7F4C"/>
</g>
<path d="M939.248 666.678C939.248 666.678 932.122 666.747 923.454 672.428C914.772 678.11 906.84 693.973 906.84 693.973C906.84 693.973 902.867 704.044 902.339 709.962C901.825 715.879 922.731 725.436 933.122 724.089C943.499 722.741 957.098 711.003 960.571 700.294C964.03 689.584 943.888 666.08 939.248 666.678Z" fill="#FF865E"/>
<g style="mix-blend-mode:multiply" opacity="0.68">
<path d="M920.369 674.859C921.369 673.929 922.397 673.109 923.439 672.429C932.121 666.747 939.233 666.678 939.233 666.678C941.428 666.4 947.109 671.526 952.11 678.138L948.54 677.902C948.54 677.902 936.58 681.18 924.759 676.915C923.175 676.346 921.717 675.651 920.369 674.873V674.859Z" fill="#FF7F4C"/>
</g>
<path d="M948.542 677.888C948.542 677.888 944.527 686.667 941.902 698.904C939.276 711.142 940.624 723.533 940.624 723.533C949.306 727.992 963.28 727.575 975.171 712.129C987.076 696.696 973.587 684.055 970.573 681.735C967.559 679.416 972.254 678.554 970.142 672.456C968.031 666.358 964.308 670.192 960.252 665.955C956.196 661.705 966.822 652.842 959.293 645.911C951.751 638.979 941.929 652.384 941.929 652.384C941.929 652.384 937.776 639.104 930.164 646.675C922.565 654.245 922.246 659.566 928.455 667.803C934.664 676.04 948.528 677.901 948.528 677.901L948.542 677.888Z" fill="#A597CE"/>
<path d="M941.845 693.279C941.845 693.279 951.264 688.722 951.264 696.696C951.264 704.669 948.041 708.934 943.373 706.947C938.706 704.961 941.845 693.279 941.845 693.279Z" fill="#FF865E"/>
</g>
<defs>
<clipPath id="clip0_607_22715">
<rect width="1736" height="1176" fill="white"/>
</clipPath>
</defs>
</svg>
