<svg width="2307" height="1484" viewBox="0 0 2307 1484" fill="none" xmlns="http://www.w3.org/2000/svg">
<g clip-path="url(#clip0_607_23142)">
<path d="M786.711 267.75C784.721 267.75 782.711 267.66 780.731 267.48C780.191 267.43 779.791 266.95 779.841 266.42C779.891 265.88 780.361 265.49 780.901 265.53C784.761 265.88 788.741 265.88 792.591 265.53C793.131 265.48 793.611 265.88 793.651 266.41C793.691 266.94 793.301 267.43 792.761 267.47C790.761 267.66 788.711 267.75 786.691 267.75H786.711ZM769.151 265.33C769.061 265.33 768.971 265.32 768.881 265.29C765.021 264.2 761.231 262.73 757.631 260.94C757.151 260.7 756.951 260.11 757.191 259.63C757.431 259.15 758.021 258.95 758.501 259.19C761.991 260.93 765.661 262.35 769.411 263.41C769.931 263.56 770.231 264.1 770.091 264.62C769.971 265.05 769.581 265.33 769.151 265.33ZM804.371 265.3C803.941 265.3 803.551 265.02 803.431 264.59C803.281 264.07 803.581 263.53 804.101 263.38C807.841 262.31 811.511 260.89 815.001 259.15C815.481 258.91 816.071 259.1 816.311 259.59C816.551 260.07 816.361 260.66 815.871 260.9C812.271 262.7 808.491 264.16 804.631 265.26C804.541 265.29 804.451 265.3 804.361 265.3H804.371ZM747.981 254.79C747.771 254.79 747.571 254.73 747.391 254.59C744.191 252.17 741.191 249.44 738.481 246.48C738.121 246.08 738.141 245.46 738.541 245.1C738.941 244.73 739.561 244.76 739.921 245.16C742.551 248.04 745.461 250.69 748.571 253.03C749.001 253.36 749.091 253.97 748.761 254.4C748.571 254.65 748.271 254.79 747.981 254.79ZM825.531 254.74C825.231 254.74 824.941 254.61 824.751 254.35C824.421 253.92 824.511 253.31 824.941 252.98C828.051 250.63 830.951 247.98 833.581 245.1C833.941 244.7 834.561 244.67 834.961 245.04C835.361 245.4 835.391 246.02 835.021 246.42C832.311 249.39 829.321 252.12 826.121 254.55C825.941 254.68 825.741 254.75 825.531 254.75V254.74ZM732.031 237.34C731.701 237.34 731.381 237.18 731.201 236.88C729.081 233.47 727.261 229.84 725.811 226.1C725.611 225.6 725.861 225.03 726.371 224.83C726.871 224.63 727.441 224.88 727.641 225.39C729.051 229.02 730.811 232.53 732.871 235.85C733.161 236.31 733.011 236.91 732.561 237.2C732.401 237.3 732.221 237.35 732.041 237.35L732.031 237.34ZM841.461 237.26C841.281 237.26 841.111 237.21 840.941 237.11C840.481 236.82 840.341 236.22 840.621 235.76C842.681 232.44 844.431 228.92 845.841 225.29C846.041 224.79 846.601 224.54 847.111 224.73C847.611 224.93 847.861 225.49 847.671 226C846.221 229.74 844.411 233.37 842.291 236.79C842.101 237.09 841.781 237.25 841.461 237.25V237.26ZM723.461 215.3C723.001 215.3 722.591 214.97 722.501 214.5C721.761 210.57 721.391 206.53 721.381 202.5C721.381 201.96 721.821 201.52 722.361 201.52C722.901 201.52 723.341 201.96 723.341 202.5C723.341 206.41 723.711 210.33 724.421 214.14C724.521 214.67 724.171 215.18 723.641 215.28C723.581 215.29 723.521 215.3 723.461 215.3ZM850.011 215.21C849.951 215.21 849.891 215.21 849.831 215.19C849.301 215.09 848.951 214.58 849.051 214.05C849.761 210.24 850.121 206.32 850.121 202.41C850.121 201.87 850.561 201.34 851.101 201.34C851.641 201.34 852.081 201.68 852.081 202.22V202.32C852.081 206.45 851.711 210.49 850.981 214.42C850.891 214.89 850.481 215.22 850.021 215.22L850.011 215.21ZM723.431 191.66C723.371 191.66 723.311 191.66 723.251 191.64C722.721 191.54 722.371 191.03 722.461 190.5C723.191 186.55 724.291 182.64 725.731 178.9C725.921 178.4 726.491 178.15 727.001 178.34C727.501 178.53 727.761 179.1 727.561 179.61C726.161 183.24 725.091 187.03 724.381 190.86C724.291 191.33 723.881 191.66 723.421 191.66H723.431ZM849.971 191.38C849.511 191.38 849.101 191.05 849.011 190.58C848.291 186.75 847.201 182.97 845.781 179.34C845.581 178.84 845.831 178.27 846.341 178.07C846.841 177.87 847.411 178.12 847.611 178.62C849.071 182.36 850.191 186.26 850.941 190.21C851.041 190.74 850.691 191.25 850.161 191.35C850.101 191.36 850.041 191.37 849.981 191.37L849.971 191.38ZM731.931 169.6C731.751 169.6 731.581 169.55 731.421 169.45C730.961 169.17 730.821 168.56 731.101 168.1C733.211 164.69 735.651 161.45 738.351 158.47C738.711 158.07 739.331 158.04 739.731 158.4C740.131 158.76 740.161 159.38 739.801 159.78C737.181 162.67 734.811 165.81 732.761 169.12C732.571 169.42 732.251 169.58 731.931 169.58V169.6ZM841.361 169.36C841.031 169.36 840.711 169.2 840.531 168.9C838.471 165.6 836.091 162.47 833.451 159.59C833.081 159.19 833.111 158.57 833.511 158.21C833.911 157.85 834.531 157.87 834.891 158.27C837.611 161.23 840.061 164.46 842.191 167.87C842.481 168.33 842.341 168.93 841.881 169.22C841.721 169.32 841.541 169.37 841.361 169.37V169.36ZM747.831 152.1C747.531 152.1 747.241 151.97 747.051 151.71C746.721 151.28 746.811 150.67 747.241 150.34C750.441 147.91 753.881 145.76 757.471 143.97C757.951 143.73 758.541 143.92 758.781 144.41C759.021 144.9 758.831 145.48 758.341 145.72C754.861 147.46 751.521 149.54 748.421 151.9C748.241 152.03 748.031 152.1 747.831 152.1ZM768.971 141.51C768.541 141.51 768.151 141.23 768.031 140.8C767.881 140.28 768.181 139.74 768.701 139.59C772.551 138.49 776.541 137.74 780.551 137.36C781.091 137.31 781.571 137.71 781.621 138.24C781.671 138.78 781.271 139.26 780.741 139.31C776.851 139.67 772.991 140.4 769.251 141.47C769.161 141.5 769.071 141.51 768.981 141.51H768.971Z" fill="#F58220"/>
<path d="M1846.99 284.08C1844.81 284.08 1842.61 283.98 1840.44 283.78C1839.85 283.73 1839.42 283.2 1839.47 282.62C1839.52 282.03 1840.04 281.6 1840.63 281.65C1844.86 282.03 1849.22 282.03 1853.44 281.65C1854.03 281.6 1854.55 282.03 1854.61 282.62C1854.67 283.21 1854.23 283.73 1853.64 283.79C1851.45 283.99 1849.21 284.1 1846.99 284.1V284.08ZM1827.76 281.42C1827.66 281.42 1827.57 281.41 1827.47 281.38C1823.24 280.18 1819.1 278.58 1815.15 276.62C1814.62 276.36 1814.4 275.71 1814.67 275.18C1814.93 274.65 1815.58 274.44 1816.11 274.7C1819.93 276.6 1823.95 278.16 1828.06 279.32C1828.63 279.48 1828.96 280.07 1828.8 280.64C1828.67 281.11 1828.24 281.42 1827.77 281.42H1827.76ZM1866.33 281.39C1865.86 281.39 1865.43 281.08 1865.3 280.61C1865.14 280.04 1865.47 279.45 1866.04 279.28C1870.14 278.11 1874.16 276.55 1877.98 274.65C1878.51 274.38 1879.15 274.6 1879.42 275.13C1879.68 275.66 1879.47 276.3 1878.94 276.57C1875 278.54 1870.86 280.15 1866.63 281.35C1866.53 281.38 1866.43 281.39 1866.34 281.39H1866.33ZM1804.57 269.88C1804.35 269.88 1804.12 269.81 1803.92 269.66C1800.41 267.01 1797.13 264.02 1794.16 260.77C1793.76 260.33 1793.79 259.65 1794.23 259.25C1794.67 258.85 1795.35 258.88 1795.74 259.32C1798.62 262.47 1801.81 265.37 1805.21 267.94C1805.68 268.3 1805.78 268.97 1805.42 269.44C1805.21 269.72 1804.89 269.87 1804.56 269.87L1804.57 269.88ZM1889.5 269.82C1889.18 269.82 1888.86 269.67 1888.64 269.39C1888.28 268.92 1888.38 268.25 1888.85 267.89C1892.25 265.32 1895.43 262.41 1898.31 259.26C1898.71 258.82 1899.39 258.79 1899.82 259.19C1900.26 259.59 1900.29 260.27 1899.89 260.71C1896.93 263.96 1893.64 266.96 1890.14 269.61C1889.95 269.76 1889.72 269.83 1889.49 269.83L1889.5 269.82ZM1787.1 250.76C1786.74 250.76 1786.39 250.58 1786.19 250.25C1783.86 246.51 1781.88 242.54 1780.28 238.44C1780.07 237.89 1780.34 237.27 1780.89 237.05C1781.44 236.83 1782.06 237.11 1782.28 237.66C1783.82 241.63 1785.75 245.48 1788.01 249.11C1788.32 249.61 1788.17 250.27 1787.67 250.59C1787.49 250.7 1787.3 250.75 1787.1 250.75V250.76ZM1906.94 250.67C1906.75 250.67 1906.55 250.62 1906.38 250.51C1905.88 250.2 1905.72 249.54 1906.03 249.03C1908.28 245.4 1910.2 241.54 1911.74 237.57C1911.95 237.02 1912.57 236.74 1913.13 236.96C1913.68 237.17 1913.96 237.8 1913.74 238.35C1912.15 242.45 1910.17 246.42 1907.85 250.17C1907.65 250.5 1907.3 250.68 1906.94 250.68V250.67ZM1777.71 226.63C1777.2 226.63 1776.75 226.27 1776.66 225.76C1775.85 221.46 1775.44 217.03 1775.44 212.62C1775.44 212.03 1775.92 211.55 1776.51 211.55C1777.1 211.55 1777.58 212.03 1777.58 212.62C1777.58 216.91 1777.99 221.2 1778.77 225.37C1778.88 225.95 1778.5 226.51 1777.91 226.62C1777.84 226.63 1777.78 226.64 1777.71 226.64V226.63ZM1916.3 226.53C1916.24 226.53 1916.17 226.53 1916.1 226.51C1915.52 226.4 1915.13 225.84 1915.24 225.26C1916.02 221.08 1916.41 216.79 1916.41 212.51C1916.41 211.92 1916.89 211.34 1917.48 211.33C1918.07 211.33 1918.55 211.7 1918.55 212.29V212.4C1918.55 216.92 1918.15 221.34 1917.35 225.65C1917.25 226.17 1916.8 226.53 1916.3 226.53ZM1777.68 200.74C1777.62 200.74 1777.55 200.74 1777.48 200.72C1776.9 200.61 1776.51 200.05 1776.62 199.47C1777.42 195.14 1778.62 190.87 1780.21 186.76C1780.42 186.21 1781.04 185.93 1781.6 186.15C1782.15 186.36 1782.43 186.98 1782.21 187.54C1780.68 191.52 1779.51 195.66 1778.73 199.86C1778.64 200.38 1778.18 200.74 1777.68 200.74ZM1916.26 200.43C1915.75 200.43 1915.3 200.07 1915.21 199.56C1914.42 195.37 1913.23 191.22 1911.68 187.25C1911.46 186.7 1911.74 186.08 1912.29 185.86C1912.84 185.64 1913.46 185.92 1913.68 186.47C1915.28 190.57 1916.51 194.83 1917.32 199.16C1917.43 199.74 1917.05 200.3 1916.47 200.41C1916.4 200.42 1916.34 200.43 1916.27 200.43H1916.26ZM1786.99 176.58C1786.8 176.58 1786.6 176.53 1786.43 176.42C1785.93 176.11 1785.77 175.45 1786.08 174.94C1788.39 171.2 1791.06 167.65 1794.02 164.4C1794.42 163.96 1795.1 163.93 1795.53 164.33C1795.97 164.73 1796 165.41 1795.6 165.84C1792.73 169 1790.13 172.44 1787.89 176.07C1787.69 176.4 1787.34 176.58 1786.98 176.58H1786.99ZM1906.84 176.32C1906.48 176.32 1906.13 176.14 1905.93 175.82C1903.67 172.2 1901.07 168.77 1898.18 165.63C1897.78 165.19 1897.81 164.52 1898.25 164.11C1898.69 163.71 1899.37 163.74 1899.77 164.18C1902.75 167.42 1905.43 170.96 1907.76 174.69C1908.07 175.19 1907.92 175.85 1907.42 176.17C1907.24 176.28 1907.05 176.33 1906.85 176.33L1906.84 176.32ZM1804.41 157.41C1804.09 157.41 1803.77 157.26 1803.56 156.99C1803.2 156.52 1803.29 155.85 1803.77 155.49C1807.28 152.83 1811.05 150.48 1814.97 148.51C1815.5 148.25 1816.14 148.46 1816.41 148.99C1816.68 149.52 1816.46 150.16 1815.93 150.43C1812.12 152.34 1808.46 154.62 1805.06 157.2C1804.87 157.35 1804.64 157.42 1804.41 157.42V157.41ZM1827.56 145.81C1827.09 145.81 1826.66 145.5 1826.53 145.03C1826.37 144.46 1826.7 143.87 1827.27 143.7C1831.49 142.49 1835.86 141.67 1840.24 141.26C1840.83 141.2 1841.35 141.64 1841.41 142.23C1841.47 142.82 1841.03 143.34 1840.44 143.4C1836.18 143.8 1831.95 144.59 1827.86 145.77C1827.76 145.8 1827.66 145.81 1827.56 145.81Z" fill="#F58220"/>
<path d="M1884.47 157.77H1878.9V140.03H1884.47V157.77ZM1879.44 157.23H1883.94V140.56H1879.44V157.23Z" fill="#F58220"/>
<path d="M1875.89 157.77H1870.32V133.81H1875.89V157.77ZM1870.86 157.23H1875.36V134.34H1870.86V157.23Z" fill="#F58220"/>
<path d="M1867.31 157.77H1861.74V127.3H1867.31V157.77ZM1862.28 157.23H1866.78V127.84H1862.28V157.23Z" fill="#F58220"/>
<path d="M1893.05 157.77H1887.48V133.67H1893.05V157.77ZM1888.02 157.23H1892.52V134.2H1888.02V157.23Z" fill="#F58220"/>
<path d="M1901.63 157.77H1896.06V128.49H1901.63V157.77ZM1896.6 157.23H1901.1V129.02H1896.6V157.23Z" fill="#F58220"/>
<path d="M1882.77 129.46C1882.77 129.46 1882.72 129.46 1882.7 129.45L1863.43 123.95C1863.29 123.91 1863.21 123.76 1863.25 123.62C1863.29 123.48 1863.44 123.39 1863.58 123.44L1882.74 128.91L1901.77 118.6C1901.9 118.53 1902.06 118.58 1902.13 118.71C1902.2 118.84 1902.15 119 1902.02 119.07L1882.9 129.43C1882.9 129.43 1882.82 129.46 1882.77 129.46Z" fill="#F58220"/>
<path d="M1901.14 122.84C1901.14 122.84 1901.07 122.84 1901.04 122.82C1900.9 122.76 1900.84 122.61 1900.89 122.47L1902.61 118.33H1898.01C1897.86 118.33 1897.74 118.21 1897.74 118.06C1897.74 117.91 1897.86 117.79 1898.01 117.79H1903.01C1903.1 117.79 1903.18 117.83 1903.23 117.91C1903.28 117.98 1903.29 118.08 1903.25 118.16L1901.38 122.67C1901.34 122.77 1901.24 122.84 1901.13 122.84H1901.14Z" fill="#F58220"/>
<path d="M367.998 581.41V578.7C366.438 578.67 364.838 578.19 363.898 577.52L364.538 575.72C365.508 576.36 366.898 576.87 368.398 576.87C370.298 576.87 371.588 575.77 371.588 574.24C371.588 572.71 370.538 571.85 368.558 571.05C365.818 569.98 364.128 568.74 364.128 566.41C364.128 564.08 365.708 562.49 368.178 562.09V559.38H369.838V561.98C371.448 562.03 372.548 562.46 373.328 562.92L372.658 564.69C372.098 564.37 370.998 563.78 369.278 563.78C367.208 563.78 366.438 565.01 366.438 566.09C366.438 567.48 367.428 568.18 369.768 569.15C372.528 570.28 373.928 571.67 373.928 574.06C373.928 576.18 372.448 578.16 369.688 578.62V581.41H367.998Z" fill="#F58220"/>
<path d="M368.849 586.61C359.809 586.61 352.449 579.25 352.449 570.21C352.449 561.17 359.809 553.81 368.849 553.81C377.889 553.81 385.249 561.17 385.249 570.21C385.249 579.25 377.889 586.61 368.849 586.61ZM368.849 554.54C360.209 554.54 353.179 561.57 353.179 570.21C353.179 578.85 360.209 585.88 368.849 585.88C377.489 585.88 384.519 578.85 384.519 570.21C384.519 561.57 377.489 554.54 368.849 554.54Z" fill="#F58220"/>
<path d="M1630.29 144.41V141.7C1628.73 141.67 1627.13 141.19 1626.19 140.52L1626.83 138.72C1627.8 139.36 1629.19 139.87 1630.69 139.87C1632.59 139.87 1633.88 138.77 1633.88 137.24C1633.88 135.71 1632.83 134.85 1630.85 134.05C1628.11 132.98 1626.42 131.74 1626.42 129.41C1626.42 127.08 1628 125.49 1630.47 125.09V122.38H1632.13V124.98C1633.74 125.03 1634.84 125.46 1635.62 125.92L1634.95 127.69C1634.39 127.37 1633.29 126.78 1631.57 126.78C1629.5 126.78 1628.73 128.01 1628.73 129.09C1628.73 130.48 1629.72 131.18 1632.06 132.15C1634.82 133.28 1636.22 134.67 1636.22 137.06C1636.22 139.18 1634.74 141.16 1631.98 141.62V144.41H1630.29Z" fill="#F58220"/>
<path d="M1631.14 149.61C1622.1 149.61 1614.74 142.25 1614.74 133.21C1614.74 124.17 1622.1 116.81 1631.14 116.81C1640.18 116.81 1647.54 124.17 1647.54 133.21C1647.54 142.25 1640.18 149.61 1631.14 149.61ZM1631.14 117.54C1622.5 117.54 1615.47 124.57 1615.47 133.21C1615.47 141.85 1622.5 148.88 1631.14 148.88C1639.78 148.88 1646.81 141.85 1646.81 133.21C1646.81 124.57 1639.78 117.54 1631.14 117.54Z" fill="#F58220"/>
<path d="M1390.45 1234.66V1231.95C1388.89 1231.92 1387.29 1231.44 1386.35 1230.77L1386.99 1228.97C1387.96 1229.61 1389.35 1230.12 1390.85 1230.12C1392.75 1230.12 1394.04 1229.02 1394.04 1227.49C1394.04 1225.96 1392.99 1225.1 1391.01 1224.3C1388.27 1223.23 1386.58 1221.99 1386.58 1219.66C1386.58 1217.33 1388.16 1215.74 1390.63 1215.34V1212.63H1392.29V1215.23C1393.9 1215.28 1395 1215.71 1395.78 1216.17L1395.11 1217.94C1394.55 1217.62 1393.45 1217.03 1391.73 1217.03C1389.66 1217.03 1388.89 1218.26 1388.89 1219.34C1388.89 1220.73 1389.88 1221.43 1392.22 1222.4C1394.98 1223.53 1396.38 1224.92 1396.38 1227.31C1396.38 1229.43 1394.9 1231.41 1392.14 1231.87V1234.66H1390.45Z" fill="#F58220"/>
<path d="M1391.3 1239.86C1382.26 1239.86 1374.9 1232.5 1374.9 1223.46C1374.9 1214.42 1382.26 1207.06 1391.3 1207.06C1400.34 1207.06 1407.7 1214.42 1407.7 1223.46C1407.7 1232.5 1400.34 1239.86 1391.3 1239.86ZM1391.3 1207.79C1382.66 1207.79 1375.63 1214.82 1375.63 1223.46C1375.63 1232.1 1382.66 1239.13 1391.3 1239.13C1399.94 1239.13 1406.97 1232.1 1406.97 1223.46C1406.97 1214.82 1399.94 1207.79 1391.3 1207.79Z" fill="#F58220"/>
<path d="M929.95 1305.81H867.74V1272.28H929.95V1305.81ZM868.48 1305.08H929.22V1273.01H868.48V1305.08Z" fill="#F58220"/>
<path d="M918.481 1301.16H879.211V1300.79C879.211 1297.23 876.321 1294.34 872.761 1294.34H872.391V1283.75H872.761C876.311 1283.75 879.211 1280.86 879.211 1277.3V1276.93H918.481V1277.3C918.481 1280.86 921.371 1283.75 924.931 1283.75H925.301V1294.34H924.931C921.381 1294.34 918.481 1297.23 918.481 1300.79V1301.16ZM879.941 1300.43H917.761C917.951 1296.76 920.901 1293.81 924.561 1293.63V1284.48C920.891 1284.29 917.941 1281.34 917.761 1277.68H879.941C879.761 1281.35 876.801 1284.3 873.141 1284.48V1293.63C876.811 1293.82 879.761 1296.77 879.941 1300.43Z" fill="#F58220"/>
<path d="M903.26 1294.56H894.42C891.38 1294.56 888.91 1292.09 888.91 1289.05C888.91 1286.01 891.38 1283.54 894.42 1283.54H903.26C906.3 1283.54 908.77 1286.01 908.77 1289.05C908.77 1292.09 906.3 1294.56 903.26 1294.56ZM894.42 1284.26C891.78 1284.26 889.64 1286.4 889.64 1289.04C889.64 1291.68 891.79 1293.82 894.42 1293.82H903.26C905.9 1293.82 908.04 1291.67 908.04 1289.04C908.04 1286.41 905.9 1284.26 903.26 1284.26H894.42Z" fill="#F58220"/>
<path d="M881.019 1292.88C878.909 1292.88 877.189 1291.16 877.189 1289.05C877.189 1286.94 878.909 1285.22 881.019 1285.22C883.129 1285.22 884.849 1286.94 884.849 1289.05C884.849 1291.16 883.129 1292.88 881.019 1292.88ZM881.019 1285.95C879.309 1285.95 877.919 1287.34 877.919 1289.05C877.919 1290.76 879.309 1292.15 881.019 1292.15C882.729 1292.15 884.119 1290.76 884.119 1289.05C884.119 1287.34 882.729 1285.95 881.019 1285.95Z" fill="#F58220"/>
<path d="M916.41 1292.88C914.3 1292.88 912.58 1291.16 912.58 1289.05C912.58 1286.94 914.3 1285.22 916.41 1285.22C918.52 1285.22 920.24 1286.94 920.24 1289.05C920.24 1291.16 918.52 1292.88 916.41 1292.88ZM916.41 1285.95C914.7 1285.95 913.31 1287.34 913.31 1289.05C913.31 1290.76 914.7 1292.15 916.41 1292.15C918.12 1292.15 919.51 1290.76 919.51 1289.05C919.51 1287.34 918.12 1285.95 916.41 1285.95Z" fill="#F58220"/>
<path d="M1999.43 692.74H1966.26V644.99H1961.63C1961.06 644.99 1960.58 644.63 1960.41 644.08C1960.25 643.53 1960.45 642.97 1960.93 642.66L1983.03 628.15L2004.81 642.67C2005.29 642.99 2005.49 643.55 2005.32 644.09C2005.15 644.64 2004.68 644.99 2004.11 644.99H1999.44V692.74H1999.43ZM1966.99 692.01H1998.7V644.26H2004.1C2004.39 644.26 2004.56 644.06 2004.61 643.88C2004.67 643.7 2004.64 643.44 2004.39 643.28L1983.02 629.03L1961.33 643.28C1961.08 643.44 1961.06 643.7 1961.11 643.88C1961.17 644.07 1961.33 644.26 1961.62 644.26H1966.98V692.01H1966.99Z" fill="#F58220"/>
<path d="M1984.41 677.54H1981.11V673.42C1978.84 673.32 1976.49 672.61 1975.04 671.57L1974.81 671.41L1976.04 667.98L1976.43 668.24C1978.04 669.31 1980.1 669.93 1982.08 669.93C1984.71 669.93 1986.55 668.44 1986.55 666.31C1986.55 664.37 1985.28 663.07 1982.18 661.81C1978.58 660.4 1975.24 658.52 1975.24 654.43C1975.24 650.97 1977.64 648.3 1981.38 647.57V643.4H1984.63V647.36C1986.58 647.47 1988.25 647.95 1989.74 648.82L1990.01 648.98L1988.73 652.36L1988.36 652.15C1987.66 651.75 1986.02 650.81 1983.42 650.81C1980.51 650.81 1979.47 652.5 1979.47 653.94C1979.47 655.71 1980.6 656.71 1984.29 658.24C1988.87 660.11 1990.82 662.43 1990.82 666.02C1990.82 669.02 1988.83 672.38 1984.39 673.24V677.53L1984.41 677.54ZM1981.85 676.81H1983.68V672.64L1983.99 672.59C1988.22 671.89 1990.11 668.8 1990.11 666.04C1990.11 662.75 1988.35 660.7 1984.03 658.94C1980.46 657.46 1978.76 656.34 1978.76 653.96C1978.76 652.04 1980.21 650.1 1983.44 650.1C1985.85 650.1 1987.49 650.84 1988.37 651.32L1989.12 649.33C1987.72 648.57 1986.13 648.17 1984.27 648.11H1983.92V644.17H1982.13V648.22L1981.82 648.27C1978.28 648.85 1975.99 651.28 1975.99 654.46C1975.99 657.91 1978.58 659.63 1982.47 661.16C1985.86 662.53 1987.3 664.08 1987.3 666.34C1987.3 668.9 1985.16 670.69 1982.09 670.69C1980.12 670.69 1978.09 670.12 1976.42 669.13L1975.69 671.16C1977.1 672.07 1979.38 672.69 1981.48 672.73H1981.84V676.84L1981.85 676.81Z" fill="#F58220"/>
<path d="M824.43 142.62H816.82V118.38H824.43V142.62ZM817.55 141.89H823.7V119.11H817.55V141.89Z" fill="#F58220"/>
<path d="M812.712 142.62H805.102V124.3H812.712V142.62ZM805.832 141.89H811.982V125.04H805.832V141.89Z" fill="#F58220"/>
<path d="M836.151 142.62H828.541V109.68H836.151V142.62ZM829.271 141.89H835.421V110.42H829.271V141.89Z" fill="#F58220"/>
<path d="M847.87 142.62H840.26V102.61H847.87V142.62ZM840.99 141.89H847.14V103.35H840.99V141.89Z" fill="#F58220"/>
<path d="M793.581 119.4C793.451 119.4 793.321 119.33 793.261 119.21C793.161 119.03 793.231 118.81 793.411 118.71L848.071 89.0902C848.251 88.9902 848.471 89.0602 848.571 89.2402C848.671 89.4202 848.601 89.6402 848.421 89.7402L793.761 119.36C793.701 119.39 793.641 119.4 793.591 119.4H793.581Z" fill="#F58220"/>
<path d="M847.21 94.89C847.21 94.89 847.12 94.89 847.07 94.86C846.88 94.78 846.79 94.57 846.87 94.38L849.22 88.72H842.94C842.74 88.72 842.57 88.56 842.57 88.35C842.57 88.14 842.73 87.98 842.94 87.98H849.77C849.89 87.98 850.01 88.04 850.07 88.14C850.14 88.24 850.15 88.37 850.1 88.48L847.54 94.64C847.48 94.78 847.35 94.87 847.2 94.87L847.21 94.89Z" fill="#F58220"/>
<path d="M247.23 808.03C234.38 808.03 223.93 797.58 223.93 784.73C223.93 771.88 234.38 761.43 247.23 761.43C260.08 761.43 270.53 771.88 270.53 784.73C270.53 797.58 260.08 808.03 247.23 808.03ZM247.23 762.16C234.79 762.16 224.66 772.28 224.66 784.73C224.66 797.18 234.78 807.3 247.23 807.3C259.68 807.3 269.8 797.18 269.8 784.73C269.8 772.28 259.68 762.16 247.23 762.16Z" fill="#F58220"/>
<path d="M247.229 798.47C239.649 798.47 233.479 792.3 233.479 784.73C233.479 777.16 239.649 770.99 247.229 770.99C254.809 770.99 260.969 777.16 260.969 784.73C260.969 792.3 254.799 798.47 247.229 798.47ZM247.229 771.71C240.059 771.71 234.219 777.55 234.219 784.72C234.219 791.89 240.059 797.73 247.229 797.73C254.399 797.73 260.239 791.89 260.239 784.72C260.239 777.55 254.399 771.71 247.229 771.71Z" fill="#F58220"/>
<path d="M247.229 791.07C243.729 791.07 240.889 788.23 240.889 784.73C240.889 781.23 243.729 778.39 247.229 778.39C250.729 778.39 253.569 781.23 253.569 784.73C253.569 788.23 250.729 791.07 247.229 791.07ZM247.229 779.12C244.139 779.12 241.619 781.63 241.619 784.73C241.619 787.83 244.129 790.34 247.229 790.34C250.329 790.34 252.839 787.83 252.839 784.73C252.839 781.63 250.329 779.12 247.229 779.12Z" fill="#F58220"/>
<path d="M247.229 784.71C247.169 784.71 247.109 784.7 247.059 784.67L210.749 765.37C210.569 765.27 210.499 765.05 210.599 764.87C210.689 764.69 210.919 764.62 211.099 764.72L247.409 784.02C247.589 784.12 247.659 784.34 247.559 784.52C247.489 784.64 247.369 784.71 247.239 784.71H247.229Z" fill="#F58220"/>
<path d="M219.16 768.47C219.02 768.47 218.89 768.39 218.83 768.27L216.34 763.21L210.47 758.92L212.55 764.25C212.62 764.44 212.53 764.65 212.34 764.72C212.15 764.79 211.94 764.7 211.87 764.51L209.34 758.01C209.28 757.86 209.33 757.69 209.46 757.59C209.59 757.49 209.77 757.49 209.9 757.59L216.85 762.68C216.85 762.68 216.94 762.76 216.96 762.81L219.49 767.95C219.58 768.13 219.5 768.35 219.32 768.44C219.27 768.47 219.21 768.48 219.16 768.48V768.47Z" fill="#F58220"/>
<path d="M213.229 771.25C213.229 771.25 213.159 771.25 213.119 771.23L204.879 768.73C204.719 768.68 204.619 768.53 204.619 768.37C204.619 768.2 204.739 768.06 204.899 768.02L211.109 766.51C211.309 766.47 211.499 766.58 211.549 766.78C211.599 766.98 211.479 767.18 211.279 767.22L206.369 768.41L213.249 770.5L218.289 769.82C218.489 769.78 218.669 769.93 218.699 770.13C218.729 770.33 218.589 770.52 218.389 770.54L213.269 771.23C213.269 771.23 213.239 771.23 213.219 771.23L213.229 771.25Z" fill="#F58220"/>
<g style="mix-blend-mode:multiply">
<path d="M298.68 1428.8C298.49 1428.44 278.72 1392.37 235.44 1346.02C212.8 1321.78 180.88 1291.81 139.16 1262.09C139.18 1261.95 139.18 1261.8 139.16 1261.65L132.85 1226.49C132.72 1225.74 132 1225.24 131.25 1225.38C130.5 1225.51 130 1226.23 130.14 1226.98L136.04 1259.88C104.87 1237.94 68.3501 1216.22 26.2101 1197.11C25.5201 1196.8 24.7001 1197.11 24.3801 1197.8C24.0701 1198.49 24.3801 1199.31 25.0701 1199.63C49.9501 1210.91 72.8701 1223.11 93.8801 1235.73L68.6801 1240.83C67.9301 1240.98 67.4501 1241.71 67.6001 1242.46C67.7501 1243.21 68.4801 1243.69 69.2301 1243.54L97.3301 1237.85C97.3301 1237.85 97.3401 1237.85 97.3501 1237.85C141.18 1264.53 176.54 1292.93 203.85 1318.4L168.34 1328.4C167.61 1328.61 167.18 1329.37 167.39 1330.1C167.6 1330.83 168.36 1331.26 169.09 1331.05L205.37 1320.83C205.47 1320.8 205.57 1320.76 205.67 1320.71C205.8 1320.64 205.92 1320.54 206.02 1320.43C216.29 1330.1 225.41 1339.32 233.36 1347.83C276.44 1393.93 296.08 1429.76 296.27 1430.12C296.63 1430.79 297.47 1431.04 298.14 1430.67C298.14 1430.67 298.14 1430.67 298.15 1430.67C298.81 1430.3 299.05 1429.47 298.69 1428.81L298.68 1428.8Z" fill="#DEDEDE"/>
</g>
<g style="mix-blend-mode:multiply">
<path d="M395.99 1274.75C394.91 1274.38 393.74 1274.96 393.37 1276.04L378.65 1319.29C376.62 1309.82 374.34 1299.93 371.76 1289.66C359.69 1241.52 339.64 1179.18 306.56 1110.04C306.69 1109.87 306.79 1109.68 306.86 1109.47L324.08 1058.88C324.45 1057.8 323.87 1056.63 322.79 1056.26C321.71 1055.89 320.54 1056.47 320.17 1057.55L304.06 1104.87C279.15 1053.58 247.08 998.68 205.79 943.16C205.11 942.25 203.82 942.06 202.9 942.74C201.99 943.42 201.8 944.71 202.48 945.63C226.87 978.43 248.03 1011.01 266.39 1042.74L229.71 1031.16C228.62 1030.82 227.46 1031.42 227.12 1032.51C226.78 1033.6 227.38 1034.75 228.47 1035.1L269.37 1048.02C269.37 1048.02 269.4 1048.02 269.42 1048.02C307.45 1114.7 333.14 1177.49 350.43 1230.61L296.7 1217.97C295.59 1217.71 294.48 1218.4 294.22 1219.51C293.96 1220.62 294.65 1221.73 295.76 1221.99L350.65 1234.91C350.81 1234.95 350.97 1234.97 351.12 1234.97C351.35 1234.97 351.58 1234.93 351.8 1234.86C358.24 1254.96 363.47 1273.63 367.72 1290.54C370.93 1303.34 373.69 1315.54 376.06 1327.07C376 1327.52 376.1 1327.97 376.32 1328.35C390.63 1398.55 390.44 1443.31 390.44 1443.83C390.44 1444.97 391.35 1445.9 392.48 1445.91C392.48 1445.91 392.49 1445.91 392.5 1445.91C393.63 1445.91 394.55 1445 394.56 1443.87C394.56 1443.35 394.76 1398.1 380.3 1327.27L397.27 1277.42C397.64 1276.34 397.06 1275.17 395.98 1274.8L395.99 1274.75Z" fill="#DEDEDE"/>
</g>
<g style="mix-blend-mode:multiply">
<path d="M2016.45 1240.18C2016.64 1239.83 2035.83 1204.81 2077.86 1159.81C2099.85 1136.27 2130.83 1107.18 2171.35 1078.32C2171.33 1078.18 2171.33 1078.04 2171.35 1077.89L2177.47 1043.75C2177.6 1043.02 2178.3 1042.54 2179.02 1042.67C2179.75 1042.8 2180.23 1043.5 2180.1 1044.22L2174.37 1076.17C2204.64 1054.87 2240.1 1033.78 2281.01 1015.23C2281.68 1014.92 2282.48 1015.23 2282.78 1015.9C2283.09 1016.57 2282.78 1017.37 2282.11 1017.67C2257.95 1028.63 2235.69 1040.47 2215.29 1052.72L2239.76 1057.67C2240.49 1057.82 2240.95 1058.52 2240.81 1059.25C2240.66 1059.98 2239.96 1060.44 2239.23 1060.3L2211.95 1054.78C2211.95 1054.78 2211.95 1054.78 2211.93 1054.78C2169.37 1080.69 2135.04 1108.26 2108.52 1132.99L2143 1142.7C2143.71 1142.9 2144.13 1143.64 2143.93 1144.35C2143.73 1145.06 2142.99 1145.48 2142.28 1145.28L2107.05 1135.36C2106.95 1135.33 2106.85 1135.29 2106.76 1135.24C2106.63 1135.17 2106.51 1135.07 2106.42 1134.97C2096.45 1144.36 2087.59 1153.31 2079.87 1161.58C2038.05 1206.35 2018.98 1241.13 2018.79 1241.48C2018.44 1242.13 2017.62 1242.37 2016.97 1242.02C2016.97 1242.02 2016.97 1242.02 2016.96 1242.02C2016.32 1241.66 2016.08 1240.86 2016.43 1240.21L2016.45 1240.18Z" fill="#DEDEDE"/>
</g>
<g style="mix-blend-mode:multiply">
<path d="M459.369 1428.11C459.509 1427.85 473.859 1401.66 505.289 1368C521.729 1350.4 544.909 1328.64 575.199 1307.06C575.189 1306.96 575.189 1306.85 575.199 1306.74L579.779 1281.21C579.879 1280.67 580.399 1280.3 580.939 1280.4C581.479 1280.5 581.849 1281.02 581.749 1281.56L577.459 1305.45C600.099 1289.52 626.609 1273.75 657.209 1259.87C657.709 1259.64 658.309 1259.87 658.539 1260.37C658.769 1260.87 658.539 1261.47 658.039 1261.7C639.969 1269.89 623.329 1278.75 608.069 1287.91L626.369 1291.61C626.909 1291.72 627.259 1292.25 627.149 1292.79C627.039 1293.33 626.509 1293.68 625.969 1293.57L605.569 1289.44C605.569 1289.44 605.569 1289.44 605.559 1289.44C573.729 1308.81 548.059 1329.44 528.229 1347.93L554.019 1355.19C554.549 1355.34 554.859 1355.89 554.709 1356.43C554.559 1356.96 554.009 1357.27 553.479 1357.12L527.129 1349.7C527.049 1349.68 526.979 1349.65 526.919 1349.61C526.819 1349.56 526.739 1349.49 526.659 1349.41C519.199 1356.43 512.579 1363.13 506.809 1369.31C475.529 1402.79 461.269 1428.8 461.129 1429.06C460.869 1429.55 460.259 1429.73 459.769 1429.46C459.289 1429.19 459.109 1428.59 459.369 1428.11Z" fill="#DEDEDE"/>
</g>
<g style="mix-blend-mode:multiply">
<path d="M1926.13 1047.35C1927.18 1046.99 1928.32 1047.55 1928.67 1048.6L1942.97 1090.59C1944.94 1081.39 1947.15 1071.79 1949.66 1061.82C1961.38 1015.08 1980.85 954.54 2012.97 887.41C2012.85 887.25 2012.74 887.06 2012.67 886.85L1995.95 837.73C1995.59 836.68 1996.15 835.54 1997.2 835.19C1998.25 834.83 1999.39 835.39 1999.74 836.44L2015.38 882.39C2039.56 832.59 2070.71 779.29 2110.8 725.37C2111.46 724.48 2112.71 724.3 2113.6 724.96C2114.49 725.62 2114.67 726.87 2114.01 727.76C2090.32 759.61 2069.78 791.24 2051.95 822.06L2087.56 810.81C2088.62 810.48 2089.74 811.06 2090.07 812.12C2090.4 813.17 2089.82 814.3 2088.76 814.63L2049.05 827.17C2049.05 827.17 2049.02 827.17 2049 827.17C2012.07 891.91 1987.13 952.88 1970.34 1004.46L2022.51 992.18C2023.59 991.93 2024.67 992.59 2024.92 993.67C2025.17 994.75 2024.51 995.83 2023.43 996.08L1970.13 1008.62C1969.98 1008.66 1969.82 1008.67 1969.67 1008.67C1969.44 1008.67 1969.22 1008.63 1969.01 1008.56C1962.76 1028.08 1957.67 1046.21 1953.56 1062.62C1950.44 1075.05 1947.77 1086.89 1945.47 1098.09C1945.53 1098.53 1945.43 1098.96 1945.22 1099.33C1931.33 1167.49 1931.51 1210.95 1931.51 1211.46C1931.51 1212.57 1930.63 1213.47 1929.52 1213.48C1929.52 1213.48 1929.51 1213.48 1929.5 1213.48C1928.4 1213.48 1927.51 1212.59 1927.5 1211.49C1927.5 1210.98 1927.31 1167.05 1941.34 1098.27L1924.86 1049.86C1924.5 1048.81 1925.06 1047.68 1926.11 1047.32L1926.13 1047.35Z" fill="#DEDEDE"/>
</g>
<path d="M181.699 1432.15H2123.12C2132.5 1432.15 2140.12 1439.77 2140.12 1449.15V1483.35H164.699V1449.15C164.699 1439.77 172.319 1432.15 181.699 1432.15Z" fill="#B2C2F0"/>
<path d="M1265.2 1089.51H1039.62V1371.48H1265.2V1089.51Z" fill="#303030"/>
<path d="M722 1432.14V1398.44L844.36 1371.49H1460.45L1582.82 1398.27V1432.14H722Z" fill="#404040"/>
<path d="M1851.75 211.38H453.061C443.346 211.38 435.471 219.255 435.471 228.97V1138.55C435.471 1148.26 443.346 1156.14 453.061 1156.14H1851.75C1861.47 1156.14 1869.34 1148.26 1869.34 1138.55V228.97C1869.34 219.255 1861.47 211.38 1851.75 211.38Z" fill="#404040"/>
<path d="M1855.75 224.97H449.07V1101.75H1855.75V224.97Z" fill="#737373"/>
<path d="M1843.51 237.21H461.311V1089.51H1843.51V237.21Z" fill="#DCE5FF"/>
<path d="M1800 1046V280.71L504.81 280.71V1046H1800Z" fill="white"/>
<path d="M889.539 423.6H584.119C555.03 423.6 531.449 447.181 531.449 476.27V510.9C531.449 539.989 555.03 563.57 584.119 563.57H889.539C918.628 563.57 942.209 539.989 942.209 510.9V476.27C942.209 447.181 918.628 423.6 889.539 423.6Z" fill="#DCE5FF"/>
<path d="M599.52 533.27C620.694 533.27 637.86 516.104 637.86 494.93C637.86 473.755 620.694 456.59 599.52 456.59C578.345 456.59 561.18 473.755 561.18 494.93C561.18 516.104 578.345 533.27 599.52 533.27Z" fill="white"/>
<path d="M821.239 470.67H674.329C672.335 470.67 670.719 472.286 670.719 474.28V485.06C670.719 487.054 672.335 488.67 674.329 488.67H821.239C823.233 488.67 824.849 487.054 824.849 485.06V474.28C824.849 472.286 823.233 470.67 821.239 470.67Z" fill="white"/>
<path d="M674.329 512.66H898.439C900.429 512.66 902.049 514.28 902.049 516.27V527.05C902.049 529.04 900.429 530.66 898.439 530.66H674.329C672.339 530.66 670.719 529.04 670.719 527.05V516.27C670.719 514.28 672.339 512.66 674.329 512.66Z" fill="white"/>
<path d="M889.539 628.96H584.119C555.03 628.96 531.449 652.541 531.449 681.63V716.26C531.449 745.349 555.03 768.93 584.119 768.93H889.539C918.628 768.93 942.209 745.349 942.209 716.26V681.63C942.209 652.541 918.628 628.96 889.539 628.96Z" fill="#DCE5FF"/>
<path d="M599.52 738.63C620.694 738.63 637.86 721.465 637.86 700.29C637.86 679.116 620.694 661.95 599.52 661.95C578.345 661.95 561.18 679.116 561.18 700.29C561.18 721.465 578.345 738.63 599.52 738.63Z" fill="white"/>
<path d="M821.239 676.03H674.329C672.335 676.03 670.719 677.646 670.719 679.64V690.42C670.719 692.413 672.335 694.03 674.329 694.03H821.239C823.233 694.03 824.849 692.413 824.849 690.42V679.64C824.849 677.646 823.233 676.03 821.239 676.03Z" fill="white"/>
<path d="M898.439 718.02H674.329C672.335 718.02 670.719 719.636 670.719 721.63V732.41C670.719 734.404 672.335 736.02 674.329 736.02H898.439C900.433 736.02 902.049 734.404 902.049 732.41V721.63C902.049 719.636 900.433 718.02 898.439 718.02Z" fill="white"/>
<path d="M889.539 834.32H584.119C555.03 834.32 531.449 857.901 531.449 886.99V921.62C531.449 950.709 555.03 974.29 584.119 974.29H889.539C918.628 974.29 942.209 950.709 942.209 921.62V886.99C942.209 857.901 918.628 834.32 889.539 834.32Z" fill="#DCE5FF"/>
<path d="M614.19 941.057C633.752 932.954 643.042 910.526 634.939 890.964C626.836 871.401 604.408 862.111 584.845 870.214C565.283 878.317 555.993 900.745 564.096 920.308C572.199 939.871 594.627 949.16 614.19 941.057Z" fill="white"/>
<path d="M821.239 881.39H674.329C672.335 881.39 670.719 883.006 670.719 885V895.77C670.719 897.763 672.335 899.38 674.329 899.38H821.239C823.233 899.38 824.849 897.763 824.849 895.77V885C824.849 883.006 823.233 881.39 821.239 881.39Z" fill="white"/>
<path d="M898.439 923.38H674.329C672.335 923.38 670.719 924.996 670.719 926.99V937.76C670.719 939.754 672.335 941.37 674.329 941.37H898.439C900.433 941.37 902.049 939.754 902.049 937.76V926.99C902.049 924.996 900.433 923.38 898.439 923.38Z" fill="white"/>
<path d="M1788.24 277.99H519.59C495.201 277.99 475.43 297.761 475.43 322.15C475.43 346.539 495.201 366.31 519.59 366.31H1788.24C1812.63 366.31 1832.4 346.539 1832.4 322.15C1832.4 297.761 1812.63 277.99 1788.24 277.99Z" fill="#5D64B5"/>
<path d="M1787.12 295.35H633.959V348.95H1787.12V295.35Z" fill="white"/>
<path d="M556.79 302.16C549.93 295.3 538.78 295.3 531.93 302.16C525.08 309.02 525.07 320.17 531.93 327.03C537.15 332.25 544.86 333.48 551.27 330.75L569.45 348.93L578.17 340.21L560.18 322.22C563.33 315.67 562.21 307.57 556.79 302.15V302.16ZM574.07 340.21L569.44 344.84L553.93 329.33C554.94 328.67 555.9 327.91 556.78 327.02C557.48 326.32 558.09 325.57 558.64 324.79L574.06 340.21H574.07ZM554.74 324.97C549.01 330.7 539.69 330.7 533.97 324.97C528.24 319.24 528.24 309.92 533.97 304.2C539.7 298.47 549.02 298.47 554.74 304.2C560.47 309.93 560.47 319.25 554.74 324.97Z" fill="white"/>
<g style="mix-blend-mode:multiply">
<path d="M1701 956.32H1131.47C1104.07 956.32 1080.37 937.25 1074.5 910.49L990.101 519.99C984.671 495.23 1003.53 471.79 1028.87 471.79H1598.4C1625.8 471.79 1649.5 490.86 1655.37 517.62L1739.77 908.12C1745.2 932.88 1726.34 956.32 1701 956.32Z" fill="#BFBFBF"/>
</g>
<path d="M1719.1 920.13H1149.57C1122.17 920.13 1098.47 901.06 1092.6 874.3L1008.2 483.8C1002.77 459.04 1021.63 435.6 1046.97 435.6H1616.5C1643.9 435.6 1667.6 454.67 1673.47 481.43L1757.87 871.93C1763.3 896.69 1744.44 920.13 1719.1 920.13Z" fill="#FFBA80"/>
<path d="M1691.93 566.83H1355.28L1322.59 435.6H1283.37L1316.06 566.83H1026.14L1032.01 593.97H1322.82L1371.35 788.8H1739.9L1731.94 751.96H1401.4L1362.04 593.97H1697.79L1691.93 566.83Z" fill="#D4E8FF"/>
<path d="M1514.81 703.5H1432.1L1410.45 615.94H1493.16L1514.81 703.5Z" fill="#FFBA80"/>
<path d="M1651.8 532.91H1393.81L1377.17 463.6H1635.16L1651.8 532.91Z" fill="#FFBA80"/>
<path d="M1712.54 889.6H1558.75L1542.11 820.3H1695.9L1712.54 889.6Z" fill="#FFBA80"/>
<path d="M1286.38 532.91H1217.56L1200.92 463.6H1269.74L1286.38 532.91Z" fill="#FFBA80"/>
<path d="M1316.43 726.85H1273.11L1262.63 683.22H1305.95L1316.43 726.85Z" fill="#FFBA80"/>
<path d="M1484.44 884.52H1441.12L1430.64 840.89H1473.96L1484.44 884.52Z" fill="#FFBA80"/>
<path d="M1140.99 662.87H1070.71L1060.24 619.25H1130.51L1140.99 662.87Z" fill="#FFBA80"/>
<path d="M1157.47 739.45H1087.19L1076.72 695.82H1146.99L1157.47 739.45Z" fill="#FFBA80"/>
<path d="M1172.97 815.05H1102.7L1092.23 771.43H1162.5L1172.97 815.05Z" fill="#FFBA80"/>
<path d="M1160.05 532.91H1091.23L1074.59 463.6H1143.41L1160.05 532.91Z" fill="#FFBA80"/>
<path d="M1638.5 608.19H1580.56L1604.05 701.08H1551.21L1560.74 735.49H1612.76H1618.68H1670.7L1638.5 608.19Z" fill="#FFBA80"/>
<path d="M1344.81 771.03H1286.86L1310.36 863.92H1257.52L1267.05 898.33H1319.07H1324.99H1377.01L1344.81 771.03Z" fill="#FFBA80"/>
<path d="M1209.16 821.11H1267.1L1224.54 652.94H1326.93L1317.4 618.53H1265.38H1259.46H1157.9L1209.16 821.11Z" fill="#FFBA80"/>
<g style="mix-blend-mode:multiply">
<path d="M1357.9 640.87C1357.9 676.14 1329.3 756.1 1294.03 756.1C1258.76 756.1 1230.16 676.14 1230.16 640.87C1230.16 605.6 1258.76 577 1294.03 577C1329.3 577 1357.9 605.6 1357.9 640.87Z" fill="#BFBFBF"/>
</g>
<path d="M1395.91 603.85C1395.91 647.44 1360.57 746.25 1316.98 746.25C1273.39 746.25 1238.05 647.44 1238.05 603.85C1238.05 560.26 1273.39 524.92 1316.98 524.92C1360.57 524.92 1395.91 560.26 1395.91 603.85Z" fill="#FB7071"/>
<path d="M1364.98 611.669C1369.27 585.191 1351.29 560.242 1324.82 555.945C1298.34 551.647 1273.39 569.627 1269.09 596.105C1264.79 622.583 1282.77 647.532 1309.25 651.83C1335.73 656.127 1360.68 638.147 1364.98 611.669Z" fill="white"/>
<g style="mix-blend-mode:multiply">
<path d="M1324.67 809.48C1342.07 809.48 1356.17 804.994 1356.17 799.46C1356.17 793.926 1342.07 789.44 1324.67 789.44C1307.27 789.44 1293.17 793.926 1293.17 799.46C1293.17 804.994 1307.27 809.48 1324.67 809.48Z" fill="#BFBFBF"/>
</g>
<path d="M2047.81 1114.5H1585.65V1431.89H2047.81V1114.5Z" fill="#FFDEDC"/>
<path d="M1783.32 1114.5H1585.65V1431.89H1783.32V1114.5Z" fill="#F0B4B2"/>
<path d="M1953.15 1114.5H1887.03V1262.06H1953.15V1114.5Z" fill="#F0B4B2"/>
<path d="M1679.91 1334.35C1686.05 1323.05 1699.52 1309.93 1701.38 1306.14C1701.89 1305.09 1702.36 1303.12 1702.78 1300.82C1704.14 1293.17 1704.37 1285.37 1703.61 1277.64C1699.38 1234.2 1690.49 1141.87 1690.51 1133.69L1736.85 1125C1741.26 1143.19 1727.08 1252.12 1722.09 1288.89C1721.5 1302.02 1724.08 1311.15 1726.49 1315.93C1728.92 1320.77 1725.35 1325.57 1724.89 1328.71C1724.43 1331.85 1723.23 1342.27 1723.23 1342.27L1712.7 1342.25C1712.7 1342.25 1712.67 1330.52 1712.22 1330.44C1704.98 1331.92 1698.52 1338.46 1695.81 1341.09C1693.09 1343.72 1668.77 1341.86 1667.5 1341.17C1665.4 1337.97 1679.34 1335.74 1679.92 1334.37L1679.91 1334.35Z" fill="#F86371"/>
<path d="M1679.83 1334.48C1684.23 1334.98 1689.06 1335.94 1690.75 1335.19C1693.03 1334.19 1708.01 1315.51 1724.5 1310.88C1725.13 1312.9 1725.82 1314.58 1726.49 1315.92C1728.92 1320.76 1725.35 1325.56 1724.89 1328.7C1724.43 1331.84 1723.23 1342.26 1723.23 1342.26L1712.7 1342.24C1712.7 1342.24 1712.67 1330.51 1712.22 1330.43C1704.98 1331.91 1698.52 1338.45 1695.81 1341.08C1693.09 1343.71 1668.77 1341.85 1667.5 1341.16C1665.46 1338.06 1678.55 1335.96 1679.83 1334.48Z" fill="#E65051"/>
<path d="M1667.67 1339.48C1671.28 1340.19 1686.25 1341.14 1689.23 1340.74C1692.54 1340.3 1695.04 1339.58 1698.66 1335.45C1702.12 1331.49 1713.81 1325.37 1726.61 1323.48C1725.97 1325.47 1725.1 1327.26 1724.89 1328.7C1724.43 1331.84 1723.23 1342.26 1723.23 1342.26L1712.7 1342.24C1712.7 1342.24 1712.67 1330.51 1712.22 1330.43C1704.98 1331.91 1698.52 1338.45 1695.81 1341.08C1693.09 1343.71 1668.77 1341.85 1667.5 1341.16C1667.14 1340.62 1667.25 1340.05 1667.68 1339.48H1667.67Z" fill="#E33944"/>
<path d="M1711.86 1340.04C1718 1328.74 1731.47 1315.62 1733.33 1311.83C1733.84 1310.78 1734.31 1308.81 1734.73 1306.51C1736.09 1298.86 1736.32 1291.06 1735.56 1283.33C1731.33 1239.89 1722.44 1147.56 1722.46 1139.38L1768.8 1130.69C1773.21 1148.88 1759.03 1257.81 1754.04 1294.58C1753.45 1307.71 1756.03 1316.84 1758.44 1321.62C1760.87 1326.46 1757.3 1331.26 1756.84 1334.4C1756.38 1337.54 1755.18 1347.96 1755.18 1347.96L1744.65 1347.94C1744.65 1347.94 1744.62 1336.21 1744.17 1336.13C1736.93 1337.61 1730.47 1344.15 1727.76 1346.78C1725.04 1349.41 1700.72 1347.55 1699.45 1346.86C1697.35 1343.66 1711.29 1341.43 1711.87 1340.06L1711.86 1340.04Z" fill="#F86371"/>
<path d="M1711.77 1340.17C1716.17 1340.67 1721 1341.63 1722.69 1340.88C1724.97 1339.88 1739.95 1321.2 1756.44 1316.57C1757.07 1318.59 1757.76 1320.27 1758.43 1321.61C1760.86 1326.45 1757.29 1331.25 1756.83 1334.39C1756.37 1337.53 1755.17 1347.95 1755.17 1347.95L1744.64 1347.93C1744.64 1347.93 1744.61 1336.2 1744.16 1336.12C1736.92 1337.6 1730.46 1344.14 1727.75 1346.77C1725.04 1349.4 1700.71 1347.54 1699.44 1346.85C1697.4 1343.75 1710.49 1341.65 1711.77 1340.17Z" fill="#E65051"/>
<path d="M1699.62 1345.17C1703.23 1345.88 1718.2 1346.83 1721.18 1346.43C1724.49 1345.99 1726.99 1345.27 1730.61 1341.14C1734.07 1337.18 1745.76 1331.06 1758.56 1329.17C1757.92 1331.16 1757.05 1332.95 1756.84 1334.39C1756.38 1337.53 1755.18 1347.95 1755.18 1347.95L1744.65 1347.93C1744.65 1347.93 1744.62 1336.2 1744.17 1336.12C1736.93 1337.6 1730.47 1344.14 1727.76 1346.77C1725.05 1349.4 1700.72 1347.54 1699.45 1346.85C1699.09 1346.31 1699.2 1345.74 1699.63 1345.17H1699.62Z" fill="#E33944"/>
<path d="M1792.21 1055.24C1792.21 1055.24 1774.39 1082.28 1774.09 1086.21C1773.61 1092.61 1768.73 1093.9 1756.31 1093.38C1743.89 1092.85 1736.8 1098.75 1734.96 1095.71C1733.11 1092.66 1740.47 1085.95 1749.09 1084.53C1731.75 1083.22 1717.31 1092.92 1712.83 1091.75C1708.35 1090.58 1711.69 1084.81 1711.69 1084.81C1714.83 1079.03 1730.98 1071.32 1755.44 1071.93C1787.48 1008.05 1792.2 1055.25 1792.2 1055.25L1792.21 1055.24Z" fill="#F86371"/>
<path d="M1762.04 1052.23C1769.16 1036.35 1777.33 1012.96 1776.11 991.06C1774 953.11 1783.64 913.56 1808.4 897.31C1857.82 909.71 1829.69 1008.47 1792.79 1062.29C1779.78 1059.57 1769.43 1055.69 1762.04 1052.24V1052.23Z" fill="#E65051"/>
<g style="mix-blend-mode:multiply">
<path d="M1713.95 1083.89C1713.87 1083.89 1713.79 1083.84 1713.75 1083.77C1713.67 1083.65 1713.71 1083.48 1713.83 1083.4C1723.42 1077.18 1734.93 1075.04 1739 1074.98C1739.15 1074.98 1739.27 1075.09 1739.27 1075.24C1739.27 1075.39 1739.16 1075.51 1739.01 1075.51C1734.99 1075.57 1723.62 1077.69 1714.12 1083.85C1714.07 1083.88 1714.01 1083.9 1713.96 1083.89H1713.95Z" fill="#E0B3A8"/>
</g>
<path d="M1876.22 860.3C1879.37 869.15 1902.58 888.43 1920.08 881.74C1937.58 875.05 1955.48 895.31 1946.43 908.49C1954.69 918.91 1949.18 946.65 1917.91 950.58C1886.64 954.51 1865 899.25 1864.22 867.58C1867.76 859.71 1876.22 860.3 1876.22 860.3Z" fill="#2B1710"/>
<path d="M1867.37 869.74C1872.37 869.74 1876.42 866.042 1876.42 861.48C1876.42 856.918 1872.37 853.22 1867.37 853.22C1862.37 853.22 1858.32 856.918 1858.32 861.48C1858.32 866.042 1862.37 869.74 1867.37 869.74Z" fill="#FF9945"/>
<path d="M1801.65 1021.41H1887.78C1910.14 947.43 1896.55 900.84 1896.55 900.84C1885.74 892.67 1872.55 891.17 1872.55 891.17L1836.58 890.19C1822.67 890.82 1808.44 896.95 1808.44 896.95C1799.77 923.19 1786.29 944.97 1786.81 958.96C1787.33 972.96 1806.7 992.23 1801.66 1021.41H1801.65Z" fill="#FB7071"/>
<path d="M1854.7 867.96C1869.95 870.62 1878.82 856.43 1874.39 845.26C1875.63 822.38 1865.88 799.85 1831.64 812.09C1814.61 814.22 1808.05 836.74 1822.06 842.6C1840.68 859.1 1854.7 867.96 1854.7 867.96Z" fill="#2B1710"/>
<path d="M1841.04 876.74C1842.1 883.13 1842.38 883.78 1833.34 889.9C1833.61 918.63 1875.36 895.77 1875.23 891.51C1875.23 890.98 1867.51 889.25 1864.72 884.33C1861.93 879.41 1860.6 866.9 1861.66 850.14C1855.14 851.87 1852.88 846.68 1852.75 837.77C1852.62 828.86 1848.36 814.62 1831.07 816.88C1824.55 824.86 1821.09 829.92 1821.62 840.29C1822.15 850.66 1821 858.03 1822.24 862.99C1823.47 867.9 1828.8 877 1841.04 876.74Z" fill="#F86371"/>
<g style="mix-blend-mode:multiply">
<path d="M1842.42 861.36C1834.52 858 1826.92 858.12 1827.57 860.92C1827.11 867.71 1835.56 874.88 1842.42 861.36Z" fill="#E0B3A8"/>
</g>
<path d="M1870.31 853.66C1870.31 856.59 1867.93 858.97 1865 858.97C1862.07 858.97 1859.69 856.59 1859.69 853.66C1859.69 850.73 1862.07 848.35 1865 848.35C1867.93 848.35 1870.31 850.73 1870.31 853.66Z" fill="#F86371"/>
<g style="mix-blend-mode:multiply">
<path d="M1863.86 856.42C1863.73 856.42 1863.6 856.34 1863.54 856.21C1863.46 856.03 1863.54 855.83 1863.72 855.75C1864.17 855.55 1864.43 855.27 1864.46 854.92C1864.49 854.57 1864.27 854.17 1863.92 853.94C1863.54 853.69 1863.08 853.67 1862.66 853.89C1862.55 853.95 1862.42 853.94 1862.31 853.88C1862.2 853.81 1862.14 853.7 1862.15 853.57C1862.21 852.31 1863.06 851.27 1864.38 850.87C1865.75 850.45 1867.13 850.87 1867.91 851.91C1868.02 852.06 1867.99 852.28 1867.84 852.39C1867.69 852.5 1867.47 852.47 1867.36 852.32C1866.63 851.33 1865.41 851.28 1864.59 851.53C1863.92 851.74 1863.19 852.24 1862.94 853.07C1863.41 852.99 1863.89 853.09 1864.31 853.36C1864.88 853.74 1865.21 854.37 1865.16 854.98C1865.13 855.33 1864.94 855.98 1864 856.38C1863.96 856.4 1863.91 856.41 1863.86 856.41V856.42Z" fill="#E0B3A8"/>
</g>
<g style="mix-blend-mode:multiply">
<path d="M1842.11 876.72C1842.11 876.72 1842.17 876.72 1842.2 876.71C1851.01 874.21 1858.06 866.8 1860.18 857.84C1860.22 857.66 1860.11 857.47 1859.93 857.43C1859.75 857.39 1859.56 857.5 1859.52 857.68C1857.46 866.4 1850.59 873.62 1842.02 876.06C1841.84 876.11 1841.73 876.3 1841.79 876.48C1841.83 876.63 1841.97 876.73 1842.12 876.73L1842.11 876.72Z" fill="#E0B3A8"/>
</g>
<path d="M1850.71 838.5C1850.83 838.5 1850.94 838.44 1851.01 838.33C1851.1 838.17 1850.99 838.02 1850.88 837.87C1847.9 833.7 1841.65 830.46 1838.99 835.8C1838.91 835.97 1838.71 836.04 1838.76 836.22C1838.82 836.4 1839.01 836.5 1839.18 836.45C1840.96 835.91 1846.12 835.94 1850.53 838.46C1850.58 838.49 1850.64 838.5 1850.7 838.5H1850.71Z" fill="#2B1710"/>
<path d="M1822.95 838.85C1823.05 838.85 1823.16 838.8 1823.22 838.71C1823.28 838.63 1824.65 836.88 1829.03 837.42C1829.22 837.44 1829.39 837.31 1829.41 837.12C1829.43 836.93 1829.19 836.91 1829.11 836.74C1826.7 831.46 1822.84 838.07 1822.68 838.29C1822.57 838.44 1822.6 838.65 1822.75 838.77C1822.81 838.82 1822.88 838.84 1822.95 838.84V838.85Z" fill="#2B1710"/>
<path d="M1830.84 856.95C1830.94 856.95 1831.04 856.91 1831.11 856.82C1831.23 856.67 1831.2 856.46 1831.06 856.34C1829.3 854.94 1827.34 853.22 1826.92 852.62C1827.22 852.56 1827.87 852.54 1828.38 852.53C1829.61 852.51 1831 852.48 1831.82 852.02C1833.64 851 1831.88 843.31 1830.28 839.7C1830.2 839.53 1830 839.45 1829.83 839.53C1829.66 839.61 1829.58 839.81 1829.66 839.98C1831.53 844.18 1832.59 850.81 1831.49 851.43C1830.82 851.81 1829.46 851.83 1828.37 851.86C1827 851.89 1826.18 851.9 1826.18 852.53C1826.18 853.16 1828.61 855.25 1830.65 856.88C1830.71 856.93 1830.79 856.95 1830.86 856.95H1830.84Z" fill="#2B1710"/>
<path d="M1841.18 845.54C1841.18 847.56 1842.1 849.2 1843.24 849.2C1844.38 849.2 1845.3 847.56 1845.3 845.54C1845.3 843.52 1844.38 841.88 1843.24 841.88C1842.1 841.88 1841.18 843.52 1841.18 845.54Z" fill="#2B1710"/>
<g style="mix-blend-mode:multiply">
<path d="M1843.71 850.44C1844.42 850.44 1845.98 850.13 1846.49 847.55C1846.51 847.46 1846.45 847.37 1846.36 847.35C1846.27 847.33 1846.18 847.39 1846.16 847.48C1845.67 850 1844.17 850.14 1843.55 850.09C1843.46 850.08 1843.37 850.15 1843.37 850.24C1843.37 850.33 1843.43 850.42 1843.52 850.42C1843.57 850.42 1843.64 850.42 1843.71 850.42V850.44Z" fill="#E0B3A8"/>
</g>
<path d="M1825.57 845.99C1825.57 848.01 1826.49 849.65 1827.63 849.65C1828.77 849.65 1829.69 848.01 1829.69 845.99C1829.69 843.97 1828.77 842.33 1827.63 842.33C1826.49 842.33 1825.57 843.97 1825.57 845.99Z" fill="#2B1710"/>
<g style="mix-blend-mode:multiply">
<path d="M1828.1 850.89C1828.81 850.89 1830.37 850.58 1830.88 848C1830.9 847.91 1830.84 847.82 1830.75 847.8C1830.66 847.78 1830.57 847.84 1830.55 847.93C1830.06 850.45 1828.56 850.59 1827.94 850.54C1827.85 850.53 1827.76 850.6 1827.76 850.69C1827.76 850.78 1827.82 850.87 1827.91 850.87C1827.96 850.87 1828.03 850.87 1828.1 850.87V850.89Z" fill="#E0B3A8"/>
</g>
<path d="M1846.02 853.71C1846.83 854.8 1847.37 855.77 1847.22 855.88C1847.07 855.99 1846.3 855.19 1845.48 854.1C1844.67 853.01 1844.13 852.04 1844.28 851.93C1844.43 851.82 1845.2 852.62 1846.02 853.71Z" fill="#FF7E57"/>
<path d="M1843.94 853.98C1844.75 855.07 1845.29 856.04 1845.14 856.15C1844.99 856.26 1844.22 855.46 1843.4 854.37C1842.59 853.28 1842.05 852.31 1842.2 852.2C1842.35 852.09 1843.12 852.89 1843.94 853.98Z" fill="#FF7E57"/>
<path d="M1841.63 854.2C1842.44 855.29 1842.98 856.26 1842.83 856.37C1842.68 856.48 1841.91 855.68 1841.09 854.59C1840.28 853.5 1839.74 852.53 1839.89 852.42C1840.04 852.31 1840.81 853.11 1841.63 854.2Z" fill="#FF7E57"/>
<path d="M1863.84 863.43C1865.21 863.43 1866.32 862.319 1866.32 860.95C1866.32 859.58 1865.21 858.47 1863.84 858.47C1862.47 858.47 1861.36 859.58 1861.36 860.95C1861.36 862.319 1862.47 863.43 1863.84 863.43Z" fill="white"/>
<g style="mix-blend-mode:multiply">
<path d="M1834.39 871.83C1833.56 871.83 1832.52 871.72 1831.47 871.33C1831.33 871.28 1831.26 871.12 1831.31 870.98C1831.36 870.84 1831.52 870.77 1831.66 870.82C1833.84 871.63 1836 871.13 1836.02 871.13C1836.17 871.1 1836.31 871.19 1836.35 871.33C1836.38 871.48 1836.29 871.62 1836.15 871.66C1836.1 871.67 1835.4 871.83 1834.39 871.83Z" fill="#E0B3A8"/>
</g>
<path d="M1842.42 861.36L1827.57 860.92C1827.57 867.58 1837.28 870.69 1842.42 861.36Z" fill="#2B1710"/>
<path d="M1830.31 865.979C1832.29 863.149 1835.15 861.94 1835.15 861.94L1839.72 861.27L1842.42 861.349C1838.99 867.579 1833.57 868.189 1830.31 865.969V865.979Z" fill="#7D2727"/>
<path d="M1827.57 860.91L1842.42 861.35C1838.96 863.75 1829.83 864.41 1827.57 860.91Z" fill="white"/>
<path d="M1801.39 1032.16H1888.19V1020.88H1801.39V1032.16Z" fill="#2B1710"/>
<path d="M1879.01 1018.53H1874.03V1034.26H1879.01V1018.53Z" fill="#262E79"/>
<path d="M1811.61 1017.74H1806.63V1033.47H1811.61V1017.74Z" fill="#262E79"/>
<path d="M1888.19 1032.16C1913.36 1080.41 1903.72 1109.58 1879.43 1120.57C1855.15 1131.55 1781.98 1150.43 1781.98 1150.43L1771.49 1174.56L1671.31 1167.22C1671.31 1167.22 1684.42 1095.37 1697.01 1080.68C1709.6 1065.99 1785.12 1042.39 1788.27 1041.34C1791.42 1040.29 1801.38 1032.16 1801.38 1032.16H1888.18H1888.19Z" fill="#262E79"/>
<path d="M1925.49 951.2C1925.49 951.2 1936.16 986.43 1935.51 1017.46C1934.86 1048.49 1920.64 1091.15 1920.64 1095.68C1919.99 1108.61 1909.33 1115.4 1901.57 1114.43C1893.81 1113.46 1888.8 1112.49 1887.99 1114.27C1887.02 1117.02 1881.85 1121.22 1879.42 1120.57C1876.51 1122.35 1874.57 1121.38 1874.57 1121.38C1872.47 1122.83 1870.53 1120.73 1870.53 1120.73C1870.53 1120.73 1870.53 1114.1 1871.18 1112.81C1871.83 1111.52 1873.28 1107.32 1873.28 1107.32C1873.28 1107.32 1869.89 1110.39 1869.72 1112.01C1869.55 1113.63 1870.04 1118.8 1867.78 1119.28C1866.16 1114.43 1866.65 1110.23 1866.81 1107.97C1866.97 1105.71 1872.14 1097.63 1876.51 1096.82C1880.87 1096.01 1898.49 1096.34 1899.78 1094.72C1901.07 1093.1 1895.74 1014.88 1894.29 1007.61C1892.84 1000.34 1878.29 958.64 1878.29 958.64L1925.48 951.21L1925.49 951.2Z" fill="#F86371"/>
<g style="mix-blend-mode:multiply">
<path d="M1874.3 1105.64C1874.43 1105.64 1874.55 1105.59 1874.64 1105.49L1877.19 1102.7C1877.36 1102.51 1877.35 1102.22 1877.16 1102.04C1876.97 1101.86 1876.68 1101.88 1876.5 1102.07L1873.95 1104.86C1873.78 1105.05 1873.79 1105.34 1873.98 1105.52C1874.07 1105.6 1874.18 1105.64 1874.29 1105.64H1874.3Z" fill="#E0B3A8"/>
</g>
<g style="mix-blend-mode:multiply">
<path d="M1875.12 1119.19C1875.12 1119.19 1876.09 1113.13 1876.21 1112.41C1876.32 1111.96 1878.17 1109.2 1879.89 1106.79C1880.04 1106.58 1879.99 1106.29 1879.78 1106.14C1879.57 1105.99 1879.28 1106.04 1879.13 1106.25C1878.02 1107.81 1875.42 1111.51 1875.29 1112.26C1875.17 1112.99 1874.2 1119.05 1874.2 1119.05L1875.12 1119.2V1119.19Z" fill="#E0B3A8"/>
</g>
<g style="mix-blend-mode:multiply">
<path d="M1879.51 1118.73C1879.7 1118.73 1879.89 1118.61 1879.95 1118.41C1879.96 1118.37 1881.16 1114.78 1881.4 1114.19C1881.56 1113.83 1883.46 1111.44 1885.2 1109.35C1885.36 1109.15 1885.34 1108.86 1885.14 1108.7C1884.94 1108.54 1884.65 1108.56 1884.49 1108.76C1883.63 1109.8 1880.79 1113.23 1880.54 1113.85C1880.3 1114.46 1879.13 1117.97 1879.08 1118.12C1879 1118.36 1879.13 1118.63 1879.37 1118.71C1879.42 1118.73 1879.47 1118.73 1879.52 1118.73H1879.51Z" fill="#E0B3A8"/>
</g>
<path d="M1896.54 900.84C1934.6 920.71 1940.89 1004.89 1938.53 1022.2C1936.17 1039.51 1927.52 1076.48 1927.52 1076.48L1895.26 1070.97C1895.26 1070.97 1892.11 1010.39 1891.33 1004.1C1890.54 997.81 1874.81 960.83 1874.81 951.39C1874.81 935.66 1880.51 902.2 1896.54 900.83V900.84Z" fill="#E65051"/>
<path d="M428.059 1375.81L432.139 1400.22C427.029 1413.64 429.279 1430.64 429.279 1430.64L529.149 1430.73C518.359 1410.51 471.509 1408.98 466.579 1399.3C461.649 1389.62 459.489 1360.93 459.489 1360.93L428.059 1375.81Z" fill="#F86371"/>
<path d="M450.479 1401.52C450.329 1398.02 452.909 1385.44 461.969 1381.7C463.089 1388.58 464.618 1395.46 466.578 1399.31C471.508 1408.99 518.359 1410.52 529.149 1430.74L429.279 1430.65C429.279 1430.65 427.029 1413.65 432.139 1400.23C432.139 1400.23 450.168 1407.83 450.488 1401.52H450.479Z" fill="#2B1710"/>
<path d="M526.469 1426.87C527.509 1428.08 528.419 1429.36 529.149 1430.73L429.279 1430.64C429.279 1430.64 429.079 1429.14 428.939 1426.68L526.469 1426.87Z" fill="#693E2F"/>
<path d="M459.288 1404.1C459.518 1404.1 459.718 1403.95 459.808 1403.72C459.818 1403.68 461.308 1399.61 464.218 1398.33C465.418 1397.8 466.718 1397.83 468.088 1398.41C468.378 1398.53 468.718 1398.4 468.838 1398.1C468.958 1397.81 468.828 1397.47 468.528 1397.35C466.858 1396.64 465.248 1396.62 463.748 1397.28C460.388 1398.76 458.788 1403.15 458.718 1403.33C458.608 1403.63 458.768 1403.96 459.068 1404.06C459.138 1404.09 459.218 1404.1 459.288 1404.09V1404.1Z" fill="#693E2F"/>
<path d="M468.728 1410.73C468.958 1410.72 469.158 1410.58 469.248 1410.35C469.258 1410.31 470.748 1406.24 473.658 1404.96C474.858 1404.43 476.158 1404.46 477.528 1405.04C477.818 1405.16 478.158 1405.03 478.278 1404.73C478.398 1404.44 478.268 1404.1 477.968 1403.98C476.298 1403.27 474.688 1403.25 473.188 1403.91C469.828 1405.39 468.228 1409.78 468.158 1409.96C468.048 1410.26 468.208 1410.59 468.508 1410.69C468.578 1410.72 468.658 1410.73 468.728 1410.72V1410.73Z" fill="#693E2F"/>
<path d="M484.218 1415.15C484.448 1415.14 484.648 1415 484.738 1414.77C484.748 1414.73 486.238 1410.66 489.148 1409.38C490.348 1408.85 491.648 1408.88 493.018 1409.46C493.308 1409.58 493.648 1409.45 493.768 1409.15C493.888 1408.86 493.758 1408.52 493.458 1408.4C491.788 1407.69 490.178 1407.67 488.678 1408.33C485.318 1409.81 483.718 1414.2 483.648 1414.38C483.538 1414.68 483.698 1415.01 483.998 1415.11C484.068 1415.14 484.148 1415.15 484.218 1415.14V1415.15Z" fill="#693E2F"/>
<path d="M298.32 1375.81L302.4 1400.22C297.29 1413.64 299.54 1430.64 299.54 1430.64L399.41 1430.73C388.62 1410.51 341.77 1408.98 336.84 1399.3C331.91 1389.62 329.75 1360.93 329.75 1360.93L298.32 1375.81Z" fill="#F86371"/>
<path d="M320.75 1401.52C320.6 1398.02 323.18 1385.44 332.24 1381.7C333.36 1388.58 334.89 1395.46 336.85 1399.31C341.78 1408.99 388.63 1410.52 399.42 1430.74L299.55 1430.65C299.55 1430.65 297.3 1413.65 302.41 1400.23C302.41 1400.23 320.44 1407.83 320.76 1401.52H320.75Z" fill="#2B1710"/>
<path d="M396.731 1426.87C397.771 1428.08 398.681 1429.36 399.411 1430.73L299.541 1430.64C299.541 1430.64 299.341 1429.14 299.201 1426.68L396.731 1426.87Z" fill="#693E2F"/>
<path d="M329.56 1404.1C329.79 1404.1 329.99 1403.95 330.08 1403.72C330.09 1403.68 331.58 1399.61 334.49 1398.33C335.69 1397.8 336.99 1397.83 338.36 1398.41C338.65 1398.53 338.99 1398.4 339.11 1398.1C339.23 1397.81 339.1 1397.47 338.8 1397.35C337.13 1396.64 335.52 1396.62 334.02 1397.28C330.66 1398.76 329.06 1403.15 328.99 1403.33C328.88 1403.63 329.04 1403.96 329.34 1404.06C329.41 1404.09 329.49 1404.1 329.56 1404.09V1404.1Z" fill="#693E2F"/>
<path d="M338.999 1410.73C339.229 1410.72 339.429 1410.58 339.519 1410.35C339.529 1410.31 341.019 1406.24 343.929 1404.96C345.129 1404.43 346.429 1404.46 347.799 1405.04C348.089 1405.16 348.429 1405.03 348.549 1404.73C348.669 1404.44 348.539 1404.1 348.239 1403.98C346.569 1403.27 344.959 1403.25 343.459 1403.91C340.099 1405.39 338.499 1409.78 338.429 1409.96C338.319 1410.26 338.479 1410.59 338.779 1410.69C338.849 1410.72 338.929 1410.73 338.999 1410.72V1410.73Z" fill="#693E2F"/>
<path d="M354.49 1415.15C354.72 1415.14 354.92 1415 355.01 1414.77C355.02 1414.73 356.51 1410.66 359.42 1409.38C360.62 1408.85 361.92 1408.88 363.29 1409.46C363.58 1409.58 363.92 1409.45 364.04 1409.15C364.16 1408.86 364.03 1408.52 363.73 1408.4C362.06 1407.69 360.45 1407.67 358.95 1408.33C355.59 1409.81 353.99 1414.2 353.92 1414.38C353.81 1414.68 353.97 1415.01 354.27 1415.11C354.34 1415.14 354.42 1415.15 354.49 1415.14V1415.15Z" fill="#693E2F"/>
<path d="M472.68 1027.36C499.32 1132.56 487.63 1361.94 481.6 1394.15H418.27C424.3 1319.44 391.8 1149.25 391.8 1149.25C382.75 1283.22 354.94 1392.86 354.94 1392.86H284.07L320.76 1030.46L395.65 1005.13L472.68 1027.37V1027.36Z" fill="#262E79"/>
<path d="M331.319 857.85C279.549 910.62 245.869 1008.64 335.339 1023.71C424.809 1038.79 331.319 857.85 331.319 857.85Z" fill="#E65051"/>
<path d="M411.489 843.03C426.319 845.79 438.049 853.33 438.049 853.33C462.509 891.53 474.069 1032.76 474.069 1032.76L320.769 1035.27C320.269 1024.71 318.759 869.91 331.319 857.85C343.889 845.79 363.239 841.51 363.239 841.51C363.239 841.51 394.649 841.76 411.489 843.02V843.03Z" fill="#FB7071"/>
<path d="M574.289 932.72C575.119 929.44 580.099 908.59 581.369 906.3C582.649 904.01 600.379 888.26 602.289 887.29C604.189 886.33 619.149 881.49 619.609 881.61C622.279 885.13 620.059 888.47 616.149 891.36C612.249 894.25 606.799 897.38 606.439 898.11C606.079 898.83 603.459 903.06 604.339 903.46C605.219 903.86 610.599 914.36 611.809 917.81C613.019 921.26 612.029 926.75 608.509 931.22C604.999 935.7 583.799 951.07 583.799 951.07L574.289 932.72Z" fill="#F86371"/>
<path d="M412.189 795.11V786.4C412.189 785.21 413.149 784.25 414.339 784.25H425.149C426.339 784.25 427.299 785.21 427.299 786.4V795.11C427.299 796.3 426.339 797.26 425.149 797.26H414.339C413.149 797.26 412.189 796.3 412.189 795.11ZM414.339 785.53C413.859 785.53 413.469 785.92 413.469 786.4V795.11C413.469 795.59 413.859 795.98 414.339 795.98H425.149C425.629 795.98 426.019 795.59 426.019 795.11V786.4C426.019 785.92 425.629 785.53 425.149 785.53H414.339Z" fill="#2B1710"/>
<path d="M417.47 786.04C427.87 778.43 421.82 768.81 419.95 768.5C419.33 759.81 408.31 743.66 379.12 761.05C377.88 755.46 373.53 755.46 375.39 762.29C370.42 761.05 369.49 765.08 371.04 766.02C357.07 777.82 360.48 788.69 363.28 791.48C361.42 802.04 373.89 808.11 373.89 808.11C378.81 807.63 392.16 818.19 395.89 815.7C399.62 813.22 409.9 807.86 410.97 802.77C412.04 797.68 417.47 786.04 417.47 786.04Z" fill="#2B1710"/>
<path d="M373.89 808.1C373.89 808.1 373.03 836.42 363.23 841.51C369.51 849.3 398.16 842.26 411.48 843.02C405.02 843.02 403.46 836.11 403.46 829.65C419.13 826.91 417.56 814.57 418.54 796.55C419 788.03 419.6 779.28 418.54 772.66C416.99 780.15 405.5 784.03 405.5 784.03C406.9 790.4 404.41 798.31 397.89 797.69C391.37 797.07 389.82 799.09 389.82 799.09C390.75 806.39 381.23 809.53 373.88 808.11L373.89 808.1Z" fill="#F86371"/>
<path d="M413.309 803.37C414.409 804.95 415.519 806.08 415.789 805.9C416.059 805.71 415.379 804.28 414.279 802.7C413.179 801.12 412.069 799.99 411.799 800.17C411.529 800.36 412.209 801.79 413.309 803.37Z" fill="#FF7E57"/>
<path d="M410.011 803.44C411.111 805.02 412.221 806.15 412.491 805.97C412.761 805.78 412.081 804.35 410.981 802.77C409.881 801.19 408.771 800.06 408.501 800.24C408.231 800.43 408.911 801.86 410.011 803.44Z" fill="#FF7E57"/>
<path d="M406.55 803.37C407.65 804.95 408.76 806.08 409.03 805.9C409.3 805.71 408.62 804.28 407.52 802.7C406.42 801.12 405.31 799.99 405.04 800.17C404.77 800.36 405.45 801.79 406.55 803.37Z" fill="#FF7E57"/>
<path d="M395.059 805.72C398.792 805.72 401.819 802.693 401.819 798.96C401.819 795.226 398.792 792.2 395.059 792.2C391.325 792.2 388.299 795.226 388.299 798.96C388.299 802.693 391.325 805.72 395.059 805.72Z" fill="#FF7A52"/>
<g style="mix-blend-mode:multiply">
<path d="M396.449 802.64C396.619 802.64 396.789 802.54 396.859 802.37C396.959 802.14 396.859 801.88 396.629 801.78C396.039 801.52 395.699 801.15 395.659 800.7C395.619 800.24 395.899 799.73 396.359 799.42C396.859 799.09 397.459 799.06 397.999 799.35C398.139 799.43 398.319 799.42 398.449 799.33C398.589 799.24 398.669 799.09 398.659 798.93C398.589 797.29 397.469 795.94 395.759 795.42C393.979 794.88 392.179 795.41 391.159 796.77C391.009 796.97 391.049 797.25 391.249 797.4C391.449 797.55 391.729 797.51 391.879 797.31C392.829 796.03 394.419 795.95 395.489 796.28C396.369 796.55 397.309 797.2 397.639 798.29C397.029 798.19 396.399 798.31 395.859 798.67C395.119 799.16 394.689 799.99 394.759 800.78C394.799 801.24 395.049 802.08 396.269 802.6C396.329 802.63 396.389 802.64 396.449 802.64Z" fill="#E0B3A8"/>
</g>
<g style="mix-blend-mode:multiply">
<path d="M402.72 828.28C402.83 828.28 402.93 828.24 403.02 828.17C403.22 828 403.25 827.7 403.09 827.5C396.6 819.65 396.37 808.96 396.37 808.85C396.37 808.59 396.15 808.38 395.89 808.38C395.63 808.38 395.42 808.6 395.42 808.86C395.42 808.97 395.66 819.99 402.36 828.1C402.46 828.21 402.59 828.27 402.73 828.27L402.72 828.28Z" fill="#E0B3A8"/>
</g>
<path d="M426.597 790.627L403.309 791.632L403.364 792.911L426.652 791.906L426.597 790.627Z" fill="#2B1710"/>
<path d="M438.049 853.33C453.459 862.04 469.549 894.88 482.279 914.98C495.009 935.08 541.589 953.51 575.769 919C577.449 920.68 586.159 951.84 586.159 951.84C579.119 973.29 536.569 1006.79 483.289 999.76C430.009 992.72 419.289 937.1 417.949 920.35C415.599 891 422.309 858.36 438.049 853.33Z" fill="#E65051"/>
<g style="mix-blend-mode:multiply">
<path d="M499.169 943.07C499.369 943.2 499.639 943.17 499.799 942.99C500.939 941.7 501.999 938.88 502.849 936.62C503.169 935.78 503.549 934.78 503.799 934.24C504.209 935.19 504.799 937.9 504.209 938.77C504.059 938.99 504.119 939.29 504.339 939.44C504.559 939.59 504.859 939.53 505.009 939.31C505.729 938.24 505.319 935.93 504.959 934.73C504.529 933.27 504.139 933.11 503.989 933.05C503.869 933 503.659 933 503.539 933.05C503.119 933.23 502.859 933.82 501.939 936.27C501.159 938.34 500.089 941.18 499.059 942.34C498.879 942.54 498.899 942.84 499.099 943.02C499.119 943.03 499.129 943.05 499.149 943.06L499.169 943.07Z" fill="#D9D9D9"/>
</g>
<g style="mix-blend-mode:multiply">
<path d="M389.789 1140.13C389.869 1140.13 389.959 1140.11 390.039 1140.08C390.369 1139.94 390.519 1139.57 390.389 1139.24C389.299 1136.63 388.029 1130.04 386.569 1122.41C383.489 1106.39 379.659 1086.45 373.999 1083.63C366.149 1079.71 361.389 1051.88 366.269 1038.52C366.389 1038.19 366.219 1037.82 365.889 1037.7C365.559 1037.58 365.189 1037.75 365.069 1038.08C359.909 1052.19 364.989 1080.56 373.429 1084.78C378.509 1087.32 382.439 1107.74 385.309 1122.66C386.789 1130.36 388.069 1137.01 389.209 1139.75C389.309 1140 389.549 1140.15 389.799 1140.15L389.789 1140.13Z" fill="#BFBFBF"/>
</g>
<g style="mix-blend-mode:multiply">
<path d="M470.879 1374.68C471.219 1374.68 471.499 1374.42 471.519 1374.08C471.669 1371.81 486.659 1145.57 462.119 1038.81C462.039 1038.46 461.699 1038.25 461.349 1038.33C460.999 1038.41 460.789 1038.75 460.869 1039.1C485.359 1145.67 470.389 1371.72 470.239 1373.99C470.219 1374.34 470.479 1374.65 470.839 1374.67C470.849 1374.67 470.869 1374.67 470.879 1374.67V1374.68Z" fill="#BFBFBF"/>
</g>
<g style="mix-blend-mode:multiply">
<path d="M479.6 1382.06C479.95 1382.06 480.24 1381.78 480.24 1381.43C480.24 1381.08 479.96 1380.78 479.61 1380.78L425.33 1380.11C424.97 1380.1 424.68 1380.39 424.68 1380.74C424.68 1381.09 424.96 1381.39 425.31 1381.39L479.59 1382.06H479.6Z" fill="#BFBFBF"/>
</g>
<g style="mix-blend-mode:multiply">
<path d="M353.609 1379.38C353.959 1379.38 354.239 1379.1 354.249 1378.75C354.249 1378.4 353.979 1378.1 353.619 1378.09L291.969 1376.75C291.609 1376.75 291.319 1377.02 291.309 1377.38C291.309 1377.73 291.579 1378.03 291.939 1378.04L353.589 1379.38C353.589 1379.38 353.589 1379.38 353.599 1379.38H353.609Z" fill="#BFBFBF"/>
</g>
</g>
<defs>
<clipPath id="clip0_607_23142">
<rect width="2306.46" height="1483.35" fill="white"/>
</clipPath>
</defs>
</svg>
