<svg width="337" height="287" viewBox="0 0 337 287" fill="none" xmlns="http://www.w3.org/2000/svg">
<path d="M229.347 169.509C224.001 168.977 215.001 168.081 207.422 162.61C193.643 152.664 193.506 134.052 198.917 121.441C203.565 110.608 214.729 102.426 237.059 86.0615C258.089 70.6497 265.861 68.1247 266.282 60.4592C266.881 49.5306 251.692 43.6048 254.764 30.9396C255.132 29.4203 256.399 24.2001 261.547 21.5785C270.361 17.0911 284.367 23.3665 291.39 28.4607C298.164 33.3743 306.388 42.9559 303.731 52.0105C301.807 58.5704 295.805 59.2822 295.757 65.0736C295.709 70.9007 301.769 71.939 306.406 80.8644C308.259 84.43 311.978 91.5883 309.292 98.5756C305.82 107.611 294.784 108.182 294.307 115.356C293.962 120.54 299.611 121.936 300.747 127.722C302.243 135.34 294.274 142.2 287.55 147.838C279.63 154.477 258.263 172.387 229.345 169.508L229.347 169.509Z" fill="#F86371"/>
<g style="mix-blend-mode:screen" opacity="0.16">
<path d="M265.883 24.2926C261.485 28.0178 279.579 38.37 279.699 55.9646C279.828 74.8947 259.067 90.6603 249.473 97.9457C233.104 110.377 224.621 109.72 215.235 122.227C211.521 127.178 203.781 137.491 207.958 149.335C208.347 150.436 212.899 162.651 226.309 166.571C241.52 171.016 256.561 161.406 269.521 153.127C277.351 148.124 292.996 138.128 289.744 130.528C287.755 125.882 279.164 123.2 272.633 123.093C263.312 122.942 256.913 128.017 255.791 126.903C254.78 125.899 259.001 120.816 265.462 116.499C278.387 107.862 287.071 111.117 296.372 103.532C297.499 102.614 306.3 95.2244 304.289 86.511C303.129 81.4851 298.342 75.8879 293.062 75.6968C287.091 75.4816 283.066 82.2746 281.497 81.5103C279.998 80.7795 282.766 74.1251 286.695 67.8697C292.467 58.6786 295.934 58.0099 297.543 52.5293C299.998 44.1677 294.562 36.7563 293.761 35.7C286.26 25.8014 269.642 21.1072 265.881 24.2916L265.883 24.2926Z" fill="#F58220"/>
</g>
<path d="M235.668 213.068C230.531 211.763 221.883 209.565 215.661 203.077C204.352 191.281 208.409 172.959 216.571 161.346C223.581 151.373 236.403 144.959 262.048 132.133C286.199 120.053 294.411 118.707 296.551 111.229C299.603 100.57 286 92.5208 291.874 80.516C292.579 79.0755 295 74.1272 300.653 72.3025C310.332 69.1779 322.693 77.3977 328.45 83.4348C334.005 89.2577 339.935 99.8829 335.283 108.399C331.914 114.569 325.851 114.391 324.5 120.079C323.14 125.802 328.866 127.71 331.416 137.166C332.435 140.943 334.479 148.526 330.265 155.005C324.815 163.382 313.834 162.33 311.749 169.315C310.243 174.362 315.483 176.562 315.297 182.417C315.052 190.126 305.671 195.707 297.788 200.268C288.504 205.638 263.459 220.126 235.67 213.067L235.668 213.068Z" fill="#F86371"/>
<g style="mix-blend-mode:screen" opacity="0.16">
<path d="M304.306 75.6058C299.142 78.6254 314.604 91.4523 310.759 108.772C306.621 127.407 282.656 139.874 271.579 145.636C252.682 155.466 244.488 153.579 232.44 164.507C227.671 168.832 217.737 177.842 219.177 190.1C219.311 191.239 221.036 203.918 233.341 209.732C247.299 216.328 264.254 209.078 278.863 202.831C287.69 199.057 305.326 191.516 303.839 183.566C302.931 178.706 295.086 174.812 288.688 173.753C279.556 172.241 272.121 176.294 271.268 175.035C270.5 173.9 275.794 169.518 283.121 166.217C297.776 159.615 305.584 164.085 316.439 157.987C317.755 157.248 328.073 151.27 328.058 142.406C328.049 137.294 324.603 131.09 319.454 130.13C313.63 129.045 308.141 135.136 306.771 134.156C305.46 133.218 309.682 127.079 314.955 121.502C322.702 113.309 326.262 113.157 329.077 108.003C333.375 100.139 329.698 92.057 329.149 90.9011C324.002 80.0701 308.717 73.023 304.302 75.6048L304.306 75.6058Z" fill="#F58220"/>
</g>
<path d="M120.975 249.602L26.0225 243.781V28.4736L120.975 22.8071V249.602Z" fill="#F86371"/>
<path d="M35.2202 106.985V198.486H33.3608V221.905H120.976V106.985H35.2202Z" fill="#F58220"/>
<path d="M149.396 7.11475C149.396 7.11475 149.488 56.6459 163.272 79.382C177.056 102.119 182.242 124.256 171.87 137.217C161.498 150.178 120.976 130.401 120.976 130.401C120.976 130.401 101.856 141.271 93.2123 164.531C84.5685 187.791 28.385 207.172 16.2831 200.615C4.18252 194.059 9.36829 18.5222 9.36829 18.5222L149.396 7.11475Z" fill="#F58220"/>
<path d="M13.6904 213.962C13.6904 213.962 47.7354 226.755 73.4988 214.933C99.2621 203.112 120.975 181.869 120.975 181.869C120.975 181.869 147.176 194.806 161.252 194.084C175.326 193.362 185.739 156.971 185.739 156.971C185.739 156.971 209.038 147.642 219.41 128.711C229.783 109.781 261.621 89.1642 279.052 84.8459C296.483 80.5276 306.711 88.5899 306.711 88.5899L302.389 253.594L33.3625 264.945L13.6917 213.961L13.6904 213.962Z" fill="#F58220"/>
<path d="M144.012 13.2747C144.012 13.2747 134.833 47.2124 144.012 56.2081C153.192 65.2038 160.186 90.95 162.74 97.9278C165.294 104.905 185.173 120.177 195.546 106.273C205.918 92.3685 221.477 82.2262 229.256 77.5457C237.034 72.8662 286.304 68.0596 288.897 64.5424C291.49 61.0251 293.219 21.1155 293.219 21.1155L144.012 13.2747Z" fill="#F58220"/>
<path d="M162.739 237.231H273.481L273.481 35.4787H162.739L162.739 237.231Z" fill="#F86371"/>
<path d="M264.503 228.013V44.5542H162.74L132.202 113.831L162.74 228.013H264.503Z" fill="#F58220"/>
<path d="M149.396 7.11475C149.396 7.11475 149.488 56.6459 163.272 79.382C177.056 102.119 182.242 124.256 171.87 137.217C161.498 150.178 120.976 130.401 120.976 130.401C120.976 130.401 101.856 141.271 93.2123 164.531C84.5685 187.791 28.385 207.172 16.2831 200.615C4.18252 194.059 9.36829 18.5222 9.36829 18.5222L149.396 7.11475Z" fill="#F58220"/>
<path d="M13.6904 213.962C13.6904 213.962 47.7354 226.755 73.4988 214.933C99.2621 203.112 120.975 181.869 120.975 181.869C120.975 181.869 147.176 194.806 161.252 194.084C175.326 193.362 185.739 156.971 185.739 156.971C185.739 156.971 209.038 147.642 219.41 128.711C229.783 109.781 261.621 89.1642 279.052 84.8459C296.483 80.5276 306.711 88.5899 306.711 88.5899L302.389 253.594L33.3625 264.945L13.6917 213.961L13.6904 213.962Z" fill="#F58220"/>
<path d="M144.012 13.2747C144.012 13.2747 134.833 47.2124 144.012 56.2081C153.192 65.2038 160.186 90.95 162.74 97.9278C165.294 104.905 185.173 120.177 195.546 106.273C205.918 92.3685 221.477 82.2262 229.256 77.5457C237.034 72.8662 286.304 68.0596 288.897 64.5424C291.49 61.0251 293.219 21.1155 293.219 21.1155L144.012 13.2747Z" fill="#F58220"/>
<path d="M185.739 237.23L120.976 249.602V22.8071L185.739 35.4776V44.5542L173.615 63.9452L169.912 224.178L185.739 228.013V237.23Z" fill="#F86371"/>
<path d="M185.739 197.28V46.9112L162.935 40.6201L151.624 38.6074L149.672 38.4226V130.163H120.976V197.28H185.739Z" fill="#65D5FF"/>
<path d="M149.396 7.11475C149.396 7.11475 149.488 56.6459 163.272 79.382C177.056 102.119 182.242 124.256 171.87 137.217C161.498 150.178 120.976 130.401 120.976 130.401C120.976 130.401 101.856 141.271 93.2123 164.531C84.5685 187.791 28.385 207.172 16.2831 200.615C4.18252 194.059 9.36829 18.5222 9.36829 18.5222L149.396 7.11475Z" fill="#F58220"/>
<path d="M13.6904 213.962C13.6904 213.962 47.7354 226.755 73.4988 214.933C99.2621 203.112 120.975 181.869 120.975 181.869C120.975 181.869 147.176 194.806 161.252 194.084C175.326 193.362 185.739 156.971 185.739 156.971C185.739 156.971 209.038 147.642 219.41 128.711C229.783 109.781 261.621 89.1642 279.052 84.8459C296.483 80.5276 306.711 88.5899 306.711 88.5899L302.389 253.594L33.3625 264.945L13.6917 213.961L13.6904 213.962Z" fill="#F58220"/>
<path d="M144.012 13.2747C144.012 13.2747 134.833 47.2124 144.012 56.2081C153.192 65.2038 160.186 90.95 162.74 97.9278C165.294 104.905 185.173 120.177 195.546 106.273C205.918 92.3685 221.477 82.2262 229.256 77.5457C237.034 72.8662 286.304 68.0596 288.897 64.5424C291.49 61.0251 293.219 21.1155 293.219 21.1155L144.012 13.2747Z" fill="#F58220"/>
<g opacity="0.53">
<path d="M214.484 44.5544H212.755V237.23H214.484V44.5544Z" fill="#00AEEF"/>
<path d="M214.484 44.5544H212.755V237.23H214.484V44.5544Z" fill="black" fill-opacity="0.2"/>
</g>
<g opacity="0.53">
<path d="M78.0322 35.5239H76.3032V237.23H78.0322V35.5239Z" fill="#00AEEF"/>
<path d="M78.0322 35.5239H76.3032V237.23H78.0322V35.5239Z" fill="black" fill-opacity="0.2"/>
</g>
<g opacity="0.53">
<path d="M287.503 109.035H185.637L185.54 109.016L120.91 96.6388L33.4337 102.592L33.2891 101.204L121.041 95.2319L121.175 95.2582L185.841 107.643H287.503V109.035Z" fill="#00AEEF"/>
<path d="M287.503 109.035H185.637L185.54 109.016L120.91 96.6388L33.4337 102.592L33.2891 101.204L121.041 95.2319L121.175 95.2582L185.841 107.643H287.503V109.035Z" fill="black" fill-opacity="0.2"/>
</g>
<path d="M52.5657 144.38C51.9507 144.38 51.3435 144.153 50.95 143.725C50.2894 143.007 50.4771 141.992 51.3683 141.46C51.3722 141.458 52.1448 140.997 53.496 140.174C54.3807 139.635 55.642 139.777 56.3104 140.491C56.9788 141.205 56.8029 142.22 55.9169 142.759C54.5436 143.595 53.7605 144.062 53.7605 144.062C53.4009 144.277 52.9813 144.38 52.5657 144.38Z" fill="#00AEEF"/>
<path d="M52.5657 144.38C51.9507 144.38 51.3435 144.153 50.95 143.725C50.2894 143.007 50.4771 141.992 51.3683 141.46C51.3722 141.458 52.1448 140.997 53.496 140.174C54.3807 139.635 55.642 139.777 56.3104 140.491C56.9788 141.205 56.8029 142.22 55.9169 142.759C54.5436 143.595 53.7605 144.062 53.7605 144.062C53.4009 144.277 52.9813 144.38 52.5657 144.38Z" fill="black" fill-opacity="0.2"/>
<path d="M224.618 150.693C223.426 150.693 222.061 150.556 220.443 150.273C219.358 150.084 218.669 149.222 218.904 148.348C219.14 147.473 220.211 146.919 221.293 147.108C223.232 147.447 224.777 147.536 225.701 147.377C226.77 147.178 227.835 147.704 228.103 148.562C228.372 149.429 227.717 150.308 226.641 150.525C226.624 150.529 226.595 150.534 226.578 150.537C225.992 150.641 225.334 150.692 224.618 150.692V150.693ZM231.184 149.189C230.432 149.189 229.713 148.848 229.368 148.265C228.891 147.458 229.317 146.492 230.319 146.107C231.763 145.554 233.158 144.857 234.468 144.035C235.343 143.486 236.606 143.612 237.287 144.317C237.969 145.023 237.812 146.04 236.937 146.589C235.398 147.555 233.751 148.377 232.044 149.031C231.765 149.138 231.472 149.189 231.183 149.189H231.184ZM215.736 149.133C215.523 149.133 215.306 149.106 215.093 149.048C213.532 148.623 211.813 148.108 209.982 147.517C208.953 147.185 208.453 146.242 208.866 145.412C209.279 144.582 210.448 144.18 211.478 144.511C213.238 145.081 214.887 145.574 216.377 145.98C217.429 146.267 217.993 147.186 217.639 148.033C217.356 148.708 216.573 149.134 215.735 149.134L215.736 149.133ZM205.81 145.959C205.539 145.959 205.264 145.915 205 145.821C203.444 145.267 201.796 144.659 200.098 144.016C199.095 143.635 198.664 142.67 199.137 141.861C199.61 141.052 200.806 140.705 201.81 141.087C203.478 141.72 205.096 142.316 206.622 142.859C207.637 143.22 208.096 144.177 207.647 144.994C207.315 145.599 206.58 145.959 205.808 145.959H205.81ZM239.561 143.979C239.092 143.979 238.619 143.847 238.238 143.578C237.403 142.989 237.32 141.966 238.051 141.293C239.119 140.311 240.12 139.221 241.027 138.052C241.614 137.294 242.856 137.064 243.795 137.538C244.736 138.011 245.022 139.011 244.434 139.769C243.414 141.083 242.283 142.315 241.075 143.427C240.677 143.792 240.121 143.979 239.562 143.979H239.561ZM196.145 142.3C195.845 142.3 195.543 142.247 195.256 142.132C193.71 141.517 192.097 140.863 190.46 140.188C189.473 139.78 189.082 138.805 189.587 138.008C190.093 137.212 191.304 136.897 192.292 137.305C193.91 137.973 195.507 138.619 197.036 139.228C198.032 139.624 198.439 140.595 197.948 141.397C197.598 141.969 196.885 142.3 196.145 142.3ZM58.9436 140.485C58.3416 140.485 57.7449 140.268 57.3488 139.853C56.6725 139.144 56.8367 138.128 57.7162 137.582C58.9814 136.798 60.3951 135.916 61.9195 134.954C62.7938 134.404 64.0564 134.528 64.7404 135.232C65.4245 135.937 65.2694 136.954 64.3952 137.505C62.8616 138.471 61.4387 139.359 60.1645 140.149C59.7996 140.376 59.3683 140.485 58.941 140.485H58.9436ZM186.637 138.383C186.322 138.383 186.001 138.323 185.702 138.196C184.127 137.527 182.549 136.847 180.973 136.161C179.997 135.736 179.634 134.753 180.162 133.967C180.689 133.181 181.909 132.888 182.885 133.313C184.447 133.993 186.013 134.668 187.575 135.332C188.557 135.749 188.933 136.728 188.416 137.519C188.056 138.069 187.358 138.383 186.637 138.383ZM67.3503 135.188C66.7587 135.188 66.1737 134.979 65.7763 134.577C65.0857 133.878 65.2291 132.858 66.0981 132.302C67.4376 131.443 68.8265 130.546 70.2441 129.62C71.1054 129.058 72.3706 129.164 73.0702 129.859C73.7686 130.554 73.6357 131.573 72.7745 132.136C71.3464 133.068 69.9484 133.971 68.6011 134.836C68.2311 135.074 67.7894 135.188 67.3516 135.188H67.3503ZM177.246 134.294C176.917 134.294 176.584 134.229 176.275 134.091C174.701 133.391 173.139 132.688 171.597 131.988C170.63 131.549 170.288 130.562 170.832 129.783C171.377 129.004 172.603 128.728 173.569 129.167C175.101 129.862 176.653 130.56 178.218 131.257C179.188 131.69 179.541 132.675 179.005 133.458C178.638 133.992 177.952 134.294 177.244 134.294H177.246ZM167.94 130.072C167.601 130.072 167.257 130.003 166.942 129.857C165.361 129.126 163.813 128.405 162.307 127.697C161.348 127.247 161.024 126.255 161.583 125.483C162.142 124.71 163.373 124.448 164.331 124.899C165.829 125.602 167.369 126.32 168.942 127.047C169.905 127.492 170.237 128.481 169.685 129.257C169.313 129.779 168.636 130.071 167.94 130.071V130.072ZM75.6371 129.775C75.0586 129.775 74.4853 129.575 74.0879 129.188C73.3804 128.499 73.5002 127.479 74.355 126.908C75.7504 125.977 77.1211 125.054 78.4254 124.162C79.271 123.583 80.5388 123.667 81.258 124.35C81.976 125.032 81.8717 126.054 81.0248 126.631C79.7075 127.531 78.3251 128.464 76.9166 129.403C76.5426 129.653 76.0879 129.775 75.6371 129.775ZM158.712 125.737C158.364 125.737 158.011 125.664 157.69 125.51C156.083 124.742 154.545 124.001 153.091 123.295C152.142 122.833 151.835 121.837 152.409 121.072C152.982 120.307 154.217 120.061 155.167 120.522C156.612 121.224 158.142 121.961 159.739 122.724C160.694 123.18 161.009 124.173 160.443 124.943C160.067 125.453 159.399 125.737 158.712 125.737ZM83.7701 124.213C83.2099 124.213 82.6535 124.025 82.2561 123.659C81.5264 122.985 81.6124 121.962 82.4476 121.374C83.834 120.399 85.1656 119.446 86.4073 118.538C87.2295 117.938 88.4999 117.988 89.2452 118.651C89.9904 119.313 89.9279 120.337 89.1057 120.938C87.8471 121.857 86.4959 122.824 85.0913 123.813C84.7109 124.081 84.2392 124.213 83.7701 124.213ZM149.567 121.289C149.207 121.289 148.844 121.212 148.515 121.049C146.848 120.221 145.314 119.451 143.959 118.758C143.022 118.279 142.745 117.279 143.339 116.524C143.934 115.769 145.175 115.545 146.111 116.024C147.451 116.709 148.969 117.472 150.621 118.292C151.567 118.76 151.86 119.757 151.279 120.52C150.9 121.016 150.24 121.29 149.566 121.29L149.567 121.289ZM91.6673 118.435C91.137 118.435 90.6068 118.267 90.212 117.932C89.4471 117.284 89.4771 116.259 90.281 115.643C91.6374 114.601 92.8986 113.601 94.0296 112.667C94.8049 112.028 96.0779 112.016 96.8714 112.64C97.6649 113.265 97.6805 114.29 96.9039 114.93C95.7391 115.891 94.444 116.919 93.0524 117.987C92.6628 118.285 92.1651 118.435 91.6673 118.435ZM140.565 116.651C140.176 116.651 139.786 116.56 139.44 116.372C138.586 115.906 137.713 115.423 136.825 114.933C136.234 114.607 135.637 114.276 135.034 113.944C134.118 113.44 133.881 112.432 134.506 111.694C135.131 110.955 136.381 110.765 137.298 111.269C137.904 111.602 138.505 111.934 139.099 112.263C139.98 112.75 140.845 113.229 141.694 113.692C142.613 114.193 142.854 115.2 142.231 115.94C141.843 116.402 141.21 116.652 140.566 116.652L140.565 116.651ZM99.089 112.262C98.6238 112.262 98.1561 112.133 97.7756 111.867C96.9365 111.282 96.844 110.26 97.5698 109.584C98.1457 109.046 98.6786 108.527 99.1502 108.041C99.7926 107.38 100.473 106.77 101.17 106.226C101.969 105.604 103.24 105.623 104.01 106.266C104.782 106.91 104.759 107.934 103.961 108.556C103.397 108.996 102.842 109.494 102.314 110.037C101.802 110.564 101.227 111.125 100.608 111.702C100.211 112.073 99.6506 112.262 99.0877 112.262H99.089ZM131.725 111.843C131.353 111.843 130.976 111.76 130.64 111.586C129.015 110.743 127.557 110.029 126.183 109.403C125.216 108.963 124.876 107.975 125.422 107.197C125.969 106.419 127.194 106.144 128.159 106.584C129.6 107.24 131.124 107.986 132.815 108.862C133.748 109.346 134.017 110.348 133.417 111.1C133.032 111.581 132.386 111.843 131.725 111.843ZM122.417 107.671C122.146 107.671 121.871 107.627 121.607 107.532C119.947 106.942 118.364 106.491 116.902 106.19C115.827 105.97 115.177 105.088 115.452 104.222C115.725 103.356 116.817 102.832 117.895 103.052C119.571 103.396 121.367 103.907 123.23 104.569C124.245 104.93 124.705 105.886 124.257 106.704C123.926 107.31 123.19 107.67 122.417 107.67V107.671ZM106.951 106.61C106.174 106.61 105.434 106.245 105.106 105.634C104.666 104.813 105.133 103.861 106.152 103.505C107.987 102.865 109.979 102.52 112.077 102.478C113.19 102.456 114.108 103.162 114.136 104.056C114.163 104.949 113.286 105.693 112.177 105.715C110.575 105.747 109.127 105.996 107.748 106.477C107.489 106.567 107.218 106.61 106.951 106.61Z" fill="#00AEEF"/>
<path d="M224.618 150.693C223.426 150.693 222.061 150.556 220.443 150.273C219.358 150.084 218.669 149.222 218.904 148.348C219.14 147.473 220.211 146.919 221.293 147.108C223.232 147.447 224.777 147.536 225.701 147.377C226.77 147.178 227.835 147.704 228.103 148.562C228.372 149.429 227.717 150.308 226.641 150.525C226.624 150.529 226.595 150.534 226.578 150.537C225.992 150.641 225.334 150.692 224.618 150.692V150.693ZM231.184 149.189C230.432 149.189 229.713 148.848 229.368 148.265C228.891 147.458 229.317 146.492 230.319 146.107C231.763 145.554 233.158 144.857 234.468 144.035C235.343 143.486 236.606 143.612 237.287 144.317C237.969 145.023 237.812 146.04 236.937 146.589C235.398 147.555 233.751 148.377 232.044 149.031C231.765 149.138 231.472 149.189 231.183 149.189H231.184ZM215.736 149.133C215.523 149.133 215.306 149.106 215.093 149.048C213.532 148.623 211.813 148.108 209.982 147.517C208.953 147.185 208.453 146.242 208.866 145.412C209.279 144.582 210.448 144.18 211.478 144.511C213.238 145.081 214.887 145.574 216.377 145.98C217.429 146.267 217.993 147.186 217.639 148.033C217.356 148.708 216.573 149.134 215.735 149.134L215.736 149.133ZM205.81 145.959C205.539 145.959 205.264 145.915 205 145.821C203.444 145.267 201.796 144.659 200.098 144.016C199.095 143.635 198.664 142.67 199.137 141.861C199.61 141.052 200.806 140.705 201.81 141.087C203.478 141.72 205.096 142.316 206.622 142.859C207.637 143.22 208.096 144.177 207.647 144.994C207.315 145.599 206.58 145.959 205.808 145.959H205.81ZM239.561 143.979C239.092 143.979 238.619 143.847 238.238 143.578C237.403 142.989 237.32 141.966 238.051 141.293C239.119 140.311 240.12 139.221 241.027 138.052C241.614 137.294 242.856 137.064 243.795 137.538C244.736 138.011 245.022 139.011 244.434 139.769C243.414 141.083 242.283 142.315 241.075 143.427C240.677 143.792 240.121 143.979 239.562 143.979H239.561ZM196.145 142.3C195.845 142.3 195.543 142.247 195.256 142.132C193.71 141.517 192.097 140.863 190.46 140.188C189.473 139.78 189.082 138.805 189.587 138.008C190.093 137.212 191.304 136.897 192.292 137.305C193.91 137.973 195.507 138.619 197.036 139.228C198.032 139.624 198.439 140.595 197.948 141.397C197.598 141.969 196.885 142.3 196.145 142.3ZM58.9436 140.485C58.3416 140.485 57.7449 140.268 57.3488 139.853C56.6725 139.144 56.8367 138.128 57.7162 137.582C58.9814 136.798 60.3951 135.916 61.9195 134.954C62.7938 134.404 64.0564 134.528 64.7404 135.232C65.4245 135.937 65.2694 136.954 64.3952 137.505C62.8616 138.471 61.4387 139.359 60.1645 140.149C59.7996 140.376 59.3683 140.485 58.941 140.485H58.9436ZM186.637 138.383C186.322 138.383 186.001 138.323 185.702 138.196C184.127 137.527 182.549 136.847 180.973 136.161C179.997 135.736 179.634 134.753 180.162 133.967C180.689 133.181 181.909 132.888 182.885 133.313C184.447 133.993 186.013 134.668 187.575 135.332C188.557 135.749 188.933 136.728 188.416 137.519C188.056 138.069 187.358 138.383 186.637 138.383ZM67.3503 135.188C66.7587 135.188 66.1737 134.979 65.7763 134.577C65.0857 133.878 65.2291 132.858 66.0981 132.302C67.4376 131.443 68.8265 130.546 70.2441 129.62C71.1054 129.058 72.3706 129.164 73.0702 129.859C73.7686 130.554 73.6357 131.573 72.7745 132.136C71.3464 133.068 69.9484 133.971 68.6011 134.836C68.2311 135.074 67.7894 135.188 67.3516 135.188H67.3503ZM177.246 134.294C176.917 134.294 176.584 134.229 176.275 134.091C174.701 133.391 173.139 132.688 171.597 131.988C170.63 131.549 170.288 130.562 170.832 129.783C171.377 129.004 172.603 128.728 173.569 129.167C175.101 129.862 176.653 130.56 178.218 131.257C179.188 131.69 179.541 132.675 179.005 133.458C178.638 133.992 177.952 134.294 177.244 134.294H177.246ZM167.94 130.072C167.601 130.072 167.257 130.003 166.942 129.857C165.361 129.126 163.813 128.405 162.307 127.697C161.348 127.247 161.024 126.255 161.583 125.483C162.142 124.71 163.373 124.448 164.331 124.899C165.829 125.602 167.369 126.32 168.942 127.047C169.905 127.492 170.237 128.481 169.685 129.257C169.313 129.779 168.636 130.071 167.94 130.071V130.072ZM75.6371 129.775C75.0586 129.775 74.4853 129.575 74.0879 129.188C73.3804 128.499 73.5002 127.479 74.355 126.908C75.7504 125.977 77.1211 125.054 78.4254 124.162C79.271 123.583 80.5388 123.667 81.258 124.35C81.976 125.032 81.8717 126.054 81.0248 126.631C79.7075 127.531 78.3251 128.464 76.9166 129.403C76.5426 129.653 76.0879 129.775 75.6371 129.775ZM158.712 125.737C158.364 125.737 158.011 125.664 157.69 125.51C156.083 124.742 154.545 124.001 153.091 123.295C152.142 122.833 151.835 121.837 152.409 121.072C152.982 120.307 154.217 120.061 155.167 120.522C156.612 121.224 158.142 121.961 159.739 122.724C160.694 123.18 161.009 124.173 160.443 124.943C160.067 125.453 159.399 125.737 158.712 125.737ZM83.7701 124.213C83.2099 124.213 82.6535 124.025 82.2561 123.659C81.5264 122.985 81.6124 121.962 82.4476 121.374C83.834 120.399 85.1656 119.446 86.4073 118.538C87.2295 117.938 88.4999 117.988 89.2452 118.651C89.9904 119.313 89.9279 120.337 89.1057 120.938C87.8471 121.857 86.4959 122.824 85.0913 123.813C84.7109 124.081 84.2392 124.213 83.7701 124.213ZM149.567 121.289C149.207 121.289 148.844 121.212 148.515 121.049C146.848 120.221 145.314 119.451 143.959 118.758C143.022 118.279 142.745 117.279 143.339 116.524C143.934 115.769 145.175 115.545 146.111 116.024C147.451 116.709 148.969 117.472 150.621 118.292C151.567 118.76 151.86 119.757 151.279 120.52C150.9 121.016 150.24 121.29 149.566 121.29L149.567 121.289ZM91.6673 118.435C91.137 118.435 90.6068 118.267 90.212 117.932C89.4471 117.284 89.4771 116.259 90.281 115.643C91.6374 114.601 92.8986 113.601 94.0296 112.667C94.8049 112.028 96.0779 112.016 96.8714 112.64C97.6649 113.265 97.6805 114.29 96.9039 114.93C95.7391 115.891 94.444 116.919 93.0524 117.987C92.6628 118.285 92.1651 118.435 91.6673 118.435ZM140.565 116.651C140.176 116.651 139.786 116.56 139.44 116.372C138.586 115.906 137.713 115.423 136.825 114.933C136.234 114.607 135.637 114.276 135.034 113.944C134.118 113.44 133.881 112.432 134.506 111.694C135.131 110.955 136.381 110.765 137.298 111.269C137.904 111.602 138.505 111.934 139.099 112.263C139.98 112.75 140.845 113.229 141.694 113.692C142.613 114.193 142.854 115.2 142.231 115.94C141.843 116.402 141.21 116.652 140.566 116.652L140.565 116.651ZM99.089 112.262C98.6238 112.262 98.1561 112.133 97.7756 111.867C96.9365 111.282 96.844 110.26 97.5698 109.584C98.1457 109.046 98.6786 108.527 99.1502 108.041C99.7926 107.38 100.473 106.77 101.17 106.226C101.969 105.604 103.24 105.623 104.01 106.266C104.782 106.91 104.759 107.934 103.961 108.556C103.397 108.996 102.842 109.494 102.314 110.037C101.802 110.564 101.227 111.125 100.608 111.702C100.211 112.073 99.6506 112.262 99.0877 112.262H99.089ZM131.725 111.843C131.353 111.843 130.976 111.76 130.64 111.586C129.015 110.743 127.557 110.029 126.183 109.403C125.216 108.963 124.876 107.975 125.422 107.197C125.969 106.419 127.194 106.144 128.159 106.584C129.6 107.24 131.124 107.986 132.815 108.862C133.748 109.346 134.017 110.348 133.417 111.1C133.032 111.581 132.386 111.843 131.725 111.843ZM122.417 107.671C122.146 107.671 121.871 107.627 121.607 107.532C119.947 106.942 118.364 106.491 116.902 106.19C115.827 105.97 115.177 105.088 115.452 104.222C115.725 103.356 116.817 102.832 117.895 103.052C119.571 103.396 121.367 103.907 123.23 104.569C124.245 104.93 124.705 105.886 124.257 106.704C123.926 107.31 123.19 107.67 122.417 107.67V107.671ZM106.951 106.61C106.174 106.61 105.434 106.245 105.106 105.634C104.666 104.813 105.133 103.861 106.152 103.505C107.987 102.865 109.979 102.52 112.077 102.478C113.19 102.456 114.108 103.162 114.136 104.056C114.163 104.949 113.286 105.693 112.177 105.715C110.575 105.747 109.127 105.996 107.748 106.477C107.489 106.567 107.218 106.61 106.951 106.61Z" fill="black" fill-opacity="0.2"/>
<path d="M222.128 136.892C221.856 136.892 221.58 136.847 221.315 136.752C220.3 136.39 219.843 135.434 220.294 134.616C220.902 133.51 221.182 132.791 221.185 132.784C221.515 131.931 222.64 131.453 223.698 131.718C224.758 131.983 225.351 132.887 225.023 133.74C225.01 133.776 224.679 134.632 223.965 135.928C223.633 136.532 222.898 136.891 222.127 136.891L222.128 136.892Z" fill="#00AEEF"/>
<path d="M222.128 136.892C221.856 136.892 221.58 136.847 221.315 136.752C220.3 136.39 219.843 135.434 220.294 134.616C220.902 133.51 221.182 132.791 221.185 132.784C221.515 131.931 222.64 131.453 223.698 131.718C224.758 131.983 225.351 132.887 225.023 133.74C225.01 133.776 224.679 134.632 223.965 135.928C223.633 136.532 222.898 136.891 222.127 136.891L222.128 136.892Z" fill="black" fill-opacity="0.2"/>
<path d="M115.038 46.6216C115.038 66.4053 80.6427 102.506 65.0763 117.83C61.2026 121.644 53.9621 121.644 50.0884 117.83C34.5219 102.506 0.126465 66.4053 0.126465 46.6216C0.126465 21.0518 25.8507 0.324219 57.5817 0.324219C89.3126 0.324219 115.037 21.0528 115.037 46.6216H115.038Z" fill="#00AEEF"/>
<path d="M115.038 46.6216C115.038 66.4053 80.6427 102.506 65.0763 117.83C61.2026 121.644 53.9621 121.644 50.0884 117.83C34.5219 102.506 0.126465 66.4053 0.126465 46.6216C0.126465 21.0518 25.8507 0.324219 57.5817 0.324219C89.3126 0.324219 115.037 21.0528 115.037 46.6216H115.038Z" fill="black" fill-opacity="0.2"/>
<path d="M80.2409 64.8791C92.7547 54.7955 92.7547 38.4467 80.2409 28.3631C67.7271 18.2794 47.4382 18.2794 34.9244 28.3631C22.4106 38.4467 22.4106 54.7955 34.9244 64.8791C47.4382 74.9627 67.7271 74.9627 80.2409 64.8791Z" fill="#F58220"/>
<g style="mix-blend-mode:multiply" opacity="0.3">
<g style="mix-blend-mode:multiply">
<path d="M57.3286 98.8214C60.9742 79.4777 76.826 73.2863 74.1054 55.0208C70.9679 33.9562 47.8209 28.3454 47.2632 9.59798C47.1733 6.57945 47.6828 3.66906 48.6444 0.882568C21.1585 4.34311 0.127441 23.5021 0.127441 46.6214C0.127441 66.4051 34.5229 102.506 50.0893 117.83C52.3695 120.075 55.8158 120.997 59.0563 120.599C56.2706 112.126 56.1859 104.891 57.3299 98.8214H57.3286Z" fill="#00AEEF"/>
<path d="M57.3286 98.8214C60.9742 79.4777 76.826 73.2863 74.1054 55.0208C70.9679 33.9562 47.8209 28.3454 47.2632 9.59798C47.1733 6.57945 47.6828 3.66906 48.6444 0.882568C21.1585 4.34311 0.127441 23.5021 0.127441 46.6214C0.127441 66.4051 34.5229 102.506 50.0893 117.83C52.3695 120.075 55.8158 120.997 59.0563 120.599C56.2706 112.126 56.1859 104.891 57.3299 98.8214H57.3286Z" fill="black" fill-opacity="0.2"/>
</g>
</g>
<path d="M57.5829 149.818C64.0687 149.818 69.3265 145.582 69.3265 140.356C69.3265 135.129 64.0687 130.893 57.5829 130.893C51.0971 130.893 45.8394 135.129 45.8394 140.356C45.8394 145.582 51.0971 149.818 57.5829 149.818Z" fill="#00AEEF"/>
<path d="M57.5829 149.818C64.0687 149.818 69.3265 145.582 69.3265 140.356C69.3265 135.129 64.0687 130.893 57.5829 130.893C51.0971 130.893 45.8394 135.129 45.8394 140.356C45.8394 145.582 51.0971 149.818 57.5829 149.818Z" fill="black" fill-opacity="0.2"/>
<path d="M249.249 89.347C249.249 98.3501 233.597 114.778 226.514 121.752C224.751 123.487 221.456 123.487 219.693 121.752C212.61 114.778 196.958 98.3501 196.958 89.347C196.958 77.7118 208.663 68.2793 223.103 68.2793C237.542 68.2793 249.248 77.7118 249.248 89.347H249.249Z" fill="#F86371"/>
<path d="M237.531 90.9685C238.647 84.542 233.087 78.6029 225.112 77.7032C217.137 76.8034 209.766 81.2837 208.65 87.7102C207.533 94.1367 213.093 100.076 221.068 100.976C229.044 101.875 236.414 97.395 237.531 90.9685Z" fill="#F58220"/>
<g style="mix-blend-mode:multiply" opacity="0.3">
<g style="mix-blend-mode:multiply">
<path d="M222.988 113.101C224.647 104.299 231.861 101.481 230.622 93.1696C229.194 83.5838 218.661 81.0315 218.407 72.4998C218.366 71.1265 218.598 69.8015 219.035 68.5332C206.528 70.1081 196.958 78.8266 196.958 89.3469C196.958 98.35 212.61 114.778 219.693 121.752C220.73 122.773 222.299 123.192 223.774 123.012C222.506 119.156 222.468 115.864 222.988 113.101Z" fill="#F86371"/>
</g>
</g>
<path d="M224.663 136.097C227.487 135.407 229.084 133.004 228.228 130.728C227.373 128.452 224.39 127.166 221.565 127.855C218.741 128.544 217.145 130.948 218 133.224C218.855 135.5 221.839 136.786 224.663 136.097Z" fill="#F86371"/>
<path d="M178.995 268.017L138.35 266.677L149.604 245.434L175.788 246.679L182.795 255.912L178.995 268.017Z" fill="#312E4E"/>
<path d="M217.123 234.248C217.394 234.248 217.661 234.263 217.927 234.285L222.15 234.248L222.125 235.581C226.216 237.877 229.057 242.897 229.057 248.725C229.057 254.553 225.988 259.969 221.635 262.129L221.615 263.203H217.122C210.53 263.203 205.187 256.72 205.187 248.725C205.187 240.73 210.53 234.247 217.122 234.247L217.123 234.248Z" fill="#00AEEF"/>
<path d="M217.123 234.248C217.394 234.248 217.661 234.263 217.927 234.285L222.15 234.248L222.125 235.581C226.216 237.877 229.057 242.897 229.057 248.725C229.057 254.553 225.988 259.969 221.635 262.129L221.615 263.203H217.122C210.53 263.203 205.187 256.72 205.187 248.725C205.187 240.73 210.53 234.247 217.122 234.247L217.123 234.248Z" fill="black" fill-opacity="0.2"/>
<path d="M222.151 263.204C228.742 263.204 234.086 256.722 234.086 248.726C234.086 240.731 228.742 234.249 222.151 234.249C215.559 234.249 210.216 240.731 210.216 248.726C210.216 256.722 215.559 263.204 222.151 263.204Z" fill="#00AEEF"/>
<path d="M222.151 263.204C228.742 263.204 234.086 256.722 234.086 248.726C234.086 240.731 228.742 234.249 222.151 234.249C215.559 234.249 210.216 240.731 210.216 248.726C210.216 256.722 215.559 263.204 222.151 263.204Z" fill="black" fill-opacity="0.2"/>
<path d="M123.5 245.243C123.832 245.243 124.159 245.26 124.485 245.284L129.659 245.243L129.629 246.737C134.641 249.309 138.121 254.932 138.121 261.462C138.121 267.991 134.362 274.059 129.029 276.478L129.005 277.681H123.5C115.425 277.681 108.878 270.419 108.878 261.462C108.878 252.505 115.424 245.242 123.5 245.242V245.243Z" fill="#00AEEF"/>
<path d="M123.5 245.243C123.832 245.243 124.159 245.26 124.485 245.284L129.659 245.243L129.629 246.737C134.641 249.309 138.121 254.932 138.121 261.462C138.121 267.991 134.362 274.059 129.029 276.478L129.005 277.681H123.5C115.425 277.681 108.878 270.419 108.878 261.462C108.878 252.505 115.424 245.242 123.5 245.242V245.243Z" fill="black" fill-opacity="0.2"/>
<path d="M129.66 277.682C137.736 277.682 144.282 270.42 144.282 261.462C144.282 252.504 137.736 245.242 129.66 245.242C121.585 245.242 115.039 252.504 115.039 261.462C115.039 270.42 121.585 277.682 129.66 277.682Z" fill="#00AEEF"/>
<path d="M129.66 277.682C137.736 277.682 144.282 270.42 144.282 261.462C144.282 252.504 137.736 245.242 129.66 245.242C121.585 245.242 115.039 252.504 115.039 261.462C115.039 270.42 121.585 277.682 129.66 277.682Z" fill="black" fill-opacity="0.2"/>
<path d="M156.101 252.774C156.428 252.774 156.75 252.791 157.071 252.816L162.165 252.774L162.135 254.306C167.07 256.942 170.495 262.708 170.495 269.403C170.495 276.097 166.794 282.317 161.543 284.797L161.52 286.03H156.101C148.151 286.03 141.707 278.585 141.707 269.403C141.707 260.22 148.151 252.774 156.101 252.774Z" fill="#00AEEF"/>
<path d="M156.101 252.774C156.428 252.774 156.75 252.791 157.071 252.816L162.165 252.774L162.135 254.306C167.07 256.942 170.495 262.708 170.495 269.403C170.495 276.097 166.794 282.317 161.543 284.797L161.52 286.03H156.101C148.151 286.03 141.707 278.585 141.707 269.403C141.707 260.22 148.151 252.774 156.101 252.774Z" fill="black" fill-opacity="0.2"/>
<path d="M162.165 286.03C170.114 286.03 176.559 278.585 176.559 269.401C176.559 260.218 170.114 252.773 162.165 252.773C154.215 252.773 147.771 260.218 147.771 269.401C147.771 278.585 154.215 286.03 162.165 286.03Z" fill="#00AEEF"/>
<path d="M162.165 286.03C170.114 286.03 176.559 278.585 176.559 269.401C176.559 260.218 170.114 252.773 162.165 252.773C154.215 252.773 147.771 260.218 147.771 269.401C147.771 278.585 154.215 286.03 162.165 286.03Z" fill="black" fill-opacity="0.2"/>
<path d="M164.187 278.744C168.653 278.744 172.273 274.561 172.273 269.401C172.273 264.242 168.653 260.059 164.187 260.059C159.721 260.059 156.101 264.242 156.101 269.401C156.101 274.561 159.721 278.744 164.187 278.744Z" fill="#F58220"/>
<path d="M162.964 278.075C166.754 278.075 169.826 274.191 169.826 269.401C169.826 264.611 166.754 260.728 162.964 260.728C159.174 260.728 156.101 264.611 156.101 269.401C156.101 274.191 159.174 278.075 162.964 278.075Z" fill="#65D5FF"/>
<path d="M299.648 234.248V251.557C299.648 256.075 294.74 259.574 289.175 259.023L236.946 253.854V234.248H299.648Z" fill="#312E4E"/>
<path d="M276.135 231.845L261.796 249.802C259.747 252.369 256.383 254.066 252.622 254.43L205.188 259.023L201.558 239.693L276.135 231.845Z" fill="#312E4E"/>
<path d="M272.829 240.593C273.1 240.593 273.368 240.607 273.633 240.629L277.856 240.593L277.832 241.926C281.923 244.222 284.763 249.242 284.763 255.07C284.763 260.898 281.695 266.314 277.342 268.473L277.322 269.547H272.828C266.237 269.547 260.893 263.065 260.893 255.07C260.893 247.075 266.237 240.592 272.828 240.592L272.829 240.593Z" fill="#00AEEF"/>
<path d="M272.829 240.593C273.1 240.593 273.368 240.607 273.633 240.629L277.856 240.593L277.832 241.926C281.923 244.222 284.763 249.242 284.763 255.07C284.763 260.898 281.695 266.314 277.342 268.473L277.322 269.547H272.828C266.237 269.547 260.893 263.065 260.893 255.07C260.893 247.075 266.237 240.592 272.828 240.592L272.829 240.593Z" fill="black" fill-opacity="0.2"/>
<path d="M277.857 269.547C284.449 269.547 289.793 263.065 289.793 255.07C289.793 247.074 284.449 240.592 277.857 240.592C271.266 240.592 265.922 247.074 265.922 255.07C265.922 263.065 271.266 269.547 277.857 269.547Z" fill="#00AEEF"/>
<path d="M277.857 269.547C284.449 269.547 289.793 263.065 289.793 255.07C289.793 247.074 284.449 240.592 277.857 240.592C271.266 240.592 265.922 247.074 265.922 255.07C265.922 263.065 271.266 269.547 277.857 269.547Z" fill="black" fill-opacity="0.2"/>
<path d="M279.535 263.204C283.238 263.204 286.24 259.562 286.24 255.07C286.24 250.578 283.238 246.936 279.535 246.936C275.832 246.936 272.83 250.578 272.83 255.07C272.83 259.562 275.832 263.204 279.535 263.204Z" fill="#F58220"/>
<path d="M278.52 262.621C281.662 262.621 284.21 259.24 284.21 255.07C284.21 250.9 281.662 247.519 278.52 247.519C275.377 247.519 272.83 250.9 272.83 255.07C272.83 259.24 275.377 262.621 278.52 262.621Z" fill="#65D5FF"/>
<path d="M229.251 194.05C231.889 203.594 238.045 231.123 231.175 260.709C230.665 262.912 228.471 264.611 225.725 264.963L201.994 268.016C201.994 268.016 201.757 249.913 190.356 248.726C178.956 247.539 168.269 256.151 167.556 271.079C167.556 271.079 142.856 273.759 105.566 266.869C105.566 266.869 100.579 266.008 98.4419 261.462L100.125 240.641C100.263 238.933 101.247 237.34 102.855 236.22L124.805 220.937C124.805 220.937 144.756 198.162 151.406 193.761C151.406 193.761 154.968 189.167 183.707 188.593C203.499 188.197 217.127 189.254 223.695 189.951C226.437 190.241 228.652 191.876 229.252 194.05H229.251Z" fill="#65D5FF"/>
<g style="mix-blend-mode:multiply" opacity="0.6">
<path d="M101.388 237.582L102.479 238.544C102.003 249.262 99.1209 253.05 123.499 255.071C147.876 257.091 147.13 240.593 147.13 240.593L179.099 229.357L205.794 195.483C211.092 192.043 220.351 191.103 226.628 190.885C227.929 191.627 228.886 192.737 229.25 194.049C231.888 203.593 238.044 231.122 231.174 260.708C230.662 262.91 228.469 264.61 225.724 264.962L201.993 268.015C201.993 268.015 201.756 249.912 190.355 248.724C178.954 247.537 168.268 256.149 167.555 271.077C167.555 271.077 142.855 273.756 105.565 266.867C105.565 266.867 100.578 266.006 98.4395 261.46L100.124 240.639C100.213 239.538 100.657 238.49 101.387 237.58L101.388 237.582Z" fill="#65D5FF"/>
</g>
<path d="M179.428 224.415C178.563 225.56 176.947 226.19 175.296 226.027L124.675 221.027L124.805 220.937C124.805 220.937 141.362 202.037 149.337 195.345L196.016 197.608C197.623 197.685 198.55 199.114 197.712 200.222L179.428 224.415Z" fill="#312E4E"/>
<g style="mix-blend-mode:overlay" opacity="0.3">
<path d="M149.285 211.713C163.067 207.347 174.52 212.522 183.999 206.416C187.646 204.067 189.818 200.805 191.1 197.368L196.014 197.607C197.622 197.684 198.548 199.113 197.712 200.221L179.427 224.414C178.562 225.559 176.946 226.189 175.296 226.026L133.29 221.877C138.806 216.1 144.485 213.233 149.285 211.712V211.713Z" fill="#F58220"/>
</g>
<path d="M104.548 240.344C104.6 239.972 104.987 239.692 105.451 239.695C118.064 239.784 133.927 241.922 139.178 242.682C140.167 242.825 140.819 243.604 140.59 244.392C139.563 247.924 137.86 250.312 136.607 251.698C135.755 252.641 134.443 253.235 133 253.326C129.031 253.577 120.227 254.004 115.959 253.186C112.162 252.457 108.528 251.006 106.576 250.143C105.44 249.641 104.636 248.751 104.438 247.719C103.959 245.224 104.35 241.767 104.549 240.344H104.548Z" fill="#312E4E"/>
<path d="M166.271 241.324C166.626 240.744 166.286 240.046 165.533 239.821C164.419 239.489 162.892 239.105 162.004 239.19C160.841 239.3 151.007 241.358 146.509 242.307C145.121 242.6 144.162 243.638 144.255 244.792C144.456 247.26 145.613 251.167 150.87 251.606C158.17 252.215 162.782 247.028 166.27 241.325L166.271 241.324Z" fill="#F58220"/>
<path d="M118.986 255.912C138.121 258.066 142.003 252.774 142.003 252.774C146.532 253.317 152.968 252.602 156.615 252.089C158.005 251.894 159.354 252.426 160.132 253.376C160.714 254.085 161.772 254.803 163.695 255.07C166.836 255.506 172.183 254.543 174.802 254C170.991 258.216 168.322 263.679 167.97 271.056C167.97 271.056 142.855 273.759 105.565 266.868C105.565 266.868 100.578 266.007 98.4395 261.461L99.5378 247.882C101.492 250.292 106.602 254.518 118.984 255.911L118.986 255.912Z" fill="#312E4E"/>
<g style="mix-blend-mode:multiply" opacity="0.6">
<path d="M150.107 258.59C152.224 258.425 154.03 259.791 153.983 261.505C153.883 265.168 154.348 269.001 154.757 271.59C143.923 271.61 126.788 270.79 105.565 266.869C105.565 266.869 100.578 266.008 98.4395 261.462L99.0792 253.549C114.368 260.534 140.104 259.371 150.106 258.59H150.107Z" fill="#312E4E"/>
</g>
<path d="M198.09 199.586L191.215 200.926C188.968 201.364 187.001 202.457 185.693 203.994L168.674 223.998C167.512 225.363 169.013 227.172 171.022 226.83L200.512 221.803C201.7 221.6 202.568 220.78 202.62 219.803C202.804 216.375 203.002 208.25 201.335 201.281C201.046 200.072 199.575 199.296 198.09 199.586Z" fill="#312E4E"/>
</svg>
