<?xml version="1.0" encoding="UTF-8"?><svg id="uuid-ff948677-f59a-48da-921d-dcec92256c18" xmlns="http://www.w3.org/2000/svg" viewBox="0 0 334.46 203.81"><g id="uuid-26904b6a-158f-48a0-bf9d-54834137414f"><path d="M283.35,148.07h2.99c.83,0,1.52,.72,1.52,1.63v4.85c0,.62-.46,1.11-1.04,1.11h-3.47v-7.59Z" style="fill:#d3def1;"/><path d="M26.65,192.95h10.52l-1.14-4.5c3.36-3.69,5.5-9.33,5.5-15.66s-2.14-11.97-5.5-15.66l1.14-4.5h-10.52" style="fill:#342745;"/><path d="M6.06,175.84H76.83c.66,0,1.18,.56,1.18,1.26v6.91c0,.7-.52,1.26-1.18,1.26H6.06" style="fill:#c96237;"/><path d="M4.38,175.84H75.15c.66,0,1.18,.56,1.18,1.26v6.91c0,.7-.52,1.26-1.18,1.26H4.38" style="fill:#ffecdc;"/><path d="M22.09,176.03h30.41c.71,0,1.27,.62,1.27,1.36,0,.37-.13,.72-.37,.97-.23,.25-.56,.39-.91,.39H22.09" style="fill:#c96237;"/><path d="M22.9,176.03h29.6c.71,0,1.27,.62,1.27,1.36,0,.37-.13,.72-.37,.97-.23,.25-.56,.39-.91,.39H22.9" style="fill:#f18d4f;"/><path d="M31.66,85.45c0-1.53,1.16-2.76,2.59-2.76h3.7c.35,0,.62,.29,.62,.66v2.1c0,.35-.27,.66-.62,.66h-5.67" style="fill:#c96237;"/><path d="M32.15,82.68h4.26c.33,0,.62,.29,.62,.66v2.1c0,.35-.27,.66-.62,.66h-5.69" style="fill:#feb16d;"/><path d="M30.47,71.5h5.58v-.85c0-.68-.52-1.24-1.16-1.24h-2.93" style="fill:#c96237;"/><path d="M29.45,71.5h5.58v-.85c0-.68-.52-1.24-1.16-1.24h-2.93" style="fill:#feb16d;"/><path d="M63.54,181.19c0,.6-.33,1.11-.75,1.26-.08,.02-.15,.04-.23,.04-.54,0-.98-.58-.98-1.3s.44-1.3,.98-1.3c.08,0,.15,0,.23,.04,.42,.14,.75,.66,.75,1.26Z" style="fill:#f18d4f;"/><path d="M63.54,181.19c0,.6-.33,1.11-.75,1.26-.42-.14-.75-.64-.75-1.26s.33-1.11,.75-1.26c.42,.14,.75,.66,.75,1.26Z" style="fill:#fff;"/><path d="M69.27,181.19c0,.6-.31,1.11-.73,1.26-.08,.02-.15,.04-.23,.04-.54,0-.98-.58-.98-1.3s.44-1.3,.98-1.3c.08,0,.15,0,.23,.04,.42,.14,.73,.66,.73,1.26Z" style="fill:#f18d4f;"/><path d="M69.27,181.19c0,.6-.31,1.11-.73,1.26-.42-.14-.75-.64-.75-1.26s.31-1.11,.75-1.26c.42,.14,.73,.66,.73,1.26Z" style="fill:#fff;"/><path d="M30.6,97.75c4.77,0,8.39,4.54,7.66,9.57l-1.64,11.22H14.82" style="fill:#342745;"/><path d="M28.07,97.75h7.6c4.77,0,8.39,4.54,7.66,9.57l-1.64,11.22H19.89" style="fill:#342745;"/><path d="M31.59,89h9.49l-15.84,34.44" style="fill:#766a89;"/><path d="M334.46,72.2c-4.4-25.07-19.02-48.41-40.23-60.08C278.08,3.23,259.41,1.41,241.25,.54c-51.96-2.48-101.99,3.88-153.3,11.45C50.44,17.52,20.97,49.26,3.86,84.38" style="fill:#ffba80;"/><path d="M0,194.02c10.25,9.49,25.12,9.88,38.69,9.78,72.8-.56,145.6-1.13,218.4-1.69,11.33-.08,23.46-.45,32.67-7.51,5.29-4.06,9.05-9.97,12.7-15.72,2.24-3.55,4.5-7.1,6.73-10.65,4.57-7.22,9.15-14.46,13.04-22.14" style="fill:#ffa453;"/><path d="M254.93,63.66c0,.6-.44,1.07-1,1.07-.12,0-.21,0-.31-.06,.41-.14,.7-.54,.7-1.01s-.29-.89-.7-1.01c.1-.04,.21-.06,.31-.06,.56,0,1,.47,1,1.07Z" style="fill:#a45625;"/><path d="M251.09,61.86v85.81h5.21V61.86h-5.21Zm3.07,2.85c-.16,.02-.19,.02-.23,.02h-.17c-.56-.19-.83-.58-.83-1.05s.29-.87,.7-1.01c.04,0,.08-.02,.12-.04,.13,0,.15-.02,.19-.02,.56,0,1,.47,1,1.07v.1c-.17,.52-.21,.56-.23,.58,0,.02-.04,.04-.06,.08-.35,.25-.39,.25-.41,.27h-.08Z" style="fill:#c96237;"/><path d="M251.09,61.86h-.93v85.81h.93V61.86Z" style="fill:#a45625;"/><path d="M308.76,64.69H158.13v82.99h150.64V64.69Z" style="fill:#f18d4f;"/><path d="M303.57,61.87v85.81h5.21V61.87h-5.21Zm3.01,2.85h-.17c-.13,0-.19,0-.23-.02-.48-.16-.77-.58-.77-1.05s.29-.87,.69-1.01c.87-.06,1.31,.43,1.31,1.01,0,.08,0,.17-.02,.25,0,.04-.02,.08-.04,.12-.13,.29-.23,.39-.33,.47-.14,.1-.21,.14-.31,.17-.04,0-.08,.02-.11,.04l-.02,.02Z" style="fill:#f18d4f;"/><path d="M307.41,63.66c0,.6-.44,1.07-1,1.07-.11,0-.21,0-.31-.06,.41-.14,.7-.54,.7-1.01s-.29-.89-.7-1.01c.1-.04,.21-.06,.31-.06,.56,0,1,.47,1,1.07Z" style="fill:#c96237;"/><path d="M161.5,63.66c0,.6-.44,1.07-1,1.07-.12,0-.21,0-.31-.06,.41-.14,.69-.54,.69-1.01s-.29-.89-.69-1.01c.1-.04,.21-.06,.31-.06,.56,0,1,.47,1,1.07Z" style="fill:#c96237;"/><path d="M303.57,61.87h-.93v85.81h.93V61.87Z" style="fill:#c96237;"/><path d="M167.46,66.71h2.12c.31,0,.58,.27,.58,.62v77.7c0,.33-.25,.62-.58,.62h-2.12c-.31,0-.58-.27-.58-.62V67.33c0-.33,.25-.62,.58-.62Z" style="fill:#c96237;"/><path d="M175.55,66.71h2.12c.31,0,.58,.27,.58,.62v77.7c0,.33-.25,.62-.58,.62h-2.12c-.31,0-.58-.27-.58-.62V67.33c0-.33,.25-.62,.58-.62Z" style="fill:#c96237;"/><path d="M183.63,66.71h2.12c.31,0,.58,.27,.58,.62v77.7c0,.33-.25,.62-.58,.62h-2.12c-.31,0-.58-.27-.58-.62V67.33c0-.33,.25-.62,.58-.62Z" style="fill:#c96237;"/><path d="M193.84,66.71h-2.12c-.32,0-.58,.28-.58,.62v77.7c0,.34,.26,.62,.58,.62h2.12c.32,0,.58-.28,.58-.62V67.33c0-.34-.26-.62-.58-.62Z" style="fill:#c96237;"/><path d="M199.78,66.71h2.12c.31,0,.58,.27,.58,.62v77.7c0,.33-.25,.62-.58,.62h-2.12c-.31,0-.58-.27-.58-.62V67.33c0-.33,.25-.62,.58-.62Z" style="fill:#c96237;"/><path d="M209.99,66.71h-2.12c-.32,0-.58,.28-.58,.62v77.7c0,.34,.26,.62,.58,.62h2.12c.32,0,.58-.28,.58-.62V67.33c0-.34-.26-.62-.58-.62Z" style="fill:#c96237;"/><path d="M215.95,66.71h2.12c.31,0,.58,.27,.58,.62v77.7c0,.33-.25,.62-.58,.62h-2.12c-.31,0-.58-.27-.58-.62V67.33c0-.33,.25-.62,.58-.62Z" style="fill:#c96237;"/><path d="M226.16,66.71h-2.12c-.32,0-.58,.28-.58,.62v77.7c0,.34,.26,.62,.58,.62h2.12c.32,0,.58-.28,.58-.62V67.33c0-.34-.26-.62-.58-.62Z" style="fill:#c96237;"/><path d="M232.12,66.71h2.12c.31,0,.58,.27,.58,.62v77.7c0,.33-.25,.62-.58,.62h-2.12c-.31,0-.58-.27-.58-.62V67.33c0-.33,.25-.62,.58-.62Z" style="fill:#c96237;"/><path d="M240.19,66.71h2.12c.31,0,.58,.27,.58,.62v77.7c0,.33-.25,.62-.58,.62h-2.12c-.31,0-.58-.27-.58-.62V67.33c0-.33,.25-.62,.58-.62Z" style="fill:#c96237;"/><path d="M248.27,66.71h2.12c.31,0,.58,.27,.58,.62v77.7c0,.33-.25,.62-.58,.62h-2.12c-.31,0-.58-.27-.58-.62V67.33c0-.33,.25-.62,.58-.62Z" style="fill:#c96237;"/><path d="M256.36,66.71h2.12c.31,0,.58,.27,.58,.62v77.7c0,.33-.25,.62-.58,.62h-2.12c-.31,0-.58-.27-.58-.62V67.33c0-.33,.25-.62,.58-.62Z" style="fill:#c96237;"/><path d="M266.56,66.71h-2.12c-.32,0-.58,.28-.58,.62v77.7c0,.34,.26,.62,.58,.62h2.12c.32,0,.58-.28,.58-.62V67.33c0-.34-.26-.62-.58-.62Z" style="fill:#c96237;"/><path d="M272.53,66.71h2.12c.31,0,.58,.27,.58,.62v77.7c0,.33-.25,.62-.58,.62h-2.12c-.31,0-.58-.27-.58-.62V67.33c0-.33,.25-.62,.58-.62Z" style="fill:#c96237;"/><path d="M280.61,66.71h2.12c.31,0,.58,.27,.58,.62v77.7c0,.33-.25,.62-.58,.62h-2.12c-.31,0-.58-.27-.58-.62V67.33c0-.33,.25-.62,.58-.62Z" style="fill:#c96237;"/><path d="M288.7,66.71h2.12c.31,0,.58,.27,.58,.62v77.7c0,.33-.25,.62-.58,.62h-2.12c-.31,0-.58-.27-.58-.62V67.33c0-.33,.25-.62,.58-.62Z" style="fill:#c96237;"/><path d="M296.76,66.71h2.12c.31,0,.58,.27,.58,.62v77.7c0,.33-.25,.62-.58,.62h-2.12c-.31,0-.58-.27-.58-.62V67.33c0-.33,.25-.62,.58-.62Z" style="fill:#c96237;"/><g style="opacity:.5;"><path d="M169.1,66.71h.48c.31,0,.58,.27,.58,.62v77.7c0,.33-.25,.62-.58,.62h-.48c-.31,0-.58-.27-.58-.62V67.33c0-.33,.25-.62,.58-.62Z" style="fill:#a45625;"/><path d="M177.19,66.71h.48c.31,0,.58,.27,.58,.62v77.7c0,.33-.25,.62-.58,.62h-.48c-.31,0-.58-.27-.58-.62V67.33c0-.33,.25-.62,.58-.62Z" style="fill:#a45625;"/><path d="M185.27,66.71h.48c.31,0,.58,.27,.58,.62v77.7c0,.33-.25,.62-.58,.62h-.48c-.31,0-.58-.27-.58-.62V67.33c0-.33,.25-.62,.58-.62Z" style="fill:#a45625;"/><path d="M193.84,66.71h-.48c-.32,0-.58,.28-.58,.62v77.7c0,.34,.26,.62,.58,.62h.48c.32,0,.58-.28,.58-.62V67.33c0-.34-.26-.62-.58-.62Z" style="fill:#a45625;"/><path d="M201.42,66.71h.48c.31,0,.58,.27,.58,.62v77.7c0,.33-.25,.62-.58,.62h-.48c-.31,0-.58-.27-.58-.62V67.33c0-.33,.25-.62,.58-.62Z" style="fill:#a45625;"/><path d="M209.99,66.71h-.48c-.32,0-.58,.28-.58,.62v77.7c0,.34,.26,.62,.58,.62h.48c.32,0,.58-.28,.58-.62V67.33c0-.34-.26-.62-.58-.62Z" style="fill:#a45625;"/><path d="M218.08,66.71h-.48c-.32,0-.58,.28-.58,.62v77.7c0,.34,.26,.62,.58,.62h.48c.32,0,.58-.28,.58-.62V67.33c0-.34-.26-.62-.58-.62Z" style="fill:#a45625;"/><path d="M225.68,66.71h.48c.31,0,.58,.27,.58,.62v77.7c0,.33-.25,.62-.58,.62h-.48c-.31,0-.58-.27-.58-.62V67.33c0-.33,.25-.62,.58-.62Z" style="fill:#a45625;"/><path d="M233.76,66.71h.48c.31,0,.58,.27,.58,.62v77.7c0,.33-.25,.62-.58,.62h-.48c-.31,0-.58-.27-.58-.62V67.33c0-.33,.25-.62,.58-.62Z" style="fill:#a45625;"/><path d="M241.83,66.71h.48c.31,0,.58,.27,.58,.62v77.7c0,.33-.25,.62-.58,.62h-.48c-.31,0-.58-.27-.58-.62V67.33c0-.33,.25-.62,.58-.62Z" style="fill:#a45625;"/><path d="M249.91,66.71h.48c.31,0,.58,.27,.58,.62v77.7c0,.33-.25,.62-.58,.62h-.48c-.31,0-.58-.27-.58-.62V67.33c0-.33,.25-.62,.58-.62Z" style="fill:#a45625;"/><path d="M258,66.71h.48c.31,0,.58,.27,.58,.62v77.7c0,.33-.25,.62-.58,.62h-.48c-.31,0-.58-.27-.58-.62V67.33c0-.33,.25-.62,.58-.62Z" style="fill:#a45625;"/><path d="M266.08,66.71h.48c.31,0,.58,.27,.58,.62v77.7c0,.33-.25,.62-.58,.62h-.48c-.31,0-.58-.27-.58-.62V67.33c0-.33,.25-.62,.58-.62Z" style="fill:#a45625;"/><path d="M274.65,66.71h-.48c-.32,0-.58,.28-.58,.62v77.7c0,.34,.26,.62,.58,.62h.48c.32,0,.58-.28,.58-.62V67.33c0-.34-.26-.62-.58-.62Z" style="fill:#a45625;"/><path d="M282.25,66.71h.48c.31,0,.58,.27,.58,.62v77.7c0,.33-.25,.62-.58,.62h-.48c-.31,0-.58-.27-.58-.62V67.33c0-.33,.25-.62,.58-.62Z" style="fill:#a45625;"/><path d="M290.33,66.71h.48c.31,0,.58,.27,.58,.62v77.7c0,.33-.25,.62-.58,.62h-.48c-.31,0-.58-.27-.58-.62V67.33c0-.33,.25-.62,.58-.62Z" style="fill:#a45625;"/><path d="M298.4,66.71h.48c.31,0,.58,.27,.58,.62v77.7c0,.33-.25,.62-.58,.62h-.48c-.31,0-.58-.27-.58-.62V67.33c0-.33,.25-.62,.58-.62Z" style="fill:#a45625;"/></g><path d="M158.12,64.46h-55.69v83.21h55.69V64.46Z" style="fill:#feb16d;"/><path d="M158.12,61.86v85.81h5.21V61.86h-5.21Zm2.59,2.85c-.15,.02-.19,.02-.23,.02h-.15c-.56-.19-.85-.58-.85-1.05s.29-.89,.69-1.01c.04,0,.08-.02,.12-.04,.14,0,.15-.02,.19-.02,.56,0,1,.47,1,1.07v.1c-.17,.52-.21,.56-.23,.58-.39,.31-.42,.33-.48,.35h-.06Z" style="fill:#fec18a;"/><path d="M164.26,61.86h-.93v85.81h.93V61.86Z" style="fill:#c96237;"/><path d="M158.12,61.86v85.81h-3.16V61.86h3.16Z" style="fill:#f18d4f;"/><path d="M102.42,61.86v85.81h5.21V61.86h-5.21Zm2.37,2.87c-.29,0-.5-.1-.68-.27-.21-.19-.33-.47-.33-.8,0-.58,.42-1.05,.96-1.07,.6,0,1.04,.47,1.04,1.07,0,.31-.12,.6-.33,.8-.17,.16-.41,.27-.68,.27Z" style="fill:#fec18a;"/><path d="M108.56,61.86h-.93v85.81h.93V61.86Z" style="fill:#f18d4f;"/><path d="M149.64,66.71h2.12c.31,0,.58,.27,.58,.62v77.7c0,.33-.25,.62-.58,.62h-2.12c-.31,0-.58-.27-.58-.62V67.33c0-.33,.25-.62,.58-.62Z" style="fill:#c96237;"/><path d="M144.37,66.71h-2.12c-.32,0-.58,.28-.58,.62v77.7c0,.34,.26,.62,.58,.62h2.12c.32,0,.58-.28,.58-.62V67.33c0-.34-.26-.62-.58-.62Z" style="fill:#c96237;"/><path d="M134.86,66.71h2.12c.31,0,.58,.27,.58,.62v77.7c0,.33-.25,.62-.58,.62h-2.12c-.31,0-.58-.27-.58-.62V67.33c0-.33,.25-.62,.58-.62Z" style="fill:#c96237;"/><path d="M127.46,66.71h2.12c.31,0,.58,.27,.58,.62v77.7c0,.33-.25,.62-.58,.62h-2.12c-.31,0-.58-.27-.58-.62V67.33c0-.33,.25-.62,.58-.62Z" style="fill:#c96237;"/><path d="M122.22,66.71h-2.12c-.32,0-.58,.28-.58,.62v77.7c0,.34,.26,.62,.58,.62h2.12c.32,0,.58-.28,.58-.62V67.33c0-.34-.26-.62-.58-.62Z" style="fill:#c96237;"/><path d="M112.7,66.71h2.12c.31,0,.58,.27,.58,.62v77.7c0,.33-.25,.62-.58,.62h-2.12c-.31,0-.58-.27-.58-.62V67.33c0-.33,.25-.62,.58-.62Z" style="fill:#c96237;"/><path d="M152.34,67.33v77.7c0,.33-.25,.62-.58,.62-.39,0-.66-.27-.66-.62V67.33c0-.33,.25-.62,.58-.62,.39,0,.66,.27,.66,.62Z" style="fill:#f18d4f;"/><path d="M144.95,67.33v77.7c0,.33-.25,.62-.58,.62-.39,0-.66-.27-.66-.62V67.33c0-.33,.25-.62,.58-.62,.39,0,.66,.27,.66,.62Z" style="fill:#f18d4f;"/><path d="M137.56,67.33v77.7c0,.33-.25,.62-.58,.62-.39,0-.66-.27-.66-.62V67.33c0-.33,.25-.62,.58-.62,.39,0,.66,.27,.66,.62Z" style="fill:#f18d4f;"/><path d="M130.17,67.33v77.7c0,.33-.25,.62-.58,.62-.39,0-.66-.27-.66-.62V67.33c0-.33,.25-.62,.58-.62,.39,0,.64,.27,.64,.62h.02Z" style="fill:#f18d4f;"/><path d="M122.8,67.33v77.7c0,.33-.25,.62-.58,.62-.39,0-.66-.27-.66-.62V67.33c0-.33,.25-.62,.58-.62,.39,0,.66,.27,.66,.62Z" style="fill:#f18d4f;"/><path d="M115.41,67.33v77.7c0,.33-.25,.62-.58,.62-.39,0-.66-.27-.66-.62V67.33c0-.33,.25-.62,.58-.62,.39,0,.66,.27,.66,.62Z" style="fill:#f18d4f;"/><path d="M103.71,63.66c0,.6,.44,1.07,1,1.07,.12,0,.21,0,.31-.06-.41-.14-.69-.54-.69-1.01s.29-.89,.69-1.01c-.1-.04-.21-.06-.31-.06-.56,0-1,.47-1,1.07Z" style="fill:#c96237;"/><path d="M277.29,154.45H136.51v11.95h140.78v-11.95Z" style="fill:#342745;"/><path d="M237.04,159.42h52.89c.39,0,.69,.33,.69,.74v4.58c0,.41-.31,.74-.69,.74h-52.89v-6.07Z" style="fill:#b5c8e8;"/><path d="M236.06,159.42h52.89c.39,0,.69,.33,.69,.74v4.58c0,.41-.31,.74-.69,.74h-52.89v-6.07Z" style="fill:#7e94c6;"/><path d="M235.13,170.68h52.89c.39,0,.69,.33,.69,.74v7.51c0,.41-.31,.74-.69,.74h-52.89v-9Z" style="fill:#b5c8e8;"/><path d="M234.17,170.68h52.89c.39,0,.69,.33,.69,.74v7.51c0,.41-.31,.74-.69,.74h-52.89v-9Z" style="fill:#b5c8e8;"/><path d="M275.96,172.79c0-6.31-2.14-11.97-5.5-15.66l1.14-4.5h-10.52c-8.22,0-14.88,9.02-14.88,20.16s6.66,20.16,14.88,20.16h10.52l-1.14-4.5c3.36-3.69,5.5-9.33,5.5-15.66Z" style="fill:#342745;"/><path d="M271.58,192.95c8.22,0,14.88-9.03,14.88-20.16s-6.66-20.16-14.88-20.16-14.88,9.03-14.88,20.16,6.66,20.16,14.88,20.16Z" style="fill:#493a5b;"/><path d="M280.73,172.79c0,7.59-4.19,14.01-9.15,14.01h-.31c-4.82-.27-8.84-6.56-8.84-14.01s4.01-13.74,8.84-14.01h.31c4.96,0,9.15,6.42,9.15,14.01Z" style="fill:#7e94c6;"/><path d="M280.11,172.79c0,7.43-4.01,13.74-8.82,14.01-4.82-.27-8.84-6.56-8.84-14.01s4.01-13.74,8.84-14.01c4.8,.27,8.82,6.56,8.82,14.01Z" style="fill:#d0dcf2;"/><path d="M271.18,178.69c-2.08,0-3.84-2.7-3.84-5.9s1.76-5.9,3.84-5.9,3.84,2.7,3.84,5.9-1.76,5.9-3.84,5.9Z" style="fill:#e3eaf7;"/><path d="M271.58,178.69c-2.08,0-3.84-2.7-3.84-5.9s1.76-5.9,3.84-5.9,3.84,2.7,3.84,5.9-1.76,5.9-3.84,5.9Z" style="fill:#e3eaf7;"/><path d="M272.12,174.23c.52,0,.95-.65,.95-1.44s-.42-1.44-.95-1.44-.95,.65-.95,1.44,.42,1.44,.95,1.44Z" style="fill:#f4f7fc;"/><path d="M270.44,163.4c0,.68,.31,1.26,.73,1.4,.08,.02,.13,.04,.21,.04,.5,0,.94-.66,.94-1.44s-.42-1.44-.94-1.44c-.08,0-.14,0-.21,.04-.41,.14-.73,.74-.73,1.4Z" style="fill:#7e94c6;"/><path d="M263.82,172.85c0,.68,.31,1.26,.73,1.4,.08,.02,.13,.04,.21,.04,.5,0,.95-.66,.95-1.44s-.42-1.44-.95-1.44c-.08,0-.13,0-.21,.04-.41,.14-.73,.74-.73,1.4Z" style="fill:#7e94c6;"/><path d="M266.06,166.39c0,.68,.33,1.26,.73,1.4,.08,.02,.13,.04,.21,.04,.5,0,.94-.66,.94-1.44s-.42-1.44-.94-1.44c-.08,0-.14,0-.21,.04-.41,.14-.73,.74-.73,1.4Z" style="fill:#7e94c6;"/><path d="M275.23,179.89c0,.68,.33,1.26,.73,1.4,.08,.02,.13,.04,.21,.04,.5,0,.95-.66,.95-1.44s-.42-1.44-.95-1.44c-.08,0-.13,0-.21,.04-.41,.14-.73,.74-.73,1.4Z" style="fill:#7e94c6;"/><path d="M265.66,179.89c0,.68,.31,1.26,.73,1.4,.08,.02,.14,.04,.21,.04,.5,0,.95-.66,.95-1.44s-.42-1.44-.95-1.44c-.08,0-.13,0-.21,.04-.4,.14-.73,.74-.73,1.4Z" style="fill:#7e94c6;"/><path d="M275.23,166.89c0,.68,.33,1.26,.73,1.4,.08,.02,.13,.04,.21,.04,.5,0,.95-.66,.95-1.44s-.42-1.44-.95-1.44c-.08,0-.13,0-.21,.04-.41,.14-.73,.74-.73,1.4Z" style="fill:#7e94c6;"/><path d="M276.56,172.85c0,.68,.33,1.26,.73,1.4,.08,.02,.13,.04,.21,.04,.5,0,.95-.66,.95-1.44s-.43-1.44-.95-1.44c-.08,0-.16,0-.21,.04-.4,.14-.73,.74-.73,1.4Z" style="fill:#7e94c6;"/><path d="M270.44,182.49c0,.68,.31,1.26,.73,1.4,.08,.02,.13,.04,.21,.04,.5,0,.94-.66,.94-1.44s-.42-1.44-.94-1.44c-.08,0-.14,0-.21,.04-.41,.14-.73,.74-.73,1.4Z" style="fill:#7e94c6;"/><path d="M270.44,163.4c0,.68,.31,1.26,.73,1.4,.41-.14,.73-.74,.73-1.4s-.33-1.26-.73-1.4c-.41,.14-.73,.74-.73,1.4Z" style="fill:#b5c8e8;"/><path d="M263.82,172.85c0,.68,.31,1.26,.73,1.4,.4-.14,.73-.74,.73-1.4s-.33-1.26-.73-1.4c-.41,.14-.73,.74-.73,1.4Z" style="fill:#b5c8e8;"/><path d="M266.06,166.39c0,.68,.33,1.26,.73,1.4,.41-.14,.73-.74,.73-1.4s-.31-1.26-.73-1.4c-.41,.14-.73,.74-.73,1.4Z" style="fill:#b5c8e8;"/><path d="M275.23,179.89c0,.68,.33,1.26,.73,1.4,.41-.14,.73-.74,.73-1.4s-.33-1.26-.73-1.4c-.41,.14-.73,.74-.73,1.4Z" style="fill:#b5c8e8;"/><path d="M265.66,179.89c0,.68,.31,1.26,.73,1.4,.41-.14,.73-.74,.73-1.4s-.33-1.26-.73-1.4c-.4,.14-.73,.74-.73,1.4Z" style="fill:#b5c8e8;"/><path d="M275.23,166.89c0,.68,.33,1.26,.73,1.4,.41-.14,.73-.74,.73-1.4s-.33-1.26-.73-1.4c-.41,.14-.73,.74-.73,1.4Z" style="fill:#b5c8e8;"/><path d="M276.56,172.85c0,.68,.33,1.26,.73,1.4,.41-.14,.73-.74,.73-1.4s-.33-1.26-.73-1.4c-.4,.14-.73,.74-.73,1.4Z" style="fill:#b5c8e8;"/><path d="M270.44,182.49c0,.68,.31,1.26,.73,1.4,.41-.14,.73-.74,.73-1.4s-.33-1.26-.73-1.4c-.41,.14-.73,.74-.73,1.4Z" style="fill:#b5c8e8;"/><path d="M215.27,159.42h-80.48c-.76,0-1.37,.66-1.37,1.46v17.56c0,.81,.61,1.46,1.37,1.46h80.48c.76,0,1.37-.66,1.37-1.46v-17.56c0-.81-.61-1.46-1.37-1.46Z" style="fill:#fff;"/><path d="M215.3,180.01h-80.5c-.81,0-1.47-.7-1.47-1.57v-17.58c0-.87,.66-1.57,1.47-1.57h80.5c.81,0,1.47,.7,1.47,1.57v17.58c0,.87-.66,1.57-1.47,1.57Zm-80.5-20.49c-.69,0-1.25,.6-1.25,1.34v17.58c0,.74,.56,1.34,1.25,1.34h80.5c.69,0,1.25-.6,1.25-1.34v-17.58c0-.74-.56-1.34-1.25-1.34h-80.5Z"/><path d="M216.99,159.42h-80.48c-.76,0-1.37,.66-1.37,1.46v17.56c0,.81,.61,1.46,1.37,1.46h80.48c.76,0,1.37-.66,1.37-1.46v-17.56c0-.81-.61-1.46-1.37-1.46Z" style="fill:#7e94c6;"/><path d="M218.19,163.01h-84.15c-.68,0-1.22-.58-1.22-1.3v-.1c0-.72,.54-1.3,1.22-1.3h84.44c.62,0,1.12,.54,1.12,1.2,0,.83-.64,1.51-1.41,1.51Z" style="fill:#d0dcf2;"/><path d="M218.19,178.46h-84.15c-.68,0-1.22-.58-1.22-1.3v-.1c0-.72,.54-1.3,1.22-1.3h84.44c.62,0,1.12,.54,1.12,1.2,0,.83-.64,1.51-1.41,1.51Z" style="fill:#d0dcf2;"/><path d="M142.46,51.12v118.8c0,5.88-4.46,10.65-9.96,10.65h-26.74V50.45h36.08c.23,.04,.27,.06,.29,.08,.17,.1,.31,.29,.33,.52v.06Z" style="fill:#c96237;"/><path d="M140.05,50.45v119.47c0,5.88-4.46,10.65-9.96,10.65h-26.74V50.45h36.7Z" style="fill:#f18d4f;"/><path d="M68.96,71.5h52.12c4.48,0,8.12,3.9,8.12,8.69v8.19h-60.24v-16.88Z" style="fill:#fed0a7;"/><path d="M27.03,71.5h53.08c-5.44,.21-9.8,4.97-9.8,10.85v4.7H16.9" style="fill:#ffecdc;"/><path d="M22.29,172.79c0-11.14,6.66-20.16,14.88-20.16s14.88,9.02,14.88,20.16-6.66,20.16-14.88,20.16-14.88-9.02-14.88-20.16Z" style="fill:#493a5b;"/><path d="M129.2,149.1v31.47h-32.09c0-.62,0-1.22,.06-1.82,.77-14.38,10.55-26.16,23.41-28.99,1.93-.43,3.92-.64,5.96-.64h2.66v-.02Z" style="fill:#fff;"/><path d="M129.2,180.69h-32.09s-.1-.04-.1-.1c0-.62,0-1.24,.06-1.82,.75-14.26,10.42-26.22,23.48-29.09,1.95-.43,3.97-.64,5.98-.64h2.66s.1,.04,.1,.1v31.47s-.04,.1-.1,.1v-.02Zm-31.99-.23h31.88v-31.24h-2.57c-2.01,0-4.01,.23-5.94,.64-12.99,2.87-22.58,14.75-23.33,28.89-.04,.56-.04,1.13-.04,1.71Z"/><path d="M140.7,164.39v5.78c0,5.36-4.07,9.72-9.09,9.72h-22.04v-26.53l12.06-3.82,9.47,.35,4.52,2.79,2.97,3.88,1.45,3.47,.54,2.54,.1,1.82,.02,.02Z" style="fill:#342745;"/><path d="M126.02,172.79c0-6.31-2.14-11.97-5.5-15.66l1.14-4.5h-10.52c-8.22,0-14.88,9.02-14.88,20.16s6.66,20.16,14.88,20.16h10.52l-1.14-4.5c3.36-3.69,5.5-9.33,5.5-15.66Z" style="fill:#342745;"/><path d="M136.51,172.79c0,11.14-6.66,20.16-14.88,20.16s-14.88-9.02-14.88-20.16,6.66-20.16,14.88-20.16,14.88,9.02,14.88,20.16Z" style="fill:#493a5b;"/><path d="M130.76,172.79c0,7.59-4.19,14.01-9.13,14.01h-.31c-4.82-.27-8.82-6.56-8.82-14.01s4.01-13.74,8.82-14.01h.31c4.96,0,9.13,6.42,9.13,14.01Z" style="fill:#7e94c6;"/><path d="M130.15,172.79c0,7.43-4.01,13.74-8.82,14.01-4.82-.27-8.82-6.56-8.82-14.01s4.01-13.74,8.82-14.01c4.82,.27,8.82,6.56,8.82,14.01Z" style="fill:#d0dcf2;"/><path d="M121.23,178.69c2.12,0,3.84-2.64,3.84-5.9s-1.72-5.9-3.84-5.9-3.84,2.64-3.84,5.9,1.72,5.9,3.84,5.9Z" style="fill:#e3eaf7;"/><path d="M121.64,178.69c-2.08,0-3.84-2.7-3.84-5.9s1.76-5.9,3.84-5.9,3.84,2.7,3.84,5.9-1.76,5.9-3.84,5.9Z" style="fill:#e3eaf7;"/><path d="M121.97,174.23c.52,0,.95-.65,.95-1.44s-.42-1.44-.95-1.44-.95,.65-.95,1.44,.42,1.44,.95,1.44Z" style="fill:#e3eaf7;"/><path d="M122.27,174.23c-.5,0-.95-.66-.95-1.44s.42-1.44,.95-1.44,.95,.66,.95,1.44-.42,1.44-.95,1.44Z" style="fill:#f4f7fc;"/><path d="M120.5,163.4c0,.68,.31,1.26,.73,1.4,.08,.02,.13,.04,.21,.04,.52,0,.95-.66,.95-1.44s-.42-1.44-.95-1.44c-.08,0-.13,0-.21,.04-.41,.14-.73,.74-.73,1.4Z" style="fill:#7e94c6;"/><path d="M113.88,172.85c0,.68,.33,1.26,.73,1.4,.08,.02,.14,.04,.21,.04,.5,0,.95-.66,.95-1.44s-.42-1.44-.95-1.44c-.08,0-.14,0-.21,.04-.41,.14-.73,.74-.73,1.4Z" style="fill:#7e94c6;"/><path d="M116.12,166.39c0,.68,.31,1.26,.73,1.4,.06,.02,.14,.04,.21,.04,.5,0,.95-.66,.95-1.44s-.42-1.44-.95-1.44c-.08,0-.15,0-.21,.04-.41,.14-.73,.74-.73,1.4Z" style="fill:#7e94c6;"/><path d="M125.28,179.91c0,.68,.33,1.26,.73,1.4,.08,.02,.14,.04,.21,.04,.5,0,.95-.66,.95-1.44s-.42-1.44-.95-1.44c-.08,0-.14,0-.21,.04-.41,.14-.73,.74-.73,1.4Z" style="fill:#7e94c6;"/><path d="M115.71,179.91c0,.68,.33,1.26,.73,1.4,.06,.02,.13,.04,.21,.04,.5,0,.95-.66,.95-1.44s-.42-1.44-.95-1.44c-.08,0-.15,0-.21,.04-.41,.14-.73,.74-.73,1.4Z" style="fill:#7e94c6;"/><path d="M125.28,166.89c0,.68,.33,1.26,.73,1.4,.08,.02,.14,.04,.21,.04,.5,0,.95-.66,.95-1.44s-.42-1.44-.95-1.44c-.08,0-.14,0-.21,.04-.41,.14-.73,.74-.73,1.4Z" style="fill:#7e94c6;"/><path d="M126.62,172.85c0,.68,.31,1.26,.73,1.4,.08,.02,.13,.04,.21,.04,.52,0,.95-.66,.95-1.44s-.42-1.44-.95-1.44c-.08,0-.13,0-.21,.04-.41,.14-.73,.74-.73,1.4Z" style="fill:#7e94c6;"/><path d="M120.5,182.49c0,.68,.31,1.26,.73,1.4,.08,.02,.13,.04,.21,.04,.52,0,.95-.66,.95-1.44s-.42-1.44-.95-1.44c-.08,0-.13,0-.21,.04-.41,.14-.73,.74-.73,1.4Z" style="fill:#7e94c6;"/><path d="M120.5,163.4c0,.68,.31,1.26,.73,1.4,.41-.14,.73-.74,.73-1.4s-.33-1.26-.73-1.4c-.41,.14-.73,.74-.73,1.4Z" style="fill:#b5c8e8;"/><path d="M113.88,172.85c0,.68,.33,1.26,.73,1.4,.41-.14,.73-.74,.73-1.4s-.33-1.26-.73-1.4c-.41,.14-.73,.74-.73,1.4Z" style="fill:#b5c8e8;"/><path d="M116.12,166.39c0,.68,.31,1.26,.73,1.4,.41-.14,.73-.74,.73-1.4s-.33-1.26-.73-1.4c-.41,.14-.73,.74-.73,1.4Z" style="fill:#b5c8e8;"/><path d="M125.28,179.91c0,.68,.33,1.26,.73,1.4,.41-.14,.73-.74,.73-1.4s-.33-1.26-.73-1.4c-.41,.14-.73,.74-.73,1.4Z" style="fill:#b5c8e8;"/><path d="M115.71,179.91c0,.68,.33,1.26,.73,1.4,.41-.14,.73-.74,.73-1.4s-.31-1.26-.73-1.4c-.41,.14-.73,.74-.73,1.4Z" style="fill:#b5c8e8;"/><path d="M125.28,166.89c0,.68,.33,1.26,.73,1.4,.41-.14,.73-.74,.73-1.4s-.33-1.26-.73-1.4c-.41,.14-.73,.74-.73,1.4Z" style="fill:#b5c8e8;"/><path d="M126.62,172.85c0,.68,.31,1.26,.73,1.4,.41-.14,.73-.74,.73-1.4s-.31-1.26-.73-1.4c-.41,.14-.73,.74-.73,1.4Z" style="fill:#b5c8e8;"/><path d="M120.5,182.49c0,.68,.31,1.26,.73,1.4,.41-.14,.73-.74,.73-1.4s-.33-1.26-.73-1.4c-.41,.14-.73,.74-.73,1.4Z" style="fill:#b5c8e8;"/><path d="M125.46,84.4h-47.58l-3.53,43.66v52.53h3.67v1.92h19.14v-3.73c.77-14.38,10.55-26.18,23.41-29.01l7.93-.64,.69-.06v-60.66c0-2.21-1.68-3.98-3.72-3.98v-.02Z" style="fill:#feb16d;"/><path d="M5.29,128.06H74.37v21.05H5.29" style="fill:#fed0a7;"/><path d="M6.27,149.1H75.56c.42,0,.77,.37,.77,.83v15.64c0,.45-.35,.83-.77,.83H6.27" style="fill:#c96237;"/><path d="M5.17,149.1H74.46c.42,0,.77,.37,.77,.83v15.64c0,.45-.35,.83-.77,.83H5.17" style="fill:#feb16d;"/><path d="M5.29,166.39H74.37v14.17H5.29" style="fill:#fed0a7;"/><path d="M15.63,84.4h62.25c1.72,0,3.03,1.65,2.74,3.47l-6.27,40.19H5.29" style="fill:#fed0a7;"/><path d="M10.63,124.75s46.85,.21,62.15,.23c0,.56-.27,1.05-.69,1.36-4.42,3.22-7.62,8.89-9.88,14.55-3.11,7.78-4.63,16.16-4.63,24.59v12.3c0,.93-.71,1.69-1.58,1.69H19.39" style="fill:#feb16d;"/><path d="M61.78,171.1h9.51c.81,0,1.47,.7,1.47,1.57v3.18h-12.16v-3.51c0-.7,.52-1.26,1.18-1.26v.02Z" style="fill:#c96237;"/><path d="M60.49,171.1h9.51c.81,0,1.47,.7,1.47,1.57v3.18h-12.16v-3.51c0-.7,.52-1.26,1.18-1.26v.02Z" style="fill:#feb16d;"/><path d="M61.36,171.67h.29v.12c.31,.27,.5,.91,.5,1.69s-.21,1.42-.5,1.67v.12h-.29c-.44,0-.81-.8-.81-1.82s.37-1.82,.81-1.82v.02Z" style="fill:#c96237;"/><path d="M60.86,173.49c0,.99,.37,1.82,.81,1.82s.81-.8,.81-1.82-.37-1.82-.81-1.82-.81,.8-.81,1.82Z" style="fill:#fed0a7;"/><path d="M65.12,171.67h.29v.12c.31,.27,.52,.91,.52,1.69s-.21,1.42-.52,1.67v.12h-.29c-.44,0-.81-.8-.81-1.82s.37-1.82,.81-1.82v.02Z" style="fill:#c96237;"/><path d="M64.62,173.49c0,.99,.37,1.82,.81,1.82s.81-.8,.81-1.82-.37-1.82-.81-1.82-.81,.8-.81,1.82Z" style="fill:#fed0a7;"/><path d="M68.54,171.67h.29v.12c.31,.27,.52,.91,.52,1.69s-.21,1.42-.52,1.67v.12h-.29c-.44,0-.81-.8-.81-1.82s.37-1.82,.81-1.82v.02Z" style="fill:#c96237;"/><path d="M68.02,173.49c0,.99,.37,1.82,.81,1.82s.81-.8,.81-1.82-.37-1.82-.81-1.82-.81,.8-.81,1.82Z" style="fill:#fed0a7;"/><path d="M9.05,124.75s50.42,.23,63.73,.23c-4.63,2.25-8.1,7.14-10.65,12.48-.54,1.13-1.04,2.29-1.5,3.43-3.11,7.78-4.63,16.16-4.63,24.59v13.97H19.39" style="fill:#ffecdc;"/><path d="M15.03,87.47h61.34c1.2,0,2.1,1.13,1.89,2.39l-5.21,33.38c-.15,.99-.96,1.71-1.91,1.71H10.09" style="fill:#f18d4f;"/><path d="M15.03,89h59.41c1.31,.14,2.28,1.44,2.06,2.87l-1.35,8.62-2.82,18.01-.44,2.85c-.19,1.2-1.16,2.06-2.28,2.06H10.11" style="fill:#493a5b;"/><path d="M9.05,124.75s50.42,.23,63.73,.23c-4.63,2.25-8.1,7.14-10.65,12.48H14.12" style="fill:#ffecdc;"/><path d="M17.37,140.06H57.25c.69,0,1.27,.62,1.27,1.36,0,.37-.13,.72-.37,.97-.23,.25-.56,.39-.91,.39H17.37" style="fill:#c96237;"/><path d="M19.53,149.06H55.09c.71,0,1.27,.62,1.27,1.36,0,.37-.13,.72-.37,.97-.23,.25-.54,.39-.91,.39H19.53" style="fill:#c96237;"/><path d="M21.15,158.06H53.47c.71,0,1.27,.62,1.27,1.36,0,.37-.13,.72-.37,.97-.23,.25-.54,.39-.91,.39H21.15" style="fill:#c96237;"/><path d="M22.09,167.05h30.41c.71,0,1.27,.6,1.27,1.36,0,.37-.13,.72-.37,.97-.23,.25-.54,.39-.91,.39H22.09" style="fill:#c96237;"/><path d="M18.18,140.06H57.23c.69,0,1.27,.62,1.27,1.36,0,.37-.13,.72-.37,.97-.23,.25-.56,.39-.91,.39H18.18" style="fill:#f18d4f;"/><path d="M20.34,149.06H55.09c.71,0,1.27,.62,1.27,1.36,0,.37-.13,.72-.37,.97-.23,.25-.54,.39-.91,.39H20.34" style="fill:#f18d4f;"/><path d="M21.96,158.06h31.51c.71,0,1.27,.62,1.27,1.36,0,.37-.13,.72-.37,.97-.23,.25-.54,.39-.91,.39H21.96" style="fill:#f18d4f;"/><path d="M22.9,167.05h29.6c.71,0,1.27,.6,1.27,1.36,0,.37-.13,.72-.37,.97-.23,.25-.54,.39-.91,.39H22.88" style="fill:#f18d4f;"/><path d="M22.02,128.65H54.72c1.81,0,3.28,1.57,3.28,3.51v1.94c0,.93-.69,1.67-1.56,1.67H20.3" style="fill:#c96237;"/><path d="M21.36,128.65H54.07c1.81,0,3.28,1.57,3.28,3.51v1.94c0,.93-.69,1.67-1.56,1.67H19.64" style="fill:#f18d4f;"/><path d="M82.87,89h24.08c1.02,0,1.85,.89,1.85,1.98v27.69c0,1.03-.73,1.88-1.68,1.96l-28.58,2.7c-1.04,.1-1.91-.89-1.76-2l4.48-30.87c.12-.85,.81-1.46,1.6-1.46Z" style="fill:#c96237;"/><path d="M107.36,90.98v27.69c0,.14-.06,.25-.15,.33-.06,.06-.14,.1-.23,.1l-11.38,1.07-5.19,.5h-.25l-3.15,.33-3.36,.31-5.21,.5s-.14-.04-.15-.06c-.06-.06-.06-.14-.04-.16l4.48-30.87s.1-.16,.19-.16h24.08c.23,0,.41,.21,.41,.43h-.04Z" style="fill:#493a5b;"/><path d="M125.63,90.73v26.55c0,.91-.64,1.65-1.49,1.73l-10.94,1.03c-1.04,.1-1.95-.78-1.95-1.9v-27.24c0-1.05,.81-1.92,1.79-1.92h10.94c.89,0,1.62,.78,1.62,1.73h.02Z" style="fill:#c96237;"/><path d="M124.2,90.73v26.55c0,.1-.08,.19-.17,.21l-10.94,1.03c-.12,0-.19-.02-.23-.08-.1-.06-.15-.19-.15-.31v-27.24c0-.21,.15-.37,.37-.37h10.94c.1,0,.19,.08,.19,.21Z" style="fill:#493a5b;"/><path d="M88.01,101.81l-.6,12.38-.15,2.99c-.08,1.44-1.18,2.58-2.53,2.58h-2.97c-1.41,0-2.53-1.22-2.53-2.7v-16.59c0-1.51,1.14-2.7,2.53-2.7h2.62c2.08,0,3.72,1.86,3.63,4.09v-.04Z" style="fill:#342745;"/><path d="M87.08,101.81l-.69,14.32-.06,1.05c-.06,1.18-.81,2.13-1.79,2.46-.23,.06-.48,.1-.73,.1h-2.97c-1.41,0-2.53-1.22-2.53-2.7v-16.59c0-1.51,1.14-2.7,2.53-2.7h2.62c2.08,0,3.72,1.86,3.63,4.09v-.02Z" style="fill:#342745;"/><path d="M78.28,102.33h-1.16c-.33,0-.6,.29-.6,.64,0,.47,.37,.87,.81,.87h.96v-1.51h-.02Z" style="fill:#493a5b;"/><path d="M78.28,115.55h-2.97c-.35,0-.62,.29-.62,.66,0,.47,.35,.85,.79,.85h2.82v-1.51h-.02Z" style="fill:#493a5b;"/><path d="M95.3,136.04c-.68,0-1.22-.58-1.22-1.3v-4.06c0-.72,.54-1.3,1.22-1.3h6.19c.37,0,.69,.16,.93,.45,.23,.29,.33,.68,.27,1.05l-.95,4.06c-.1,.62-.6,1.07-1.2,1.07h-5.25v.02Z" style="fill:#fed0a7;"/><path d="M95.61,136.04c-.68,0-1.22-.58-1.22-1.3v-4.06c0-.72,.54-1.3,1.22-1.3h6.19c.37,0,.69,.16,.93,.45,.23,.29,.33,.68,.27,1.05l-.95,4.06c-.1,.62-.6,1.07-1.2,1.07h-5.25v.02Z" style="fill:#fed0a7;"/><path d="M102.54,130.82l-.95,4.06c-.06,.39-.37,.66-.73,.66h-5.25c-.41,0-.75-.35-.75-.8v-4.06c0-.43,.33-.8,.75-.8h6.19c.46,0,.81,.45,.73,.95Z" style="fill:#f18d4f;"/><path d="M101.9,130.82l-.95,4.06c-.06,.39-.37,.66-.73,.66h-4.61c-.41,0-.75-.35-.75-.8v-4.06c0-.43,.33-.8,.75-.8h5.56c.46,0,.81,.45,.73,.95Z" style="fill:#feb16d;"/><path d="M100.41,133.32h-4.26c-.27,0-.5-.25-.5-.54s.23-.54,.5-.54h4.26c.27,0,.5,.25,.5,.54s-.23,.54-.5,.54Z" style="fill:#f18d4f;"/><path d="M100.76,133.32h-4.26c-.29,0-.5-.25-.5-.54s.23-.54,.5-.54h4.26c.29,0,.5,.25,.5,.54s-.23,.54-.5,.54Z" style="fill:#fed0a7;"/><path d="M124.63,133.54v3.76c0,3.47-2.62,6.27-5.87,6.27h-7.93c-.58,0-1.06-.41-1.2-1.01l-2.01-8.71c-.19-.85,.41-1.65,1.22-1.65h14.55c.69,0,1.23,.6,1.23,1.32v.02Z" style="fill:#fed0a7;"/><path d="M125.48,133.54v3.76c0,3.47-2.62,6.27-5.87,6.27h-.85c3.24,0,5.87-2.81,5.87-6.27v-3.76c0-.72-.56-1.32-1.23-1.32h.85c.69,0,1.23,.6,1.23,1.32Z" style="fill:#c96237;"/><path d="M124.63,133.54v3.76c0,3.47-2.62,6.27-5.87,6.27h-7.08c-.58,0-1.06-.41-1.22-1.01l-2.01-8.71c-.19-.85,.41-1.65,1.2-1.65h13.7c.69,0,1.23,.6,1.23,1.32l.04,.02Z" style="fill:#f18d4f;"/><path d="M68.75,86.11h5.69c.33,0,.62-.29,.62-.66v-.6c0-1.2-.91-2.17-2.03-2.17h-4.26c-.33,0-.62,.29-.62,.66v2.1c0,.35,.27,.66,.62,.66h-.02Z" style="fill:#c96237;"/><path d="M61.8,86.11h-5.67c-.33,0-.62-.29-.62-.66v-2.1c0-.35,.27-.66,.62-.66h4.26c1.12,0,2.03,.97,2.03,2.17v.6c0,.35-.27,.66-.62,.66Z" style="fill:#c96237;"/><path d="M67.03,86.11h5.69c.33,0,.62-.29,.62-.66v-.6c0-1.2-.91-2.17-2.03-2.17h-4.26c-.33,0-.62,.29-.62,.66v2.1c0,.35,.27,.66,.62,.66h-.02Z" style="fill:#feb16d;"/><path d="M54.39,86.11h5.69c.33,0,.62-.29,.62-.66v-.6c0-1.2-.91-2.17-2.03-2.17h-4.26c-.33,0-.62,.29-.62,.66v2.1c0,.35,.27,.66,.62,.66h-.02Z" style="fill:#feb16d;"/><path d="M31.64,71.5c1.04-1.57,2.18-3.05,3.38-4.48,.37-.43,.73-.85,1.1-1.26,8.8-9.72,20.99-15.31,33.84-15.31h71.86c.12,0,.21,.02,.31,.08,.12,.08,.21,.19,.27,.33,.02,.06,.04,.12,.06,.19v.06c-.81,.14-1.6,.31-2.39,.5-9.05,2.1-17.35,7.02-23.83,14.15-.37,.41-.73,.85-1.1,1.26-1.2,1.4-2.32,2.91-3.38,4.48H31.66" style="fill:#fed0a7;"/><path d="M67.01,71.5h-25.47c0-.76,.58-1.36,1.27-1.36h22.9c.35,0,.68,.14,.91,.39,.23,.25,.39,.6,.39,.97Z" style="fill:#c96237;"/><path d="M67.01,71.5h-23.73c0-.76,.58-1.36,1.27-1.36h21.17c.35,0,.68,.14,.91,.39,.23,.25,.39,.6,.39,.97Z" style="fill:#f18d4f;"/><path d="M140.04,65.76v1.26h-24.93c.37-.43,.73-.85,1.1-1.26h23.83Z" style="fill:#c96237;"/><path d="M116.24,65.76c-.37,.41-.73,.85-1.1,1.26H35.04c.37-.43,.73-.85,1.1-1.26H116.24Z" style="fill:#f18d4f;"/><path d="M140.7,164.39c-.06-.78-.15-1.57-.31-2.33-.15-.76-.37-1.51-.62-2.25-.52-1.44-1.22-2.81-2.12-4-.87-1.22-1.93-2.25-3.09-3.14-.58-.43-1.2-.8-1.81-1.16-.62-.33-1.29-.6-1.95-.85-.68-.23-1.35-.39-2.05-.52-.35-.06-.69-.1-1.04-.14-.35,0-.69-.04-1.04-.04h-1.66l-.54,.04h-.54c-.17,.02-.37,.04-.54,.06l-1.06,.1c-1.43,.19-2.84,.45-4.21,.85-1.39,.39-2.72,.91-4.03,1.53l-.48,.23-.25,.12-.23,.12-.95,.52-.93,.56c-.15,.08-.31,.21-.46,.31l-.44,.31c-1.2,.83-2.33,1.75-3.42,2.76-1.06,1.01-2.06,2.13-2.97,3.3l-.35,.45c-.12,.14-.23,.29-.33,.45l-.64,.93-.6,.95-.15,.25-.13,.25-.27,.5c-.73,1.32-1.39,2.7-1.95,4.13-.54,1.42-.98,2.91-1.33,4.42-.37,1.51-.56,3.05-.71,4.62-.02,.39-.06,.78-.08,1.18l-.06,1.2c-.06,.78-.1,1.59-.15,2.37-.06-.78-.1-1.59-.15-2.37l-.06-1.2c0-.39-.02-.8-.04-1.2v-1.2c.02-.39,.02-.8,.08-1.2,.04-.39,.06-.8,.1-1.2l.15-1.2c.23-1.59,.6-3.18,1.06-4.7l.39-1.16c.14-.37,.29-.74,.42-1.13,.13-.37,.31-.74,.48-1.11l.25-.56c.08-.19,.17-.35,.27-.54l.27-.54,.13-.27,.15-.27,.6-1.05,.64-1.01c.1-.17,.23-.33,.35-.5l.35-.5c.93-1.3,1.97-2.5,3.09-3.63,2.26-2.21,4.82-4.06,7.64-5.39,.17-.08,.35-.16,.52-.25l.54-.23c.37-.14,.71-.31,1.08-.43,.37-.12,.73-.27,1.1-.39l1.1-.33c1.49-.39,2.99-.68,4.53-.83l1.14-.08h2.28c.37,0,.73,0,1.14,.02,.39,0,.79,.06,1.18,.1,.39,.06,.77,.1,1.16,.21,.77,.16,1.52,.39,2.26,.68,1.47,.58,2.84,1.42,4.05,2.46,1.2,1.03,2.26,2.27,3.09,3.65,.42,.68,.79,1.4,1.1,2.15,.31,.74,.58,1.51,.75,2.29,.19,.78,.33,1.57,.39,2.37,.06,.8,.08,1.59,.02,2.39l-.1,.04Z" style="fill:#ffecdc;"/><path d="M9.47,118.52h62.84l-.44,2.85c-.19,1.2-1.16,2.06-2.28,2.06H10.09" style="fill:#342745;"/><path d="M61.86,119.58h2.35c.14,0,.23,.1,.23,.25v1.36c0,.14-.1,.25-.23,.25h-2.35c-.14,0-.23-.1-.23-.25v-1.36c0-.14,.1-.25,.23-.25Z" style="fill:#493a5b;"/><path d="M61.53,119.58h2.35c.13,0,.23,.1,.23,.25v1.36c0,.14-.1,.25-.23,.25h-2.35c-.14,0-.23-.1-.23-.25v-1.36c0-.14,.1-.25,.23-.25Z" style="fill:#6d617c;"/><path d="M63.02,120.5c0,.27-.19,.47-.44,.47l-17.4-.29s-.17-.08-.17-.19,.08-.19,.17-.19l17.4-.29c.25,0,.44,.21,.44,.47Z" style="fill:#493a5b;"/><path d="M73.57,69.44h2.93c.64,0,1.16,.56,1.16,1.24v.85h-5.58v-.47c0-.89,.68-1.59,1.49-1.59v-.02Z" style="fill:#c96237;"/><path d="M72.55,69.44h2.93c.64,0,1.16,.56,1.16,1.24v.85h-5.58v-.47c0-.89,.68-1.59,1.49-1.59v-.02Z" style="fill:#feb16d;"/><path d="M243.12,172.79c0-6.31-2.14-11.97-5.5-15.66l1.14-4.5h-10.52c-8.22,0-14.88,9.02-14.88,20.16s6.66,20.16,14.88,20.16h10.52l-1.14-4.5c3.36-3.69,5.5-9.33,5.5-15.66Z" style="fill:#342745;"/><path d="M238.74,192.95c8.22,0,14.87-9.03,14.87-20.16s-6.66-20.16-14.87-20.16-14.88,9.03-14.88,20.16,6.66,20.16,14.88,20.16Z" style="fill:#493a5b;"/><path d="M247.89,172.79c0,7.59-4.19,14.01-9.13,14.01h-.31c-4.82-.27-8.82-6.56-8.82-14.01s4.01-13.74,8.82-14.01h.31c4.96,0,9.13,6.42,9.13,14.01Z" style="fill:#7e94c6;"/><path d="M247.27,172.79c0,7.43-4.01,13.74-8.82,14.01-4.82-.27-8.82-6.56-8.82-14.01s4.01-13.74,8.82-14.01c4.83,.27,8.82,6.56,8.82,14.01Z" style="fill:#d0dcf2;"/><path d="M239.07,178.69c-2.08,0-3.84-2.7-3.84-5.9s1.76-5.9,3.84-5.9,3.84,2.7,3.84,5.9-1.76,5.9-3.84,5.9Z" style="fill:#e3eaf7;"/><path d="M238.74,178.69c-2.08,0-3.84-2.7-3.84-5.9s1.76-5.9,3.84-5.9,3.84,2.7,3.84,5.9-1.76,5.9-3.84,5.9Z" style="fill:#e3eaf7;"/><path d="M238.43,174.23c-.5,0-.95-.66-.95-1.44s.42-1.44,.95-1.44,.94,.66,.94,1.44-.42,1.44-.94,1.44Z" style="fill:#e3eaf7;"/><path d="M238.74,174.23c-.5,0-.95-.66-.95-1.44s.43-1.44,.95-1.44,.95,.66,.95,1.44-.42,1.44-.95,1.44Z" style="fill:#f4f7fc;"/><path d="M237.6,163.4c0,.68,.33,1.26,.73,1.4,.08,.02,.13,.04,.21,.04,.52,0,.94-.66,.94-1.44s-.42-1.44-.94-1.44c-.08,0-.14,0-.21,.04-.41,.14-.73,.74-.73,1.4Z" style="fill:#7e94c6;"/><path d="M230.98,172.85c0,.68,.33,1.26,.73,1.4,.08,.02,.13,.04,.21,.04,.5,0,.95-.66,.95-1.44s-.42-1.44-.95-1.44c-.08,0-.13,0-.21,.04-.41,.14-.73,.74-.73,1.4Z" style="fill:#7e94c6;"/><path d="M233.22,166.39c0,.68,.31,1.26,.73,1.4,.06,.02,.13,.04,.21,.04,.5,0,.94-.66,.94-1.44s-.42-1.44-.94-1.44c-.08,0-.16,0-.21,.04-.41,.14-.73,.74-.73,1.4Z" style="fill:#7e94c6;"/><path d="M242.39,179.89c0,.68,.31,1.26,.73,1.4,.08,.02,.14,.04,.21,.04,.5,0,.95-.66,.95-1.44s-.43-1.44-.95-1.44c-.08,0-.13,0-.21,.04-.4,.14-.73,.74-.73,1.4Z" style="fill:#7e94c6;"/><path d="M232.82,179.89c0,.68,.33,1.26,.73,1.4,.06,.02,.14,.04,.21,.04,.5,0,.95-.66,.95-1.44s-.42-1.44-.95-1.44c-.08,0-.16,0-.21,.04-.4,.14-.73,.74-.73,1.4Z" style="fill:#7e94c6;"/><path d="M242.39,166.89c0,.68,.31,1.26,.73,1.4,.08,.02,.14,.04,.21,.04,.5,0,.95-.66,.95-1.44s-.43-1.44-.95-1.44c-.08,0-.13,0-.21,.04-.4,.14-.73,.74-.73,1.4Z" style="fill:#7e94c6;"/><path d="M243.72,172.85c0,.68,.31,1.26,.73,1.4,.08,.02,.14,.04,.21,.04,.52,0,.95-.66,.95-1.44s-.42-1.44-.95-1.44c-.08,0-.13,0-.21,.04-.41,.14-.73,.74-.73,1.4Z" style="fill:#7e94c6;"/><path d="M237.6,182.49c0,.68,.33,1.26,.73,1.4,.08,.02,.13,.04,.21,.04,.52,0,.94-.66,.94-1.44s-.42-1.44-.94-1.44c-.08,0-.14,0-.21,.04-.41,.14-.73,.74-.73,1.4Z" style="fill:#7e94c6;"/><path d="M237.6,163.4c0,.68,.33,1.26,.73,1.4,.41-.14,.73-.74,.73-1.4s-.31-1.26-.73-1.4c-.41,.14-.73,.74-.73,1.4Z" style="fill:#b5c8e8;"/><path d="M230.98,172.85c0,.68,.33,1.26,.73,1.4,.4-.14,.73-.74,.73-1.4s-.33-1.26-.73-1.4c-.41,.14-.73,.74-.73,1.4Z" style="fill:#b5c8e8;"/><path d="M233.22,166.39c0,.68,.31,1.26,.73,1.4,.41-.14,.73-.74,.73-1.4s-.33-1.26-.73-1.4c-.41,.14-.73,.74-.73,1.4Z" style="fill:#b5c8e8;"/><path d="M242.39,179.89c0,.68,.31,1.26,.73,1.4,.41-.14,.73-.74,.73-1.4s-.33-1.26-.73-1.4c-.4,.14-.73,.74-.73,1.4Z" style="fill:#b5c8e8;"/><path d="M232.82,179.89c0,.68,.33,1.26,.73,1.4,.41-.14,.73-.74,.73-1.4s-.31-1.26-.73-1.4c-.4,.14-.73,.74-.73,1.4Z" style="fill:#b5c8e8;"/><path d="M242.39,166.89c0,.68,.31,1.26,.73,1.4,.41-.14,.73-.74,.73-1.4s-.33-1.26-.73-1.4c-.4,.14-.73,.74-.73,1.4Z" style="fill:#b5c8e8;"/><path d="M243.72,172.85c0,.68,.31,1.26,.73,1.4,.41-.14,.73-.74,.73-1.4s-.31-1.26-.73-1.4c-.41,.14-.73,.74-.73,1.4Z" style="fill:#b5c8e8;"/><path d="M237.6,182.49c0,.68,.33,1.26,.73,1.4,.41-.14,.73-.74,.73-1.4s-.31-1.26-.73-1.4c-.41,.14-.73,.74-.73,1.4Z" style="fill:#b5c8e8;"/><path d="M151.43,155.66h-2.82v3.76h2.82v-3.76Z" style="fill:#7e94c6;"/><path d="M148.63,155.66h-.69v3.76h.69v-3.76Z" style="fill:#b5c8e8;"/><path d="M169.31,155.66h-2.82v3.76h2.82v-3.76Z" style="fill:#7e94c6;"/><path d="M166.5,155.66h-.69v3.76h.69v-3.76Z" style="fill:#b5c8e8;"/><path d="M202.23,155.66h-2.82v3.76h2.82v-3.76Z" style="fill:#7e94c6;"/><path d="M199.42,155.66h-.68v3.76h.68v-3.76Z" style="fill:#b5c8e8;"/><path d="M286.46,149.64v4.64c0,.76-.58,1.38-1.29,1.38H142.44v-7.59h142.55c.81,0,1.47,.7,1.47,1.57Z" style="fill:#b5c8e8;"/><path d="M69.81,154.63v7.96c0,.87-.66,1.59-1.49,1.59h-.81c-2.68,0-4.86-2.33-4.86-5.2v-5.76c0-1.03,.77-1.86,1.74-1.86h2.35c1.7,0,3.07,1.46,3.07,3.28v-.02Z" style="fill:#ffecdc;"/><path d="M69.1,154.61v7.96c0,.41-.27,.74-.64,.8h-1.22c-2.16-.14-3.86-2.06-3.86-4.42v-5.76c0-.6,.46-1.09,1.02-1.09h2.35c1.29,0,2.33,1.11,2.33,2.5Z" style="fill:#c96237;"/><path d="M69.1,154.61v7.96c0,.41-.27,.74-.64,.8-2.14-.16-3.84-2.08-3.84-4.42v-5.76c0-.6,.46-1.09,1.02-1.09h1.1c1.29,0,2.33,1.11,2.33,2.5h.02Z" style="fill:#fff;"/><path d="M75.14,100.51l-2.82,18.01h-18.75l2.24-15.37c.46-3.12,2.97-5.43,5.92-5.43h7.6c2.32,0,4.38,1.07,5.79,2.76l.02,.02Z" style="fill:#342745;"/><path d="M70.31,118.52h-21.8l2.24-15.37c.46-3.12,2.97-5.43,5.92-5.43h7.6c4.77,0,8.39,4.54,7.66,9.57l-1.64,11.22h.02Z" style="fill:#342745;"/><path d="M74.42,89.02l-15.84,34.44h-23.41l15.84-34.44h23.41Z" style="fill:#766a89;"/><g style="opacity:.25;"><path d="M103.09,90.55l-16.11,30.45-3.36,.31,.83-1.57h.27c1.35,0,2.47-1.13,2.53-2.58l.15-2.99,12.5-23.65h3.18v.02Z" style="fill:#766a89;"/><path d="M95.59,120.17l11.77-22.26v20.74c0,.14-.06,.25-.15,.33-.06,.06-.13,.1-.23,.1l-11.38,1.07v.02Z" style="fill:#766a89;"/><path d="M124.2,90.73v6.25l-11.35,21.46s-.15-.19-.15-.31v-27.24c0-.21,.15-.37,.37-.37h10.94c.1,0,.19,.08,.19,.21Z" style="fill:#766a89;"/></g><path d="M286.46,153.81v.47c0,.76-.58,1.38-1.29,1.38H142.44v-7.59h3.94c0,3.16,2.39,5.74,5.36,5.74h134.72Z" style="fill:#7e94c6;"/><path d="M236.54,154.47l-59.01-.06c-1.93,0-3.47-1.67-3.47-3.73l.12-126.13c0-2.06,1.56-3.71,3.49-3.71l59.01,.06c1.93,0,3.47,1.67,3.47,3.73l-.12,126.13c0,2.06-1.56,3.71-3.49,3.71Z" style="fill:#342745;"/><path d="M159.3,111.67l5.27-7.94s7.14,4.72,7.39,4.99c.23,.27,1.77,2.43,1.81,3.47,.04,1.03-2.95,3.09-3.67,3.36-.73,.25-10.79-3.88-10.79-3.88h-.02Z" style="fill:#ea9181;"/><path d="M163.93,136.04l4.59-3.82-.02,6.99-4.57-3.18Z" style="fill:#ea9181;"/><path d="M190.33,76.45l-14.24,7.49-15.22-37.7c-1.27-3.09-.33-6.73,2.26-8.69,3.24-2.46,7.76-1.32,9.67,2.41l17.54,36.48Z" style="fill:#ea9181;"/><path d="M263.55,160.66c-.19,3.22-.95,6.38-2.22,9.35-.1,.23-.19,.45-.31,.68-6.37,14.01-19.24,22.12-32.73,22.66-16.34-.58-38.96-26.86-47.72-37.86-.33-.41-.64-.8-.93-1.18-1.76-2.23-2.74-3.57-2.74-3.57,0,0-2.3,.16-5.42,.5l-.37-.62c31.14-21.11,50.25,.06,50.25,.06,0,0,2.08-8.27,14.45-34.68l15.44-.5s3.05,6.62,8.03,23.95c1.02,3.57,2.14,7.59,3.32,12.11,.79,2.99,1.08,6.09,.91,9.14l.04-.04Z" style="fill:#fdcfbf;"/><path d="M230.98,154.47h-6.54l-44.61-.06h-7.83c-1.93,0-3.47-1.67-3.47-3.73l.12-126.13c0-2.06,1.56-3.71,3.49-3.71l59.01,.06c1.93,0,3.47,1.67,3.47,3.73l-.12,126.13c0,2.06-1.56,3.71-3.49,3.71h-.02Z" style="fill:#493a5b;"/><path d="M232.51,27.12h-62.44v114.84h62.44V27.12Z" style="fill:#6d617c;"/><path d="M230.62,139.94V29.14h-58.66v110.8h58.66Z" style="fill:#e4eff5;"/><path d="M190.89,144.44h14.76c.54,0,.98,.47,.98,1.05v4.81c0,.58-.44,1.05-.98,1.05h-14.76c-.54,0-1-.47-1-1.07v-4.81c0-.58,.44-1.07,1-1.07v.04Z" style="fill:#6d617c;"/><path d="M206.32,25.24h-14.92c-.46,0-.83-.41-.81-.89,0-.5,.37-.89,.83-.89h14.92c.46,0,.83,.41,.83,.89s-.37,.89-.83,.89h-.02Z" style="fill:#342745;"/><path d="M212.38,24.37c0,.5-.37,.89-.83,.89s-.81-.39-.81-.89,.37-.89,.83-.89,.83,.39,.83,.89h-.02Z" style="fill:#342745;"/><path d="M236.91,46.78c-.75,0-1.35-.66-1.35-1.44v-12.19c0-.8,.62-1.44,1.37-1.44s1.35,.66,1.35,1.44v12.19c0,.8-.62,1.44-1.37,1.44Z" style="fill:#6d617c;"/><path d="M236.89,65.99c-.75,0-1.35-.66-1.35-1.44v-12.19c0-.8,.62-1.44,1.37-1.44s1.35,.66,1.35,1.47v12.19c0,.8-.62,1.44-1.37,1.44v-.02Z" style="fill:#6d617c;"/><path d="M229.03,165.92c-7.02-2.56-8.39-5.96-8.39-5.96l-40.06-4.5c-.17-.23-.35-.43-.5-.64,.08-.14,.15-.27,.23-.41l44.13,.04c.37,2.19,.94,4.44,1.77,6.69,.71,1.92,1.66,3.51,2.82,4.77v.02Z" style="fill:#fdb0a8;"/><path d="M263.55,160.66c-8.55,11.97-23.04,9.72-23.04,9.72,13.45-.19,23.33-14.3,19.47-28.49-.23-.85-.46-1.67-.67-2.46,1.04,3.57,2.16,7.57,3.34,12.09,.79,2.99,1.08,6.09,.91,9.14Z" style="fill:#fdb0a8;"/><path d="M240.5,170.37c-.66,0-1.33,0-2.01-.08-3.67-.33-7-1.67-9.45-4.37-1.16-1.28-2.12-2.85-2.82-4.77-2.37-6.46-2.68-12.79-2.1-18.18,.21-2.04,.56-3.96,.94-5.69,1.37-6.05,3.45-9.97,3.45-9.97l4.38-24.12-5.88-16.3c-3.47-9.92-2.05-15.6-.17-18.63,1.22-1.96,3.9-2.06,5.23-.19l16.94,23.67,5.9,31.69s1.89,6.87,4.36,15.99c.21,.8,.44,1.63,.67,2.46,3.86,14.2-6.02,28.31-19.47,28.49h.02Z" style="fill:#fdcfbf;"/><path d="M180.31,154.4c-.08,.14-.15,.27-.23,.41-.08,.12-.17,.27-.25,.39-1.58,2.21-4.21,3.16-6.64,2.52-.48-.12-.95-.31-1.41-.56l-5.23-2.85c-5.67-3.09-7.7-10.67-4.44-16.53,.96-1.73,2.84-2.48,4.53-2.04,.54,.14,1.08,.41,1.54,.8l10.38,8.56c2.7,2.23,3.38,6.21,1.74,9.28Z" style="fill:#fdcfbf;"/><g style="opacity:.4;"><path d="M187.01,139.94h-12.12l10.25-110.8h12.12l-10.25,110.8Z" style="fill:#fff;"/><path d="M217.88,139.94h-19.84l10.25-110.8h19.84l-10.25,110.8Z" style="fill:#fff;"/></g><path d="M173.58,134.76l-10.46-6.35c-6-3.65-7.45-12.21-3.03-17.89,1.7-2.17,4.71-2.41,6.7-.58l13.56,11.76c2.84,2.64,3.55,7.08,1.68,10.56-1.7,3.2-5.48,4.31-8.47,2.5h.02Z" style="fill:#fdcfbf;"/><path d="M169.72,113.26l-6.39-6.56c-4.98-5.12-4.42-13.8,1.18-18.14,2.14-1.65,5.13-1.11,6.64,1.22l8.16,12.61c2.14,3.32,1.81,7.78-.79,10.69-2.37,2.64-6.31,2.72-8.78,.19h-.02Z" style="fill:#fdcfbf;"/><path d="M200.42,35.97c-5.79,0-10.5,5.01-10.5,11.22s10.5,21.19,10.5,21.19c0,0,10.5-14.98,10.5-21.19s-4.69-11.22-10.5-11.22Zm0,15.54c-2.99,0-5.42-2.6-5.42-5.82s2.43-5.8,5.42-5.8,5.44,2.6,5.44,5.8-2.43,5.82-5.44,5.82Z" style="fill:#f35740;"/><path d="M205.13,74.78h-23.89v18.32h23.89v-18.32Z" style="fill:#fed0a7;"/><path d="M219.6,74.78h-14.45v18.32h14.45v-18.32Z" style="fill:#feb16d;"/><path d="M187.47,77.67h-4.69v2.1h4.69v-2.1Z" style="fill:#feb16d;"/><path d="M193.34,80.08l-3.43-.78v-4.52h3.43v5.3Z" style="fill:#ffecdc;"/><path d="M205.13,97.35h-23.89v18.32h23.89v-18.32Z" style="fill:#fed0a7;"/><path d="M219.6,97.35h-14.45v18.32h14.45v-18.32Z" style="fill:#feb16d;"/><path d="M187.47,100.22h-4.69v2.13h4.69v-2.13Z" style="fill:#feb16d;"/><path d="M193.34,102.66l-3.43-.8v-4.5h3.43v5.3Z" style="fill:#ffecdc;"/></g></svg>