<svg width="1616" height="985" viewBox="0 0 1616 985" fill="none" xmlns="http://www.w3.org/2000/svg">
<path d="M1368.88 715.332H1383.33C1387.33 715.332 1390.69 718.821 1390.69 723.207V746.631C1390.69 749.622 1388.45 752.014 1385.66 752.014H1368.88V715.332Z" fill="#D3DEF1"/>
<path d="M128.732 932.135H179.536L174.036 910.405C190.256 892.563 200.603 865.35 200.603 834.749C200.603 804.147 190.256 776.935 174.036 759.092L179.536 737.362H128.732" fill="#342745"/>
<path d="M29.2715 849.501H371.187C374.357 849.501 376.874 852.193 376.874 855.582V888.974C376.874 892.363 374.357 895.055 371.187 895.055H29.2715" fill="#C96237"/>
<path d="M21.1582 849.501H363.074C366.243 849.501 368.76 852.193 368.76 855.582V888.974C368.76 892.363 366.243 895.055 363.074 895.055H21.1582" fill="#FFECDC"/>
<path d="M106.736 850.397H253.645C257.094 850.397 259.797 853.387 259.797 856.976C259.797 858.77 259.146 860.465 258.027 861.661C256.908 862.857 255.323 863.555 253.645 863.555H106.736" fill="#C96237"/>
<path d="M110.648 850.397H253.642C257.091 850.397 259.794 853.387 259.794 856.976C259.794 858.77 259.142 860.465 258.024 861.661C256.905 862.857 255.319 863.555 253.642 863.555H110.648" fill="#F18D4F"/>
<path d="M152.969 412.805C152.969 405.429 158.561 399.448 165.459 399.448H183.357C185.035 399.448 186.34 400.844 186.34 402.638V412.805C186.34 414.5 185.035 415.995 183.357 415.995H155.951" fill="#C96237"/>
<path d="M155.3 399.448H175.901C177.485 399.448 178.883 400.844 178.883 402.638V412.805C178.883 414.5 177.579 415.995 175.901 415.995H148.402" fill="#FEB16D"/>
<path d="M147.188 345.424H174.127V341.337C174.127 338.048 171.609 335.356 168.533 335.356H154.364" fill="#C96237"/>
<path d="M142.25 345.424H169.19V341.337C169.19 338.048 166.673 335.356 163.597 335.356H149.428" fill="#FEB16D"/>
<path d="M306.961 875.317C306.961 878.208 305.377 880.7 303.326 881.397C302.953 881.497 302.58 881.597 302.207 881.597C299.597 881.597 297.453 878.806 297.453 875.317C297.453 871.828 299.597 869.037 302.207 869.037C302.58 869.037 302.953 869.037 303.326 869.236C305.377 869.934 306.961 872.426 306.961 875.317Z" fill="#F18D4F"/>
<path d="M306.964 875.316C306.964 878.206 305.38 880.698 303.329 881.396C301.278 880.698 299.693 878.306 299.693 875.316C299.693 872.325 301.278 869.933 303.329 869.235C305.38 869.933 306.964 872.425 306.964 875.316Z" fill="white"/>
<path d="M334.645 875.316C334.645 878.207 333.154 880.699 331.103 881.397C330.73 881.496 330.357 881.596 329.985 881.596C327.375 881.596 325.23 878.805 325.23 875.316C325.23 871.828 327.375 869.037 329.985 869.037C330.357 869.037 330.73 869.037 331.103 869.236C333.154 869.934 334.645 872.426 334.645 875.316Z" fill="#F18D4F"/>
<path d="M334.647 875.317C334.647 878.208 333.155 880.7 331.104 881.398C329.054 880.7 327.469 878.308 327.469 875.317C327.469 872.327 328.96 869.935 331.104 869.237C333.155 869.935 334.647 872.427 334.647 875.317Z" fill="white"/>
<path d="M147.844 472.215C170.868 472.215 188.393 494.144 184.85 518.466L176.927 572.691H71.5938" fill="#342745"/>
<path d="M135.63 472.215H172.357C195.381 472.215 212.905 494.144 209.363 518.466L201.44 572.691H96.1055" fill="#342745"/>
<path d="M152.596 429.952H198.459L121.928 596.316" fill="#766A89"/>
<path d="M1615.81 348.812C1594.56 227.702 1523.9 114.965 1421.45 58.547C1343.43 15.5854 1253.2 6.8136 1165.48 2.62708C914.453 -9.3344 672.743 21.3667 424.882 57.9489C243.67 84.6629 101.329 237.969 18.6465 407.623" fill="#FFBA80"/>
<path d="M0 937.318C49.4977 983.171 121.368 985.065 186.899 984.566C538.603 981.875 890.306 979.084 1242.01 976.393C1296.73 975.994 1355.36 974.2 1399.83 940.109C1425.37 920.473 1443.54 891.965 1461.16 864.154C1471.97 847.009 1482.88 829.864 1493.69 812.72C1515.79 777.832 1537.88 742.845 1556.71 705.764" fill="#FFA453"/>
<path d="M1231.58 307.544C1231.58 310.434 1229.44 312.727 1226.73 312.727C1226.17 312.727 1225.71 312.727 1225.24 312.428C1227.2 311.73 1228.6 309.836 1228.6 307.544C1228.6 305.251 1227.2 303.257 1225.24 302.659C1225.71 302.46 1226.27 302.36 1226.73 302.36C1229.44 302.36 1231.58 304.653 1231.58 307.544Z" fill="#A45625"/>
<path d="M1213.03 298.871V713.436H1238.2V298.871H1213.03ZM1227.85 312.627C1227.1 312.726 1226.92 312.726 1226.73 312.726C1226.45 312.726 1226.17 312.726 1225.89 312.726C1223.19 311.829 1221.88 309.935 1221.88 307.643C1221.88 305.35 1223.28 303.456 1225.24 302.759C1225.42 302.759 1225.61 302.659 1225.8 302.559C1226.45 302.559 1226.54 302.46 1226.73 302.46C1229.43 302.46 1231.58 304.752 1231.58 307.643C1231.58 307.842 1231.58 308.042 1231.58 308.141C1230.74 310.633 1230.55 310.833 1230.46 310.932C1230.46 311.032 1230.27 311.132 1230.18 311.331C1228.5 312.527 1228.31 312.527 1228.22 312.627C1228.13 312.627 1227.94 312.627 1227.85 312.627Z" fill="#C96237"/>
<path d="M1213.02 298.871H1208.55V713.436H1213.02V298.871Z" fill="#A45625"/>
<path d="M1491.65 312.529H763.91V713.438H1491.65V312.529Z" fill="#F18D4F"/>
<path d="M1466.57 298.873V713.438H1491.74V298.873H1466.57ZM1481.11 312.629C1480.65 312.629 1480.46 312.629 1480.27 312.629C1479.62 312.629 1479.34 312.629 1479.16 312.529C1476.82 311.732 1475.43 309.738 1475.43 307.445C1475.43 305.153 1476.82 303.259 1478.78 302.561C1482.98 302.262 1485.12 304.654 1485.12 307.445C1485.12 307.844 1485.12 308.243 1485.03 308.642C1485.03 308.841 1484.93 309.04 1484.84 309.24C1484.19 310.635 1483.72 311.134 1483.26 311.532C1482.6 312.031 1482.23 312.23 1481.76 312.33C1481.58 312.33 1481.39 312.429 1481.21 312.529L1481.11 312.629Z" fill="#F18D4F"/>
<path d="M1485.12 307.546C1485.12 310.437 1482.98 312.729 1480.27 312.729C1479.72 312.729 1479.25 312.729 1478.78 312.43C1480.74 311.733 1482.14 309.839 1482.14 307.546C1482.14 305.253 1480.74 303.26 1478.78 302.662C1479.25 302.462 1479.81 302.363 1480.27 302.363C1482.98 302.363 1485.12 304.655 1485.12 307.546Z" fill="#C96237"/>
<path d="M780.217 307.546C780.217 310.437 778.074 312.729 775.371 312.729C774.811 312.729 774.345 312.729 773.879 312.43C775.836 311.733 777.235 309.839 777.235 307.546C777.235 305.253 775.836 303.26 773.879 302.662C774.345 302.462 774.905 302.363 775.371 302.363C778.074 302.363 780.217 304.655 780.217 307.546Z" fill="#C96237"/>
<path d="M1466.57 298.873H1462.1V713.438H1466.57V298.873Z" fill="#C96237"/>
<path d="M809.027 322.298H819.281C820.772 322.298 822.077 323.594 822.077 325.289V700.68C822.077 702.275 820.866 703.67 819.281 703.67H809.027C807.536 703.67 806.23 702.374 806.23 700.68V325.289C806.23 323.694 807.443 322.298 809.027 322.298Z" fill="#C96237"/>
<path d="M848.083 322.298H858.336C859.828 322.298 861.133 323.594 861.133 325.289V700.68C861.133 702.275 859.921 703.67 858.336 703.67H848.083C846.591 703.67 845.287 702.374 845.287 700.68V325.289C845.287 323.694 846.498 322.298 848.083 322.298Z" fill="#C96237"/>
<path d="M887.143 322.298H897.396C898.888 322.298 900.192 323.594 900.192 325.289V700.68C900.192 702.275 898.981 703.67 897.396 703.67H887.143C885.651 703.67 884.346 702.374 884.346 700.68V325.289C884.346 323.694 885.558 322.298 887.143 322.298Z" fill="#C96237"/>
<path d="M936.453 322.298H926.199C924.655 322.298 923.402 323.637 923.402 325.289V700.68C923.402 702.331 924.655 703.67 926.199 703.67H936.453C937.997 703.67 939.25 702.331 939.25 700.68V325.289C939.25 323.637 937.997 322.298 936.453 322.298Z" fill="#C96237"/>
<path d="M965.164 322.298H975.418C976.909 322.298 978.213 323.594 978.213 325.289V700.68C978.213 702.275 977.002 703.67 975.418 703.67H965.164C963.673 703.67 962.367 702.374 962.367 700.68V325.289C962.367 323.694 963.579 322.298 965.164 322.298Z" fill="#C96237"/>
<path d="M1014.48 322.298H1004.22C1002.68 322.298 1001.43 323.637 1001.43 325.289V700.68C1001.43 702.331 1002.68 703.67 1004.22 703.67H1014.48C1016.02 703.67 1017.27 702.331 1017.27 700.68V325.289C1017.27 323.637 1016.02 322.298 1014.48 322.298Z" fill="#C96237"/>
<path d="M1043.28 322.298H1053.53C1055.02 322.298 1056.33 323.594 1056.33 325.289V700.68C1056.33 702.275 1055.12 703.67 1053.53 703.67H1043.28C1041.79 703.67 1040.48 702.374 1040.48 700.68V325.289C1040.48 323.694 1041.69 322.298 1043.28 322.298Z" fill="#C96237"/>
<path d="M1092.59 322.298H1082.33C1080.79 322.298 1079.54 323.637 1079.54 325.289V700.68C1079.54 702.331 1080.79 703.67 1082.33 703.67H1092.59C1094.13 703.67 1095.38 702.331 1095.38 700.68V325.289C1095.38 323.637 1094.13 322.298 1092.59 322.298Z" fill="#C96237"/>
<path d="M1121.39 322.298H1131.65C1133.14 322.298 1134.44 323.594 1134.44 325.289V700.68C1134.44 702.275 1133.23 703.67 1131.65 703.67H1121.39C1119.9 703.67 1118.6 702.374 1118.6 700.68V325.289C1118.6 323.694 1119.81 322.298 1121.39 322.298Z" fill="#C96237"/>
<path d="M1160.36 322.298H1170.61C1172.1 322.298 1173.41 323.594 1173.41 325.289V700.68C1173.41 702.275 1172.2 703.67 1170.61 703.67H1160.36C1158.87 703.67 1157.56 702.374 1157.56 700.68V325.289C1157.56 323.694 1158.77 322.298 1160.36 322.298Z" fill="#C96237"/>
<path d="M1199.41 322.298H1209.67C1211.16 322.298 1212.46 323.594 1212.46 325.289V700.68C1212.46 702.275 1211.25 703.67 1209.67 703.67H1199.41C1197.92 703.67 1196.62 702.374 1196.62 700.68V325.289C1196.62 323.694 1197.83 322.298 1199.41 322.298Z" fill="#C96237"/>
<path d="M1238.47 322.298H1248.73C1250.22 322.298 1251.53 323.594 1251.53 325.289V700.68C1251.53 702.275 1250.31 703.67 1248.73 703.67H1238.47C1236.98 703.67 1235.68 702.374 1235.68 700.68V325.289C1235.68 323.694 1236.89 322.298 1238.47 322.298Z" fill="#C96237"/>
<path d="M1287.78 322.298H1277.53C1275.98 322.298 1274.73 323.637 1274.73 325.289V700.68C1274.73 702.331 1275.98 703.67 1277.53 703.67H1287.78C1289.33 703.67 1290.58 702.331 1290.58 700.68V325.289C1290.58 323.637 1289.33 322.298 1287.78 322.298Z" fill="#C96237"/>
<path d="M1316.59 322.298H1326.85C1328.34 322.298 1329.64 323.594 1329.64 325.289V700.68C1329.64 702.275 1328.43 703.67 1326.85 703.67H1316.59C1315.1 703.67 1313.79 702.374 1313.79 700.68V325.289C1313.79 323.694 1315.01 322.298 1316.59 322.298Z" fill="#C96237"/>
<path d="M1355.65 322.298H1365.9C1367.39 322.298 1368.7 323.594 1368.7 325.289V700.68C1368.7 702.275 1367.49 703.67 1365.9 703.67H1355.65C1354.16 703.67 1352.85 702.374 1352.85 700.68V325.289C1352.85 323.694 1354.06 322.298 1355.65 322.298Z" fill="#C96237"/>
<path d="M1394.71 322.298H1404.96C1406.45 322.298 1407.76 323.594 1407.76 325.289V700.68C1407.76 702.275 1406.55 703.67 1404.96 703.67H1394.71C1393.22 703.67 1391.91 702.374 1391.91 700.68V325.289C1391.91 323.694 1393.12 322.298 1394.71 322.298Z" fill="#C96237"/>
<path d="M1433.67 322.298H1443.92C1445.41 322.298 1446.72 323.594 1446.72 325.289V700.68C1446.72 702.275 1445.5 703.67 1443.92 703.67H1433.67C1432.17 703.67 1430.87 702.374 1430.87 700.68V325.289C1430.87 323.694 1432.08 322.298 1433.67 322.298Z" fill="#C96237"/>
<g opacity="0.5">
<path d="M816.945 322.298H819.276C820.767 322.298 822.072 323.594 822.072 325.289V700.68C822.072 702.275 820.86 703.67 819.276 703.67H816.945C815.454 703.67 814.148 702.374 814.148 700.68V325.289C814.148 323.694 815.361 322.298 816.945 322.298Z" fill="#A45625"/>
<path d="M856.001 322.298H858.331C859.823 322.298 861.128 323.594 861.128 325.289V700.68C861.128 702.275 859.916 703.67 858.331 703.67H856.001C854.509 703.67 853.205 702.374 853.205 700.68V325.289C853.205 323.694 854.416 322.298 856.001 322.298Z" fill="#A45625"/>
<path d="M895.061 322.298H897.391C898.882 322.298 900.187 323.594 900.187 325.289V700.68C900.187 702.275 898.976 703.67 897.391 703.67H895.061C893.569 703.67 892.264 702.374 892.264 700.68V325.289C892.264 323.694 893.476 322.298 895.061 322.298Z" fill="#A45625"/>
<path d="M936.45 322.298H934.12C932.576 322.298 931.324 323.637 931.324 325.289V700.68C931.324 702.331 932.576 703.67 934.12 703.67H936.45C937.995 703.67 939.247 702.331 939.247 700.68V325.289C939.247 323.637 937.995 322.298 936.45 322.298Z" fill="#A45625"/>
<path d="M973.082 322.298H975.412C976.904 322.298 978.208 323.594 978.208 325.289V700.68C978.208 702.275 976.997 703.67 975.412 703.67H973.082C971.591 703.67 970.285 702.374 970.285 700.68V325.289C970.285 323.694 971.497 322.298 973.082 322.298Z" fill="#A45625"/>
<path d="M1014.47 322.298H1012.14C1010.59 322.298 1009.34 323.637 1009.34 325.289V700.68C1009.34 702.331 1010.59 703.67 1012.14 703.67H1014.47C1016.01 703.67 1017.26 702.331 1017.26 700.68V325.289C1017.26 323.637 1016.01 322.298 1014.47 322.298Z" fill="#A45625"/>
<path d="M1053.53 322.298H1051.2C1049.65 322.298 1048.4 323.637 1048.4 325.289V700.68C1048.4 702.331 1049.65 703.67 1051.2 703.67H1053.53C1055.07 703.67 1056.32 702.331 1056.32 700.68V325.289C1056.32 323.637 1055.07 322.298 1053.53 322.298Z" fill="#A45625"/>
<path d="M1090.26 322.298H1092.59C1094.08 322.298 1095.38 323.594 1095.38 325.289V700.68C1095.38 702.275 1094.17 703.67 1092.59 703.67H1090.26C1088.77 703.67 1087.46 702.374 1087.46 700.68V325.289C1087.46 323.694 1088.67 322.298 1090.26 322.298Z" fill="#A45625"/>
<path d="M1129.31 322.298H1131.64C1133.13 322.298 1134.44 323.594 1134.44 325.289V700.68C1134.44 702.275 1133.23 703.67 1131.64 703.67H1129.31C1127.82 703.67 1126.51 702.374 1126.51 700.68V325.289C1126.51 323.694 1127.73 322.298 1129.31 322.298Z" fill="#A45625"/>
<path d="M1168.27 322.298H1170.6C1172.09 322.298 1173.4 323.594 1173.4 325.289V700.68C1173.4 702.275 1172.19 703.67 1170.6 703.67H1168.27C1166.78 703.67 1165.48 702.374 1165.48 700.68V325.289C1165.48 323.694 1166.69 322.298 1168.27 322.298Z" fill="#A45625"/>
<path d="M1207.33 322.298H1209.66C1211.15 322.298 1212.46 323.594 1212.46 325.289V700.68C1212.46 702.275 1211.25 703.67 1209.66 703.67H1207.33C1205.84 703.67 1204.54 702.374 1204.54 700.68V325.289C1204.54 323.694 1205.75 322.298 1207.33 322.298Z" fill="#A45625"/>
<path d="M1246.39 322.298H1248.72C1250.22 322.298 1251.52 323.594 1251.52 325.289V700.68C1251.52 702.275 1250.31 703.67 1248.72 703.67H1246.39C1244.9 703.67 1243.6 702.374 1243.6 700.68V325.289C1243.6 323.694 1244.81 322.298 1246.39 322.298Z" fill="#A45625"/>
<path d="M1285.45 322.298H1287.78C1289.27 322.298 1290.57 323.594 1290.57 325.289V700.68C1290.57 702.275 1289.36 703.67 1287.78 703.67H1285.45C1283.96 703.67 1282.65 702.374 1282.65 700.68V325.289C1282.65 323.694 1283.86 322.298 1285.45 322.298Z" fill="#A45625"/>
<path d="M1326.84 322.298H1324.51C1322.96 322.298 1321.71 323.637 1321.71 325.289V700.68C1321.71 702.331 1322.96 703.67 1324.51 703.67H1326.84C1328.38 703.67 1329.64 702.331 1329.64 700.68V325.289C1329.64 323.637 1328.38 322.298 1326.84 322.298Z" fill="#A45625"/>
<path d="M1363.57 322.298H1365.9C1367.39 322.298 1368.69 323.594 1368.69 325.289V700.68C1368.69 702.275 1367.48 703.67 1365.9 703.67H1363.57C1362.08 703.67 1360.77 702.374 1360.77 700.68V325.289C1360.77 323.694 1361.98 322.298 1363.57 322.298Z" fill="#A45625"/>
<path d="M1402.62 322.298H1404.95C1406.45 322.298 1407.75 323.594 1407.75 325.289V700.68C1407.75 702.275 1406.54 703.67 1404.95 703.67H1402.62C1401.13 703.67 1399.83 702.374 1399.83 700.68V325.289C1399.83 323.694 1401.04 322.298 1402.62 322.298Z" fill="#A45625"/>
<path d="M1441.58 322.298H1443.91C1445.41 322.298 1446.71 323.594 1446.71 325.289V700.68C1446.71 702.275 1445.5 703.67 1443.91 703.67H1441.58C1440.09 703.67 1438.79 702.374 1438.79 700.68V325.289C1438.79 323.694 1440 322.298 1441.58 322.298Z" fill="#A45625"/>
</g>
<path d="M763.904 311.431H494.883V713.436H763.904V311.431Z" fill="#FEB16D"/>
<path d="M763.906 298.871V713.436H789.075V298.871H763.906ZM776.398 312.627C775.652 312.726 775.466 312.726 775.279 312.726C775 312.726 774.719 312.726 774.533 312.726C771.83 311.829 770.432 309.935 770.432 307.643C770.432 305.35 771.83 303.357 773.788 302.759C773.974 302.759 774.16 302.659 774.346 302.559C774.999 302.559 775.093 302.46 775.279 302.46C777.983 302.46 780.126 304.752 780.126 307.643C780.126 307.842 780.126 308.042 780.126 308.141C779.287 310.633 779.1 310.833 779.007 310.932C777.143 312.427 776.956 312.527 776.677 312.627C776.584 312.627 776.398 312.627 776.305 312.627H776.398Z" fill="#FEC18A"/>
<path d="M793.55 298.871H789.076V713.436H793.55V298.871Z" fill="#C96237"/>
<path d="M763.907 298.871V713.436H748.619V298.871H763.907Z" fill="#F18D4F"/>
<path d="M494.791 298.872V713.437H519.96V298.872H494.791ZM506.256 312.727C504.858 312.727 503.833 312.229 502.994 311.432C501.969 310.535 501.41 309.139 501.41 307.544C501.41 304.753 503.461 302.461 506.071 302.361C508.961 302.361 511.104 304.653 511.104 307.544C511.104 309.039 510.545 310.435 509.52 311.432C508.681 312.229 507.561 312.727 506.256 312.727Z" fill="#FEC18A"/>
<path d="M524.435 298.872H519.961V713.437H524.435V298.872Z" fill="#F18D4F"/>
<path d="M722.898 322.298H733.152C734.643 322.298 735.948 323.594 735.948 325.289V700.68C735.948 702.275 734.737 703.67 733.152 703.67H722.898C721.407 703.67 720.102 702.374 720.102 700.68V325.289C720.102 323.694 721.314 322.298 722.898 322.298Z" fill="#C96237"/>
<path d="M697.448 322.298H687.194C685.65 322.298 684.398 323.637 684.398 325.289V700.68C684.398 702.331 685.65 703.67 687.194 703.67H697.448C698.992 703.67 700.245 702.331 700.245 700.68V325.289C700.245 323.637 698.992 322.298 697.448 322.298Z" fill="#C96237"/>
<path d="M651.492 322.298H661.746C663.237 322.298 664.543 323.594 664.543 325.289V700.68C664.543 702.275 663.33 703.67 661.746 703.67H651.492C650.001 703.67 648.695 702.374 648.695 700.68V325.289C648.695 323.694 649.908 322.298 651.492 322.298Z" fill="#C96237"/>
<path d="M615.788 322.298H626.043C627.534 322.298 628.838 323.594 628.838 325.289V700.68C628.838 702.275 627.627 703.67 626.043 703.67H615.788C614.297 703.67 612.992 702.374 612.992 700.68V325.289C612.992 323.694 614.203 322.298 615.788 322.298Z" fill="#C96237"/>
<path d="M590.437 322.298H580.184C578.639 322.298 577.387 323.637 577.387 325.289V700.68C577.387 702.331 578.639 703.67 580.184 703.67H590.437C591.982 703.67 593.234 702.331 593.234 700.68V325.289C593.234 323.637 591.982 322.298 590.437 322.298Z" fill="#C96237"/>
<path d="M544.481 322.298H554.734C556.226 322.298 557.53 323.594 557.53 325.289V700.68C557.53 702.275 556.319 703.67 554.734 703.67H544.481C542.989 703.67 541.684 702.374 541.684 700.68V325.289C541.684 323.694 542.896 322.298 544.481 322.298Z" fill="#C96237"/>
<path d="M735.939 325.289V700.68C735.939 702.275 734.727 703.67 733.143 703.67C731.279 703.67 729.973 702.374 729.973 700.68V325.289C729.973 323.694 731.185 322.298 732.77 322.298C734.634 322.298 735.939 323.594 735.939 325.289Z" fill="#F18D4F"/>
<path d="M700.243 325.289V700.68C700.243 702.275 699.031 703.67 697.446 703.67C695.582 703.67 694.277 702.374 694.277 700.68V325.289C694.277 323.694 695.49 322.298 697.074 322.298C698.939 322.298 700.243 323.594 700.243 325.289Z" fill="#F18D4F"/>
<path d="M664.54 325.289V700.68C664.54 702.275 663.328 703.67 661.743 703.67C659.879 703.67 658.574 702.374 658.574 700.68V325.289C658.574 323.694 659.785 322.298 661.37 322.298C663.234 322.298 664.54 323.594 664.54 325.289Z" fill="#F18D4F"/>
<path d="M628.837 325.289V700.68C628.837 702.275 627.626 703.67 626.041 703.67C624.177 703.67 622.871 702.374 622.871 700.68V325.289C622.871 323.694 624.083 322.298 625.668 322.298C627.532 322.298 628.744 323.594 628.744 325.289H628.837Z" fill="#F18D4F"/>
<path d="M593.232 325.289V700.68C593.232 702.275 592.019 703.67 590.435 703.67C588.57 703.67 587.266 702.374 587.266 700.68V325.289C587.266 323.694 588.478 322.298 590.063 322.298C591.927 322.298 593.232 323.594 593.232 325.289Z" fill="#F18D4F"/>
<path d="M557.527 325.289V700.68C557.527 702.275 556.316 703.67 554.732 703.67C552.867 703.67 551.562 702.374 551.562 700.68V325.289C551.562 323.694 552.774 322.298 554.358 322.298C556.223 322.298 557.527 323.594 557.527 325.289Z" fill="#F18D4F"/>
<path d="M501.039 307.546C501.039 310.437 503.183 312.729 505.886 312.729C506.446 312.729 506.912 312.729 507.378 312.43C505.421 311.733 504.021 309.839 504.021 307.546C504.021 305.253 505.421 303.26 507.378 302.662C506.912 302.462 506.353 302.363 505.886 302.363C503.183 302.363 501.039 304.655 501.039 307.546Z" fill="#C96237"/>
<path d="M1339.61 746.132H659.506V803.846H1339.61V746.132Z" fill="#342745"/>
<path d="M1145.15 770.155H1400.66C1402.52 770.155 1404.01 771.75 1404.01 773.744V795.872C1404.01 797.866 1402.52 799.461 1400.66 799.461H1145.15V770.155Z" fill="#B5C8E8"/>
<path d="M1140.4 770.155H1395.91C1397.77 770.155 1399.26 771.75 1399.26 773.744V795.872C1399.26 797.866 1397.77 799.461 1395.91 799.461H1140.4V770.155Z" fill="#7E94C6"/>
<path d="M1135.93 824.583H1391.44C1393.3 824.583 1394.79 826.177 1394.79 828.171V864.454C1394.79 866.448 1393.3 868.043 1391.44 868.043H1135.93V824.583Z" fill="#B5C8E8"/>
<path d="M1131.27 824.583H1386.78C1388.64 824.583 1390.13 826.177 1390.13 828.171V864.454C1390.13 866.448 1388.64 868.043 1386.78 868.043H1131.27V824.583Z" fill="#B5C8E8"/>
<path d="M1333.18 834.75C1333.18 804.248 1322.83 776.936 1306.61 759.093L1312.11 737.363H1261.31C1221.6 737.363 1189.44 780.923 1189.44 834.75C1189.44 888.576 1221.6 932.136 1261.31 932.136H1312.11L1306.61 910.406C1322.83 892.563 1333.18 865.351 1333.18 834.75Z" fill="#342745"/>
<path d="M1312.02 932.136C1351.71 932.136 1383.89 888.535 1383.89 834.75C1383.89 780.965 1351.71 737.363 1312.02 737.363C1272.33 737.363 1240.15 780.965 1240.15 834.75C1240.15 888.535 1272.33 932.136 1312.02 932.136Z" fill="#493A5B"/>
<path d="M1356.21 834.751C1356.21 871.433 1335.98 902.433 1312.02 902.433C1311.56 902.433 1311 902.433 1310.53 902.433C1287.23 901.137 1267.84 870.735 1267.84 834.751C1267.84 798.767 1287.23 768.365 1310.53 767.069C1311 767.069 1311.56 767.069 1312.02 767.069C1335.98 767.069 1356.21 798.069 1356.21 834.751Z" fill="#7E94C6"/>
<path d="M1353.22 834.751C1353.22 870.635 1333.83 901.137 1310.62 902.433C1287.32 901.137 1267.93 870.735 1267.93 834.751C1267.93 798.767 1287.32 768.365 1310.62 767.069C1333.83 768.365 1353.22 798.767 1353.22 834.751Z" fill="#D0DCF2"/>
<path d="M1310.06 863.258C1299.99 863.258 1291.51 850.2 1291.51 834.75C1291.51 819.3 1299.99 806.242 1310.06 806.242C1320.13 806.242 1328.61 819.3 1328.61 834.75C1328.61 850.2 1320.13 863.258 1310.06 863.258Z" fill="#E3EAF7"/>
<path d="M1312.02 863.258C1301.95 863.258 1293.47 850.2 1293.47 834.75C1293.47 819.3 1301.95 806.242 1312.02 806.242C1322.09 806.242 1330.57 819.3 1330.57 834.75C1330.57 850.2 1322.09 863.258 1312.02 863.258Z" fill="#E3EAF7"/>
<path d="M1314.63 841.727C1317.15 841.727 1319.2 838.603 1319.2 834.749C1319.2 830.895 1317.15 827.771 1314.63 827.771C1312.11 827.771 1310.06 830.895 1310.06 834.749C1310.06 838.603 1312.11 841.727 1314.63 841.727Z" fill="#F4F7FC"/>
<path d="M1306.52 789.397C1306.52 792.686 1308.01 795.477 1310.06 796.175C1310.43 796.274 1310.71 796.374 1311.09 796.374C1313.51 796.374 1315.65 793.184 1315.65 789.397C1315.65 785.609 1313.6 782.419 1311.09 782.419C1310.71 782.419 1310.43 782.419 1310.06 782.618C1308.1 783.316 1306.52 786.207 1306.52 789.397Z" fill="#7E94C6"/>
<path d="M1274.54 835.048C1274.54 838.337 1276.04 841.128 1278.09 841.826C1278.46 841.926 1278.74 842.025 1279.11 842.025C1281.54 842.025 1283.68 838.836 1283.68 835.048C1283.68 831.26 1281.63 828.07 1279.11 828.07C1278.74 828.07 1278.46 828.07 1278.09 828.27C1276.13 828.967 1274.54 831.858 1274.54 835.048Z" fill="#7E94C6"/>
<path d="M1285.36 803.851C1285.36 807.14 1286.94 809.931 1288.9 810.629C1289.27 810.729 1289.55 810.829 1289.93 810.829C1292.35 810.829 1294.49 807.639 1294.49 803.851C1294.49 800.063 1292.44 796.874 1289.93 796.874C1289.55 796.874 1289.27 796.874 1288.9 797.073C1286.94 797.771 1285.36 800.661 1285.36 803.851Z" fill="#7E94C6"/>
<path d="M1329.64 869.041C1329.64 872.33 1331.22 875.121 1333.18 875.819C1333.55 875.919 1333.83 876.018 1334.2 876.018C1336.63 876.018 1338.77 872.829 1338.77 869.041C1338.77 865.253 1336.72 862.063 1334.2 862.063C1333.83 862.063 1333.55 862.063 1333.18 862.263C1331.22 862.961 1329.64 865.851 1329.64 869.041Z" fill="#7E94C6"/>
<path d="M1283.4 869.041C1283.4 872.33 1284.89 875.121 1286.94 875.819C1287.32 875.919 1287.6 876.018 1287.97 876.018C1290.39 876.018 1292.54 872.829 1292.54 869.041C1292.54 865.253 1290.49 862.063 1287.97 862.063C1287.6 862.063 1287.32 862.063 1286.94 862.263C1284.99 862.961 1283.4 865.851 1283.4 869.041Z" fill="#7E94C6"/>
<path d="M1329.64 806.241C1329.64 809.53 1331.22 812.321 1333.18 813.019C1333.55 813.119 1333.83 813.218 1334.2 813.218C1336.63 813.218 1338.77 810.028 1338.77 806.241C1338.77 802.453 1336.72 799.263 1334.2 799.263C1333.83 799.263 1333.55 799.263 1333.18 799.463C1331.22 800.16 1329.64 803.051 1329.64 806.241Z" fill="#7E94C6"/>
<path d="M1336.07 835.048C1336.07 838.337 1337.66 841.128 1339.61 841.826C1339.99 841.926 1340.26 842.025 1340.64 842.025C1343.06 842.025 1345.21 838.836 1345.21 835.048C1345.21 831.26 1343.15 828.07 1340.64 828.07C1340.26 828.07 1339.89 828.07 1339.61 828.27C1337.66 828.967 1336.07 831.858 1336.07 835.048Z" fill="#7E94C6"/>
<path d="M1306.52 881.6C1306.52 884.889 1308.01 887.68 1310.06 888.378C1310.43 888.477 1310.71 888.577 1311.09 888.577C1313.51 888.577 1315.65 885.387 1315.65 881.6C1315.65 877.812 1313.6 874.622 1311.09 874.622C1310.71 874.622 1310.43 874.622 1310.06 874.821C1308.1 875.519 1306.52 878.41 1306.52 881.6Z" fill="#7E94C6"/>
<path d="M1306.52 789.395C1306.52 792.685 1308.01 795.476 1310.06 796.174C1312.02 795.476 1313.6 792.585 1313.6 789.395C1313.6 786.206 1312.02 783.315 1310.06 782.617C1308.1 783.315 1306.52 786.206 1306.52 789.395Z" fill="#B5C8E8"/>
<path d="M1274.54 835.047C1274.54 838.336 1276.04 841.127 1278.09 841.825C1280.04 841.127 1281.63 838.236 1281.63 835.047C1281.63 831.857 1280.04 828.966 1278.09 828.269C1276.13 828.966 1274.54 831.857 1274.54 835.047Z" fill="#B5C8E8"/>
<path d="M1285.36 803.85C1285.36 807.14 1286.94 809.931 1288.9 810.629C1290.86 809.931 1292.44 807.04 1292.44 803.85C1292.44 800.661 1290.95 797.77 1288.9 797.072C1286.94 797.77 1285.36 800.661 1285.36 803.85Z" fill="#B5C8E8"/>
<path d="M1329.64 869.039C1329.64 872.328 1331.22 875.119 1333.18 875.817C1335.14 875.119 1336.72 872.229 1336.72 869.039C1336.72 865.849 1335.14 862.958 1333.18 862.261C1331.22 862.958 1329.64 865.849 1329.64 869.039Z" fill="#B5C8E8"/>
<path d="M1283.4 869.039C1283.4 872.328 1284.89 875.119 1286.94 875.817C1288.9 875.119 1290.49 872.229 1290.49 869.039C1290.49 865.849 1288.9 862.958 1286.94 862.261C1284.99 862.958 1283.4 865.849 1283.4 869.039Z" fill="#B5C8E8"/>
<path d="M1329.64 806.242C1329.64 809.531 1331.22 812.322 1333.18 813.02C1335.14 812.322 1336.72 809.431 1336.72 806.242C1336.72 803.052 1335.14 800.161 1333.18 799.463C1331.22 800.161 1329.64 803.052 1329.64 806.242Z" fill="#B5C8E8"/>
<path d="M1336.07 835.047C1336.07 838.336 1337.66 841.127 1339.61 841.825C1341.57 841.127 1343.15 838.236 1343.15 835.047C1343.15 831.857 1341.57 828.966 1339.61 828.269C1337.66 828.966 1336.07 831.857 1336.07 835.047Z" fill="#B5C8E8"/>
<path d="M1306.52 881.598C1306.52 884.888 1308.01 887.679 1310.06 888.377C1312.02 887.679 1313.6 884.788 1313.6 881.598C1313.6 878.409 1312.02 875.518 1310.06 874.82C1308.1 875.518 1306.52 878.409 1306.52 881.598Z" fill="#B5C8E8"/>
<path d="M1040 770.152H651.2C647.545 770.152 644.582 773.32 644.582 777.229V862.056C644.582 865.965 647.545 869.133 651.2 869.133H1040C1043.66 869.133 1046.62 865.965 1046.62 862.056V777.229C1046.62 773.32 1043.66 770.152 1040 770.152Z" fill="white"/>
<path d="M1040.1 869.631H651.202C647.287 869.631 644.117 866.242 644.117 862.055V777.129C644.117 772.942 647.287 769.553 651.202 769.553H1040.1C1044.01 769.553 1047.18 772.942 1047.18 777.129V862.055C1047.18 866.242 1044.01 869.631 1040.1 869.631ZM651.202 770.65C647.846 770.65 645.142 773.54 645.142 777.129V862.055C645.142 865.644 647.846 868.534 651.202 868.534H1040.1C1043.45 868.534 1046.16 865.644 1046.16 862.055V777.129C1046.16 773.54 1043.45 770.65 1040.1 770.65H651.202Z" fill="black"/>
<path d="M1048.3 770.154H659.497C655.842 770.154 652.879 773.322 652.879 777.231V862.058C652.879 865.966 655.842 869.135 659.497 869.135H1048.3C1051.96 869.135 1054.92 865.966 1054.92 862.058V777.231C1054.92 773.322 1051.96 770.154 1048.3 770.154Z" fill="#7E94C6"/>
<path d="M1054.08 787.498H647.568C644.305 787.498 641.695 784.707 641.695 781.219V780.72C641.695 777.231 644.305 774.44 647.568 774.44H1055.48C1058.46 774.44 1060.89 777.032 1060.89 780.222C1060.89 784.209 1057.81 787.498 1054.08 787.498Z" fill="#D0DCF2"/>
<path d="M1054.08 862.157H647.568C644.305 862.157 641.695 859.366 641.695 855.877V855.379C641.695 851.89 644.305 849.099 647.568 849.099H1055.48C1058.46 849.099 1060.89 851.691 1060.89 854.881C1060.89 858.868 1057.81 862.157 1054.08 862.157Z" fill="#D0DCF2"/>
<path d="M688.221 246.939V820.89C688.221 849.299 666.689 872.325 640.122 872.325H510.924V243.749H685.238C686.357 243.948 686.544 244.048 686.637 244.148C687.476 244.646 688.128 245.543 688.221 246.64V246.939Z" fill="#C96237"/>
<path d="M676.567 243.749V820.89C676.567 849.299 655.035 872.325 628.468 872.325H499.27V243.749H676.567Z" fill="#F18D4F"/>
<path d="M333.154 345.425H584.931C606.557 345.425 624.174 364.264 624.174 387.39V426.962H333.154V345.425Z" fill="#FED0A7"/>
<path d="M130.597 345.425H387.034C360.747 346.422 339.68 369.447 339.68 397.856V420.583H81.6582" fill="#FFECDC"/>
<path d="M107.666 834.749C107.666 780.922 139.825 737.362 179.535 737.362C219.245 737.362 251.404 780.922 251.404 834.749C251.404 888.575 219.245 932.135 179.535 932.135C139.825 932.135 107.666 888.575 107.666 834.749Z" fill="#493A5B"/>
<path d="M624.175 720.316V872.327H469.156C469.156 869.337 469.157 866.446 469.436 863.555C473.165 794.079 520.425 737.162 582.507 723.506C591.829 721.413 601.43 720.416 611.311 720.416H624.175V720.316Z" fill="white"/>
<path d="M624.175 872.924H469.157C469.157 872.924 468.691 872.725 468.691 872.426C468.691 869.435 468.691 866.445 468.97 863.654C472.606 794.776 519.307 736.962 582.415 723.107C591.829 721.013 601.617 720.017 611.311 720.017H624.175C624.175 720.017 624.642 720.216 624.642 720.515V872.525C624.642 872.525 624.455 873.024 624.175 873.024V872.924ZM469.623 871.828H623.616V720.914H611.218C601.523 720.914 591.829 722.01 582.508 724.004C519.773 737.859 473.445 795.274 469.81 863.554C469.624 866.246 469.623 869.037 469.623 871.828Z" fill="black"/>
<path d="M679.731 794.179V822.089C679.731 848.005 660.061 869.037 635.825 869.037H529.373V740.85L587.633 722.41L633.401 724.104L655.215 737.561L669.569 756.301L676.56 773.047L679.171 785.307L679.637 794.079L679.731 794.179Z" fill="#342745"/>
<path d="M608.795 834.75C608.795 804.248 598.448 776.936 582.229 759.093L587.729 737.363H536.926C497.216 737.363 465.057 780.923 465.057 834.75C465.057 888.576 497.216 932.136 536.926 932.136H587.729L582.229 910.406C598.448 892.563 608.795 865.351 608.795 834.75Z" fill="#342745"/>
<path d="M659.503 834.75C659.503 888.576 627.344 932.136 587.634 932.136C547.924 932.136 515.764 888.576 515.764 834.75C515.764 780.923 547.924 737.363 587.634 737.363C627.344 737.363 659.503 780.923 659.503 834.75Z" fill="#493A5B"/>
<path d="M631.726 834.751C631.726 871.433 611.498 902.433 587.635 902.433C587.169 902.433 586.609 902.433 586.143 902.433C562.839 901.137 543.543 870.735 543.543 834.751C543.543 798.767 562.933 768.365 586.143 767.069C586.609 767.069 587.169 767.069 587.635 767.069C611.592 767.069 631.726 798.069 631.726 834.751Z" fill="#7E94C6"/>
<path d="M628.743 834.751C628.743 870.635 609.354 901.137 586.143 902.433C562.839 901.137 543.543 870.735 543.543 834.751C543.543 798.767 562.933 768.365 586.143 767.069C609.447 768.365 628.743 798.767 628.743 834.751Z" fill="#D0DCF2"/>
<path d="M585.671 863.258C595.916 863.258 604.221 850.495 604.221 834.75C604.221 819.005 595.916 806.242 585.671 806.242C575.426 806.242 567.121 819.005 567.121 834.75C567.121 850.495 575.426 863.258 585.671 863.258Z" fill="#E3EAF7"/>
<path d="M587.636 863.258C577.569 863.258 569.086 850.2 569.086 834.75C569.086 819.3 577.569 806.242 587.636 806.242C597.703 806.242 606.186 819.3 606.186 834.75C606.186 850.2 597.703 863.258 587.636 863.258Z" fill="#E3EAF7"/>
<path d="M589.22 841.727C591.742 841.727 593.787 838.603 593.787 834.749C593.787 830.895 591.742 827.771 589.22 827.771C586.697 827.771 584.652 830.895 584.652 834.749C584.652 838.603 586.697 841.727 589.22 841.727Z" fill="#E3EAF7"/>
<path d="M590.706 841.727C588.283 841.727 586.139 838.537 586.139 834.749C586.139 830.961 588.189 827.771 590.706 827.771C593.223 827.771 595.274 830.961 595.274 834.749C595.274 838.537 593.223 841.727 590.706 841.727Z" fill="#F4F7FC"/>
<path d="M582.135 789.397C582.135 792.686 583.626 795.477 585.677 796.175C586.05 796.274 586.329 796.374 586.702 796.374C589.219 796.374 591.271 793.184 591.271 789.397C591.271 785.609 589.219 782.419 586.702 782.419C586.329 782.419 586.05 782.419 585.677 782.618C583.719 783.316 582.135 786.207 582.135 789.397Z" fill="#7E94C6"/>
<path d="M550.16 835.048C550.16 838.337 551.745 841.128 553.702 841.826C554.075 841.926 554.355 842.025 554.728 842.025C557.151 842.025 559.295 838.836 559.295 835.048C559.295 831.26 557.244 828.07 554.728 828.07C554.355 828.07 554.075 828.07 553.702 828.27C551.745 828.967 550.16 831.858 550.16 835.048Z" fill="#7E94C6"/>
<path d="M560.975 803.851C560.975 807.14 562.465 809.931 564.516 810.629C564.795 810.729 565.169 810.829 565.542 810.829C567.966 810.829 570.11 807.639 570.11 803.851C570.11 800.063 568.059 796.874 565.542 796.874C565.169 796.874 564.795 796.874 564.516 797.073C562.558 797.771 560.975 800.661 560.975 803.851Z" fill="#7E94C6"/>
<path d="M605.252 869.139C605.252 872.428 606.836 875.219 608.793 875.917C609.166 876.017 609.447 876.116 609.819 876.116C612.243 876.116 614.387 872.927 614.387 869.139C614.387 865.351 612.336 862.161 609.819 862.161C609.447 862.161 609.166 862.161 608.793 862.361C606.836 863.058 605.252 865.949 605.252 869.139Z" fill="#7E94C6"/>
<path d="M559.012 869.139C559.012 872.428 560.596 875.219 562.554 875.917C562.834 876.017 563.206 876.116 563.579 876.116C566.003 876.116 568.147 872.927 568.147 869.139C568.147 865.351 566.096 862.161 563.579 862.161C563.206 862.161 562.834 862.161 562.554 862.361C560.596 863.058 559.012 865.949 559.012 869.139Z" fill="#7E94C6"/>
<path d="M605.252 806.241C605.252 809.53 606.836 812.321 608.793 813.019C609.166 813.119 609.447 813.218 609.819 813.218C612.243 813.218 614.387 810.028 614.387 806.241C614.387 802.453 612.336 799.263 609.819 799.263C609.447 799.263 609.166 799.263 608.793 799.463C606.836 800.16 605.252 803.051 605.252 806.241Z" fill="#7E94C6"/>
<path d="M611.684 835.048C611.684 838.337 613.175 841.128 615.226 841.826C615.599 841.926 615.878 842.025 616.251 842.025C618.768 842.025 620.819 838.836 620.819 835.048C620.819 831.26 618.768 828.07 616.251 828.07C615.878 828.07 615.599 828.07 615.226 828.27C613.268 828.967 611.684 831.858 611.684 835.048Z" fill="#7E94C6"/>
<path d="M582.135 881.599C582.135 884.889 583.626 887.68 585.677 888.377C586.05 888.477 586.329 888.577 586.702 888.577C589.219 888.577 591.271 885.387 591.271 881.599C591.271 877.811 589.219 874.622 586.702 874.622C586.329 874.622 586.05 874.622 585.677 874.821C583.719 875.519 582.135 878.409 582.135 881.599Z" fill="#7E94C6"/>
<path d="M582.135 789.395C582.135 792.685 583.626 795.476 585.677 796.174C587.635 795.476 589.219 792.585 589.219 789.395C589.219 786.206 587.635 783.315 585.677 782.617C583.719 783.315 582.135 786.206 582.135 789.395Z" fill="#B5C8E8"/>
<path d="M550.16 835.047C550.16 838.336 551.745 841.127 553.702 841.825C555.66 841.127 557.245 838.236 557.245 835.047C557.245 831.857 555.66 828.966 553.702 828.269C551.745 828.966 550.16 831.857 550.16 835.047Z" fill="#B5C8E8"/>
<path d="M560.975 803.85C560.975 807.139 562.465 809.93 564.516 810.628C566.473 809.93 568.058 807.04 568.058 803.85C568.058 800.66 566.473 797.77 564.516 797.072C562.558 797.77 560.975 800.66 560.975 803.85Z" fill="#B5C8E8"/>
<path d="M605.256 869.138C605.256 872.427 606.839 875.218 608.797 875.916C610.755 875.218 612.339 872.327 612.339 869.138C612.339 865.948 610.755 863.057 608.797 862.359C606.839 863.057 605.256 865.948 605.256 869.138Z" fill="#B5C8E8"/>
<path d="M559.016 869.138C559.016 872.427 560.6 875.218 562.558 875.916C564.515 875.218 566.1 872.327 566.1 869.138C566.1 865.948 564.609 863.057 562.558 862.359C560.6 863.057 559.016 865.948 559.016 869.138Z" fill="#B5C8E8"/>
<path d="M605.256 806.241C605.256 809.53 606.839 812.321 608.797 813.019C610.755 812.321 612.339 809.43 612.339 806.241C612.339 803.051 610.755 800.16 608.797 799.462C606.839 800.16 605.256 803.051 605.256 806.241Z" fill="#B5C8E8"/>
<path d="M611.684 835.047C611.684 838.336 613.175 841.127 615.226 841.825C617.183 841.127 618.768 838.236 618.768 835.047C618.768 831.857 617.277 828.966 615.226 828.269C613.268 828.966 611.684 831.857 611.684 835.047Z" fill="#B5C8E8"/>
<path d="M582.135 881.598C582.135 884.887 583.626 887.678 585.677 888.376C587.635 887.678 589.219 884.788 589.219 881.598C589.219 878.408 587.635 875.518 585.677 874.82C583.719 875.518 582.135 878.408 582.135 881.598Z" fill="#B5C8E8"/>
<path d="M606.091 407.723H376.22L359.162 618.643V872.426H376.873V881.696H469.343V863.654C473.072 794.178 520.332 737.162 582.414 723.506L620.726 720.416L624.081 720.117V427.06C624.081 416.395 615.972 407.822 606.091 407.822V407.723Z" fill="#FEB16D"/>
<path d="M25.5469 618.643H359.261V720.316H25.5469" fill="#FED0A7"/>
<path d="M30.2949 720.315H365.034C367.085 720.315 368.762 722.11 368.762 724.303V799.859C368.762 802.052 367.085 803.846 365.034 803.846H30.2949" fill="#C96237"/>
<path d="M24.9844 720.315H359.722C361.773 720.315 363.451 722.11 363.451 724.303V799.859C363.451 802.052 361.773 803.846 359.722 803.846H24.9844" fill="#FEB16D"/>
<path d="M25.5469 803.847H359.261V872.326H25.5469" fill="#FED0A7"/>
<path d="M75.5105 407.723H376.226C384.522 407.723 390.861 415.697 389.463 424.469L359.167 618.643H25.5469" fill="#FED0A7"/>
<path d="M51.3633 602.695C51.3633 602.695 277.691 603.692 351.612 603.791C351.612 606.483 350.307 608.875 348.256 610.37C326.91 625.92 311.436 653.332 300.53 680.644C285.522 718.223 278.158 758.692 278.158 799.461V858.87C278.158 863.355 274.709 867.044 270.514 867.044H93.6837" fill="#FEB16D"/>
<path d="M298.483 826.574H344.438C348.353 826.574 351.522 829.963 351.522 834.149V849.5H292.797V832.554C292.797 829.165 295.314 826.474 298.483 826.474V826.574Z" fill="#C96237"/>
<path d="M292.235 826.574H338.191C342.106 826.574 345.275 829.963 345.275 834.149V849.5H286.549V832.554C286.549 829.165 289.066 826.474 292.235 826.474V826.574Z" fill="#FEB16D"/>
<path d="M296.433 829.366H297.83V829.964C299.322 831.26 300.254 834.35 300.254 838.138C300.254 841.925 299.229 845.015 297.83 846.212V846.81H296.433C294.289 846.81 292.518 842.922 292.518 838.038C292.518 833.154 294.289 829.266 296.433 829.266V829.366Z" fill="#C96237"/>
<path d="M294.01 838.138C294.01 842.923 295.78 846.91 297.924 846.91C300.068 846.91 301.84 843.022 301.84 838.138C301.84 833.254 300.068 829.366 297.924 829.366C295.78 829.366 294.01 833.254 294.01 838.138Z" fill="#FED0A7"/>
<path d="M314.607 829.365H316.005V829.963C317.497 831.259 318.522 834.349 318.522 838.137C318.522 841.924 317.497 845.014 316.005 846.211V846.809H314.607C312.463 846.809 310.691 842.921 310.691 838.037C310.691 833.153 312.463 829.265 314.607 829.265V829.365Z" fill="#C96237"/>
<path d="M312.184 838.138C312.184 842.922 313.955 846.909 316.099 846.909C318.243 846.909 320.013 843.022 320.013 838.138C320.013 833.253 318.243 829.366 316.099 829.366C313.955 829.366 312.184 833.253 312.184 838.138Z" fill="#FED0A7"/>
<path d="M331.117 829.365H332.515V829.963C334.007 831.259 335.031 834.349 335.031 838.137C335.031 841.924 334.007 845.014 332.515 846.211V846.809H331.117C328.973 846.809 327.201 842.921 327.201 838.037C327.201 833.153 328.973 829.265 331.117 829.265V829.365Z" fill="#C96237"/>
<path d="M328.602 838.137C328.602 842.921 330.373 846.908 332.517 846.908C334.661 846.908 336.431 843.021 336.431 838.137C336.431 833.252 334.661 829.365 332.517 829.365C330.373 829.365 328.602 833.252 328.602 838.137Z" fill="#FED0A7"/>
<path d="M43.7188 602.695C43.7188 602.695 287.293 603.791 351.612 603.791C329.24 614.656 312.461 638.28 300.156 664.097C297.546 669.579 295.123 675.161 292.886 680.644C277.878 718.223 270.514 758.692 270.514 799.461V866.944H93.6835" fill="#FFECDC"/>
<path d="M72.6139 422.575H368.947C374.726 422.575 379.107 428.057 378.082 434.137L352.914 595.418C352.168 600.203 348.253 603.691 343.686 603.691H48.75" fill="#F18D4F"/>
<path d="M72.6182 429.95H358.511C358.511 429.95 359.257 429.95 359.63 429.95C365.968 430.648 370.63 436.928 369.604 443.806L363.079 485.471L349.469 572.491L347.326 586.247C346.393 592.028 341.732 596.215 336.326 596.215H48.8477" fill="#493A5B"/>
<path d="M43.7188 602.695C43.7188 602.695 287.293 603.791 351.612 603.791C329.24 614.656 312.461 638.28 300.156 664.097H68.2346" fill="#FFECDC"/>
<path d="M83.8945 676.655H276.573C279.928 676.655 282.724 679.646 282.724 683.234C282.724 685.028 282.072 686.723 280.953 687.919C279.835 689.115 278.25 689.813 276.573 689.813H83.8945" fill="#C96237"/>
<path d="M94.3379 720.117H266.136C269.585 720.117 272.287 723.108 272.287 726.696C272.287 728.49 271.635 730.185 270.516 731.381C269.398 732.577 267.907 733.275 266.136 733.275H94.3379" fill="#C96237"/>
<path d="M102.164 763.578H258.301C261.75 763.578 264.454 766.568 264.454 770.156C264.454 771.951 263.802 773.645 262.683 774.841C261.564 776.038 260.072 776.735 258.301 776.735H102.164" fill="#C96237"/>
<path d="M106.736 807.037H253.645C257.094 807.037 259.797 809.927 259.797 813.615C259.797 815.41 259.146 817.104 258.027 818.3C256.908 819.497 255.416 820.194 253.645 820.194H106.736" fill="#C96237"/>
<path d="M87.8086 676.655H276.478C279.834 676.655 282.629 679.646 282.629 683.234C282.629 685.028 281.977 686.723 280.859 687.919C279.74 689.115 278.156 689.813 276.478 689.813H87.8086" fill="#F18D4F"/>
<path d="M98.25 720.117H266.132C269.581 720.117 272.284 723.108 272.284 726.696C272.284 728.49 271.632 730.185 270.513 731.381C269.394 732.577 267.903 733.275 266.132 733.275H98.25" fill="#F18D4F"/>
<path d="M106.078 763.578H258.299C261.749 763.578 264.452 766.568 264.452 770.156C264.452 771.951 263.8 773.645 262.682 774.841C261.563 776.038 260.071 776.735 258.299 776.735H106.078" fill="#F18D4F"/>
<path d="M110.65 807.037H253.643C257.092 807.037 259.796 809.927 259.796 813.615C259.796 815.41 259.144 817.104 258.025 818.3C256.906 819.497 255.414 820.194 253.643 820.194H110.557" fill="#F18D4F"/>
<path d="M106.359 621.537H264.36C273.122 621.537 280.206 629.113 280.206 638.483V647.852C280.206 652.338 276.851 655.926 272.656 655.926H98.0625" fill="#C96237"/>
<path d="M103.19 621.537H261.192C269.954 621.537 277.038 629.113 277.038 638.483V647.852C277.038 652.338 273.683 655.926 269.488 655.926H94.8945" fill="#F18D4F"/>
<path d="M400.364 429.95H516.699C521.639 429.95 525.647 434.236 525.647 439.519V573.289C525.647 578.273 522.105 582.359 517.538 582.758L379.484 595.816C374.45 596.314 370.257 591.53 371.002 586.147L392.628 437.027C393.187 432.941 396.543 429.95 400.364 429.95Z" fill="#C96237"/>
<path d="M518.652 439.519V573.288C518.652 573.986 518.372 574.484 517.906 574.883C517.626 575.182 517.253 575.382 516.787 575.382L461.791 580.565L436.715 582.957H435.503L420.309 584.552L404.089 586.047L378.922 588.439C378.922 588.439 378.268 588.24 378.175 588.14C377.895 587.841 377.896 587.443 377.99 587.343L399.615 438.223C399.615 438.223 400.081 437.426 400.547 437.426H516.881C517.999 437.426 518.839 438.423 518.839 439.519H518.652Z" fill="#493A5B"/>
<path d="M606.93 438.323V566.61C606.93 570.996 603.854 574.584 599.752 574.983L546.899 579.967C541.866 580.465 537.484 576.179 537.484 570.797V439.22C537.484 434.137 541.399 429.95 546.153 429.95H599.007C603.295 429.95 606.837 433.738 606.837 438.323H606.93Z" fill="#C96237"/>
<path d="M600.033 438.325V566.612C600.033 567.11 599.66 567.509 599.194 567.609L546.34 572.593C545.781 572.593 545.408 572.493 545.222 572.194C544.756 571.895 544.477 571.297 544.477 570.699V439.122C544.477 438.126 545.222 437.328 546.247 437.328H599.101C599.567 437.328 600.033 437.727 600.033 438.325Z" fill="#493A5B"/>
<path d="M425.16 491.852L422.271 551.66L421.524 566.113C421.151 573.09 415.839 578.573 409.314 578.573H394.958C388.153 578.573 382.746 572.692 382.746 565.515V485.373C382.746 478.096 388.246 472.315 394.958 472.315H407.635C417.703 472.315 425.626 481.286 425.16 492.051V491.852Z" fill="#342745"/>
<path d="M420.683 491.851L417.328 561.028L417.048 566.112C416.768 571.794 413.132 576.379 408.378 577.974C407.26 578.273 406.049 578.472 404.837 578.472H390.481C383.677 578.472 378.27 572.591 378.27 565.414V485.272C378.27 477.996 383.77 472.214 390.481 472.214H403.159C413.226 472.214 421.149 481.185 420.683 491.951V491.851Z" fill="#342745"/>
<path d="M378.177 494.342H372.584C371 494.342 369.695 495.737 369.695 497.432C369.695 499.724 371.466 501.618 373.61 501.618H378.27V494.342H378.177Z" fill="#493A5B"/>
<path d="M378.176 558.236H363.821C362.144 558.236 360.838 559.632 360.838 561.426C360.838 563.719 362.516 565.513 364.66 565.513H378.269V558.236H378.176Z" fill="#493A5B"/>
<path d="M460.396 657.218C457.134 657.218 454.523 654.427 454.523 650.939V631.302C454.523 627.813 457.134 625.022 460.396 625.022H490.318C492.089 625.022 493.674 625.819 494.792 627.215C495.911 628.61 496.377 630.504 496.097 632.299L491.53 651.935C491.064 654.926 488.64 657.119 485.751 657.119H460.396V657.218Z" fill="#FED0A7"/>
<path d="M461.888 657.218C458.626 657.218 456.016 654.427 456.016 650.939V631.302C456.016 627.813 458.626 625.022 461.888 625.022H491.81C493.581 625.022 495.166 625.819 496.284 627.215C497.403 628.61 497.869 630.504 497.59 632.299L493.022 651.935C492.556 654.926 490.132 657.119 487.243 657.119H461.888V657.218Z" fill="#FED0A7"/>
<path d="M495.354 631.997L490.786 651.634C490.507 653.528 489.015 654.824 487.244 654.824H461.889C459.932 654.824 458.254 653.129 458.254 650.936V631.3C458.254 629.206 459.839 627.412 461.889 627.412H491.811C494.049 627.412 495.727 629.605 495.354 631.997Z" fill="#F18D4F"/>
<path d="M492.277 631.997L487.709 651.634C487.43 653.528 485.938 654.824 484.167 654.824H461.889C459.932 654.824 458.254 653.129 458.254 650.936V631.3C458.254 629.206 459.839 627.412 461.889 627.412H488.736C490.973 627.412 492.65 629.605 492.277 631.997Z" fill="#FEB16D"/>
<path d="M485.099 644.059H464.498C463.193 644.059 462.074 642.863 462.074 641.468C462.074 640.072 463.193 638.876 464.498 638.876H485.099C486.404 638.876 487.523 640.072 487.523 641.468C487.523 642.863 486.404 644.059 485.099 644.059Z" fill="#F18D4F"/>
<path d="M486.778 644.059H466.178C464.779 644.059 463.754 642.863 463.754 641.468C463.754 640.072 464.873 638.876 466.178 638.876H486.778C488.176 638.876 489.202 640.072 489.202 641.468C489.202 642.863 488.083 644.059 486.778 644.059Z" fill="#FED0A7"/>
<path d="M602.082 645.157V663.299C602.082 680.045 589.405 693.601 573.745 693.601H535.432C532.636 693.601 530.305 691.608 529.653 688.717L519.959 646.653C519.027 642.566 521.917 638.678 525.832 638.678H596.116C599.472 638.678 602.082 641.569 602.082 645.058V645.157Z" fill="#FED0A7"/>
<path d="M606.189 645.159V663.3C606.189 680.046 593.511 693.603 577.851 693.603H573.75C589.41 693.603 602.087 680.046 602.087 663.3V645.159C602.087 641.67 599.383 638.779 596.121 638.779H600.223C603.579 638.779 606.189 641.67 606.189 645.159Z" fill="#C96237"/>
<path d="M602.088 645.157V663.299C602.088 680.045 589.412 693.601 573.751 693.601H539.541C536.744 693.601 534.414 691.608 533.668 688.717L523.973 646.653C523.041 642.566 525.931 638.678 529.752 638.678H595.937C599.292 638.678 601.902 641.569 601.902 645.058L602.088 645.157Z" fill="#F18D4F"/>
<path d="M332.127 415.997H359.625C361.21 415.997 362.608 414.602 362.608 412.808V409.917C362.608 404.136 358.227 399.451 352.82 399.451H332.22C330.635 399.451 329.236 400.846 329.236 402.64V412.808C329.236 414.502 330.542 415.997 332.22 415.997H332.127Z" fill="#C96237"/>
<path d="M298.572 415.999H271.166C269.581 415.999 268.184 414.604 268.184 412.809V402.642C268.184 400.947 269.488 399.452 271.166 399.452H291.768C297.174 399.452 301.555 404.137 301.555 409.919V412.809C301.555 414.504 300.25 415.999 298.572 415.999Z" fill="#C96237"/>
<path d="M323.825 415.997H351.323C352.908 415.997 354.306 414.602 354.306 412.808V409.917C354.306 404.136 349.925 399.451 344.518 399.451H323.918C322.333 399.451 320.936 400.846 320.936 402.64V412.808C320.936 414.502 322.24 415.997 323.918 415.997H323.825Z" fill="#FEB16D"/>
<path d="M262.774 415.997H290.273C291.858 415.997 293.256 414.602 293.256 412.808V409.917C293.256 404.136 288.875 399.451 283.469 399.451H262.867C261.283 399.451 259.885 400.846 259.885 402.64V412.808C259.885 414.502 261.189 415.997 262.867 415.997H262.774Z" fill="#FEB16D"/>
<path d="M152.877 345.423C157.911 337.847 163.41 330.671 169.19 323.793C170.961 321.699 172.731 319.706 174.503 317.712C217.009 270.763 275.922 243.75 338.004 243.75H685.14C685.7 243.75 686.166 243.85 686.632 244.149C687.191 244.548 687.658 245.046 687.937 245.744C688.031 246.043 688.123 246.342 688.216 246.641V246.94C684.301 247.638 680.479 248.435 676.657 249.333C632.939 259.5 592.856 283.223 561.536 317.712C559.765 319.706 557.994 321.799 556.223 323.793C550.444 330.571 545.037 337.847 539.91 345.423H152.97" fill="#FED0A7"/>
<path d="M323.742 345.423H200.697C200.697 341.734 203.493 338.844 206.849 338.844H317.496C319.174 338.844 320.76 339.541 321.878 340.738C322.997 341.934 323.742 343.628 323.742 345.423Z" fill="#C96237"/>
<path d="M323.739 345.423H209.084C209.084 341.734 211.88 338.844 215.235 338.844H317.493C319.171 338.844 320.757 339.541 321.875 340.738C322.994 341.934 323.739 343.628 323.739 345.423Z" fill="#F18D4F"/>
<path d="M676.561 317.713V323.793H556.127C557.898 321.7 559.669 319.706 561.44 317.713H676.561Z" fill="#C96237"/>
<path d="M561.536 317.713C559.765 319.706 557.994 321.8 556.223 323.793H169.283C171.054 321.7 172.825 319.706 174.596 317.713H561.536Z" fill="#F18D4F"/>
<path d="M679.733 794.179C679.454 790.391 678.987 786.604 678.242 782.916C677.496 779.227 676.47 775.639 675.258 772.05C672.741 765.073 669.386 758.494 665.004 752.713C660.81 746.832 655.683 741.848 650.09 737.562C647.294 735.468 644.311 733.674 641.328 731.98C638.345 730.385 635.083 729.089 631.913 727.893C628.651 726.796 625.388 725.999 622.032 725.401C620.354 725.102 618.676 724.902 616.998 724.703C615.32 724.703 613.643 724.504 611.965 724.504C610.38 724.504 608.422 724.504 606.651 724.504H603.949L601.338 724.703H598.728C597.889 724.803 596.957 724.902 596.118 725.002L590.991 725.5C584.093 726.398 577.288 727.693 570.67 729.587C563.958 731.481 557.527 733.973 551.188 736.964L548.858 738.06L547.646 738.658L546.527 739.256L541.96 741.748L537.486 744.439C536.74 744.838 535.994 745.436 535.248 745.935L533.104 747.43C527.324 751.417 521.825 755.903 516.605 760.787C511.478 765.671 506.631 771.054 502.25 776.735L500.571 778.928C500.012 779.626 499.453 780.324 498.987 781.121L495.91 785.607L493.021 790.192L492.275 791.388L491.623 792.584L490.318 794.977C486.775 801.356 483.606 808.035 480.903 814.912C478.293 821.79 476.149 828.967 474.471 836.244C472.7 843.52 471.768 850.996 471.022 858.572C470.929 860.466 470.742 862.36 470.649 864.254L470.369 870.035C470.09 873.823 469.904 877.71 469.624 881.498C469.344 877.71 469.158 873.823 468.879 870.035L468.599 864.254C468.599 862.36 468.505 860.366 468.412 858.472C468.412 857.475 468.412 856.578 468.412 855.582V852.691C468.505 850.797 468.506 848.803 468.785 846.909C468.972 845.016 469.064 843.022 469.251 841.128L469.997 835.347C471.116 827.671 472.886 819.996 475.123 812.62L476.988 807.038C477.641 805.244 478.386 803.449 479.039 801.556C479.691 799.761 480.53 797.967 481.369 796.173L482.581 793.481C482.954 792.584 483.42 791.787 483.886 790.89L485.191 788.298L485.843 787.002L486.589 785.707L489.479 780.623L492.555 775.739C493.021 774.941 493.674 774.144 494.233 773.346L495.91 770.954C500.385 764.674 505.419 758.893 510.826 753.411C521.732 742.745 534.13 733.774 547.739 727.394C548.578 726.996 549.417 726.597 550.256 726.198L552.865 725.102C554.636 724.404 556.315 723.607 558.086 723.008C559.857 722.41 561.628 721.713 563.399 721.115L568.713 719.52C575.89 717.626 583.161 716.23 590.618 715.533L596.118 715.134C597.05 715.134 597.982 715.134 598.915 715.134H607.118C608.889 715.134 610.66 715.134 612.617 715.233C614.481 715.233 616.439 715.533 618.303 715.732C620.167 716.031 622.033 716.23 623.897 716.729C627.626 717.526 631.26 718.623 634.803 720.018C641.887 722.809 648.505 726.896 654.378 731.88C660.157 736.864 665.285 742.845 669.293 749.523C671.344 752.812 673.115 756.301 674.606 759.89C676.097 763.478 677.403 767.166 678.242 770.954C679.174 774.742 679.826 778.53 680.105 782.417C680.385 786.305 680.478 790.092 680.199 793.98L679.733 794.179Z" fill="#FFECDC"/>
<path d="M45.7715 572.592H349.376L347.232 586.347C346.3 592.129 341.638 596.315 336.232 596.315H48.7539" fill="#342745"/>
<path d="M298.857 577.677H310.23C310.883 577.677 311.349 578.176 311.349 578.873V585.452C311.349 586.15 310.883 586.648 310.23 586.648H298.857C298.204 586.648 297.738 586.15 297.738 585.452V578.873C297.738 578.176 298.204 577.677 298.857 577.677Z" fill="#493A5B"/>
<path d="M297.271 577.677H308.643C309.295 577.677 309.762 578.176 309.762 578.873V585.452C309.762 586.15 309.295 586.648 308.643 586.648H297.271C296.618 586.648 296.152 586.15 296.152 585.452V578.873C296.152 578.176 296.618 577.677 297.271 577.677Z" fill="#6D617C"/>
<path d="M304.445 582.162C304.445 583.458 303.513 584.454 302.302 584.454L218.221 583.059C218.221 583.059 217.381 582.66 217.381 582.162C217.381 581.663 217.755 581.265 218.221 581.265L302.302 579.869C303.513 579.869 304.445 580.866 304.445 582.162Z" fill="#493A5B"/>
<path d="M355.438 335.456H369.607C372.683 335.456 375.199 338.147 375.199 341.436V345.523H348.26V343.231C348.26 338.944 351.523 335.555 355.438 335.555V335.456Z" fill="#C96237"/>
<path d="M350.494 335.456H364.663C367.739 335.456 370.256 338.147 370.256 341.436V345.523H343.316V343.231C343.316 338.944 346.579 335.555 350.494 335.555V335.456Z" fill="#FEB16D"/>
<path d="M1174.52 834.751C1174.52 804.249 1164.17 776.937 1147.95 759.094L1153.45 737.364H1102.65C1062.94 737.364 1030.78 780.924 1030.78 834.751C1030.78 888.577 1062.94 932.137 1102.65 932.137H1153.45L1147.95 910.407C1164.17 892.564 1174.52 865.352 1174.52 834.751Z" fill="#342745"/>
<path d="M1153.36 932.137C1193.05 932.137 1225.22 888.536 1225.22 834.751C1225.22 780.966 1193.05 737.364 1153.36 737.364C1113.66 737.364 1081.49 780.966 1081.49 834.751C1081.49 888.536 1113.66 932.137 1153.36 932.137Z" fill="#493A5B"/>
<path d="M1197.55 834.752C1197.55 871.434 1177.32 902.434 1153.45 902.434C1152.99 902.434 1152.43 902.434 1151.96 902.434C1128.66 901.139 1109.36 870.736 1109.36 834.752C1109.36 798.768 1128.75 768.366 1151.96 767.07C1152.43 767.07 1152.99 767.07 1153.45 767.07C1177.41 767.07 1197.55 798.07 1197.55 834.752Z" fill="#7E94C6"/>
<path d="M1194.56 834.752C1194.56 870.637 1175.17 901.139 1151.96 902.434C1128.66 901.139 1109.36 870.736 1109.36 834.752C1109.36 798.768 1128.75 768.366 1151.96 767.07C1175.27 768.366 1194.56 798.768 1194.56 834.752Z" fill="#D0DCF2"/>
<path d="M1154.94 863.259C1144.88 863.259 1136.39 850.201 1136.39 834.75C1136.39 819.3 1144.88 806.242 1154.94 806.242C1165.01 806.242 1173.49 819.3 1173.49 834.75C1173.49 850.201 1165.01 863.259 1154.94 863.259Z" fill="#E3EAF7"/>
<path d="M1153.36 863.259C1143.29 863.259 1134.81 850.201 1134.81 834.75C1134.81 819.3 1143.29 806.242 1153.36 806.242C1163.43 806.242 1171.91 819.3 1171.91 834.75C1171.91 850.201 1163.43 863.259 1153.36 863.259Z" fill="#E3EAF7"/>
<path d="M1151.87 841.728C1149.44 841.728 1147.3 838.538 1147.3 834.75C1147.3 830.963 1149.35 827.773 1151.87 827.773C1154.38 827.773 1156.43 830.963 1156.43 834.75C1156.43 838.538 1154.38 841.728 1151.87 841.728Z" fill="#E3EAF7"/>
<path d="M1153.36 841.728C1150.94 841.728 1148.79 838.538 1148.79 834.75C1148.79 830.963 1150.85 827.773 1153.36 827.773C1155.88 827.773 1157.93 830.963 1157.93 834.75C1157.93 838.538 1155.88 841.728 1153.36 841.728Z" fill="#F4F7FC"/>
<path d="M1147.86 789.397C1147.86 792.687 1149.44 795.478 1151.4 796.176C1151.77 796.275 1152.05 796.375 1152.43 796.375C1154.94 796.375 1156.99 793.185 1156.99 789.397C1156.99 785.61 1154.94 782.42 1152.43 782.42C1152.05 782.42 1151.77 782.42 1151.4 782.619C1149.44 783.317 1147.86 786.208 1147.86 789.397Z" fill="#7E94C6"/>
<path d="M1115.88 835.049C1115.88 838.338 1117.47 841.129 1119.43 841.827C1119.8 841.927 1120.08 842.026 1120.45 842.026C1122.88 842.026 1125.02 838.837 1125.02 835.049C1125.02 831.261 1122.97 828.071 1120.45 828.071C1120.08 828.071 1119.8 828.071 1119.43 828.271C1117.47 828.968 1115.88 831.859 1115.88 835.049Z" fill="#7E94C6"/>
<path d="M1126.7 803.852C1126.7 807.141 1128.19 809.932 1130.24 810.63C1130.52 810.73 1130.89 810.83 1131.27 810.83C1133.69 810.83 1135.83 807.64 1135.83 803.852C1135.83 800.064 1133.78 796.875 1131.27 796.875C1130.89 796.875 1130.52 796.874 1130.24 797.074C1128.28 797.772 1126.7 800.662 1126.7 803.852Z" fill="#7E94C6"/>
<path d="M1170.98 869.041C1170.98 872.33 1172.47 875.121 1174.52 875.819C1174.9 875.919 1175.18 876.018 1175.55 876.018C1177.97 876.018 1180.12 872.829 1180.12 869.041C1180.12 865.253 1178.06 862.063 1175.55 862.063C1175.18 862.063 1174.9 862.063 1174.52 862.263C1172.57 862.961 1170.98 865.851 1170.98 869.041Z" fill="#7E94C6"/>
<path d="M1124.74 869.041C1124.74 872.33 1126.33 875.121 1128.28 875.819C1128.56 875.919 1128.94 876.018 1129.31 876.018C1131.73 876.018 1133.88 872.829 1133.88 869.041C1133.88 865.253 1131.83 862.063 1129.31 862.063C1128.94 862.063 1128.56 862.063 1128.28 862.263C1126.33 862.961 1124.74 865.851 1124.74 869.041Z" fill="#7E94C6"/>
<path d="M1170.98 806.242C1170.98 809.531 1172.47 812.322 1174.52 813.02C1174.9 813.12 1175.18 813.219 1175.55 813.219C1177.97 813.219 1180.12 810.029 1180.12 806.242C1180.12 802.454 1178.06 799.264 1175.55 799.264C1175.18 799.264 1174.9 799.264 1174.52 799.463C1172.57 800.161 1170.98 803.052 1170.98 806.242Z" fill="#7E94C6"/>
<path d="M1177.41 835.049C1177.41 838.338 1178.9 841.129 1180.95 841.827C1181.33 841.927 1181.61 842.026 1181.98 842.026C1184.5 842.026 1186.55 838.837 1186.55 835.049C1186.55 831.261 1184.5 828.071 1181.98 828.071C1181.61 828.071 1181.33 828.071 1180.95 828.271C1178.99 828.968 1177.41 831.859 1177.41 835.049Z" fill="#7E94C6"/>
<path d="M1147.86 881.601C1147.86 884.89 1149.44 887.681 1151.4 888.379C1151.77 888.478 1152.05 888.578 1152.43 888.578C1154.94 888.578 1156.99 885.388 1156.99 881.601C1156.99 877.813 1154.94 874.623 1152.43 874.623C1152.05 874.623 1151.77 874.623 1151.4 874.822C1149.44 875.52 1147.86 878.411 1147.86 881.601Z" fill="#7E94C6"/>
<path d="M1147.86 789.396C1147.86 792.685 1149.44 795.476 1151.4 796.174C1153.36 795.476 1154.94 792.586 1154.94 789.396C1154.94 786.206 1153.45 783.315 1151.4 782.618C1149.44 783.315 1147.86 786.206 1147.86 789.396Z" fill="#B5C8E8"/>
<path d="M1115.88 835.047C1115.88 838.337 1117.47 841.128 1119.43 841.825C1121.38 841.128 1122.97 838.237 1122.97 835.047C1122.97 831.857 1121.38 828.967 1119.43 828.269C1117.47 828.967 1115.88 831.857 1115.88 835.047Z" fill="#B5C8E8"/>
<path d="M1126.7 803.85C1126.7 807.14 1128.19 809.931 1130.24 810.629C1132.2 809.931 1133.78 807.04 1133.78 803.85C1133.78 800.661 1132.2 797.77 1130.24 797.072C1128.28 797.77 1126.7 800.661 1126.7 803.85Z" fill="#B5C8E8"/>
<path d="M1170.98 869.039C1170.98 872.329 1172.47 875.12 1174.52 875.818C1176.48 875.12 1178.06 872.229 1178.06 869.039C1178.06 865.85 1176.48 862.959 1174.52 862.261C1172.57 862.959 1170.98 865.85 1170.98 869.039Z" fill="#B5C8E8"/>
<path d="M1124.74 869.039C1124.74 872.329 1126.33 875.12 1128.28 875.818C1130.24 875.12 1131.83 872.229 1131.83 869.039C1131.83 865.85 1130.34 862.959 1128.28 862.261C1126.33 862.959 1124.74 865.85 1124.74 869.039Z" fill="#B5C8E8"/>
<path d="M1170.98 806.242C1170.98 809.531 1172.47 812.322 1174.52 813.02C1176.48 812.322 1178.06 809.431 1178.06 806.242C1178.06 803.052 1176.48 800.161 1174.52 799.463C1172.57 800.161 1170.98 803.052 1170.98 806.242Z" fill="#B5C8E8"/>
<path d="M1177.41 835.047C1177.41 838.337 1178.9 841.128 1180.95 841.825C1182.91 841.128 1184.49 838.237 1184.49 835.047C1184.49 831.857 1183 828.967 1180.95 828.269C1178.99 828.967 1177.41 831.857 1177.41 835.047Z" fill="#B5C8E8"/>
<path d="M1147.86 881.599C1147.86 884.888 1149.44 887.679 1151.4 888.377C1153.36 887.679 1154.94 884.789 1154.94 881.599C1154.94 878.409 1153.45 875.519 1151.4 874.821C1149.44 875.519 1147.86 878.409 1147.86 881.599Z" fill="#B5C8E8"/>
<path d="M731.558 752.015H717.949V770.157H731.558V752.015Z" fill="#7E94C6"/>
<path d="M718.043 752.015H714.688V770.157H718.043V752.015Z" fill="#B5C8E8"/>
<path d="M817.965 752.015H804.355V770.156H817.965V752.015Z" fill="#7E94C6"/>
<path d="M804.36 752.015H801.004V770.156H804.36V752.015Z" fill="#B5C8E8"/>
<path d="M976.996 752.015H963.387V770.157H976.996V752.015Z" fill="#7E94C6"/>
<path d="M963.387 752.015H960.125V770.157H963.387V752.015Z" fill="#B5C8E8"/>
<path d="M1383.89 722.908V745.335C1383.89 749.023 1381.09 752.014 1377.64 752.014H688.121V715.332H1376.8C1380.72 715.332 1383.89 718.721 1383.89 722.908Z" fill="#B5C8E8"/>
<path d="M337.262 747.029V785.506C337.262 789.692 334.092 793.18 330.084 793.18H326.169C313.212 793.18 302.679 781.917 302.679 768.062V740.251C302.679 735.267 306.407 731.28 311.068 731.28H322.44C330.643 731.28 337.262 738.357 337.262 747.128V747.029Z" fill="#FFECDC"/>
<path d="M333.808 746.93V785.406C333.808 787.399 332.504 788.994 330.733 789.293C330.546 789.293 330.36 789.293 330.081 789.293H326.165C326.165 789.293 325.326 789.293 324.86 789.293C314.42 788.596 306.217 779.325 306.217 767.962V740.152C306.217 737.261 308.454 734.869 311.158 734.869H322.53C328.775 734.869 333.808 740.251 333.808 746.93Z" fill="#C96237"/>
<path d="M333.811 746.93V785.406C333.811 787.399 332.507 788.994 330.735 789.293C320.388 788.496 312.186 779.226 312.186 767.962V740.152C312.186 737.261 314.423 734.869 317.126 734.869H322.439C328.685 734.869 333.719 740.251 333.719 746.93H333.811Z" fill="white"/>
<path d="M362.986 485.574L349.377 572.594H258.771L269.585 498.333C271.822 483.281 283.94 472.117 298.202 472.117H334.929C346.115 472.117 356.089 477.3 362.894 485.474L362.986 485.574Z" fill="#342745"/>
<path d="M339.681 572.594H234.348L245.161 498.333C247.398 483.281 259.516 472.117 273.778 472.117H310.504C333.529 472.117 351.054 494.047 347.512 518.368L339.589 572.594H339.681Z" fill="#342745"/>
<path d="M359.533 430.05L283.003 596.414H169.932L246.462 430.05H358.414C358.414 430.05 359.16 430.05 359.533 430.05Z" fill="#766A89"/>
<g opacity="0.25">
<path d="M498.052 437.427L420.216 584.553L403.996 586.048L408.005 578.473H409.31C415.835 578.473 421.241 572.99 421.521 566.013L422.267 551.559L482.671 437.327H498.052V437.427Z" fill="#766A89"/>
<path d="M461.791 580.566L518.653 473.012V573.19C518.653 573.887 518.372 574.386 517.906 574.785C517.626 575.084 517.254 575.283 516.788 575.283L461.791 580.466V580.566Z" fill="#766A89"/>
<path d="M600.033 438.324V468.527L545.222 572.193C545.222 572.193 544.477 571.296 544.477 570.698V439.121C544.477 438.125 545.222 437.327 546.247 437.327H599.101C599.567 437.327 600.033 437.726 600.033 438.324Z" fill="#766A89"/>
</g>
<path d="M1383.89 743.043V745.335C1383.89 749.023 1381.09 752.014 1377.64 752.014H688.121V715.332H707.138C707.138 730.583 718.697 743.043 733.052 743.043H1383.89Z" fill="#7E94C6"/>
<path d="M1142.74 746.232L857.682 745.933C848.36 745.933 840.902 737.859 840.902 727.891L841.462 118.554C841.462 108.586 849.012 100.611 858.334 100.611L1143.39 100.91C1152.71 100.91 1160.17 108.984 1160.17 118.952L1159.61 728.29C1159.61 738.258 1152.06 746.232 1142.74 746.232Z" fill="#342745"/>
<path d="M769.594 539.5L795.043 501.124C795.043 501.124 829.532 523.95 830.744 525.246C831.863 526.542 839.319 537.008 839.506 541.992C839.692 546.976 825.245 556.944 821.796 558.24C818.253 559.436 769.687 539.5 769.687 539.5H769.594Z" fill="#EA9181"/>
<path d="M791.965 657.22L814.15 638.779L814.057 672.57L791.965 657.22Z" fill="#EA9181"/>
<path d="M919.481 369.345L850.688 405.529L777.14 223.415C770.988 208.463 775.556 190.92 788.047 181.45C803.707 169.588 825.52 175.071 834.748 193.113L919.481 369.345Z" fill="#EA9181"/>
<path d="M1273.24 776.136C1272.31 791.686 1268.67 806.937 1262.52 821.291C1262.05 822.387 1261.59 823.484 1261.03 824.58C1230.27 892.262 1168.09 931.436 1102.93 934.028C1023.98 931.237 914.731 804.246 872.41 751.117C870.826 749.123 869.335 747.229 867.936 745.435C859.454 734.67 854.699 728.191 854.699 728.191C854.699 728.191 843.607 728.988 828.506 730.583L826.734 727.593C977.185 625.621 1069.47 727.892 1069.47 727.892C1069.47 727.892 1079.54 687.92 1139.29 560.331L1213.86 557.939C1213.86 557.939 1228.59 589.936 1252.64 673.666C1257.58 690.911 1262.99 710.348 1268.67 732.178C1272.49 746.631 1273.89 761.583 1273.05 776.336L1273.24 776.136Z" fill="#FDCFBF"/>
<path d="M1115.89 746.232H1084.29L868.775 745.933H830.93C821.608 745.933 814.15 737.859 814.15 727.891L814.71 118.554C814.71 108.586 822.26 100.611 831.582 100.611L1116.64 100.91C1125.96 100.91 1133.42 108.984 1133.42 118.952L1132.86 728.29C1132.86 738.258 1125.31 746.232 1115.98 746.232H1115.89Z" fill="#493A5B"/>
<path d="M1123.26 131.014H821.613V685.828H1123.26V131.014Z" fill="#6D617C"/>
<path d="M1114.12 676.058V140.781L830.744 140.781V676.058H1114.12Z" fill="#E4EFF5"/>
<path d="M922.185 697.787H993.495C996.105 697.787 998.249 700.08 998.249 702.871V726.096C998.249 728.887 996.105 731.18 993.495 731.18H922.185C919.575 731.18 917.338 728.887 917.338 725.996V702.771C917.338 699.98 919.482 697.588 922.185 697.588V697.787Z" fill="#6D617C"/>
<path d="M996.762 121.942H924.705C922.468 121.942 920.697 119.949 920.791 117.656C920.791 115.264 922.561 113.37 924.798 113.37H996.854C999.091 113.37 1000.86 115.364 1000.86 117.656C1000.86 119.949 999.091 121.942 996.854 121.942H996.762Z" fill="#342745"/>
<path d="M1026.03 117.755C1026.03 120.148 1024.26 122.042 1022.02 122.042C1019.78 122.042 1018.1 120.148 1018.1 117.755C1018.1 115.363 1019.88 113.469 1022.11 113.469C1024.35 113.469 1026.12 115.363 1026.12 117.755H1026.03Z" fill="#342745"/>
<path d="M1144.5 226.008C1140.86 226.008 1137.97 222.819 1137.97 219.031V160.121C1137.97 156.233 1140.96 153.143 1144.59 153.143C1148.23 153.143 1151.12 156.333 1151.12 160.121V219.031C1151.12 222.918 1148.13 226.008 1144.5 226.008Z" fill="#6D617C"/>
<path d="M1144.41 318.809C1140.78 318.809 1137.88 315.619 1137.88 311.831V252.921C1137.88 249.033 1140.87 245.943 1144.5 245.943C1148.14 245.943 1151.03 249.133 1151.03 253.021V311.931C1151.03 315.818 1148.05 318.908 1144.41 318.908V318.809Z" fill="#6D617C"/>
<path d="M1106.47 801.554C1072.54 789.194 1065.92 772.747 1065.92 772.747L872.406 751.017C871.567 749.92 870.728 748.923 869.982 747.927C870.355 747.229 870.728 746.631 871.101 745.933L1084.29 746.132C1086.06 756.698 1088.85 767.563 1092.86 778.428C1096.31 787.699 1100.88 795.374 1106.47 801.454V801.554Z" fill="#FDB0A8"/>
<path d="M1273.24 776.136C1231.94 833.95 1161.94 823.085 1161.94 823.085C1226.91 822.188 1274.64 754.007 1255.99 685.428C1254.87 681.341 1253.76 677.354 1252.73 673.566C1257.76 690.811 1263.17 710.149 1268.86 731.978C1272.68 746.432 1274.08 761.384 1273.24 776.136Z" fill="#FDB0A8"/>
<path d="M1161.85 823.085C1158.68 823.085 1155.41 823.085 1152.15 822.686C1134.44 821.091 1118.31 814.612 1106.48 801.554C1100.88 795.374 1096.22 787.798 1092.87 778.528C1081.4 747.329 1079.91 716.727 1082.71 690.711C1083.73 680.843 1085.41 671.573 1087.27 663.2C1093.89 633.994 1103.96 615.055 1103.96 615.055L1125.12 498.53L1096.69 419.783C1079.91 371.838 1086.81 344.426 1095.85 329.773C1101.72 320.304 1114.68 319.805 1121.11 328.876L1202.96 443.208L1231.48 596.315C1231.48 596.315 1240.61 629.508 1252.55 673.566C1253.57 677.454 1254.69 681.441 1255.81 685.428C1274.45 754.007 1226.72 822.188 1161.75 823.085H1161.85Z" fill="#FDCFBF"/>
<path d="M871.105 745.932C870.732 746.63 870.359 747.228 869.986 747.925C869.613 748.523 869.147 749.221 868.774 749.819C861.131 760.485 848.454 765.07 836.708 761.98C834.378 761.382 832.141 760.485 829.904 759.289L804.642 745.533C777.236 730.581 767.449 693.999 783.203 665.69C787.863 657.317 796.905 653.729 805.108 655.822C807.718 656.52 810.329 657.816 812.566 659.709L862.716 701.076C875.766 711.842 879.028 731.08 871.105 745.932Z" fill="#FDCFBF"/>
<g opacity="0.4">
<path d="M903.454 676.059H844.914L894.411 140.783H952.951L903.454 676.059Z" fill="white"/>
<path d="M1052.6 676.059H956.775L1006.27 140.783H1102.1L1052.6 676.059Z" fill="white"/>
</g>
<path d="M838.572 651.039L788.05 620.338C759.059 602.695 752.068 561.328 773.414 533.916C781.617 523.45 796.159 522.254 805.76 531.125L871.291 587.942C884.994 600.701 888.443 622.132 879.401 638.978C871.198 654.428 852.927 659.811 838.479 651.039H838.572Z" fill="#FDCFBF"/>
<path d="M819.931 547.175L789.077 515.477C765.027 490.756 767.73 448.791 794.763 427.859C805.11 419.885 819.558 422.476 826.828 433.74L866.26 494.644C876.607 510.692 875.022 532.223 862.438 546.278C850.972 559.036 831.956 559.435 820.024 547.175H819.931Z" fill="#FDCFBF"/>
<path d="M968.24 173.773C940.275 173.773 917.531 197.995 917.531 227.999C917.531 258.002 968.24 330.369 968.24 330.369C968.24 330.369 1018.95 258.002 1018.95 227.999C1018.95 197.995 996.298 173.773 968.24 173.773ZM968.24 248.832C953.792 248.832 942.046 236.272 942.046 220.722C942.046 205.172 953.792 192.712 968.24 192.712C982.689 192.712 994.527 205.272 994.527 220.722C994.527 236.172 982.782 248.832 968.24 248.832Z" fill="#F35740"/>
<path d="M990.986 361.269H875.586V449.784H990.986V361.269Z" fill="#FED0A7"/>
<path d="M1060.89 361.269H991.074V449.784H1060.89V361.269Z" fill="#FEB16D"/>
<path d="M905.695 375.225H883.043V385.392H905.695V375.225Z" fill="#FEB16D"/>
<path d="M934.031 386.887L917.439 383.099V361.269H934.031V386.887Z" fill="#FFECDC"/>
<path d="M990.986 470.32H875.586V558.835H990.986V470.32Z" fill="#FED0A7"/>
<path d="M1060.89 470.32H991.074V558.835H1060.89V470.32Z" fill="#FEB16D"/>
<path d="M905.695 484.174H883.043V494.441H905.695V484.174Z" fill="#FEB16D"/>
<path d="M934.031 495.937L917.439 492.05V470.32H934.031V495.937Z" fill="#FFECDC"/>
</svg>
