<svg width="2269" height="1411" viewBox="0 0 2269 1411" fill="none" xmlns="http://www.w3.org/2000/svg">
<g clip-path="url(#clip0_231_10634)">
<path d="M2056.79 1244.44C2159.68 1217.22 2243.44 1157.46 2262.95 1045.83C2288.59 899.12 2219.58 794.08 2132.88 686.68C2075.4 615.47 2061.07 546.75 2075.42 460.09C2096.28 334.07 2126.51 216.62 2032.49 110.24C1970.24 39.7998 1874.59 3.20984 1781.21 6.59984C1646.65 11.4998 1561.08 102.48 1446.25 156.81C1338.17 207.95 1204.46 244.75 1085.84 212.61C940.15 173.14 838.46 42.8198 680.92 34.4098C614.97 30.8898 544.83 51.7798 495.36 97.0398C443.22 144.73 420.35 218.48 347.22 242.07C313.43 252.97 276.87 248.66 241.67 253.08C98.5203 271.05 44.8003 413.21 63.9803 540.79C91.4603 723.56 142.18 903.35 212.52 1074.19C232.7 1123.21 254.9 1172.1 287.79 1213.68C365.2 1311.5 470.74 1308.42 585.24 1309.72C728.23 1311.34 871.07 1303.27 1013.94 1298.78C1218.96 1292.33 1423.93 1284.08 1628.8 1273.99C1764.63 1267.3 1924.09 1279.56 2056.78 1244.46L2056.79 1244.44Z" fill="url(#paint0_linear_231_10634)"/>
<path d="M1396.13 177.64C1396.33 166.81 1405.11 157.9 1415.86 157.9H1822.38C1833.28 157.9 1843.98 167.27 1843.98 178.25V1159.18C1843.98 1164.46 1840.96 1169.52 1837.25 1173.25C1833.54 1176.98 1828.04 1179.06 1822.79 1179.05L1397.75 1177.88C1392.46 1177.87 1387.28 1175.71 1383.58 1171.91C1379.88 1168.1 1377.79 1162.84 1377.89 1157.52L1396.12 177.64H1396.13Z" fill="#FFBA80"/>
<g opacity="0.5">
<path d="M1695.51 273.5L1811.32 273.34L1812.24 213.57H1696.32L1695.51 273.5Z" fill="white"/>
<path d="M1565.7 273.47L1681.4 273.31L1682.19 213.57H1566.38L1565.7 273.47Z" fill="white"/>
<path d="M1436.03 273.44L1551.6 273.28L1552.27 213.57H1436.58L1436.03 273.44Z" fill="white"/>
<path d="M1694.07 380.78L1809.67 380.86L1810.59 321.48L1694.87 321.43L1694.07 380.78Z" fill="white"/>
<path d="M1564.48 380.7L1679.98 380.77L1680.77 321.42L1565.16 321.38L1564.48 380.7Z" fill="white"/>
<path d="M1435.03 380.62L1550.41 380.69L1551.07 321.37L1435.58 321.32L1435.03 380.62Z" fill="white"/>
<path d="M1692.62 487.33L1808.03 487.46L1808.94 428.28L1693.43 428.19L1692.62 487.33Z" fill="white"/>
<path d="M1563.27 487.2L1678.56 487.32L1679.34 428.17L1563.94 428.08L1563.27 487.2Z" fill="white"/>
<path d="M1434.04 487.06L1549.21 487.18L1549.88 428.07L1434.59 427.97L1434.04 487.06Z" fill="white"/>
<path d="M1691.19 593.51L1806.39 593.68L1807.3 534.71L1691.99 534.57L1691.19 593.51Z" fill="white"/>
<path d="M1562.05 593.32L1677.14 593.49L1677.93 534.55L1562.73 534.41L1562.05 593.32Z" fill="white"/>
<path d="M1433.05 593.14L1548.03 593.3L1548.68 534.39L1433.6 534.25L1433.05 593.14Z" fill="white"/>
<path d="M1689.76 699.33L1804.76 699.54L1805.67 640.78L1690.55 640.59L1689.76 699.33Z" fill="white"/>
<path d="M1560.85 699.09L1675.74 699.3L1676.52 640.56L1561.52 640.37L1560.85 699.09Z" fill="white"/>
<path d="M1432.06 698.84L1546.84 699.06L1547.5 640.35L1432.61 640.16L1432.06 698.84Z" fill="white"/>
<path d="M1688.33 804.78L1803.13 805.04L1804.04 746.48L1689.12 746.24L1688.33 804.78Z" fill="white"/>
<path d="M1559.64 804.48L1674.33 804.74L1675.11 746.21L1560.31 745.97L1559.64 804.48Z" fill="white"/>
<path d="M1431.08 804.19L1545.66 804.45L1546.32 745.94L1431.63 745.71L1431.08 804.19Z" fill="white"/>
<path d="M1686.9 909.86L1801.51 910.17L1802.41 851.81L1687.69 851.53L1686.9 909.86Z" fill="white"/>
<path d="M1558.44 909.519L1672.94 909.819L1673.71 851.489L1559.11 851.209L1558.44 909.519Z" fill="white"/>
<path d="M1430.1 909.17L1544.48 909.48L1545.14 851.17L1430.65 850.89L1430.1 909.17Z" fill="white"/>
<path d="M1685.49 1014.59L1799.9 1014.94L1800.8 956.78L1686.27 956.45L1685.49 1014.59Z" fill="white"/>
<path d="M1557.24 1014.19L1671.54 1014.54L1672.32 956.41L1557.91 956.08L1557.24 1014.19Z" fill="white"/>
<path d="M1429.13 1013.79L1543.31 1014.15L1543.96 956.04L1429.67 955.71L1429.13 1013.79Z" fill="white"/>
<path d="M1684.07 1118.95L1798.29 1119.35L1799.18 1061.39L1684.86 1061.01L1684.07 1118.95Z" fill="white"/>
<path d="M1556.05 1118.5L1670.15 1118.9L1670.92 1060.97L1556.71 1060.59L1556.05 1118.5Z" fill="white"/>
<path d="M1428.16 1118.05L1542.14 1118.45L1542.79 1060.55L1428.7 1060.17L1428.16 1118.05Z" fill="white"/>
</g>
<path d="M1755.7 488.92C1755.88 482.86 1763.58 477.87 1773.02 477.87H2129.84C2139.41 477.87 2148.8 483.12 2148.8 489.26V1038.23C2148.8 1041.18 2146.15 1044.02 2142.89 1046.1C2139.63 1048.19 2134.8 1049.35 2130.2 1049.35L1757.13 1048.7C1752.49 1048.7 1747.94 1047.49 1744.7 1045.36C1741.45 1043.23 1739.62 1040.29 1739.71 1037.31L1755.71 488.92H1755.7Z" fill="#FFBA80"/>
<g opacity="0.5">
<path d="M2018.48 542.56L2120.13 542.48L2120.94 509.03H2019.19L2018.48 542.56Z" fill="white"/>
<path d="M1904.54 542.55L2006.09 542.46L2006.78 509.03H1905.14L1904.54 542.55Z" fill="white"/>
<path d="M1790.72 542.53L1892.16 542.44L1892.75 509.03H1791.2L1790.72 542.53Z" fill="white"/>
<path d="M2017.21 602.61L2118.68 602.65L2119.49 569.42L2017.91 569.39L2017.21 602.61Z" fill="white"/>
<path d="M1903.47 602.56L2004.84 602.6L2005.53 569.39L1904.06 569.36L1903.47 602.56Z" fill="white"/>
<path d="M1789.84 602.51L1891.11 602.56L1891.7 569.36L1790.33 569.33L1789.84 602.51Z" fill="white"/>
<path d="M2015.94 662.24L2117.24 662.31L2118.04 629.19L2016.65 629.13L2015.94 662.24Z" fill="white"/>
<path d="M1902.4 662.161L2003.6 662.231L2004.29 629.131L1902.99 629.081L1902.4 662.161Z" fill="white"/>
<path d="M1788.97 662.081L1890.07 662.151L1890.65 629.07L1789.46 629.021L1788.97 662.081Z" fill="white"/>
<path d="M2014.68 721.66L2115.8 721.76L2116.6 688.75L2015.38 688.67L2014.68 721.66Z" fill="white"/>
<path d="M1901.34 721.55L2002.36 721.65L2003.04 688.66L1901.93 688.58L1901.34 721.55Z" fill="white"/>
<path d="M1788.11 721.45L1889.02 721.54L1889.6 688.57L1788.59 688.49L1788.11 721.45Z" fill="white"/>
<path d="M2013.42 780.881L2114.37 781.001L2115.16 748.111L2014.12 748.011L2013.42 780.881Z" fill="white"/>
<path d="M1900.28 780.741L2001.12 780.861L2001.81 747.991L1900.86 747.891L1900.28 780.741Z" fill="white"/>
<path d="M1787.24 780.61L1887.98 780.73L1888.56 747.87L1787.72 747.771L1787.24 780.61Z" fill="white"/>
<path d="M2012.17 839.89L2112.94 840.04L2113.73 807.27L2012.87 807.13L2012.17 839.89Z" fill="white"/>
<path d="M1899.22 839.73L1999.89 839.88L2000.57 807.12L1899.81 806.98L1899.22 839.73Z" fill="white"/>
<path d="M1786.38 839.56L1886.95 839.71L1887.52 806.97L1786.86 806.84L1786.38 839.56Z" fill="white"/>
<path d="M2010.92 898.7L2111.52 898.88L2112.31 866.22L2011.62 866.06L2010.92 898.7Z" fill="white"/>
<path d="M1898.17 898.51L1998.66 898.68L1999.34 866.04L1898.75 865.88L1898.17 898.51Z" fill="white"/>
<path d="M1785.52 898.32L1885.92 898.49L1886.49 865.86L1786 865.7L1785.52 898.32Z" fill="white"/>
<path d="M2009.68 957.31L2110.1 957.51L2110.89 924.96L2010.37 924.78L2009.68 957.31Z" fill="white"/>
<path d="M1897.12 957.09L1997.44 957.29L1998.12 924.75L1897.7 924.57L1897.12 957.09Z" fill="white"/>
<path d="M1784.66 956.87L1884.89 957.07L1885.46 924.55L1785.14 924.36L1784.66 956.87Z" fill="white"/>
<path d="M2008.44 1015.72L2108.69 1015.94L2109.47 983.51L2009.13 983.3L2008.44 1015.72Z" fill="white"/>
<path d="M1896.07 1015.47L1996.22 1015.69L1996.9 983.27L1896.65 983.06L1896.07 1015.47Z" fill="white"/>
<path d="M1783.81 1015.22L1883.86 1015.44L1884.43 983.04L1784.28 982.83L1783.81 1015.22Z" fill="white"/>
</g>
<path d="M1032.31 549.6C1032.43 546.16 1037.6 543.4 1043.94 543.4H1428.61C1435.04 543.4 1441.86 546.25 1441.86 549.73V1036.32C1441.86 1038.92 1439.14 1041.41 1435.75 1043.25C1432.35 1045.09 1427.34 1046.11 1422.55 1046.11L1033.67 1045.53C1028.83 1045.53 1024.1 1044.46 1020.71 1042.59C1017.32 1040.72 1015.42 1038.18 1015.51 1035.55L1032.31 549.59V549.6Z" fill="#FFBA80"/>
<g opacity="0.51">
<g style="mix-blend-mode:overlay">
<path d="M1253.22 577.89L1379.05 577.65L1379 569.12L1253.31 569.33L1253.22 577.89Z" fill="white"/>
</g>
<g style="mix-blend-mode:overlay">
<path d="M1252.87 609.32L1379.22 609.01L1379.18 600.4L1252.97 600.69L1252.87 609.32Z" fill="white"/>
</g>
<g style="mix-blend-mode:overlay">
<path d="M1252.52 641.01L1379.4 640.62L1379.35 631.94L1252.62 632.31L1252.52 641.01Z" fill="white"/>
</g>
<g style="mix-blend-mode:overlay">
<path d="M1252.17 672.97L1379.57 672.5L1379.52 663.75L1252.27 664.2L1252.17 672.97Z" fill="white"/>
</g>
<g style="mix-blend-mode:overlay">
<path d="M1251.82 705.19L1379.75 704.64L1379.7 695.82L1251.92 696.35L1251.82 705.19Z" fill="white"/>
</g>
<g style="mix-blend-mode:overlay">
<path d="M1251.1 770.44L1380.11 769.73L1380.06 760.76L1251.2 761.45L1251.1 770.44Z" fill="white"/>
</g>
<g style="mix-blend-mode:overlay">
<path d="M1250.01 870.41L1380.66 869.44L1380.6 860.24L1250.11 861.19L1250.01 870.41Z" fill="white"/>
</g>
<g style="mix-blend-mode:overlay">
<path d="M1251.46 737.68L1379.93 737.05L1379.88 728.15L1251.56 728.76L1251.46 737.68Z" fill="white"/>
</g>
<g style="mix-blend-mode:overlay">
<path d="M1250.74 803.48L1380.29 802.68L1380.24 793.64L1250.84 794.42L1250.74 803.48Z" fill="white"/>
</g>
<g style="mix-blend-mode:overlay">
<path d="M1250.38 836.8L1380.47 835.92L1380.42 826.8L1250.48 827.66L1250.38 836.8Z" fill="white"/>
</g>
<g style="mix-blend-mode:overlay">
<path d="M1249.64 904.3L1380.84 903.24L1380.79 893.96L1249.74 895L1249.64 904.3Z" fill="white"/>
</g>
<g style="mix-blend-mode:overlay">
<path d="M1249.26 938.48L1381.03 937.33L1380.98 927.97L1249.36 929.1L1249.26 938.48Z" fill="white"/>
</g>
<g style="mix-blend-mode:overlay">
<path d="M1248.88 972.96L1381.22 971.72L1381.17 962.28L1248.99 963.5L1248.88 972.96Z" fill="white"/>
</g>
<g style="mix-blend-mode:overlay">
<path d="M1248.5 1007.73L1381.41 1006.4L1381.36 996.88L1248.6 998.19L1248.5 1007.73Z" fill="white"/>
</g>
<g style="mix-blend-mode:overlay">
<path d="M1088.24 578.19L1214.86 577.96L1215 569.4L1088.52 569.61L1088.24 578.19Z" fill="white"/>
</g>
<g style="mix-blend-mode:overlay">
<path d="M1087.21 609.73L1214.36 609.41L1214.5 600.78L1087.5 601.08L1087.21 609.73Z" fill="white"/>
</g>
<g style="mix-blend-mode:overlay">
<path d="M1086.18 641.52L1213.85 641.13L1213.99 632.43L1086.46 632.8L1086.18 641.52Z" fill="white"/>
</g>
<g style="mix-blend-mode:overlay">
<path d="M1085.13 673.58L1213.34 673.11L1213.48 664.33L1085.42 664.78L1085.13 673.58Z" fill="white"/>
</g>
<g style="mix-blend-mode:overlay">
<path d="M1084.08 705.91L1212.83 705.35L1212.97 696.51L1084.37 697.04L1084.08 705.91Z" fill="white"/>
</g>
<g style="mix-blend-mode:overlay">
<path d="M1081.95 771.38L1211.78 770.66L1211.92 761.66L1082.24 762.36L1081.95 771.38Z" fill="white"/>
</g>
<g style="mix-blend-mode:overlay">
<path d="M1078.68 871.68L1210.18 870.7L1210.33 861.47L1078.98 862.43L1078.68 871.68Z" fill="white"/>
</g>
<g style="mix-blend-mode:overlay">
<path d="M1083.02 738.51L1212.31 737.87L1212.45 728.95L1083.31 729.56L1083.02 738.51Z" fill="white"/>
</g>
<g style="mix-blend-mode:overlay">
<path d="M1080.87 804.53L1211.25 803.73L1211.4 794.65L1081.16 795.43L1080.87 804.53Z" fill="white"/>
</g>
<g style="mix-blend-mode:overlay">
<path d="M1079.78 837.96L1210.72 837.07L1210.87 827.92L1080.08 828.79L1079.78 837.96Z" fill="white"/>
</g>
<g style="mix-blend-mode:overlay">
<path d="M1077.57 905.69L1209.64 904.62L1209.79 895.31L1077.88 896.36L1077.57 905.69Z" fill="white"/>
</g>
<g style="mix-blend-mode:overlay">
<path d="M1076.46 939.99L1209.09 938.83L1209.24 929.44L1076.76 930.58L1076.46 939.99Z" fill="white"/>
</g>
<g style="mix-blend-mode:overlay">
<path d="M1075.33 974.59L1208.54 973.34L1208.69 963.87L1075.64 965.09L1075.33 974.59Z" fill="white"/>
</g>
<g style="mix-blend-mode:overlay">
<path d="M1074.19 1009.48L1207.98 1008.14L1208.14 998.59L1074.5 999.91L1074.19 1009.48Z" fill="white"/>
</g>
</g>
<path d="M686.24 818.24C661.33 724.7 608.23 648.51 543.27 602.05C485.2 560.52 444.88 498.32 432.16 428.14C430.82 420.76 429.17 413.35 427.19 405.92C397.23 293.42 304.02 220.58 218.99 243.22C133.96 265.86 89.3103 375.42 119.27 487.92C125.4 510.92 134.17 532.26 144.97 551.47C179.46 612.75 190.71 684.77 173.76 753.05C158.61 814.07 158.69 883.62 177.36 953.75C205.21 1058.35 268.32 1141.25 343.83 1185.15C372.39 1201.75 397.83 1223.44 418.54 1249.15C452.95 1291.88 503.24 1313.64 550.97 1300.93C602.47 1287.22 636.58 1237.21 641.69 1177.16C644.58 1143.18 654.12 1110.2 668.6 1079.29C702.78 1006.33 711.43 912.81 686.25 818.23L686.24 818.24Z" fill="#FFBA80"/>
<path d="M280.63 354.97C311.54 426.36 340.12 498.69 367.96 571.32C374.93 589.47 381.6 607.74 388.33 625.98L398.42 653.34L408.28 680.79C414.79 699.11 421.54 717.35 427.84 735.75L446.74 790.94C458.87 827.9 471.31 864.75 482.75 901.93C488.5 920.51 494.6 938.98 499.97 957.68L516.33 1013.69C537.39 1088.59 556.58 1164.04 571.92 1240.33L568.64 1241.02L554.99 1184.38L551.61 1170.22L547.88 1156.14L540.36 1128L532.89 1099.85C530.42 1090.46 527.6 1081.17 524.97 1071.82C519.59 1053.16 514.35 1034.47 508.85 1015.85C486.36 941.51 462.88 867.47 437.87 793.93C425.09 757.25 412.62 720.47 399.58 683.88L389.88 656.41L379.95 629.02C373.34 610.76 366.73 592.49 359.93 574.3C346.65 537.79 333.1 501.38 319.26 465.08C305.61 428.71 291.61 392.45 277.51 356.26L280.61 354.97H280.63Z" fill="#00AEEF"/>
<path d="M280.63 354.97C311.54 426.36 340.12 498.69 367.96 571.32C374.93 589.47 381.6 607.74 388.33 625.98L398.42 653.34L408.28 680.79C414.79 699.11 421.54 717.35 427.84 735.75L446.74 790.94C458.87 827.9 471.31 864.75 482.75 901.93C488.5 920.51 494.6 938.98 499.97 957.68L516.33 1013.69C537.39 1088.59 556.58 1164.04 571.92 1240.33L568.64 1241.02L554.99 1184.38L551.61 1170.22L547.88 1156.14L540.36 1128L532.89 1099.85C530.42 1090.46 527.6 1081.17 524.97 1071.82C519.59 1053.16 514.35 1034.47 508.85 1015.85C486.36 941.51 462.88 867.47 437.87 793.93C425.09 757.25 412.62 720.47 399.58 683.88L389.88 656.41L379.95 629.02C373.34 610.76 366.73 592.49 359.93 574.3C346.65 537.79 333.1 501.38 319.26 465.08C305.61 428.71 291.61 392.45 277.51 356.26L280.61 354.97H280.63Z" fill="black" fill-opacity="0.2"/>
<path d="M425.43 1004.07C386.37 962.82 337.67 938.39 291.21 932.59C249.68 927.41 211.48 906.609 185.24 873.999C182.48 870.569 179.55 867.209 176.45 863.939C129.47 814.329 61.07 802.829 23.67 838.239C-13.73 873.659 -5.97996 942.59 41 992.2C50.61 1002.34 61.11 1010.89 72.05 1017.77C106.99 1039.72 132.98 1073.69 143.41 1113.61C152.73 1149.29 172.28 1185.11 201.57 1216.04C245.24 1262.16 300.98 1287.26 352.15 1288.8C371.51 1289.38 390.68 1293.45 408.55 1300.92C438.24 1313.33 470.23 1310.5 491.23 1290.62C513.88 1269.17 517.41 1233.87 503.19 1201.5C495.14 1183.18 490.8 1163.52 489.58 1143.55C486.7 1096.4 464.92 1045.79 425.43 1004.09V1004.07Z" fill="#FFBA80"/>
<path d="M86.7398 878.609C122.67 906.769 157.67 936.059 192.37 965.709C201.05 973.119 209.6 980.669 218.19 988.189L231.06 999.469L243.84 1010.86C252.33 1018.49 260.92 1026 269.32 1033.72L294.53 1056.89C311.14 1072.55 327.88 1088.06 344.2 1104.03C352.37 1112 360.69 1119.81 368.7 1127.95L392.83 1152.24C424.68 1184.95 455.72 1218.48 485.01 1253.51L483.52 1254.78L460.61 1229.4L454.9 1223.05L449.03 1216.84L437.27 1204.44L425.53 1192.02C421.63 1187.87 417.57 1183.87 413.59 1179.79C405.59 1171.68 397.65 1163.51 389.59 1155.45C357.16 1123.42 324.31 1091.82 290.81 1060.91C273.94 1045.58 257.21 1030.1 240.23 1014.89L227.53 1003.44L214.74 992.099C206.21 984.539 197.69 976.969 189.09 969.489C172.01 954.389 154.83 939.399 137.52 924.559C120.29 909.629 102.92 894.849 85.5098 880.139L86.7398 878.609Z" fill="#00AEEF"/>
<path d="M86.7398 878.609C122.67 906.769 157.67 936.059 192.37 965.709C201.05 973.119 209.6 980.669 218.19 988.189L231.06 999.469L243.84 1010.86C252.33 1018.49 260.92 1026 269.32 1033.72L294.53 1056.89C311.14 1072.55 327.88 1088.06 344.2 1104.03C352.37 1112 360.69 1119.81 368.7 1127.95L392.83 1152.24C424.68 1184.95 455.72 1218.48 485.01 1253.51L483.52 1254.78L460.61 1229.4L454.9 1223.05L449.03 1216.84L437.27 1204.44L425.53 1192.02C421.63 1187.87 417.57 1183.87 413.59 1179.79C405.59 1171.68 397.65 1163.51 389.59 1155.45C357.16 1123.42 324.31 1091.82 290.81 1060.91C273.94 1045.58 257.21 1030.1 240.23 1014.89L227.53 1003.44L214.74 992.099C206.21 984.539 197.69 976.969 189.09 969.489C172.01 954.389 154.83 939.399 137.52 924.559C120.29 909.629 102.92 894.849 85.5098 880.139L86.7398 878.609Z" fill="black" fill-opacity="0.2"/>
<path d="M583.989 591.32C582.789 589.03 579.399 589.39 578.709 591.88C576.149 601.1 569.949 617.18 556.949 622.89C556.299 623.18 555.669 623.47 555.079 623.76C554.489 621.99 554.479 619.94 555.889 617.78C559.929 611.6 552.629 603.16 552.629 603.16C552.629 603.16 552.149 610.59 546.499 615.27C541.629 619.3 539.299 628.27 542.619 635.63C549.659 662.96 560.199 699.12 519.149 725.53C478.099 751.94 420.289 675.69 420.289 675.69L448.979 766.65C448.979 766.65 493.259 799.33 544.779 753.38C596.289 707.43 562.149 640.56 562.149 640.56C562.149 640.56 601.439 624.71 583.979 591.34L583.989 591.32Z" fill="url(#paint1_linear_231_10634)"/>
<path d="M413.109 542.05C413.109 542.05 424.999 488.71 363.899 502.83C363.899 502.83 334.239 497.98 332.729 525.98C332.729 525.98 313.609 538.58 327.609 562.81C327.609 562.81 270.789 540.86 246.029 590.67C221.269 640.47 244.029 667.88 267.889 675.02C267.889 675.02 248.559 684.72 257.709 706.64C266.859 728.55 313.189 744 340.559 717.35C340.559 717.35 418.439 727.64 416.879 672.63C416.879 672.63 453.099 649.24 415.059 603.78C377.019 558.32 413.119 542.06 413.119 542.06L413.109 542.05Z" fill="url(#paint2_linear_231_10634)"/>
<path d="M416.47 665.7C404.19 662.02 368.44 655.22 334.43 686.61C328.66 691.93 326.31 700.02 328.36 707.59C337.49 741.22 361.59 840.56 340.46 883.55C340.46 883.55 377.7 924.6 418.32 891.51C418.32 891.51 436.55 812.07 460.42 777.2C476.9 753.12 434.14 686.79 423.32 670.76C421.68 668.33 419.27 666.54 416.46 665.7H416.47Z" fill="url(#paint3_linear_231_10634)"/>
<path d="M382.569 598.89C382.569 598.89 364.409 650.26 363.039 672.92C363.039 672.92 383.109 682.05 402.019 666.64C402.019 666.64 403.999 615.33 406.869 606.15L382.559 598.89H382.569Z" fill="url(#paint4_linear_231_10634)"/>
<path d="M407.788 528.85C407.788 528.85 455.288 595.32 426.888 614.63C398.498 633.94 364.688 586.7 364.688 586.7C364.688 586.7 353.668 550.32 365.188 537.98C376.708 525.64 407.788 528.86 407.788 528.86V528.85Z" fill="url(#paint5_linear_231_10634)"/>
<path d="M385.809 512.97C385.809 512.97 407.629 518.14 410.689 528.01C413.749 537.88 379.749 547.04 370.219 547.49L362.539 587.33C362.539 587.33 339.849 549.85 348.839 528.21C357.829 506.57 385.809 512.97 385.809 512.97Z" fill="url(#paint6_linear_231_10634)"/>
<path d="M373.899 581.81C373.899 581.81 355.409 560.4 348.059 574.36C340.709 588.32 364.699 598.8 373.009 591.94L373.899 581.81Z" fill="url(#paint7_linear_231_10634)"/>
<path d="M465.749 1058.3C465.609 1061.91 471.939 1090.51 475.389 1105.77C476.779 1111.91 475.809 1118.33 472.689 1123.8L353.349 1324.66C351.909 1327.09 350.859 1329.72 350.219 1332.47C348.029 1341.9 343.499 1365 345.869 1386.01L352.039 1398.83L325.339 1392.77L319.529 1321.07L327.089 1316.46C333.619 1312.48 338.709 1306.53 341.619 1299.45C352.409 1273.24 379.209 1206.51 386.119 1174C393.969 1137.04 435.009 1107.03 435.009 1107.03L427.799 1089.98L465.769 1058.3H465.749Z" fill="url(#paint8_linear_231_10634)"/>
<path d="M295.66 1368.1C295.66 1368.1 310.08 1345.24 311.78 1336.34C313.48 1327.44 318.2 1311.73 327.09 1316.46C327.09 1316.46 331.28 1359.69 329.84 1376.57C328.4 1393.45 348.93 1392.92 348.93 1392.92C348.93 1392.92 354.59 1393.72 358.74 1397.86C361.6 1400.72 359.56 1405.69 355.52 1405.95C348.8 1406.38 338.12 1406.5 326.92 1404.33C323 1403.57 320.1 1400.24 319.86 1396.26L316.9 1346.51L298.71 1369.48L295.68 1368.11L295.66 1368.1Z" fill="url(#paint9_linear_231_10634)"/>
<path d="M394.459 1090.3C394.459 1090.3 390.249 1269.96 389.679 1295.48C389.109 1321 393.709 1377.55 419.289 1394.45L408.159 1402.69C408.159 1402.69 394.249 1390.87 380.659 1368.11C365.389 1342.55 360.779 1337.88 360.779 1337.88L365.849 1327.51C368.069 1322.97 368.719 1317.83 367.699 1312.88C362.179 1286.13 343.739 1197.14 338.709 1177.97C332.769 1155.35 332.349 1125.14 353.009 1099.85C373.669 1074.56 394.469 1090.3 394.469 1090.3H394.459Z" fill="url(#paint10_linear_231_10634)"/>
<path d="M370.84 1410.78C370.05 1410.78 369.37 1410.22 369.26 1409.43C368.41 1403.44 364.87 1379.43 361.96 1373.21C358.64 1366.09 347.79 1336.12 361.96 1333.57C361.96 1333.57 397.21 1385.07 403.97 1392.01C410.74 1398.95 419.28 1394.44 419.28 1394.44C419.28 1394.44 425.87 1396.39 430.84 1402.74C433.21 1405.76 431 1410.2 427.16 1410.24L403.42 1410.47C396.52 1410.54 390.32 1406.35 387.76 1399.95C383.58 1389.51 376.4 1374.2 368.03 1367.41L372.38 1409.04C372.48 1409.97 371.75 1410.78 370.82 1410.79L370.84 1410.78Z" fill="url(#paint11_linear_231_10634)"/>
<path d="M423.95 872.14C423.95 872.14 418.6 889.19 426.82 917.28L477.81 1095.33C478.61 1098.13 477.1 1101.06 474.36 1102.04C459.11 1107.51 408.97 1122.99 340.53 1118.27C337.08 1118.03 334.19 1115.59 333.45 1112.22C328.94 1091.92 313.55 1022.66 310.39 1008.43C298.32 954.21 284.84 895.73 344.14 860.37C371.47 872.07 396.95 878.97 423.96 872.13L423.95 872.14Z" fill="url(#paint12_linear_231_10634)"/>
<path d="M329.57 693.31C329.57 693.31 271.56 741.52 257.16 807.4C242.76 873.28 341.93 880.28 341.93 880.28C341.93 880.28 355.39 865.25 371.38 870.61C387.36 875.97 372.62 844.37 353.92 844.46C335.22 844.54 343.88 859.33 317.43 847.35C291.66 835.68 275.73 799.58 341.48 744.85C345.29 741.68 348.33 737.63 350.16 733.03C362.93 700.88 352.8 679.8 329.57 693.32V693.31Z" fill="url(#paint13_linear_231_10634)"/>
<path d="M648.731 583.58C740.461 635.76 817.041 632.5 903.641 586.99C909.241 584.05 912.651 578.13 912.351 571.81L912.181 568.15C911.651 556.95 900.201 549.64 889.821 553.87C814.631 584.51 758.071 601.32 663.921 554.85C653.561 549.74 641.321 556.82 640.551 568.35C640.131 574.58 643.321 580.49 648.751 583.58H648.731Z" fill="url(#paint14_linear_231_10634)"/>
<path d="M666.11 625.87L615.47 554.1C613.93 551.91 615.28 548.87 617.93 548.55L701.81 538.29C704.93 537.91 707.3 541.04 706.09 543.94C686.93 570.52 676.14 597.64 672.24 625.2C671.17 627.76 667.7 628.14 666.1 625.88L666.11 625.87Z" fill="url(#paint15_linear_231_10634)"/>
<path d="M893.899 127.159C798.489 68.2194 717.039 68.7294 623.329 113.729C617.269 116.639 613.419 122.789 613.499 129.509L613.539 133.409C613.679 145.319 625.549 153.519 636.739 149.429C717.769 119.779 778.469 104.109 876.679 157.079C887.489 162.909 900.759 155.859 902.019 143.639C902.699 137.039 899.539 130.639 893.899 127.159Z" fill="url(#paint16_linear_231_10634)"/>
<path d="M877.06 81.5897L928.08 159.75C929.63 162.13 928.08 165.31 925.25 165.55L835.78 173.22C832.45 173.51 830.05 170.09 831.45 167.06C852.82 139.57 865.32 111.19 870.52 82.0697C871.75 79.3897 875.45 79.1197 877.06 81.5897Z" fill="url(#paint17_linear_231_10634)"/>
<path d="M670.482 185.644L627.271 480.757L764.874 500.905L808.085 205.792L670.482 185.644Z" fill="#00AEEF"/>
<path d="M670.482 185.644L627.271 480.757L764.874 500.905L808.085 205.792L670.482 185.644Z" fill="black" fill-opacity="0.2"/>
<path opacity="0.5" d="M697.11 206.19L775.84 217.72C774.91 224.06 779.93 230.23 786.94 231.26C787.16 231.29 787.7 231.36 787.7 231.35L752.82 469.55C752.82 469.55 752.29 469.45 752.07 469.42C745.05 468.39 738.56 472.69 737.62 479.13C737.61 479.22 737.55 479.34 737.55 479.34L660.59 468.07C662.18 457.21 655.12 455.14 648.1 454.11C647.88 454.08 647.82 454.17 647.82 454.18L682.7 215.98C682.7 215.98 682.74 216.01 682.96 216.04C689.98 217.07 696.18 212.54 697.11 206.2V206.19Z" fill="white"/>
<path d="M760.2 351.791C765.013 328.113 749.719 305.016 726.041 300.203C702.363 295.39 679.266 310.683 674.453 334.361C669.64 358.039 684.933 381.136 708.612 385.949C732.29 390.762 755.387 375.469 760.2 351.791Z" fill="url(#paint18_linear_231_10634)"/>
<path d="M745.892 351.73L741.312 351.06C740.422 355.8 738.602 360.36 736.642 363.5C735.942 364.62 734.512 365.03 733.302 364.51L729.212 362.72C727.712 362.06 727.152 360.24 727.992 358.84C729.872 355.72 731.582 351.77 732.222 347.35C732.892 342.75 731.842 339.1 728.642 338.63C725.762 338.21 723.662 340.61 721.012 346.74C717.182 355.49 712.252 361.45 704.232 360.28C696.992 359.22 692.232 353.11 692.102 343.7L687.522 343.03C686.052 342.81 685.032 341.45 685.242 339.97L685.632 337.28C685.852 335.81 687.212 334.79 688.692 335L692.802 335.6C693.622 331.21 694.852 328.11 696.122 325.69C696.772 324.45 698.282 323.94 699.572 324.5L703.362 326.15C704.822 326.79 705.422 328.53 704.642 329.92C703.412 332.14 702.002 335.32 701.372 339.64C700.572 345.09 702.602 346.98 704.632 347.28C707.122 347.65 709.322 344.62 712.532 337.86C717.052 328.18 721.872 324.59 729.432 325.69C736.362 326.71 741.842 332.76 741.942 342.96L747.062 343.71C748.532 343.93 749.552 345.29 749.342 346.77L748.952 349.46C748.732 350.93 747.372 351.95 745.892 351.74V351.73Z" fill="white"/>
<path d="M662.801 478.78C662.801 478.78 662.731 478.78 662.701 478.78L636.901 475C636.531 474.95 636.271 474.6 636.331 474.23L647.001 401.36C647.051 400.99 647.391 400.72 647.771 400.79C648.141 400.84 648.401 401.19 648.341 401.56L637.771 473.76L662.901 477.44C663.271 477.49 663.531 477.84 663.471 478.21C663.421 478.55 663.131 478.79 662.801 478.79V478.78Z" fill="url(#paint19_linear_231_10634)"/>
<path d="M788.602 285.92C788.602 285.92 788.532 285.92 788.502 285.92C788.132 285.87 787.872 285.52 787.932 285.15L798.372 213.85L771.432 209.91C771.062 209.86 770.802 209.51 770.862 209.14C770.912 208.77 771.262 208.5 771.632 208.57L799.242 212.61C799.422 212.64 799.582 212.73 799.692 212.88C799.802 213.03 799.842 213.21 799.822 213.38L789.282 285.35C789.232 285.69 788.942 285.93 788.612 285.93L788.602 285.92Z" fill="white"/>
<path d="M661.072 174.09L617.861 469.203L756.365 489.483L799.575 194.369L661.072 174.09Z" fill="#FFBA80"/>
<path opacity="0.5" d="M687.982 194.68L766.712 206.21C765.782 212.55 771.122 218.73 778.142 219.76C778.362 219.79 778.312 219.74 779.222 219.86L744.342 458.06C743.442 457.92 743.492 457.91 743.272 457.88C736.252 456.85 729.602 461.17 728.652 467.61C728.642 467.7 728.412 467.83 728.412 467.83L651.452 456.56C653.042 445.7 645.852 443.57 638.832 442.54C638.612 442.51 638.422 442.54 638.422 442.54L673.302 204.34C673.302 204.34 673.472 204.42 673.692 204.46C680.712 205.49 687.042 201.01 687.972 194.68H687.982Z" fill="white"/>
<path d="M739.144 362.432C756.229 345.347 756.229 317.646 739.144 300.56C722.058 283.475 694.357 283.475 677.272 300.56C660.186 317.646 660.186 345.347 677.272 362.432C694.357 379.517 722.058 379.517 739.144 362.432Z" fill="url(#paint20_linear_231_10634)"/>
<path d="M736.771 340.15L732.191 339.48C731.301 344.22 729.481 348.78 727.521 351.92C726.821 353.04 725.391 353.45 724.181 352.93L720.091 351.14C718.591 350.48 718.031 348.66 718.871 347.26C720.751 344.14 722.461 340.19 723.101 335.77C723.771 331.17 722.721 327.52 719.521 327.05C716.641 326.63 714.541 329.03 711.891 335.16C708.061 343.91 703.131 349.87 695.111 348.7C687.871 347.64 683.111 341.53 682.981 332.12L678.401 331.45C676.931 331.23 675.911 329.87 676.121 328.39L676.511 325.7C676.731 324.23 678.091 323.21 679.571 323.42L683.681 324.02C684.501 319.63 685.731 316.53 687.001 314.11C687.651 312.87 689.161 312.36 690.451 312.92L694.241 314.57C695.701 315.21 696.301 316.95 695.521 318.34C694.291 320.56 692.881 323.74 692.251 328.06C691.451 333.51 693.481 335.4 695.511 335.7C698.001 336.06 700.201 333.04 703.411 326.28C707.931 316.6 712.751 313.01 720.311 314.11C727.241 315.13 732.721 321.18 732.821 331.38L737.941 332.13C739.411 332.35 740.431 333.71 740.221 335.19L739.831 337.88C739.611 339.35 738.251 340.37 736.771 340.16V340.15Z" fill="white"/>
<path d="M654.432 466.46C654.432 466.46 654.362 466.46 654.332 466.46L627.622 462.55C627.442 462.52 627.282 462.43 627.172 462.28C627.062 462.13 627.022 461.95 627.042 461.78L637.582 389.81C637.632 389.44 637.982 389.17 638.352 389.24C638.722 389.29 638.982 389.64 638.922 390.01L628.482 461.31L654.512 465.12C654.882 465.17 655.142 465.52 655.082 465.89C655.032 466.23 654.742 466.47 654.412 466.47L654.432 466.46Z" fill="url(#paint21_linear_231_10634)"/>
<path d="M779.192 274.37C779.192 274.37 779.122 274.37 779.092 274.37C778.722 274.32 778.462 273.97 778.522 273.6L788.962 202.3L762.932 198.49C762.562 198.44 762.302 198.09 762.362 197.72C762.412 197.35 762.762 197.08 763.132 197.15L789.842 201.06C790.212 201.11 790.472 201.46 790.412 201.83L779.872 273.8C779.822 274.14 779.532 274.38 779.202 274.38L779.192 274.37Z" fill="white"/>
<path d="M703.126 156.695L572.939 425.043L698.881 486.143L829.068 217.795L703.126 156.695Z" fill="#00AEEF"/>
<path d="M703.126 156.695L572.939 425.043L698.881 486.143L829.068 217.795L703.126 156.695Z" fill="black" fill-opacity="0.2"/>
<path opacity="0.5" d="M722.682 184.49L794.272 219.22C791.472 224.98 794.612 232.52 800.992 235.61C801.192 235.71 801.072 235.67 801.902 236.06L696.822 452.66C696.002 452.25 696.122 452.29 695.922 452.2C689.542 449.1 681.952 451.16 679.112 457.02C679.072 457.11 678.882 457.11 678.882 457.11L608.902 423.16C613.692 413.28 607.382 409.12 601.002 406.02C600.802 405.92 600.522 405.93 600.512 405.94L705.592 189.34C705.592 189.34 705.822 189.44 706.022 189.54C712.402 192.64 719.882 190.25 722.682 184.49Z" fill="white"/>
<path d="M719.76 281.8C741.5 292.35 750.57 318.52 740.03 340.26C729.48 362 703.31 371.07 681.57 360.53C659.83 349.98 650.76 323.81 661.3 302.07C671.85 280.33 698.02 271.26 719.76 281.8Z" fill="#00AEEF"/>
<path d="M719.76 281.8C741.5 292.35 750.57 318.52 740.03 340.26C729.48 362 703.31 371.07 681.57 360.53C659.83 349.98 650.76 323.81 661.3 302.07C671.85 280.33 698.02 271.26 719.76 281.8Z" fill="black" fill-opacity="0.2"/>
<path d="M725.281 338.02L721.121 336C718.841 340.25 715.731 344.05 712.921 346.45C711.921 347.31 710.421 347.27 709.431 346.4L706.071 343.46C704.841 342.38 704.851 340.48 706.081 339.4C708.811 336.99 711.631 333.74 713.581 329.72C715.611 325.54 715.701 321.74 712.801 320.33C710.181 319.06 707.451 320.71 703.081 325.76C696.791 332.95 690.291 337.15 683.001 333.61C676.411 330.41 673.721 323.16 676.431 314.15L672.271 312.13C670.931 311.48 670.371 309.87 671.021 308.53L672.211 306.08C672.861 304.74 674.471 304.18 675.811 304.83L679.551 306.64C681.661 302.7 683.761 300.11 685.701 298.19C686.691 297.2 688.291 297.18 689.341 298.1L692.451 300.81C693.651 301.86 693.691 303.7 692.531 304.8C690.691 306.54 688.381 309.15 686.481 313.08C684.071 318.04 685.441 320.45 687.281 321.34C689.551 322.44 692.551 320.22 697.661 314.74C704.891 306.87 710.571 304.9 717.441 308.24C723.741 311.3 727.141 318.72 724.161 328.48L728.821 330.74C730.161 331.39 730.721 333 730.071 334.34L728.881 336.79C728.231 338.13 726.621 338.69 725.281 338.04V338.02Z" fill="white"/>
<path d="M608.431 434.3C608.331 434.3 608.231 434.28 608.131 434.23L583.851 422.45C583.511 422.29 583.371 421.88 583.541 421.54L615.691 355.28C615.851 354.94 616.261 354.8 616.601 354.97C616.941 355.13 617.081 355.54 616.911 355.88L585.061 421.53L608.731 433.01C609.071 433.17 609.211 433.58 609.041 433.92C608.921 434.16 608.681 434.3 608.431 434.3Z" fill="#FFBA80"/>
<path d="M785.7 287.94C785.6 287.94 785.5 287.92 785.4 287.87C785.06 287.71 784.92 287.3 785.09 286.96L816.54 222.13L792.87 210.65C792.53 210.49 792.39 210.08 792.56 209.74C792.72 209.4 793.13 209.26 793.47 209.43L817.75 221.21C817.91 221.29 818.04 221.43 818.1 221.6C818.16 221.77 818.15 221.96 818.07 222.12L786.32 287.56C786.2 287.8 785.96 287.94 785.71 287.94H785.7Z" fill="#FFBA80"/>
<path d="M670.712 392.17C676.872 395.16 679.442 402.57 676.452 408.73C673.462 414.89 666.052 417.46 659.892 414.47C653.732 411.48 651.162 404.07 654.152 397.91C657.142 391.75 664.552 389.18 670.712 392.17Z" fill="#00AEEF"/>
<path d="M670.712 392.17C676.872 395.16 679.442 402.57 676.452 408.73C673.462 414.89 666.052 417.46 659.892 414.47C653.732 411.48 651.162 404.07 654.152 397.91C657.142 391.75 664.552 389.18 670.712 392.17Z" fill="black" fill-opacity="0.2"/>
<path d="M752.092 224.42C758.252 227.41 760.822 234.82 757.832 240.98C754.842 247.14 747.432 249.71 741.272 246.72C735.112 243.73 732.542 236.32 735.532 230.16C738.522 224 745.932 221.43 752.092 224.42Z" fill="#00AEEF"/>
<path d="M752.092 224.42C758.252 227.41 760.822 234.82 757.832 240.98C754.842 247.14 747.432 249.71 741.272 246.72C735.112 243.73 732.542 236.32 735.532 230.16C738.522 224 745.932 221.43 752.092 224.42Z" fill="black" fill-opacity="0.2"/>
<path d="M758.678 435.391C760.951 414.928 746.206 396.496 725.743 394.222C705.279 391.949 686.847 406.694 684.574 427.157C682.3 447.621 697.046 466.053 717.509 468.326C737.972 470.6 756.404 455.854 758.678 435.391Z" fill="url(#paint22_linear_231_10634)"/>
<path d="M737.21 463.736C755.145 455.104 762.687 433.567 754.055 415.632C745.424 397.696 723.887 390.154 705.951 398.786C688.016 407.418 680.474 428.954 689.106 446.89C697.737 464.825 719.274 472.367 737.21 463.736Z" fill="url(#paint23_linear_231_10634)"/>
<path opacity="0.68" d="M688.881 433.01C688.721 433.1 688.541 433.15 688.341 433.15C687.671 433.16 687.121 432.63 687.111 431.97C686.841 418.87 693.861 406.92 705.431 400.79C707.281 399.81 709.211 399 711.191 398.37C711.821 398.17 712.501 398.52 712.701 399.15C712.901 399.78 712.561 400.47 711.921 400.66C710.091 401.24 708.281 402 706.561 402.91C695.801 408.62 689.271 419.73 689.521 431.91C689.521 432.38 689.271 432.79 688.881 433V433.01Z" fill="white"/>
<path opacity="0.68" d="M733.712 460.026C749.416 453.919 757.196 436.237 751.089 420.533C744.982 404.828 727.3 397.048 711.596 403.155C695.891 409.262 688.111 426.944 694.218 442.648C700.325 458.353 718.007 466.133 733.712 460.026Z" fill="white"/>
<path d="M730.629 453L729.069 450.07C725.949 451.57 722.539 452.45 719.899 452.65C718.959 452.72 718.109 452.07 717.899 451.14L717.199 448.01C716.939 446.86 717.759 445.77 718.929 445.66C721.529 445.42 724.539 444.73 727.369 443.23C730.309 441.67 731.979 439.51 730.889 437.46C729.909 435.61 727.629 435.42 722.959 436.49C716.279 437.99 710.729 437.67 708.009 432.53C705.549 427.89 707.059 422.55 712.449 418.48L710.889 415.55C710.389 414.61 710.749 413.44 711.689 412.94L713.409 412.03C714.349 411.53 715.519 411.89 716.019 412.83L717.419 415.46C720.309 414.07 722.619 413.46 724.559 413.17C725.549 413.02 726.489 413.68 726.709 414.66L727.359 417.55C727.609 418.66 726.849 419.75 725.719 419.89C723.909 420.12 721.469 420.66 718.709 422.12C715.219 423.97 714.989 425.95 715.679 427.25C716.529 428.85 719.199 428.83 724.489 427.82C732.009 426.32 736.129 427.59 738.699 432.43C741.059 436.87 739.879 442.61 734.019 447L735.759 450.28C736.259 451.22 735.899 452.39 734.959 452.89L733.239 453.8C732.299 454.3 731.129 453.94 730.629 453Z" fill="url(#paint24_linear_231_10634)"/>
<path d="M794.611 407.35C830.454 407.35 859.511 378.293 859.511 342.45C859.511 306.607 830.454 277.55 794.611 277.55C758.768 277.55 729.711 306.607 729.711 342.45C729.711 378.293 758.768 407.35 794.611 407.35Z" fill="url(#paint25_linear_231_10634)"/>
<path d="M808.083 403.737C841.925 396.296 863.327 362.83 855.887 328.988C848.446 295.146 814.98 273.743 781.138 281.184C747.296 288.624 725.893 322.091 733.334 355.933C740.774 389.775 774.241 411.177 808.083 403.737Z" fill="url(#paint26_linear_231_10634)"/>
<path opacity="0.68" d="M737.261 344.74C737.101 344.83 736.921 344.88 736.721 344.88C736.051 344.89 735.501 344.36 735.491 343.7C735.031 321.24 747.071 300.74 766.911 290.22C770.081 288.54 773.401 287.14 776.781 286.07C777.411 285.87 778.091 286.22 778.291 286.85C778.491 287.48 778.141 288.17 777.511 288.36C774.261 289.39 771.081 290.73 768.041 292.34C749.011 302.43 737.471 322.09 737.901 343.64C737.901 344.11 737.651 344.52 737.261 344.73V344.74Z" fill="white"/>
<path opacity="0.68" d="M827.543 386.022C851.324 368.851 856.683 335.654 839.513 311.873C822.343 288.092 789.145 282.733 765.364 299.903C741.583 317.073 736.224 350.271 753.394 374.052C770.565 397.833 803.762 403.192 827.543 386.022Z" fill="white"/>
<path d="M810.36 380.33L807.65 375.23C802.22 377.84 796.29 379.38 791.68 379.72C790.04 379.84 788.56 378.71 788.2 377.1L786.97 371.66C786.52 369.66 787.94 367.76 789.98 367.57C794.51 367.16 799.74 365.96 804.68 363.34C809.8 360.62 812.7 356.86 810.82 353.3C809.12 350.09 805.15 349.74 797.01 351.61C785.37 354.22 775.73 353.66 770.98 344.72C766.69 336.64 769.33 327.34 778.7 320.25L775.99 315.15C775.12 313.51 775.74 311.47 777.39 310.6L780.39 309.01C782.03 308.14 784.07 308.76 784.94 310.41L787.37 314.99C792.4 312.58 796.43 311.52 799.8 311.01C801.53 310.75 803.16 311.9 803.54 313.6L804.68 318.63C805.12 320.57 803.8 322.46 801.83 322.71C798.69 323.11 794.44 324.04 789.62 326.59C783.54 329.82 783.14 333.26 784.34 335.51C785.81 338.29 790.48 338.26 799.67 336.5C812.76 333.9 819.94 336.1 824.41 344.52C828.51 352.25 826.46 362.24 816.27 369.88L819.3 375.59C820.17 377.23 819.55 379.27 817.9 380.14L814.9 381.73C813.26 382.6 811.22 381.98 810.35 380.33H810.36Z" fill="url(#paint27_linear_231_10634)"/>
<path d="M907.593 516.105C944.349 513.064 971.68 480.801 968.639 444.046C965.598 407.29 933.336 379.958 896.58 383C859.824 386.041 832.493 418.303 835.534 455.059C838.575 491.815 870.837 519.146 907.593 516.105Z" fill="#F58220"/>
<path d="M966.606 451.391C967.639 415.751 939.584 386.021 903.943 384.988C868.303 383.955 838.573 412.01 837.54 447.651C836.507 483.291 864.562 513.021 900.203 514.054C935.843 515.087 965.573 487.032 966.606 451.391Z" fill="url(#paint28_linear_231_10634)"/>
<path opacity="0.68" d="M843.06 451.85C842.9 451.94 842.72 451.99 842.52 451.99C841.85 452 841.3 451.47 841.29 450.81C840.82 427.71 853.2 406.64 873.6 395.81C876.85 394.08 880.27 392.65 883.75 391.54C884.38 391.34 885.06 391.69 885.26 392.32C885.46 392.95 885.12 393.63 884.48 393.83C881.14 394.89 877.86 396.27 874.73 397.93C855.14 408.32 843.25 428.56 843.7 450.75C843.7 451.22 843.45 451.63 843.06 451.84V451.85Z" fill="white"/>
<path opacity="0.68" d="M918.336 502.825C947.455 494.903 964.637 464.875 956.715 435.757C948.793 406.638 918.766 389.456 889.647 397.378C860.529 405.3 843.346 435.327 851.268 464.446C859.19 493.564 889.218 510.747 918.336 502.825Z" fill="white"/>
<path d="M918.291 488.52L915.501 483.27C909.911 485.96 903.811 487.54 899.071 487.89C897.381 488.02 895.861 486.85 895.491 485.19L894.231 479.59C893.771 477.54 895.231 475.57 897.321 475.38C901.981 474.96 907.371 473.72 912.451 471.03C917.721 468.23 920.711 464.36 918.761 460.69C917.011 457.38 912.921 457.03 904.551 458.95C892.581 461.64 882.651 461.06 877.771 451.86C873.361 443.55 876.071 433.98 885.721 426.68L882.931 421.43C882.031 419.74 882.681 417.64 884.371 416.75L887.461 415.11C889.151 414.21 891.251 414.86 892.141 416.55L894.641 421.27C899.811 418.79 903.961 417.7 907.431 417.17C909.211 416.9 910.891 418.08 911.281 419.84L912.451 425.01C912.901 427.01 911.541 428.95 909.511 429.21C906.271 429.62 901.901 430.58 896.951 433.21C890.691 436.53 890.281 440.07 891.511 442.39C893.031 445.25 897.821 445.22 907.281 443.41C920.751 440.73 928.131 443 932.731 451.67C936.951 459.62 934.841 469.9 924.351 477.76L927.471 483.64C928.371 485.33 927.721 487.43 926.031 488.32L922.941 489.96C921.251 490.86 919.151 490.21 918.261 488.52H918.291Z" fill="url(#paint29_linear_231_10634)"/>
<path d="M954.471 373.898C979.294 363.218 990.759 334.437 980.079 309.613C969.398 284.79 940.617 273.325 915.794 284.005C890.971 294.686 879.506 323.467 890.186 348.29C900.866 373.113 929.648 384.578 954.471 373.898Z" fill="url(#paint30_linear_231_10634)"/>
<path d="M965.011 365.739C985.272 349.25 988.33 319.458 971.84 299.197C955.351 278.935 925.559 275.878 905.297 292.367C885.036 308.856 881.979 338.649 898.468 358.91C914.957 379.171 944.749 382.229 965.011 365.739Z" fill="url(#paint31_linear_231_10634)"/>
<path opacity="0.68" d="M892.041 331C891.881 331.09 891.701 331.14 891.501 331.14C890.831 331.15 890.281 330.62 890.271 329.96C889.921 312.91 899.061 297.36 914.111 289.37C916.511 288.1 919.031 287.04 921.601 286.22C922.231 286.02 922.911 286.37 923.111 287C923.311 287.63 922.971 288.32 922.331 288.51C919.901 289.28 917.511 290.29 915.241 291.49C901.001 299.05 892.351 313.76 892.681 329.9C892.681 330.37 892.431 330.78 892.041 330.99V331Z" fill="white"/>
<path opacity="0.68" d="M976.611 330.075C976.951 307.964 959.302 289.764 937.191 289.425C915.08 289.085 896.88 306.734 896.541 328.845C896.201 350.956 913.85 369.156 935.961 369.495C958.072 369.835 976.272 352.186 976.611 330.075Z" fill="white"/>
<path d="M947.012 357.58L944.972 353.73C940.872 355.7 936.402 356.86 932.932 357.12C931.692 357.21 930.582 356.36 930.302 355.14L929.382 351.04C929.042 349.53 930.112 348.1 931.652 347.96C935.072 347.65 939.012 346.74 942.732 344.77C946.592 342.72 948.782 339.88 947.362 337.2C946.072 334.78 943.082 334.52 936.952 335.93C928.182 337.9 920.902 337.48 917.332 330.73C914.102 324.64 916.092 317.63 923.152 312.28L921.112 308.43C920.452 307.19 920.922 305.66 922.162 305L924.422 303.8C925.662 303.14 927.192 303.61 927.852 304.85L929.682 308.31C933.472 306.49 936.512 305.69 939.052 305.31C940.352 305.11 941.582 305.98 941.872 307.26L942.732 311.05C943.062 312.51 942.072 313.94 940.582 314.13C938.212 314.43 935.012 315.13 931.382 317.06C926.802 319.49 926.492 322.09 927.402 323.79C928.512 325.89 932.032 325.87 938.962 324.54C948.832 322.58 954.242 324.24 957.612 330.59C960.702 336.42 959.162 343.95 951.472 349.71L953.752 354.02C954.412 355.26 953.942 356.79 952.702 357.45L950.442 358.65C949.202 359.31 947.672 358.84 947.012 357.6V357.58Z" fill="url(#paint32_linear_231_10634)"/>
<path d="M2079.44 834.62C2072.72 820.61 2067.9 805.94 2066.78 789.97C2063.95 749.73 2087.34 712.68 2104.53 678.04C2120.32 646.2 2132.06 598.76 2078.77 602.98C2036.32 606.34 1986.4 648.65 1980.71 692.77C1973.97 744.99 1999.39 810.83 1969.25 858.26C1927.09 924.61 1896.68 909.41 1896.68 1021.38C1896.68 1069.23 1923.18 1095.62 1953.54 1110.15C2001.45 1133.09 2058.58 1123.82 2096.75 1086.88C2130.47 1054.24 2150.53 1007.33 2143.74 960.22C2136.89 912.65 2099.58 876.57 2079.44 834.61V834.62Z" fill="#FFBA80"/>
<path d="M2043.81 1195.6C2042.71 1195.6 2041.71 1194.86 2041.43 1193.74C2015 1088.25 2000.62 992.61 1998.67 909.49C1997.11 842.89 2003.49 784.1 2017.64 734.76C2041.84 650.32 2079.93 623.12 2081.54 622C2082.65 621.23 2084.18 621.5 2084.95 622.62C2085.72 623.73 2085.45 625.26 2084.34 626.03C2084.24 626.1 2074.64 632.9 2062.24 649.86C2050.78 665.54 2034.53 693.34 2022.17 736.76C2008.25 785.63 2002 843.9 2003.59 909.95C2005.58 992.57 2019.91 1087.65 2046.19 1192.55C2046.52 1193.86 2045.72 1195.2 2044.41 1195.53C2044.21 1195.58 2044.01 1195.6 2043.81 1195.6Z" fill="#00AEEF"/>
<path d="M2043.81 1195.6C2042.71 1195.6 2041.71 1194.86 2041.43 1193.74C2015 1088.25 2000.62 992.61 1998.67 909.49C1997.11 842.89 2003.49 784.1 2017.64 734.76C2041.84 650.32 2079.93 623.12 2081.54 622C2082.65 621.23 2084.18 621.5 2084.95 622.62C2085.72 623.73 2085.45 625.26 2084.34 626.03C2084.24 626.1 2074.64 632.9 2062.24 649.86C2050.78 665.54 2034.53 693.34 2022.17 736.76C2008.25 785.63 2002 843.9 2003.59 909.95C2005.58 992.57 2019.91 1087.65 2046.19 1192.55C2046.52 1193.86 2045.72 1195.2 2044.41 1195.53C2044.21 1195.58 2044.01 1195.6 2043.81 1195.6Z" fill="black" fill-opacity="0.2"/>
<path d="M2121.74 716.58C2119.69 716.02 2117.43 715.85 2115.03 716.13C2101.75 717.66 2096.3 731.66 2092.39 742.61C2089.05 751.99 2085.11 763.37 2087.08 773.53C2089.21 784.51 2100.88 793.47 2109.34 782.32C2118.96 769.64 2133.4 750.18 2133.48 733.38C2133.52 725.03 2128.84 718.51 2121.73 716.58H2121.74Z" fill="#FFBA80"/>
<path d="M2252.88 974.669C2258.31 938.879 2245.31 897.799 2238.81 859.949C2235.38 839.939 2233.79 820.079 2237 799.919C2240.2 779.879 2249.61 758.199 2240.93 738.229C2223.43 697.999 2181.84 716.31 2158.01 746.59C2130.36 781.73 2122.8 839.16 2112.3 883.389C2105.97 910.049 2096.43 937.389 2093.09 964.559C2087.56 1009.56 2097.73 1040.81 2119.26 1061.91C2139.91 1082.15 2171.36 1086.35 2196.62 1072.28C2219.44 1059.57 2244.1 1032.4 2252.87 974.659L2252.88 974.669Z" fill="#FFBA80"/>
<path d="M2157.72 1141.79C2156.54 1141.79 2155.51 1140.94 2155.3 1139.74C2155.21 1139.2 2146.15 1084.54 2145.91 1009.14C2145.69 939.51 2153.16 837.41 2189.98 746.36C2190.49 745.1 2191.92 744.5 2193.17 745.01C2194.43 745.52 2195.03 746.95 2194.52 748.2C2158.01 838.47 2150.6 939.86 2150.81 1009.03C2151.04 1084.05 2160.04 1138.39 2160.13 1138.93C2160.36 1140.27 2159.45 1141.53 2158.12 1141.76C2157.98 1141.78 2157.85 1141.79 2157.71 1141.79H2157.72Z" fill="#00AEEF"/>
<path d="M2157.72 1141.79C2156.54 1141.79 2155.51 1140.94 2155.3 1139.74C2155.21 1139.2 2146.15 1084.54 2145.91 1009.14C2145.69 939.51 2153.16 837.41 2189.98 746.36C2190.49 745.1 2191.92 744.5 2193.17 745.01C2194.43 745.52 2195.03 746.95 2194.52 748.2C2158.01 838.47 2150.6 939.86 2150.81 1009.03C2151.04 1084.05 2160.04 1138.39 2160.13 1138.93C2160.36 1140.27 2159.45 1141.53 2158.12 1141.76C2157.98 1141.78 2157.85 1141.79 2157.71 1141.79H2157.72Z" fill="black" fill-opacity="0.2"/>
<path d="M617.98 1323.49V1089.53C617.98 1058.79 642.68 1033.78 673.42 1033.45C765.67 1032.45 955.93 1032.4 1111.6 1045.51C1132.84 1047.3 1149.37 1064.71 1150.14 1086.02L1164.69 1312.21C1165.77 1342.13 1142.12 1367.12 1112.18 1367.69L671.56 1376.06C642.13 1376.62 617.98 1352.92 617.98 1323.49Z" fill="url(#paint33_linear_231_10634)"/>
<path d="M671.41 1114.85C671.02 1134.76 671.61 1166.34 672.09 1186.75C672.34 1197.37 681.66 1205.46 692.21 1204.22L768.13 1195.32C778.24 1194.13 785.37 1184.81 783.86 1174.74L774.54 1112.58C773.22 1103.75 765.64 1097.23 756.71 1097.23H689.43C679.63 1097.23 671.6 1105.05 671.41 1114.85Z" fill="white"/>
<path opacity="0.37" d="M869.81 1232.66L933.14 1239.49C942 1240.45 949.56 1233.14 948.91 1224.25L935.07 1035.87C908.52 1035.03 882.34 1034.41 857.07 1033.98V1218.46C857.07 1225.75 862.56 1231.87 869.82 1232.66H869.81Z" fill="white"/>
<path d="M895.77 1200.01C895.96 1203.4 898.77 1206.01 902.12 1206.01C902.24 1206.01 902.37 1206.01 902.49 1206C906 1205.8 908.69 1202.79 908.48 1199.27L898.93 1034.85C894.65 1034.74 890.4 1034.65 886.15 1034.55L895.76 1200L895.77 1200.01Z" fill="white"/>
<path d="M706.521 1174.19C705.411 1174.19 704.471 1173.33 704.401 1172.2L701.121 1120.41C701.051 1119.24 701.931 1118.23 703.111 1118.16C704.341 1118.06 705.291 1118.98 705.361 1120.15L708.641 1171.94C708.711 1173.11 707.831 1174.12 706.651 1174.19C706.601 1174.19 706.561 1174.19 706.521 1174.19Z" fill="#FFBA80"/>
<path d="M713.281 1174.19C712.141 1174.19 711.191 1173.29 711.161 1172.14L709.441 1119.36C709.401 1118.19 710.321 1117.2 711.491 1117.17C712.841 1117.1 713.641 1118.05 713.681 1119.22L715.401 1172C715.441 1173.17 714.521 1174.16 713.351 1174.19H713.281Z" fill="#FFBA80"/>
<path d="M722.352 1174.19C721.222 1174.19 720.282 1173.31 720.232 1172.17C719.822 1163.49 717.752 1120.17 717.752 1119.29C717.752 1118.12 718.702 1117.17 719.872 1117.17C721.042 1117.17 721.992 1118.11 721.992 1119.27C722.012 1120.42 723.622 1154.24 724.462 1171.97C724.522 1173.14 723.612 1174.13 722.442 1174.19C722.412 1174.19 722.372 1174.19 722.342 1174.19H722.352Z" fill="#FFBA80"/>
<path d="M736.502 1176.32C734.222 1176.32 732.342 1174.52 732.262 1172.22C730.462 1121.08 730.782 1119.93 730.992 1119.17C731.602 1116.9 733.962 1115.57 736.202 1116.19C738.282 1116.76 739.582 1118.77 739.292 1120.85C739.152 1123.92 740.102 1153.68 740.742 1171.92C740.822 1174.26 738.992 1176.23 736.652 1176.31C736.602 1176.31 736.552 1176.31 736.502 1176.31V1176.32Z" fill="#FFBA80"/>
<path d="M745.702 1174.19C744.532 1174.19 743.582 1173.24 743.582 1172.07V1120.28C743.582 1119.11 744.532 1118.16 745.702 1118.16C746.872 1118.16 747.822 1119.11 747.822 1120.28V1172.07C747.822 1173.24 746.872 1174.19 745.702 1174.19Z" fill="#FFBA80"/>
<path d="M753.141 1174.19C751.991 1174.19 751.041 1173.27 751.021 1172.12C750.611 1154.13 749.661 1124.73 748.811 1121.2C748.441 1120.53 748.441 1119.69 748.891 1119C749.531 1118.01 750.851 1117.75 751.831 1118.39C752.991 1119.15 754.091 1119.87 755.261 1172.02C755.281 1173.19 754.361 1174.16 753.191 1174.19H753.141Z" fill="#FFBA80"/>
<path d="M695.101 1178.91C692.861 1178.91 690.981 1177.15 690.861 1174.88L688.031 1120.5C687.911 1118.16 689.711 1116.16 692.051 1116.04C694.271 1115.88 696.391 1117.72 696.511 1120.06L699.341 1174.44C699.461 1176.78 697.661 1178.78 695.321 1178.9C695.251 1178.9 695.171 1178.9 695.101 1178.9V1178.91Z" fill="#FFBA80"/>
<path d="M691.94 1003.07V838.77C691.94 817.18 709.29 799.62 730.87 799.38C795.65 798.67 929.27 798.64 1038.59 807.85C1053.51 809.11 1065.11 821.33 1065.65 836.3L1075.87 995.15C1076.63 1016.16 1060.02 1033.71 1039 1034.11L729.56 1039.99C708.9 1040.38 691.93 1023.74 691.93 1003.07H691.94Z" fill="url(#paint34_linear_231_10634)"/>
<path d="M729.459 856.54C729.179 870.52 729.599 892.7 729.939 907.03C730.119 914.49 736.659 920.17 744.069 919.3L797.379 913.05C804.479 912.22 809.489 905.67 808.429 898.6L801.889 854.94C800.959 848.74 795.639 844.16 789.369 844.16H742.119C735.239 844.16 729.599 849.65 729.459 856.54Z" fill="white"/>
<path opacity="0.37" d="M868.79 939.28L913.26 944.08C919.48 944.75 924.79 939.62 924.33 933.38L914.61 801.08C895.97 800.49 877.58 800.06 859.83 799.75V929.31C859.83 934.43 863.69 938.73 868.78 939.28H868.79Z" fill="white"/>
<path d="M887.02 916.35C887.16 918.73 889.129 920.56 891.479 920.56C891.569 920.56 891.66 920.56 891.74 920.56C894.21 920.42 896.09 918.3 895.95 915.84L889.24 800.38C886.23 800.31 883.25 800.24 880.27 800.17L887.02 916.36V916.35Z" fill="white"/>
<path d="M754.121 898.22C753.341 898.22 752.681 897.61 752.631 896.82L750.321 860.45C750.271 859.63 750.891 858.92 751.721 858.87C752.591 858.8 753.251 859.44 753.301 860.27L755.611 896.64C755.661 897.46 755.041 898.17 754.211 898.22C754.181 898.22 754.151 898.22 754.121 898.22Z" fill="#FFBA80"/>
<path d="M758.871 898.22C758.071 898.22 757.411 897.59 757.381 896.78L756.171 859.72C756.141 858.9 756.791 858.21 757.611 858.18C758.561 858.13 759.121 858.8 759.151 859.62L760.361 896.68C760.391 897.5 759.741 898.19 758.921 898.22H758.871Z" fill="#FFBA80"/>
<path d="M765.23 898.22C764.44 898.22 763.78 897.6 763.74 896.8C763.45 890.71 762 860.28 762 859.67C762 858.85 762.67 858.18 763.49 858.18C764.31 858.18 764.98 858.84 764.98 859.66C765 860.47 766.12 884.22 766.72 896.67C766.76 897.49 766.13 898.19 765.3 898.23C765.28 898.23 765.25 898.23 765.23 898.23V898.22Z" fill="#FFBA80"/>
<path d="M775.17 899.71C773.57 899.71 772.251 898.44 772.191 896.83C770.931 860.92 771.15 860.11 771.3 859.57C771.73 857.98 773.391 857.04 774.961 857.48C776.421 857.88 777.331 859.29 777.131 860.75C777.031 862.91 777.701 883.8 778.151 896.62C778.211 898.27 776.921 899.65 775.281 899.7C775.251 899.7 775.21 899.7 775.17 899.7V899.71Z" fill="#FFBA80"/>
<path d="M781.64 898.22C780.82 898.22 780.15 897.55 780.15 896.73V860.36C780.15 859.54 780.82 858.87 781.64 858.87C782.46 858.87 783.13 859.54 783.13 860.36V896.73C783.13 897.55 782.46 898.22 781.64 898.22Z" fill="#FFBA80"/>
<path d="M786.861 898.22C786.051 898.22 785.391 897.57 785.371 896.76C785.081 884.12 784.421 863.48 783.821 861C783.561 860.53 783.561 859.94 783.881 859.45C784.331 858.76 785.251 858.57 785.941 859.02C786.751 859.55 787.521 860.06 788.351 896.68C788.371 897.5 787.721 898.19 786.891 898.21H786.861V898.22Z" fill="#FFBA80"/>
<path d="M746.101 901.53C744.521 901.53 743.211 900.3 743.121 898.7L741.131 860.51C741.051 858.86 742.311 857.46 743.951 857.38C745.511 857.27 747.001 858.56 747.081 860.21L749.071 898.4C749.151 900.05 747.891 901.45 746.251 901.53C746.201 901.53 746.151 901.53 746.091 901.53H746.101Z" fill="#FFBA80"/>
<path d="M812.87 686.76L834.71 698.51C860.9 714.46 884.34 722.88 905.43 726.05C971.28 735.93 1014.2 694.38 1046.19 669.17C1088.42 635.89 1121.28 652.08 1121.28 652.08L1076.25 738.02C1009 801.43 940.05 787.35 896.58 766.8C868.91 753.72 851.56 738.02 851.56 738.02C802.09 708.52 812.88 686.75 812.88 686.75L812.87 686.76Z" fill="url(#paint35_linear_231_10634)"/>
<path d="M748.54 717.54C749.95 712.85 753.41 709.06 757.96 707.24L802.28 689.42C802.28 689.42 802.95 683.74 792.92 679.87C782.89 676.01 785.23 664.77 785.23 664.77C785.23 664.77 798.94 671.02 819 680.94C830.48 686.61 836.92 696.63 840.33 704.16L828.92 719.16C801.6 727.37 773.96 728.93 746.09 725.68L748.54 717.54Z" fill="url(#paint36_linear_231_10634)"/>
<path d="M1130.95 1343.93C1130.95 1343.93 1134.32 1363.03 1135.98 1381.93C1136.63 1389.32 1130.93 1395.73 1123.52 1396.04C1098.34 1397.09 1044.49 1399.13 1025.16 1398.27C1022.26 1398.14 1020.36 1395.17 1021.43 1392.46C1022.33 1390.2 1024.07 1388.37 1026.28 1387.35L1115.24 1346.46L1130.95 1343.92V1343.93Z" fill="url(#paint37_linear_231_10634)"/>
<path d="M1133.71 1332.7L1131 1355.55C1131 1355.55 1115.42 1362.8 1104.78 1354.64L1111.23 1329.18L1133.71 1332.71V1332.7Z" fill="url(#paint38_linear_231_10634)"/>
<path d="M1138.06 888.15C1139.23 894.34 1135.96 1212.14 1104.77 1347.7C1104.26 1349.91 1101.04 1354.25 1102.15 1356.16C1104.86 1360.79 1124.78 1359.49 1136.02 1359.88C1139.5 1360 1141.37 1355.92 1142.35 1352.45C1151.26 1321 1193.98 1163.42 1199.55 1012.9C1205.78 844.7 1199.55 1007.17 1199.55 1007.17L1202.32 900.61L1138.06 888.15Z" fill="url(#paint39_linear_231_10634)"/>
<path d="M1233.28 1353.89C1233.28 1353.89 1238.65 1363.53 1243.85 1389.15C1244.79 1393.78 1241.56 1398.21 1236.86 1398.67C1228.55 1399.49 1215.75 1400.54 1205.5 1400.47C1200.77 1400.44 1197.09 1396.32 1197.66 1391.63C1198.8 1382.28 1202.33 1366.94 1213.26 1354.98L1233.29 1353.89H1233.28Z" fill="url(#paint40_linear_231_10634)"/>
<path d="M1238 1324.51L1231.67 1359.06C1231.67 1359.06 1225.41 1363.72 1213.02 1360.34L1216.04 1323.17L1238 1324.51Z" fill="url(#paint41_linear_231_10634)"/>
<path d="M1253.22 900.55C1278.72 1061.22 1249.57 1309.98 1239.11 1356.25C1238.47 1359.08 1236.28 1361.25 1233.53 1361.73C1228.86 1362.54 1221.16 1363.2 1213.58 1360.9C1210.97 1360.11 1209.13 1357.65 1209.02 1354.81C1207.62 1317.4 1210.14 1087.72 1186.38 996.95C1185.18 992.35 1182.48 988.34 1178.76 985.58L1139.65 953.71L1138.92 884.98L1253.22 900.55Z" fill="url(#paint42_linear_231_10634)"/>
<path d="M1107.08 642.79C1174.3 641.68 1248.47 660.44 1248.47 660.44C1264.99 756.81 1258.35 863.62 1254.92 898.79C1254.22 906 1258.07 913.63 1250.92 914.79C1215.75 920.47 1160.46 914.69 1143.28 909.7C1137 907.88 1138.07 901.19 1136.73 894.79C1125.2 839.47 1092.22 717.46 1092.22 717.46C1076.23 738.03 1053.67 766.81 1020.32 774.47C1037.32 754.77 1004.72 713.46 1008.2 698.64C1038.35 664.76 1086.34 643.13 1107.08 642.79Z" fill="url(#paint43_linear_231_10634)"/>
<path d="M1175.17 588.22L1196.56 650.07C1196.91 651.1 1196.49 652.23 1195.54 652.75C1189.71 655.97 1168.7 665.29 1143.39 649.24C1140.75 647.57 1138.96 644.84 1138.56 641.75L1131.63 588.21H1175.17V588.22Z" fill="url(#paint44_linear_231_10634)"/>
<path d="M1128.63 530.94C1128.63 530.94 1105.14 575.15 1108.15 593.01C1111.16 610.87 1140.27 609.59 1165.69 595.08L1183.45 547.34L1128.63 530.94Z" fill="url(#paint45_linear_231_10634)"/>
<path d="M1164.57 571.64C1163.54 571.18 1163.16 569.92 1163.77 568.97C1165.65 566.1 1169.18 560.23 1170.3 555.1C1170.3 555.1 1174.52 552.4 1159.55 548.81C1151.4 546.86 1136.95 545.25 1130.6 539.39C1123.49 532.83 1136.6 520.44 1142.11 517.12C1149.38 512.73 1158.23 510.13 1166.43 512.35C1170.39 513.42 1173.97 515.53 1177.49 517.62C1183.49 521.18 1189.71 524.94 1193.52 530.78C1195.99 534.56 1197.29 538.98 1198.47 543.34C1200.17 549.6 1201.73 556.02 1201.44 562.51C1200.65 579.79 1180.4 595.27 1164.12 597.16C1162.79 597.31 1161.76 596 1162.19 594.73L1168.85 575.38C1169.16 574.48 1168.73 573.5 1167.86 573.11L1164.56 571.65L1164.57 571.64Z" fill="url(#paint46_linear_231_10634)"/>
<path d="M1161.9 574.38C1161.9 574.38 1178.62 562.91 1179.84 572.57C1181.06 582.23 1164.78 586.56 1156.72 582.96L1161.9 574.38Z" fill="url(#paint47_linear_231_10634)"/>
<path d="M1120.08 520.09C1154.39 455.28 1243.32 514.16 1201.94 568.76C1171.17 548.3 1136.39 517.88 1120.08 520.09Z" fill="url(#paint48_linear_231_10634)"/>
<path d="M1173.67 547.55L1112.06 545.64C1110.5 545.59 1109.07 544.73 1108.31 543.36C1102.79 533.39 1094.71 527.04 1084.61 523.56C1083.33 523.12 1083.6 521.23 1084.95 521.14L1122.72 518.57C1122.72 518.57 1122.8 518.57 1122.85 518.57C1141.68 520.02 1158.34 531.34 1174.24 546.18C1174.77 546.67 1174.4 547.57 1173.68 547.55H1173.67Z" fill="url(#paint49_linear_231_10634)"/>
<path d="M1240.86 758.55C1203.24 716.31 1207.05 683.8 1249.51 660.39C1249.51 660.39 1319.9 708.22 1331.47 768.85C1318.17 769.83 1293.97 773.29 1270.28 785.25C1265.07 756.62 1240.85 758.55 1240.85 758.55H1240.86Z" fill="url(#paint50_linear_231_10634)"/>
<path d="M1159.1 802.01C1159.1 802.01 1238.13 846.67 1264.79 808.54C1270.33 800.62 1271.65 792.75 1270.29 785.25C1293.98 773.29 1318.18 769.83 1331.48 768.85C1334.97 787.13 1333.12 806.57 1322.38 826.22C1275.67 911.66 1148.64 821.5 1148.64 821.5L1159.1 802.01Z" fill="url(#paint51_linear_231_10634)"/>
<path d="M1168.59 858.52L1125.46 707.9C1124.97 706.19 1123.51 704.94 1121.75 704.74C1113.94 703.83 1091.29 701.27 1065.15 699.06C1033.66 696.4 997.091 694.24 975.241 696.07C972.131 696.33 970.261 699.62 971.641 702.41C984.071 727.55 1035.18 829.82 1060.78 863.32C1061.63 864.43 1062.94 865.08 1064.34 865.07L1164.41 864.14C1167.32 864.11 1169.41 861.32 1168.61 858.52H1168.59Z" fill="url(#paint52_linear_231_10634)"/>
<path d="M1060.68 685.99L1029.41 680.78C1027.74 680.5 1026.38 682.09 1026.91 683.7L1030.01 693.08C1030.28 693.9 1030.99 694.49 1031.84 694.6L1061.93 698.62C1063.49 698.83 1064.77 697.41 1064.41 695.88L1062.49 687.69C1062.28 686.81 1061.57 686.14 1060.67 685.99H1060.68Z" fill="url(#paint53_linear_231_10634)"/>
<path d="M1084.09 712.46L1081.51 699.04C1081.25 697.69 1080.14 696.68 1078.78 696.54L1015.62 690.13C1013.49 689.91 1011.79 691.86 1012.29 693.94L1016.31 710.66C1016.63 712 1017.8 712.96 1019.17 713.03L1080.89 716.14C1082.9 716.24 1084.47 714.43 1084.09 712.46Z" fill="#FFBA80"/>
<path d="M1158.17 822.13C1158.17 822.13 1164.18 797.43 1161.75 788.66C1159.33 779.9 1154.63 768.63 1138.98 771.13C1123.33 773.63 1104.87 780.23 1104.87 780.23C1104.87 780.23 1105.8 791.65 1117.7 787.96L1110.32 793.67C1110.32 793.67 1111.37 802.81 1121.42 797.93L1114.56 805.5C1114.56 805.5 1118.87 813.01 1126.27 808.19C1133.66 803.37 1137.21 825.11 1158.17 822.13Z" fill="url(#paint54_linear_231_10634)"/>
<path d="M1183.22 728.08C1188.15 728.48 1229.88 729.81 1229.88 729.81L1228.2 771.81L1206.59 784L1183.23 771.81V728.07L1183.22 728.08Z" fill="url(#paint55_linear_231_10634)"/>
<path d="M1179.91 728.08L1229.78 729.81L1231.82 745.93L1205.86 752.67L1178.27 740.38L1179.91 728.08Z" fill="url(#paint56_linear_231_10634)"/>
<path d="M2157.44 1260.65H1484.16V1301.5H2157.44V1260.65Z" fill="url(#paint57_linear_231_10634)"/>
<path d="M2157.44 1307.56H2164.4C2168.08 1307.56 2171.06 1304.58 2171.06 1300.9V1251.58H2157.44V1307.56Z" fill="url(#paint58_linear_231_10634)"/>
<path d="M1495.51 1013.67C1495.51 1003.47 1505.67 995.12 1522.1 995.12H2141.05C2157.48 995.12 2171.06 1003.47 2171.06 1013.67V1245.72C2171.06 1255.92 2157.48 1264.44 2141.05 1264.44H1522.1C1505.67 1264.44 1495.51 1255.92 1495.51 1245.72V1013.67Z" fill="url(#paint59_linear_231_10634)"/>
<path opacity="0.11" d="M1510.64 1023.02C1510.64 1013.69 1523.49 1007.23 1538.99 1007.23H2122.89C2138.39 1007.23 2151.4 1013.69 2151.4 1023.02V1235.13C2151.4 1244.46 2138.39 1251.57 2122.89 1251.57H1538.99C1523.49 1251.57 1510.64 1244.46 1510.64 1235.13V1023.02Z" fill="url(#paint60_linear_231_10634)"/>
<path d="M1329.88 1177.26L1360.4 1084.13C1361.16 1081.77 1363.37 1081.36 1365.85 1081.36H1489.45V1301.5H1322.65L1329.88 1177.26Z" fill="url(#paint61_linear_231_10634)"/>
<path d="M1320.42 1269.28C1322.06 1268.2 1324.72 1267.62 1327.01 1267.66L1455.18 1270.12L1455.91 1306.45L1326.95 1309.59C1322.27 1309.59 1316.98 1307.33 1316.98 1304.17V1273.4C1316.98 1271.85 1318.78 1270.37 1320.42 1269.29V1269.28Z" fill="#FFBA80"/>
<path d="M1353.7 1171.71L1372.15 1098.7C1372.79 1096.16 1375.08 1094.23 1377.71 1094.23H1449.85C1451.4 1094.23 1452.88 1095 1453.96 1096.12C1455.04 1097.23 1455.62 1098.81 1455.58 1100.36L1453.85 1158.9C1453.77 1161.65 1451.75 1163.97 1449.03 1164.41L1360.17 1178.78C1358.26 1179.09 1356.33 1178.42 1355.03 1177C1353.73 1175.58 1353.23 1173.6 1353.7 1171.73V1171.71Z" fill="#FFBA80"/>
<path d="M1357.39 1093.33L1358.33 1093.49C1359.93 1093.75 1361.34 1094.68 1362.21 1096.04C1363.09 1097.4 1363.35 1099.07 1362.93 1100.63L1342.82 1175.4C1342.04 1178.29 1339.17 1180.1 1336.23 1179.55L1329.88 1178.36L1357.39 1093.33Z" fill="#FFBA80"/>
<path d="M1449.46 1184.25H1426.57C1423.7 1184.25 1421.37 1186.58 1421.37 1189.45V1190.4C1421.37 1193.27 1423.7 1195.6 1426.57 1195.6H1449.46C1452.33 1195.6 1454.66 1193.27 1454.66 1190.4V1189.45C1454.66 1186.58 1452.33 1184.25 1449.46 1184.25Z" fill="#FFBA80"/>
<path d="M1479.98 1014.97C1481.9 1014.83 1484.81 1015.17 1486.22 1016.48C1487.63 1017.79 1489.45 1019.31 1489.45 1021.24V1081.36H1413.71C1413.71 1081.36 1417.73 1019.5 1479.97 1014.96L1479.98 1014.97Z" fill="url(#paint62_linear_231_10634)"/>
<path d="M1416.6 1365.44C1448.6 1362.79 1472.39 1334.71 1469.74 1302.71C1467.09 1270.72 1439.01 1246.93 1407.01 1249.57C1375.02 1252.22 1351.23 1280.31 1353.88 1312.3C1356.52 1344.3 1384.61 1368.09 1416.6 1365.44Z" fill="url(#paint63_linear_231_10634)"/>
<path d="M1457.74 1318.25C1463.73 1292.87 1448.01 1267.45 1422.63 1261.46C1397.26 1255.47 1371.83 1271.18 1365.84 1296.56C1359.85 1321.94 1375.57 1347.36 1400.94 1353.35C1426.32 1359.34 1451.75 1343.63 1457.74 1318.25Z" fill="#00AEEF"/>
<path d="M1457.74 1318.25C1463.73 1292.87 1448.01 1267.45 1422.63 1261.46C1397.26 1255.47 1371.83 1271.18 1365.84 1296.56C1359.85 1321.94 1375.57 1347.36 1400.94 1353.35C1426.32 1359.34 1451.75 1343.63 1457.74 1318.25Z" fill="black" fill-opacity="0.2"/>
<path d="M1372.18 1324.73C1371.8 1324.73 1371.43 1324.5 1371.27 1324.13C1369.04 1318.85 1367.91 1313.25 1367.91 1307.48C1367.91 1283.89 1387.1 1264.69 1410.7 1264.69C1418.02 1264.69 1425.24 1266.57 1431.59 1270.13C1432.06 1270.4 1432.23 1271 1431.97 1271.47C1431.7 1271.95 1431.1 1272.12 1430.63 1271.85C1424.58 1268.46 1417.69 1266.67 1410.71 1266.67C1388.2 1266.67 1369.9 1284.98 1369.9 1307.48C1369.9 1312.99 1370.98 1318.34 1373.11 1323.37C1373.32 1323.87 1373.09 1324.45 1372.59 1324.66C1372.46 1324.71 1372.33 1324.74 1372.21 1324.74L1372.18 1324.73Z" fill="#FFBA80"/>
<path d="M1390.18 1307.48C1390.18 1319.44 1399.87 1329.13 1411.83 1329.13C1423.79 1329.13 1433.48 1319.44 1433.48 1307.48C1433.48 1295.52 1423.79 1285.83 1411.83 1285.83C1399.87 1285.83 1390.18 1295.52 1390.18 1307.48Z" fill="url(#paint64_linear_231_10634)"/>
<path d="M2022.93 1313.95C2025.55 1281.95 2001.74 1253.89 1969.75 1251.26C1937.75 1248.64 1909.68 1272.45 1907.06 1304.44C1904.43 1336.44 1928.24 1364.51 1960.24 1367.13C1992.24 1369.76 2020.3 1345.95 2022.93 1313.95Z" fill="url(#paint65_linear_231_10634)"/>
<path d="M2011.86 1311.95C2013.49 1285.93 1993.72 1263.52 1967.69 1261.89C1941.67 1260.26 1919.26 1280.04 1917.63 1306.06C1916 1332.08 1935.78 1354.5 1961.8 1356.12C1987.82 1357.75 2010.24 1337.98 2011.86 1311.95Z" fill="#00AEEF"/>
<path d="M2011.86 1311.95C2013.49 1285.93 1993.72 1263.52 1967.69 1261.89C1941.67 1260.26 1919.26 1280.04 1917.63 1306.06C1916 1332.08 1935.78 1354.5 1961.8 1356.12C1987.82 1357.75 2010.24 1337.98 2011.86 1311.95Z" fill="black" fill-opacity="0.2"/>
<path d="M1925.21 1326.36C1924.83 1326.36 1924.46 1326.13 1924.3 1325.76C1922.07 1320.48 1920.94 1314.88 1920.94 1309.11C1920.94 1285.52 1940.13 1266.32 1963.72 1266.32C1971.04 1266.32 1978.26 1268.2 1984.61 1271.76C1985.08 1272.03 1985.25 1272.63 1984.99 1273.1C1984.72 1273.57 1984.12 1273.75 1983.65 1273.48C1977.6 1270.09 1970.71 1268.3 1963.73 1268.3C1941.22 1268.3 1922.92 1286.61 1922.92 1309.11C1922.92 1314.62 1924 1319.97 1926.13 1325C1926.34 1325.5 1926.11 1326.08 1925.61 1326.29C1925.48 1326.34 1925.35 1326.37 1925.23 1326.37L1925.21 1326.36Z" fill="#FFBA80"/>
<path d="M1967.47 1330.64C1979.34 1329.19 1987.79 1318.39 1986.33 1306.52C1984.88 1294.65 1974.08 1286.21 1962.21 1287.66C1950.34 1289.11 1941.9 1299.91 1943.35 1311.78C1944.81 1323.65 1955.61 1332.09 1967.47 1330.64Z" fill="url(#paint66_linear_231_10634)"/>
<path d="M1695.16 1313.87C1697.81 1281.87 1674.02 1253.79 1642.02 1251.14C1610.03 1248.5 1581.95 1272.29 1579.3 1304.28C1576.65 1336.28 1600.44 1364.36 1632.44 1367.01C1664.43 1369.65 1692.52 1345.86 1695.16 1313.87Z" fill="#312E4E"/>
<path d="M1684.11 1313.62C1686.68 1287.68 1667.73 1264.56 1641.78 1262C1615.83 1259.43 1592.72 1278.38 1590.15 1304.33C1587.58 1330.28 1606.54 1353.39 1632.48 1355.96C1658.43 1358.52 1681.54 1339.57 1684.11 1313.62Z" fill="#00AEEF"/>
<path d="M1684.11 1313.62C1686.68 1287.68 1667.73 1264.56 1641.78 1262C1615.83 1259.43 1592.72 1278.38 1590.15 1304.33C1587.58 1330.28 1606.54 1353.39 1632.48 1355.96C1658.43 1358.52 1681.54 1339.57 1684.11 1313.62Z" fill="black" fill-opacity="0.2"/>
<path d="M1597.61 1326.36C1597.23 1326.36 1596.86 1326.13 1596.7 1325.76C1594.47 1320.48 1593.34 1314.88 1593.34 1309.11C1593.34 1285.52 1612.53 1266.32 1636.12 1266.32C1643.44 1266.32 1650.66 1268.2 1657.01 1271.76C1657.48 1272.03 1657.65 1272.63 1657.39 1273.1C1657.12 1273.57 1656.52 1273.75 1656.05 1273.48C1650 1270.09 1643.11 1268.3 1636.13 1268.3C1613.62 1268.3 1595.32 1286.61 1595.32 1309.11C1595.32 1314.62 1596.4 1319.97 1598.53 1325C1598.74 1325.5 1598.51 1326.08 1598.01 1326.29C1597.88 1326.34 1597.75 1326.37 1597.63 1326.37L1597.61 1326.36Z" fill="#FFBA80"/>
<path d="M1639.95 1330.52C1651.81 1329.06 1660.25 1318.26 1658.79 1306.39C1657.33 1294.52 1646.52 1286.09 1634.65 1287.55C1622.79 1289.01 1614.35 1299.82 1615.81 1311.68C1617.27 1323.55 1628.08 1331.99 1639.95 1330.52Z" fill="url(#paint67_linear_231_10634)"/>
<path d="M2155.19 1318.18C2160.24 1286.48 2138.64 1256.68 2106.93 1251.63C2075.23 1246.58 2045.43 1268.19 2040.38 1299.9C2035.33 1331.6 2056.94 1361.4 2088.64 1366.45C2120.35 1371.5 2150.14 1349.89 2155.19 1318.18Z" fill="url(#paint68_linear_231_10634)"/>
<path d="M2144.84 1311.96C2146.47 1285.94 2126.69 1263.53 2100.67 1261.9C2074.65 1260.27 2052.23 1280.05 2050.6 1306.07C2048.97 1332.09 2068.75 1354.51 2094.77 1356.13C2120.79 1357.76 2143.21 1337.99 2144.84 1311.96Z" fill="#00AEEF"/>
<path d="M2144.84 1311.96C2146.47 1285.94 2126.69 1263.53 2100.67 1261.9C2074.65 1260.27 2052.23 1280.05 2050.6 1306.07C2048.97 1332.09 2068.75 1354.51 2094.77 1356.13C2120.79 1357.76 2143.21 1337.99 2144.84 1311.96Z" fill="black" fill-opacity="0.2"/>
<path d="M2058.2 1326.36C2057.82 1326.36 2057.45 1326.13 2057.29 1325.76C2055.06 1320.48 2053.93 1314.88 2053.93 1309.11C2053.93 1285.52 2073.12 1266.32 2096.72 1266.32C2104.04 1266.32 2111.26 1268.2 2117.61 1271.76C2118.08 1272.03 2118.25 1272.63 2117.99 1273.1C2117.72 1273.57 2117.12 1273.75 2116.65 1273.48C2110.6 1270.09 2103.71 1268.3 2096.73 1268.3C2074.22 1268.3 2055.92 1286.61 2055.92 1309.11C2055.92 1314.62 2057 1319.97 2059.13 1325C2059.34 1325.5 2059.11 1326.08 2058.61 1326.29C2058.48 1326.34 2058.35 1326.37 2058.23 1326.37L2058.2 1326.36Z" fill="#FFBA80"/>
<path d="M2099.95 1330.68C2111.85 1329.51 2120.55 1318.91 2119.38 1307.01C2118.2 1295.11 2107.61 1286.42 2095.71 1287.59C2083.81 1288.76 2075.11 1299.36 2076.28 1311.26C2077.46 1323.16 2088.05 1331.86 2099.95 1330.68Z" fill="url(#paint69_linear_231_10634)"/>
<path d="M1342.25 1231.15H1326.5C1323.33 1231.15 1320.76 1233.72 1320.76 1236.89V1254.16C1320.76 1257.33 1323.33 1259.9 1326.5 1259.9H1342.25C1345.42 1259.9 1347.99 1257.33 1347.99 1254.16V1236.89C1347.99 1233.72 1345.42 1231.15 1342.25 1231.15Z" fill="#FFBA80"/>
<path opacity="0.8" d="M1337.4 1231.15V1264.44H1341.49C1344.66 1264.44 1350.26 1261.07 1350.26 1257.91V1239.03C1350.26 1235.86 1344.65 1231.16 1341.49 1231.16H1337.4V1231.15Z" fill="white"/>
<path d="M1480.38 1229.11C1479.84 1229.11 1479.39 1228.67 1479.39 1228.12V1094.22C1479.39 1093.68 1479.83 1093.23 1480.38 1093.23C1480.93 1093.23 1481.37 1093.67 1481.37 1094.22V1228.12C1481.37 1228.66 1480.93 1229.11 1480.38 1229.11Z" fill="#FFBA80"/>
<path d="M1427.45 1074.18C1427.34 1074.18 1427.23 1074.16 1427.13 1074.13C1426.62 1073.95 1426.34 1073.39 1426.52 1072.88C1431.63 1058.07 1441.72 1038.53 1460.78 1029.58C1472.24 1024.19 1481.39 1025.2 1481.78 1025.25C1482.32 1025.31 1482.71 1025.8 1482.64 1026.34C1482.58 1026.88 1482.09 1027.28 1481.55 1027.2C1481.46 1027.2 1472.48 1026.22 1461.51 1031.41C1443.15 1040.1 1433.36 1059.11 1428.39 1073.52C1428.25 1073.93 1427.87 1074.18 1427.46 1074.18H1427.45Z" fill="#FFBA80"/>
</g>
<defs>
<linearGradient id="paint0_linear_231_10634" x1="60.2403" y1="658.14" x2="2268.37" y2="658.14" gradientUnits="userSpaceOnUse">
<stop stop-color="#DAE3FE"/>
<stop offset="1" stop-color="#E9EFFD"/>
</linearGradient>
<linearGradient id="paint1_linear_231_10634" x1="601.5" y1="527.46" x2="447.172" y2="774.774" gradientUnits="userSpaceOnUse">
<stop stop-color="#FF928E"/>
<stop offset="1" stop-color="#FEB3B1"/>
</linearGradient>
<linearGradient id="paint2_linear_231_10634" x1="173.044" y1="504.84" x2="328.911" y2="608.78" gradientUnits="userSpaceOnUse">
<stop stop-color="#09005D"/>
<stop offset="1" stop-color="#1A0F91"/>
</linearGradient>
<linearGradient id="paint3_linear_231_10634" x1="457.736" y1="1294.52" x2="522.922" y2="1849.86" gradientUnits="userSpaceOnUse">
<stop stop-color="#FE7062"/>
<stop offset="1" stop-color="#FF928E"/>
</linearGradient>
<linearGradient id="paint4_linear_231_10634" x1="415.689" y1="575.25" x2="319.689" y2="811.25" gradientUnits="userSpaceOnUse">
<stop stop-color="#FF928E"/>
<stop offset="1" stop-color="#FEB3B1"/>
</linearGradient>
<linearGradient id="paint5_linear_231_10634" x1="365.653" y1="665.13" x2="413.907" y2="530.283" gradientUnits="userSpaceOnUse">
<stop stop-color="#FF928E"/>
<stop offset="1" stop-color="#FEB3B1"/>
</linearGradient>
<linearGradient id="paint6_linear_231_10634" x1="214.943" y1="442.016" x2="370.81" y2="545.955" gradientUnits="userSpaceOnUse">
<stop stop-color="#09005D"/>
<stop offset="1" stop-color="#1A0F91"/>
</linearGradient>
<linearGradient id="paint7_linear_231_10634" x1="335.069" y1="654.187" x2="383.323" y2="519.34" gradientUnits="userSpaceOnUse">
<stop stop-color="#FF928E"/>
<stop offset="1" stop-color="#FEB3B1"/>
</linearGradient>
<linearGradient id="paint8_linear_231_10634" x1="400.029" y1="1230.01" x2="92.0293" y2="1280.01" gradientUnits="userSpaceOnUse">
<stop stop-color="#FF928E"/>
<stop offset="1" stop-color="#FEB3B1"/>
</linearGradient>
<linearGradient id="paint9_linear_231_10634" x1="295.388" y1="1361.41" x2="359.466" y2="1360.8" gradientUnits="userSpaceOnUse">
<stop stop-color="#09005D"/>
<stop offset="1" stop-color="#1A0F91"/>
</linearGradient>
<linearGradient id="paint10_linear_231_10634" x1="630.509" y1="1043.33" x2="452.509" y2="1191.33" gradientUnits="userSpaceOnUse">
<stop stop-color="#FF928E"/>
<stop offset="1" stop-color="#FEB3B1"/>
</linearGradient>
<linearGradient id="paint11_linear_231_10634" x1="354.905" y1="1372.42" x2="431.291" y2="1371.7" gradientUnits="userSpaceOnUse">
<stop stop-color="#09005D"/>
<stop offset="1" stop-color="#1A0F91"/>
</linearGradient>
<linearGradient id="paint12_linear_231_10634" x1="247.18" y1="1258.24" x2="10.7001" y2="1679.98" gradientUnits="userSpaceOnUse">
<stop stop-color="#4042E2"/>
<stop offset="1" stop-color="#4F52FF"/>
</linearGradient>
<linearGradient id="paint13_linear_231_10634" x1="269.762" y1="898.441" x2="578.765" y2="440.344" gradientUnits="userSpaceOnUse">
<stop stop-color="#FF928E"/>
<stop offset="1" stop-color="#FEB3B1"/>
</linearGradient>
<linearGradient id="paint14_linear_231_10634" x1="10197.5" y1="-1106.49" x2="9705.48" y2="-1018.49" gradientUnits="userSpaceOnUse">
<stop stop-color="#FE7062"/>
<stop offset="1" stop-color="#FF928E"/>
</linearGradient>
<linearGradient id="paint15_linear_231_10634" x1="10195" y1="-1120.43" x2="9703" y2="-1032.43" gradientUnits="userSpaceOnUse">
<stop stop-color="#FE7062"/>
<stop offset="1" stop-color="#FF928E"/>
</linearGradient>
<linearGradient id="paint16_linear_231_10634" x1="793.039" y1="-304.971" x2="769.389" y2="-9.33058" gradientUnits="userSpaceOnUse">
<stop stop-color="#FE7062"/>
<stop offset="1" stop-color="#FF928E"/>
</linearGradient>
<linearGradient id="paint17_linear_231_10634" x1="916.7" y1="-295.08" x2="893.05" y2="0.559671" gradientUnits="userSpaceOnUse">
<stop stop-color="#FE7062"/>
<stop offset="1" stop-color="#FF928E"/>
</linearGradient>
<linearGradient id="paint18_linear_231_10634" x1="686.914" y1="336.33" x2="1064.27" y2="421.882" gradientUnits="userSpaceOnUse">
<stop stop-color="#50E7B7"/>
<stop offset="1" stop-color="#323992"/>
</linearGradient>
<linearGradient id="paint19_linear_231_10634" x1="636.321" y1="439.78" x2="663.481" y2="439.78" gradientUnits="userSpaceOnUse">
<stop stop-color="#DAE3FE"/>
<stop offset="1" stop-color="#E9EFFD"/>
</linearGradient>
<linearGradient id="paint20_linear_231_10634" x1="677.791" y1="324.748" x2="1055.15" y2="410.3" gradientUnits="userSpaceOnUse">
<stop stop-color="#50E7B7"/>
<stop offset="1" stop-color="#323992"/>
</linearGradient>
<linearGradient id="paint21_linear_231_10634" x1="627.052" y1="427.84" x2="655.112" y2="427.84" gradientUnits="userSpaceOnUse">
<stop stop-color="#DAE3FE"/>
<stop offset="1" stop-color="#E9EFFD"/>
</linearGradient>
<linearGradient id="paint22_linear_231_10634" x1="704.319" y1="507.501" x2="721.301" y2="432.785" gradientUnits="userSpaceOnUse">
<stop stop-color="#E1473D"/>
<stop offset="1" stop-color="#E9605A"/>
</linearGradient>
<linearGradient id="paint23_linear_231_10634" x1="726.404" y1="382.179" x2="700.435" y2="648.828" gradientUnits="userSpaceOnUse">
<stop stop-color="#FE7062"/>
<stop offset="1" stop-color="#FF928E"/>
</linearGradient>
<linearGradient id="paint24_linear_231_10634" x1="735.91" y1="394.117" x2="690.614" y2="533.476" gradientUnits="userSpaceOnUse">
<stop stop-color="#FE7062"/>
<stop offset="1" stop-color="#FF928E"/>
</linearGradient>
<linearGradient id="paint25_linear_231_10634" x1="764.504" y1="475.225" x2="794.069" y2="345.162" gradientUnits="userSpaceOnUse">
<stop stop-color="#E1473D"/>
<stop offset="1" stop-color="#E9605A"/>
</linearGradient>
<linearGradient id="paint26_linear_231_10634" x1="802.99" y1="256.999" x2="757.784" y2="721.186" gradientUnits="userSpaceOnUse">
<stop stop-color="#FE7062"/>
<stop offset="1" stop-color="#FF928E"/>
</linearGradient>
<linearGradient id="paint27_linear_231_10634" x1="819.569" y1="277.839" x2="740.7" y2="520.432" gradientUnits="userSpaceOnUse">
<stop stop-color="#FE7062"/>
<stop offset="1" stop-color="#FF928E"/>
</linearGradient>
<linearGradient id="paint28_linear_231_10634" x1="910.607" y1="361.369" x2="864.174" y2="839.016" gradientUnits="userSpaceOnUse">
<stop stop-color="#FE7062"/>
<stop offset="1" stop-color="#FF928E"/>
</linearGradient>
<linearGradient id="paint29_linear_231_10634" x1="927.78" y1="383.043" x2="846.619" y2="632.667" gradientUnits="userSpaceOnUse">
<stop stop-color="#FE7062"/>
<stop offset="1" stop-color="#FF928E"/>
</linearGradient>
<linearGradient id="paint30_linear_231_10634" x1="912.401" y1="428.914" x2="934.679" y2="330.854" gradientUnits="userSpaceOnUse">
<stop stop-color="#E1473D"/>
<stop offset="1" stop-color="#E9605A"/>
</linearGradient>
<linearGradient id="paint31_linear_231_10634" x1="941.459" y1="264.61" x2="907.379" y2="614.57" gradientUnits="userSpaceOnUse">
<stop stop-color="#FE7062"/>
<stop offset="1" stop-color="#FF928E"/>
</linearGradient>
<linearGradient id="paint32_linear_231_10634" x1="953.947" y1="280.297" x2="894.484" y2="463.195" gradientUnits="userSpaceOnUse">
<stop stop-color="#FE7062"/>
<stop offset="1" stop-color="#FF928E"/>
</linearGradient>
<linearGradient id="paint33_linear_231_10634" x1="608.52" y1="1386.34" x2="1112.57" y2="1056.3" gradientUnits="userSpaceOnUse">
<stop stop-color="#FE7062"/>
<stop offset="1" stop-color="#FF928E"/>
</linearGradient>
<linearGradient id="paint34_linear_231_10634" x1="692.6" y1="1038.89" x2="1022.63" y2="828.87" gradientUnits="userSpaceOnUse">
<stop stop-color="#FE7062"/>
<stop offset="1" stop-color="#FF928E"/>
</linearGradient>
<linearGradient id="paint35_linear_231_10634" x1="1084.83" y1="714.37" x2="796.62" y2="724.72" gradientUnits="userSpaceOnUse">
<stop stop-color="#FF928E"/>
<stop offset="1" stop-color="#FEB3B1"/>
</linearGradient>
<linearGradient id="paint36_linear_231_10634" x1="1083.78" y1="685.14" x2="795.57" y2="695.48" gradientUnits="userSpaceOnUse">
<stop stop-color="#FF928E"/>
<stop offset="1" stop-color="#FEB3B1"/>
</linearGradient>
<linearGradient id="paint37_linear_231_10634" x1="1062.5" y1="1303.34" x2="1082.35" y2="1399.86" gradientUnits="userSpaceOnUse">
<stop stop-color="#4042E2"/>
<stop offset="1" stop-color="#4F52FF"/>
</linearGradient>
<linearGradient id="paint38_linear_231_10634" x1="1133.71" y1="1343.85" x2="1104.77" y2="1343.85" gradientUnits="userSpaceOnUse">
<stop stop-color="#F9B776"/>
<stop offset="1" stop-color="#F47960"/>
</linearGradient>
<linearGradient id="paint39_linear_231_10634" x1="5746.86" y1="6210.36" x2="6142.86" y2="6648.36" gradientUnits="userSpaceOnUse">
<stop stop-color="#09005D"/>
<stop offset="1" stop-color="#1A0F91"/>
</linearGradient>
<linearGradient id="paint40_linear_231_10634" x1="1221.59" y1="1308.37" x2="1220.69" y2="1403.99" gradientUnits="userSpaceOnUse">
<stop stop-color="#4042E2"/>
<stop offset="1" stop-color="#4F52FF"/>
</linearGradient>
<linearGradient id="paint41_linear_231_10634" x1="1237.99" y1="1342.36" x2="1213.01" y2="1342.36" gradientUnits="userSpaceOnUse">
<stop stop-color="#F9B776"/>
<stop offset="1" stop-color="#F47960"/>
</linearGradient>
<linearGradient id="paint42_linear_231_10634" x1="5790.03" y1="6171.31" x2="6186.03" y2="6609.32" gradientUnits="userSpaceOnUse">
<stop stop-color="#09005D"/>
<stop offset="1" stop-color="#1A0F91"/>
</linearGradient>
<linearGradient id="paint43_linear_231_10634" x1="1234.32" y1="643.46" x2="941.63" y2="1104.65" gradientUnits="userSpaceOnUse">
<stop stop-color="#FE7062"/>
<stop offset="1" stop-color="#FF928E"/>
</linearGradient>
<linearGradient id="paint44_linear_231_10634" x1="1147.3" y1="512.26" x2="1191.3" y2="802.26" gradientUnits="userSpaceOnUse">
<stop stop-color="#FF928E"/>
<stop offset="1" stop-color="#FEB3B1"/>
</linearGradient>
<linearGradient id="paint45_linear_231_10634" x1="1487.35" y1="-2284.47" x2="1471.97" y2="-2156.11" gradientUnits="userSpaceOnUse">
<stop stop-color="#FF928E"/>
<stop offset="1" stop-color="#FEB3B1"/>
</linearGradient>
<linearGradient id="paint46_linear_231_10634" x1="1216.88" y1="510.798" x2="1139.2" y2="572.144" gradientUnits="userSpaceOnUse">
<stop stop-color="#09005D"/>
<stop offset="1" stop-color="#1A0F91"/>
</linearGradient>
<linearGradient id="paint47_linear_231_10634" x1="1510.98" y1="-2281.63" x2="1495.6" y2="-2153.27" gradientUnits="userSpaceOnUse">
<stop stop-color="#FF928E"/>
<stop offset="1" stop-color="#FEB3B1"/>
</linearGradient>
<linearGradient id="paint48_linear_231_10634" x1="1129.37" y1="607.76" x2="1221.01" y2="427.42" gradientUnits="userSpaceOnUse">
<stop stop-color="#4042E2"/>
<stop offset="1" stop-color="#4F52FF"/>
</linearGradient>
<linearGradient id="paint49_linear_231_10634" x1="1220.8" y1="439.3" x2="1027.19" y2="640.31" gradientUnits="userSpaceOnUse">
<stop stop-color="#4042E2"/>
<stop offset="1" stop-color="#4F52FF"/>
</linearGradient>
<linearGradient id="paint50_linear_231_10634" x1="1302.01" y1="686.42" x2="1009.32" y2="1147.61" gradientUnits="userSpaceOnUse">
<stop stop-color="#FE7062"/>
<stop offset="1" stop-color="#FF928E"/>
</linearGradient>
<linearGradient id="paint51_linear_231_10634" x1="1150.2" y1="859.08" x2="1412.2" y2="755.08" gradientUnits="userSpaceOnUse">
<stop stop-color="#FF928E"/>
<stop offset="1" stop-color="#FEB3B1"/>
</linearGradient>
<linearGradient id="paint52_linear_231_10634" x1="1085.89" y1="713.74" x2="984.481" y2="1136.31" gradientUnits="userSpaceOnUse">
<stop stop-color="#4042E2"/>
<stop offset="1" stop-color="#4F52FF"/>
</linearGradient>
<linearGradient id="paint53_linear_231_10634" x1="1026.79" y1="689.69" x2="1064.47" y2="689.69" gradientUnits="userSpaceOnUse">
<stop stop-color="#DAE3FE"/>
<stop offset="1" stop-color="#E9EFFD"/>
</linearGradient>
<linearGradient id="paint54_linear_231_10634" x1="10306.9" y1="6562.92" x2="10074.9" y2="6416.92" gradientUnits="userSpaceOnUse">
<stop stop-color="#FF928E"/>
<stop offset="1" stop-color="#FEB3B1"/>
</linearGradient>
<linearGradient id="paint55_linear_231_10634" x1="951.289" y1="904.61" x2="1448.63" y2="602.279" gradientUnits="userSpaceOnUse">
<stop stop-color="#E1473D"/>
<stop offset="1" stop-color="#E9605A"/>
</linearGradient>
<linearGradient id="paint56_linear_231_10634" x1="1272.04" y1="626.71" x2="1174.49" y2="789.29" gradientUnits="userSpaceOnUse">
<stop stop-color="#E1473D"/>
<stop offset="1" stop-color="#E9605A"/>
</linearGradient>
<linearGradient id="paint57_linear_231_10634" x1="1857.23" y1="1022.63" x2="1793.23" y2="1476.63" gradientUnits="userSpaceOnUse">
<stop stop-color="#09005D"/>
<stop offset="1" stop-color="#1A0F91"/>
</linearGradient>
<linearGradient id="paint58_linear_231_10634" x1="2167.24" y1="1264.96" x2="2147.86" y2="1340.69" gradientUnits="userSpaceOnUse">
<stop stop-color="#09005D"/>
<stop offset="1" stop-color="#1A0F91"/>
</linearGradient>
<linearGradient id="paint59_linear_231_10634" x1="1830.64" y1="1186.94" x2="1804.97" y2="1743.04" gradientUnits="userSpaceOnUse">
<stop stop-color="#4042E2"/>
<stop offset="1" stop-color="#4F52FF"/>
</linearGradient>
<linearGradient id="paint60_linear_231_10634" x1="1510.64" y1="1129.4" x2="2151.39" y2="1129.4" gradientUnits="userSpaceOnUse">
<stop stop-color="#DAE3FE"/>
<stop offset="1" stop-color="#E9EFFD"/>
</linearGradient>
<linearGradient id="paint61_linear_231_10634" x1="1409.11" y1="1235.32" x2="1389.48" y2="1660.51" gradientUnits="userSpaceOnUse">
<stop stop-color="#4042E2"/>
<stop offset="1" stop-color="#4F52FF"/>
</linearGradient>
<linearGradient id="paint62_linear_231_10634" x1="1413.72" y1="1048.15" x2="1489.46" y2="1048.15" gradientUnits="userSpaceOnUse">
<stop stop-color="#09005D"/>
<stop offset="1" stop-color="#1A0F91"/>
</linearGradient>
<linearGradient id="paint63_linear_231_10634" x1="1467.47" y1="1773.8" x2="1425.47" y2="1421.81" gradientUnits="userSpaceOnUse">
<stop stop-color="#09005D"/>
<stop offset="1" stop-color="#1A0F91"/>
</linearGradient>
<linearGradient id="paint64_linear_231_10634" x1="1390.49" y1="1272.52" x2="1449.59" y2="1369.34" gradientUnits="userSpaceOnUse">
<stop stop-color="#09005D"/>
<stop offset="1" stop-color="#1A0F91"/>
</linearGradient>
<linearGradient id="paint65_linear_231_10634" x1="2012.76" y1="1708.91" x2="1970.76" y2="1356.91" gradientUnits="userSpaceOnUse">
<stop stop-color="#09005D"/>
<stop offset="1" stop-color="#1A0F91"/>
</linearGradient>
<linearGradient id="paint66_linear_231_10634" x1="1943.53" y1="1274.23" x2="2002.62" y2="1371.06" gradientUnits="userSpaceOnUse">
<stop stop-color="#09005D"/>
<stop offset="1" stop-color="#1A0F91"/>
</linearGradient>
<linearGradient id="paint67_linear_231_10634" x1="1615.92" y1="1274.01" x2="1675.02" y2="1370.84" gradientUnits="userSpaceOnUse">
<stop stop-color="#09005D"/>
<stop offset="1" stop-color="#1A0F91"/>
</linearGradient>
<linearGradient id="paint68_linear_231_10634" x1="2143.55" y1="1692.93" x2="2101.55" y2="1340.93" gradientUnits="userSpaceOnUse">
<stop stop-color="#09005D"/>
<stop offset="1" stop-color="#1A0F91"/>
</linearGradient>
<linearGradient id="paint69_linear_231_10634" x1="2076.52" y1="1274.2" x2="2135.62" y2="1371.03" gradientUnits="userSpaceOnUse">
<stop stop-color="#09005D"/>
<stop offset="1" stop-color="#1A0F91"/>
</linearGradient>
<clipPath id="clip0_231_10634">
<rect width="2268.37" height="1410.78" fill="white"/>
</clipPath>
</defs>
</svg>
